  0
SECTION
  2
HEADER
  9
$ANGBASE
  50
0.0
  9
$ANGDIR
  70
1
  9
$MEASUREMENT
  70
1
  0
ENDSEC
  0
SECTION
  2
TABLES
  0
TABLE
  2
LTYPE
  70
4
  0
LTYPE
  5
40F
  2
CONTINUOUS
  70
0
  3
Solid line
  72
65
  73
0
  40
0.0
  0
LTYPE
  5
410
  2
DASHDOT
 70
0
  3
Dash Dot ____ _ ____ _
 72
65
 73
4
 40
2.0
 49
1.25
 49
-0.25
 49
0.25
 49
-0.25
  0
LTYPE
  5
411
  2
DASHED
 70
0
  3
Dashed __ __ __ __ __
 72
65
 73
2
 40
0.75
 49
0.5
 49
-0.25
  0
LTYPE
  5
43B
  2
DOTTED
 70
0
  3
Dotted .  .  .  .
 72
65
 73
2
 40
0.2
 49
0.0
 49
-0.2
  0
ENDTAB
  0
TABLE
  2
STYLE
  70
4
  0
STYLE
  2
KICAD
  70
0
  40
0
  41
1
  42
1
  50
0
  71
0
  3
isocp.shx
  0
STYLE
  2
KICADB
  70
0
  40
0
  41
1
  42
1
  50
0
  71
0
  3
isocp.shx
  0
STYLE
  2
KICADI
  70
0
  40
0
  41
1
  42
1
  50
15
  71
0
  3
isocp.shx
  0
STYLE
  2
KICADBI
  70
0
  40
0
  41
1
  42
1
  50
15
  71
0
  3
isocp.shx
  0
ENDTAB
  0
TABLE
  2
LAYER
  70
1
  0
LAYER
  2
BLACK
  70
0
  62
7
  6
CONTINUOUS
  0
ENDTAB
  0
ENDSEC
  0
SECTION
  2
ENTITIES
0
LINE
8
BLACK
6
CONTINUOUS
10
151.603
20
-48.9169
11
141.519
21
-48.9169
0
LINE
8
BLACK
6
CONTINUOUS
10
151.603
20
-95.0179
11
151.603
21
-48.9169
0
LINE
8
BLACK
6
CONTINUOUS
10
141.519
20
-95.0179
11
151.603
21
-95.0179
0
LINE
8
BLACK
6
CONTINUOUS
10
141.519
20
-48.9169
11
141.519
21
-95.0179
0
ARC
8
BLACK
10
117.225
20
-60.075
40
0.5
50
-90
51
-0
0
ARC
8
BLACK
10
60.075
20
-47.075
40
0.5
50
-0
51
90
0
ARC
8
BLACK
10
226.762
20
-60.075
40
0.5
50
-90
51
-0
0
LINE
8
BLACK
6
CONTINUOUS
10
227.262
20
-47.075
11
227.262
21
-60.075
0
LINE
8
BLACK
6
CONTINUOUS
10
47.075
20
-60.575
11
60.075
21
-60.575
0
LINE
8
BLACK
6
CONTINUOUS
10
117.725
20
-47.075
11
117.725
21
-60.075
0
LINE
8
BLACK
6
CONTINUOUS
10
79.625
20
-47.075
11
79.625
21
-60.075
0
ARC
8
BLACK
10
188.662
20
-60.075
40
0.5
50
-90
51
-0
0
ARC
8
BLACK
10
98.175
20
-60.075
40
0.5
50
-90
51
-0
0
ARC
8
BLACK
10
41.025
20
-60.075
40
0.5
50
-90
51
-0
0
ARC
8
BLACK
10
25
20
-120.25
40
3
50
180
51
270
0
LINE
8
BLACK
6
CONTINUOUS
10
232.812
20
-60.575
11
245.812
21
-60.575
0
ARC
8
BLACK
10
232.812
20
-60.075
40
0.5
50
180
51
270
0
ARC
8
BLACK
10
28.025
20
-60.075
40
0.5
50
180
51
270
0
ARC
8
BLACK
10
66.125
20
-47.075
40
0.5
50
90
51
180
0
LINE
8
BLACK
6
CONTINUOUS
10
270.887
20
-85.15
11
270.887
21
-120.25
0
ARC
8
BLACK
10
188.662
20
-47.075
40
0.5
50
-0
51
90
0
LINE
8
BLACK
6
CONTINUOUS
10
251.862
20
-79.625
11
264.862
21
-79.625
0
ARC
8
BLACK
10
205.388
20
-123.25
40
3
50
180
51
360
0
LINE
8
BLACK
6
CONTINUOUS
10
90.6632
20
-123.25
11
202.388
21
-123.25
0
ARC
8
BLACK
10
270.887
20
-82.15
40
3
50
-90
51
90
0
LINE
8
BLACK
6
CONTINUOUS
10
270.887
20
-44.05
11
270.887
21
-79.15
0
LINE
8
BLACK
6
CONTINUOUS
10
22
20
-25
11
22
21
-69.625
0
LINE
8
BLACK
6
CONTINUOUS
10
25
20
-123.25
11
84.6632
21
-123.25
0
LINE
8
BLACK
6
CONTINUOUS
10
208.388
20
-123.25
11
267.887
21
-123.25
0
ARC
8
BLACK
10
22
20
-72.625
40
3
50
90
51
270
0
LINE
8
BLACK
6
CONTINUOUS
10
22
20
-75.625
11
22
21
-120.25
0
ARC
8
BLACK
10
87.6632
20
-123.25
40
3
50
180
51
360
0
LINE
8
BLACK
6
CONTINUOUS
10
41.525
20
-66.125
11
41.525
21
-79.125
0
ARC
8
BLACK
10
251.862
20
-47.075
40
0.5
50
90
51
180
0
ARC
8
BLACK
10
264.862
20
-98.175
40
0.5
50
-90
51
-0
0
LINE
8
BLACK
6
CONTINUOUS
10
28.025
20
-65.625
11
41.025
21
-65.625
0
ARC
8
BLACK
10
207.712
20
-79.125
40
0.5
50
-90
51
-0
0
ARC
8
BLACK
10
251.862
20
-98.175
40
0.5
50
180
51
270
0
LINE
8
BLACK
6
CONTINUOUS
10
194.712
20
-60.575
11
207.712
21
-60.575
0
LINE
8
BLACK
6
CONTINUOUS
10
28.025
20
-79.625
11
41.025
21
-79.625
0
ARC
8
BLACK
10
264.862
20
-60.075
40
0.5
50
-90
51
-0
0
ARC
8
BLACK
10
85.175
20
-98.175
40
0.5
50
180
51
270
0
ARC
8
BLACK
10
213.762
20
-79.125
40
0.5
50
180
51
270
0
ARC
8
BLACK
10
79.125
20
-66.125
40
0.5
50
-0
51
90
0
ARC
8
BLACK
10
60.075
20
-85.175
40
0.5
50
-0
51
90
0
LINE
8
BLACK
6
CONTINUOUS
10
251.362
20
-47.075
11
251.362
21
-60.075
0
ARC
8
BLACK
10
166.112
20
-117.225
40
0.5
50
-90
51
-0
0
ARC
8
BLACK
10
245.812
20
-47.075
40
0.5
50
-0
51
90
0
LINE
8
BLACK
6
CONTINUOUS
10
213.262
20
-66.125
11
213.262
21
-79.125
0
LINE
8
BLACK
6
CONTINUOUS
10
265.363
20
-47.075
11
265.363
21
-60.075
0
ARC
8
BLACK
10
213.762
20
-47.075
40
0.5
50
90
51
180
0
ARC
8
BLACK
10
226.762
20
-47.075
40
0.5
50
-0
51
90
0
LINE
8
BLACK
6
CONTINUOUS
10
104.225
20
-98.675
11
117.225
21
-98.675
0
ARC
8
BLACK
10
98.175
20
-98.175
40
0.5
50
-90
51
-0
0
LINE
8
BLACK
6
CONTINUOUS
10
194.712
20
-46.575
11
207.712
21
-46.575
0
LINE
8
BLACK
6
CONTINUOUS
10
46.575
20
-104.225
11
46.575
21
-117.225
0
LINE
8
BLACK
6
CONTINUOUS
10
175.662
20
-46.575
11
188.662
21
-46.575
0
LINE
8
BLACK
6
CONTINUOUS
10
175.662
20
-60.575
11
188.662
21
-60.575
0
ARC
8
BLACK
10
104.225
20
-79.125
40
0.5
50
180
51
270
0
LINE
8
BLACK
6
CONTINUOUS
10
28.025
20
-103.725
11
41.025
21
-103.725
0
LINE
8
BLACK
6
CONTINUOUS
10
213.762
20
-65.625
11
226.762
21
-65.625
0
LINE
8
BLACK
6
CONTINUOUS
10
47.075
20
-65.625
11
60.075
21
-65.625
0
ARC
8
BLACK
10
47.075
20
-85.175
40
0.5
50
90
51
180
0
LINE
8
BLACK
6
CONTINUOUS
10
246.312
20
-66.125
11
246.312
21
-79.125
0
LINE
8
BLACK
6
CONTINUOUS
10
213.762
20
-103.725
11
226.762
21
-103.725
0
LINE
8
BLACK
6
CONTINUOUS
10
213.262
20
-104.225
11
213.262
21
-117.225
0
ARC
8
BLACK
10
213.762
20
-60.075
40
0.5
50
180
51
270
0
LINE
8
BLACK
6
CONTINUOUS
10
213.262
20
-47.075
11
213.262
21
-60.075
0
LINE
8
BLACK
6
CONTINUOUS
10
213.762
20
-117.725
11
226.762
21
-117.725
0
LINE
8
BLACK
6
CONTINUOUS
10
227.262
20
-104.225
11
227.262
21
-117.225
0
ARC
8
BLACK
10
47.075
20
-104.225
40
0.5
50
90
51
180
0
LINE
8
BLACK
6
CONTINUOUS
10
104.225
20
-65.625
11
117.225
21
-65.625
0
LINE
8
BLACK
6
CONTINUOUS
10
28.025
20
-117.725
11
41.025
21
-117.725
0
ARC
8
BLACK
10
207.712
20
-47.075
40
0.5
50
-0
51
90
0
LINE
8
BLACK
6
CONTINUOUS
10
85.175
20
-60.575
11
98.175
21
-60.575
0
LINE
8
BLACK
6
CONTINUOUS
10
27.525
20
-66.125
11
27.525
21
-79.125
0
ARC
8
BLACK
10
41.025
20
-79.125
40
0.5
50
-90
51
-0
0
LINE
8
BLACK
6
CONTINUOUS
10
189.162
20
-47.075
11
189.162
21
-60.075
0
ARC
8
BLACK
10
245.812
20
-85.175
40
0.5
50
-0
51
90
0
ARC
8
BLACK
10
79.125
20
-79.125
40
0.5
50
-90
51
-0
0
ARC
8
BLACK
10
213.762
20
-104.225
40
0.5
50
90
51
180
0
LINE
8
BLACK
6
CONTINUOUS
10
60.575
20
-104.225
11
60.575
21
-117.225
0
ARC
8
BLACK
10
123.275
20
-66.125
40
0.500001
50
90
51
180
0
ARC
8
BLACK
10
175.662
20
-47.075
40
0.5
50
90
51
180
0
LINE
8
BLACK
6
CONTINUOUS
10
104.225
20
-84.675
11
117.225
21
-84.675
0
LINE
8
BLACK
6
CONTINUOUS
10
175.162
20
-85.175
11
175.162
21
-98.175
0
LINE
8
BLACK
6
CONTINUOUS
10
251.862
20
-103.725
11
264.862
21
-103.725
0
LINE
8
BLACK
6
CONTINUOUS
10
251.862
20
-117.725
11
264.862
21
-117.725
0
ARC
8
BLACK
10
207.712
20
-85.175
40
0.5
50
-0
51
90
0
LINE
8
BLACK
6
CONTINUOUS
10
197.712
20
-103.225
11
197.712
21
-117.225
0
ARC
8
BLACK
10
194.712
20
-98.175
40
0.5
50
180
51
270
0
ARC
8
BLACK
10
85.175
20
-66.125
40
0.500001
50
90
51
180
0
ARC
8
BLACK
10
232.812
20
-117.225
40
0.5
50
180
51
270
0
LINE
8
BLACK
6
CONTINUOUS
10
103.725
20
-104.225
11
103.725
21
-117.225
0
LINE
8
BLACK
6
CONTINUOUS
10
208.212
20
-85.175
11
208.212
21
-98.175
0
LINE
8
BLACK
6
CONTINUOUS
10
265.363
20
-104.225
11
265.363
21
-117.225
0
LINE
8
BLACK
6
CONTINUOUS
10
156.612
20
-84.675
11
169.612
21
-84.675
0
ARC
8
BLACK
10
117.225
20
-117.225
40
0.5
50
-90
51
-0
0
LINE
8
BLACK
6
CONTINUOUS
10
88.615
20
-102.725
11
94.615
21
-102.725
0
ARC
8
BLACK
10
156.612
20
-98.175
40
0.5
50
180
51
270
0
LINE
8
BLACK
6
CONTINUOUS
10
213.762
20
-98.675
11
226.762
21
-98.675
0
LINE
8
BLACK
6
CONTINUOUS
10
156.112
20
-85.175
11
156.112
21
-98.175
0
ARC
8
BLACK
10
213.762
20
-98.175
40
0.5
50
180
51
270
0
ARC
8
BLACK
10
213.762
20
-117.225
40
0.5
50
180
51
270
0
ARC
8
BLACK
10
60.075
20
-79.125
40
0.5
50
-90
51
-0
0
LINE
8
BLACK
6
CONTINUOUS
10
246.312
20
-85.175
11
246.312
21
-98.175
0
LINE
8
BLACK
6
CONTINUOUS
10
84.675
20
-66.125
11
84.675
21
-79.125
0
LINE
8
BLACK
6
CONTINUOUS
10
123.275
20
-98.675
11
136.275
21
-98.675
0
ARC
8
BLACK
10
232.812
20
-85.175
40
0.5
50
90
51
180
0
ARC
8
BLACK
10
166.112
20
-103.225
40
0.5
50
-0
51
90
0
LINE
8
BLACK
6
CONTINUOUS
10
246.312
20
-104.225
11
246.312
21
-117.225
0
ARC
8
BLACK
10
264.862
20
-117.225
40
0.5
50
-90
51
-0
0
LINE
8
BLACK
6
CONTINUOUS
10
194.212
20
-85.175
11
194.212
21
-98.175
0
ARC
8
BLACK
10
126.775
20
-103.225
40
0.5
50
90
51
180
0
LINE
8
BLACK
6
CONTINUOUS
10
227.262
20
-66.125
11
227.262
21
-79.125
0
LINE
8
BLACK
6
CONTINUOUS
10
85.175
20
-79.625
11
98.175
21
-79.625
0
ARC
8
BLACK
10
104.225
20
-117.225
40
0.5
50
180
51
270
0
ARC
8
BLACK
10
245.812
20
-104.225
40
0.5
50
-0
51
90
0
ARC
8
BLACK
10
104.225
20
-104.225
40
0.5
50
90
51
180
0
ARC
8
BLACK
10
226.762
20
-117.225
40
0.5
50
-90
51
-0
0
LINE
8
BLACK
6
CONTINUOUS
10
175.662
20
-103.725
11
188.662
21
-103.725
0
LINE
8
BLACK
6
CONTINUOUS
10
66.125
20
-79.625
11
79.125
21
-79.625
0
ARC
8
BLACK
10
207.712
20
-60.075
40
0.5
50
-90
51
-0
0
ARC
8
BLACK
10
251.862
20
-104.225
40
0.5
50
90
51
180
0
LINE
8
BLACK
6
CONTINUOUS
10
28.025
20
-84.675
11
41.025
21
-84.675
0
LINE
8
BLACK
6
CONTINUOUS
10
47.075
20
-79.625
11
60.075
21
-79.625
0
ARC
8
BLACK
10
232.812
20
-104.225
40
0.5
50
90
51
180
0
LINE
8
BLACK
6
CONTINUOUS
10
156.612
20
-65.625
11
169.612
21
-65.625
0
LINE
8
BLACK
6
CONTINUOUS
10
232.312
20
-85.175
11
232.312
21
-98.175
0
LINE
8
BLACK
6
CONTINUOUS
10
232.312
20
-104.225
11
232.312
21
-117.225
0
LINE
8
BLACK
6
CONTINUOUS
10
251.362
20
-104.225
11
251.362
21
-117.225
0
ARC
8
BLACK
10
251.862
20
-117.225
40
0.5
50
180
51
270
0
LINE
8
BLACK
6
CONTINUOUS
10
85.175
20
-65.625
11
98.175
21
-65.625
0
LINE
8
BLACK
6
CONTINUOUS
10
117.725
20
-104.225
11
117.725
21
-117.225
0
LINE
8
BLACK
6
CONTINUOUS
10
160.112
20
-117.725
11
166.112
21
-117.725
0
ARC
8
BLACK
10
66.125
20
-79.125
40
0.5
50
180
51
270
0
ARC
8
BLACK
10
264.862
20
-104.225
40
0.500001
50
-0
51
90
0
LINE
8
BLACK
6
CONTINUOUS
10
123.275
20
-79.625
11
136.275
21
-79.625
0
ARC
8
BLACK
10
136.275
20
-98.175
40
0.5
50
-90
51
-0
0
LINE
8
BLACK
6
CONTINUOUS
10
123.275
20
-84.675
11
136.275
21
-84.675
0
ARC
8
BLACK
10
188.662
20
-98.175
40
0.5
50
-90
51
-0
0
ARC
8
BLACK
10
264.862
20
-47.075
40
0.500001
50
-0
51
90
0
LINE
8
BLACK
6
CONTINUOUS
10
189.162
20
-104.225
11
189.162
21
-117.225
0
ARC
8
BLACK
10
226.762
20
-104.225
40
0.5
50
-0
51
90
0
ARC
8
BLACK
10
175.662
20
-117.225
40
0.5
50
180
51
270
0
LINE
8
BLACK
6
CONTINUOUS
10
232.812
20
-103.725
11
245.812
21
-103.725
0
ARC
8
BLACK
10
245.812
20
-117.225
40
0.5
50
-90
51
-0
0
ARC
8
BLACK
10
94.615
20
-117.225
40
0.5
50
-90
51
-0
0
LINE
8
BLACK
6
CONTINUOUS
10
232.812
20
-117.725
11
245.812
21
-117.725
0
LINE
8
BLACK
6
CONTINUOUS
10
251.362
20
-85.175
11
251.362
21
-98.175
0
LINE
8
BLACK
6
CONTINUOUS
10
27.525
20
-104.225
11
27.525
21
-117.225
0
LINE
8
BLACK
6
CONTINUOUS
10
98.675
20
-66.125
11
98.675
21
-79.125
0
LINE
8
BLACK
6
CONTINUOUS
10
126.275
20
-103.225
11
126.275
21
-117.225
0
LINE
8
BLACK
6
CONTINUOUS
10
213.262
20
-85.175
11
213.262
21
-98.175
0
LINE
8
BLACK
6
CONTINUOUS
10
88.115
20
-103.225
11
88.115
21
-117.225
0
ARC
8
BLACK
10
136.275
20
-66.125
40
0.5
50
-0
51
90
0
ARC
8
BLACK
10
136.275
20
-79.125
40
0.5
50
-90
51
-0
0
ARC
8
BLACK
10
194.712
20
-85.175
40
0.5
50
90
51
180
0
ARC
8
BLACK
10
66.125
20
-66.125
40
0.500001
50
90
51
180
0
LINE
8
BLACK
6
CONTINUOUS
10
156.612
20
-98.675
11
169.612
21
-98.675
0
ARC
8
BLACK
10
160.112
20
-117.225
40
0.500001
50
180
51
270
0
ARC
8
BLACK
10
188.662
20
-85.175
40
0.5
50
-0
51
90
0
ARC
8
BLACK
10
245.812
20
-98.175
40
0.5
50
-90
51
-0
0
LINE
8
BLACK
6
CONTINUOUS
10
156.612
20
-79.625
11
169.612
21
-79.625
0
ARC
8
BLACK
10
117.225
20
-79.125
40
0.5
50
-90
51
-0
0
ARC
8
BLACK
10
264.862
20
-85.175
40
0.500001
50
-0
51
90
0
ARC
8
BLACK
10
232.812
20
-98.175
40
0.5
50
180
51
270
0
ARC
8
BLACK
10
226.762
20
-85.175
40
0.5
50
-0
51
90
0
ARC
8
BLACK
10
226.762
20
-66.125
40
0.5
50
-0
51
90
0
LINE
8
BLACK
6
CONTINUOUS
10
160.112
20
-102.725
11
166.112
21
-102.725
0
ARC
8
BLACK
10
88.615
20
-117.225
40
0.500001
50
180
51
270
0
LINE
8
BLACK
6
CONTINUOUS
10
189.162
20
-85.175
11
189.162
21
-98.175
0
LINE
8
BLACK
6
CONTINUOUS
10
60.575
20
-66.125
11
60.575
21
-79.125
0
ARC
8
BLACK
10
198.212
20
-117.225
40
0.5
50
180
51
270
0
LINE
8
BLACK
6
CONTINUOUS
10
175.162
20
-104.225
11
175.162
21
-117.225
0
ARC
8
BLACK
10
126.775
20
-117.225
40
0.500001
50
180
51
270
0
ARC
8
BLACK
10
132.775
20
-103.225
40
0.499999
50
-0
51
90
0
ARC
8
BLACK
10
207.712
20
-98.175
40
0.5
50
-90
51
-0
0
LINE
8
BLACK
6
CONTINUOUS
10
46.575
20
-66.125
11
46.575
21
-79.125
0
LINE
8
BLACK
6
CONTINUOUS
10
41.525
20
-104.225
11
41.525
21
-117.225
0
ARC
8
BLACK
10
226.762
20
-98.175
40
0.5
50
-90
51
-0
0
LINE
8
BLACK
6
CONTINUOUS
10
95.115
20
-103.225
11
95.115
21
-117.225
0
LINE
8
BLACK
6
CONTINUOUS
10
170.112
20
-85.175
11
170.112
21
-98.175
0
ARC
8
BLACK
10
175.662
20
-85.175
40
0.5
50
90
51
180
0
ARC
8
BLACK
10
60.075
20
-66.125
40
0.5
50
-0
51
90
0
LINE
8
BLACK
6
CONTINUOUS
10
126.775
20
-117.725
11
132.775
21
-117.725
0
LINE
8
BLACK
6
CONTINUOUS
10
123.275
20
-65.625
11
136.275
21
-65.625
0
LINE
8
BLACK
6
CONTINUOUS
10
133.275
20
-103.225
11
133.275
21
-117.225
0
ARC
8
BLACK
10
204.212
20
-103.225
40
0.5
50
-0
51
90
0
LINE
8
BLACK
6
CONTINUOUS
10
175.662
20
-84.675
11
188.662
21
-84.675
0
LINE
8
BLACK
6
CONTINUOUS
10
88.615
20
-117.725
11
94.615
21
-117.725
0
LINE
8
BLACK
6
CONTINUOUS
10
213.762
20
-84.675
11
226.762
21
-84.675
0
ARC
8
BLACK
10
175.662
20
-98.175
40
0.5
50
180
51
270
0
LINE
8
BLACK
6
CONTINUOUS
10
66.125
20
-65.625
11
79.125
21
-65.625
0
ARC
8
BLACK
10
251.862
20
-60.075
40
0.5
50
180
51
270
0
LINE
8
BLACK
6
CONTINUOUS
10
175.662
20
-98.675
11
188.662
21
-98.675
0
ARC
8
BLACK
10
94.615
20
-103.225
40
0.5
50
-0
51
90
0
ARC
8
BLACK
10
204.212
20
-117.225
40
0.5
50
-90
51
-0
0
LINE
8
BLACK
6
CONTINUOUS
10
194.712
20
-84.675
11
207.712
21
-84.675
0
ARC
8
BLACK
10
213.762
20
-85.175
40
0.5
50
90
51
180
0
LINE
8
BLACK
6
CONTINUOUS
10
198.212
20
-117.725
11
204.212
21
-117.725
0
LINE
8
BLACK
6
CONTINUOUS
10
122.775
20
-66.125
11
122.775
21
-79.125
0
LINE
8
BLACK
6
CONTINUOUS
10
198.212
20
-102.725
11
204.212
21
-102.725
0
LINE
8
BLACK
6
CONTINUOUS
10
175.662
20
-117.725
11
188.662
21
-117.725
0
ARC
8
BLACK
10
188.662
20
-104.225
40
0.5
50
-0
51
90
0
ARC
8
BLACK
10
88.615
20
-103.225
40
0.5
50
90
51
180
0
LINE
8
BLACK
6
CONTINUOUS
10
126.775
20
-102.725
11
132.775
21
-102.725
0
ARC
8
BLACK
10
156.612
20
-85.175
40
0.5
50
90
51
180
0
ARC
8
BLACK
10
251.862
20
-85.175
40
0.5
50
90
51
180
0
LINE
8
BLACK
6
CONTINUOUS
10
265.363
20
-85.175
11
265.363
21
-98.175
0
LINE
8
BLACK
6
CONTINUOUS
10
227.262
20
-85.175
11
227.262
21
-98.175
0
ARC
8
BLACK
10
169.612
20
-98.175
40
0.5
50
-90
51
-0
0
LINE
8
BLACK
6
CONTINUOUS
10
159.612
20
-103.225
11
159.612
21
-117.225
0
ARC
8
BLACK
10
85.175
20
-79.125
40
0.5
50
180
51
270
0
ARC
8
BLACK
10
156.612
20
-79.125
40
0.5
50
180
51
270
0
LINE
8
BLACK
6
CONTINUOUS
10
156.612
20
-60.575
11
169.612
21
-60.575
0
LINE
8
BLACK
6
CONTINUOUS
10
232.812
20
-98.675
11
245.812
21
-98.675
0
LINE
8
BLACK
6
CONTINUOUS
10
251.862
20
-98.675
11
264.862
21
-98.675
0
LINE
8
BLACK
6
CONTINUOUS
10
204.712
20
-103.225
11
204.712
21
-117.225
0
ARC
8
BLACK
10
47.075
20
-66.125
40
0.500001
50
90
51
180
0
LINE
8
BLACK
6
CONTINUOUS
10
251.862
20
-84.675
11
264.862
21
-84.675
0
ARC
8
BLACK
10
232.812
20
-47.075
40
0.5
50
90
51
180
0
LINE
8
BLACK
6
CONTINUOUS
10
166.612
20
-103.225
11
166.612
21
-117.225
0
ARC
8
BLACK
10
194.712
20
-47.075
40
0.5
50
90
51
180
0
ARC
8
BLACK
10
136.275
20
-85.175
40
0.5
50
-0
51
90
0
LINE
8
BLACK
6
CONTINUOUS
10
213.762
20
-46.575
11
226.762
21
-46.575
0
ARC
8
BLACK
10
47.075
20
-79.125
40
0.5
50
180
51
270
0
LINE
8
BLACK
6
CONTINUOUS
10
189.162
20
-66.125
11
189.162
21
-79.125
0
LINE
8
BLACK
6
CONTINUOUS
10
46.575
20
-85.175
11
46.575
21
-98.175
0
ARC
8
BLACK
10
213.762
20
-66.125
40
0.500001
50
90
51
180
0
ARC
8
BLACK
10
132.775
20
-117.225
40
0.5
50
-90
51
-0
0
LINE
8
BLACK
6
CONTINUOUS
10
136.775
20
-66.125
11
136.775
21
-79.125
0
LINE
8
BLACK
6
CONTINUOUS
10
251.862
20
-60.575
11
264.862
21
-60.575
0
ARC
8
BLACK
10
28.025
20
-98.175
40
0.5
50
180
51
270
0
ARC
8
BLACK
10
175.662
20
-104.225
40
0.5
50
90
51
180
0
ARC
8
BLACK
10
175.662
20
-66.125
40
0.500001
50
90
51
180
0
ARC
8
BLACK
10
79.125
20
-104.225
40
0.5
50
-0
51
90
0
LINE
8
BLACK
6
CONTINUOUS
10
175.162
20
-66.125
11
175.162
21
-79.125
0
ARC
8
BLACK
10
194.712
20
-79.125
40
0.5
50
180
51
270
0
LINE
8
BLACK
6
CONTINUOUS
10
27.525
20
-85.175
11
27.525
21
-98.175
0
LINE
8
BLACK
6
CONTINUOUS
10
79.625
20
-66.125
11
79.625
21
-79.125
0
LINE
8
BLACK
6
CONTINUOUS
10
28.025
20
-98.675
11
41.025
21
-98.675
0
LINE
8
BLACK
6
CONTINUOUS
10
47.075
20
-98.675
11
60.075
21
-98.675
0
LINE
8
BLACK
6
CONTINUOUS
10
213.762
20
-60.575
11
226.762
21
-60.575
0
LINE
8
BLACK
6
CONTINUOUS
10
65.625
20
-66.125
11
65.625
21
-79.125
0
ARC
8
BLACK
10
169.612
20
-85.175
40
0.5
50
-0
51
90
0
ARC
8
BLACK
10
160.112
20
-103.225
40
0.5
50
90
51
180
0
LINE
8
BLACK
6
CONTINUOUS
10
232.812
20
-84.675
11
245.812
21
-84.675
0
ARC
8
BLACK
10
85.175
20
-47.075
40
0.5
50
90
51
180
0
ARC
8
BLACK
10
66.125
20
-104.225
40
0.5
50
90
51
180
0
LINE
8
BLACK
6
CONTINUOUS
10
208.212
20
-47.075
11
208.212
21
-60.075
0
LINE
8
BLACK
6
CONTINUOUS
10
104.225
20
-117.725
11
117.225
21
-117.725
0
LINE
8
BLACK
6
CONTINUOUS
10
104.225
20
-79.625
11
117.225
21
-79.625
0
ARC
8
BLACK
10
198.212
20
-103.225
40
0.5
50
90
51
180
0
ARC
8
BLACK
10
41.025
20
-66.125
40
0.5
50
-0
51
90
0
ARC
8
BLACK
10
123.275
20
-98.175
40
0.5
50
180
51
270
0
ARC
8
BLACK
10
188.662
20
-117.225
40
0.5
50
-90
51
-0
0
LINE
8
BLACK
6
CONTINUOUS
10
194.712
20
-98.675
11
207.712
21
-98.675
0
LINE
8
BLACK
6
CONTINUOUS
10
194.212
20
-47.075
11
194.212
21
-60.075
0
ARC
8
BLACK
10
169.612
20
-79.125
40
0.5
50
-90
51
-0
0
ARC
8
BLACK
10
117.225
20
-104.225
40
0.5
50
-0
51
90
0
ARC
8
BLACK
10
207.712
20
-66.125
40
0.5
50
-0
51
90
0
ARC
8
BLACK
10
79.125
20
-117.225
40
0.5
50
-90
51
-0
0
ARC
8
BLACK
10
60.075
20
-104.225
40
0.5
50
-0
51
90
0
ARC
8
BLACK
10
98.175
20
-66.125
40
0.500001
50
-0
51
90
0
ARC
8
BLACK
10
66.125
20
-117.225
40
0.5
50
180
51
270
0
LINE
8
BLACK
6
CONTINUOUS
10
194.712
20
-65.625
11
207.712
21
-65.625
0
ARC
8
BLACK
10
117.225
20
-98.175
40
0.5
50
-90
51
-0
0
ARC
8
BLACK
10
60.075
20
-117.225
40
0.5
50
-90
51
-0
0
LINE
8
BLACK
6
CONTINUOUS
10
251.362
20
-66.125
11
251.362
21
-79.125
0
LINE
8
BLACK
6
CONTINUOUS
10
232.312
20
-66.125
11
232.312
21
-79.125
0
LINE
8
BLACK
6
CONTINUOUS
10
65.625
20
-85.175
11
65.625
21
-98.175
0
ARC
8
BLACK
10
188.662
20
-79.125
40
0.5
50
-90
51
-0
0
ARC
8
BLACK
10
232.812
20
-66.125
40
0.500001
50
90
51
180
0
ARC
8
BLACK
10
104.225
20
-98.175
40
0.5
50
180
51
270
0
LINE
8
BLACK
6
CONTINUOUS
10
122.775
20
-85.175
11
122.775
21
-98.175
0
ARC
8
BLACK
10
188.662
20
-66.125
40
0.5
50
-0
51
90
0
LINE
8
BLACK
6
CONTINUOUS
10
156.112
20
-66.125
11
156.112
21
-79.125
0
ARC
8
BLACK
10
156.612
20
-66.125
40
0.500001
50
90
51
180
0
LINE
8
BLACK
6
CONTINUOUS
10
175.662
20
-65.625
11
188.662
21
-65.625
0
LINE
8
BLACK
6
CONTINUOUS
10
47.075
20
-103.725
11
60.075
21
-103.725
0
LINE
8
BLACK
6
CONTINUOUS
10
103.725
20
-85.175
11
103.725
21
-98.175
0
ARC
8
BLACK
10
28.025
20
-117.225
40
0.5
50
180
51
270
0
ARC
8
BLACK
10
41.025
20
-117.225
40
0.5
50
-90
51
-0
0
LINE
8
BLACK
6
CONTINUOUS
10
47.075
20
-84.675
11
60.075
21
-84.675
0
LINE
8
BLACK
6
CONTINUOUS
10
194.212
20
-66.125
11
194.212
21
-79.125
0
ARC
8
BLACK
10
264.862
20
-79.125
40
0.5
50
-90
51
-0
0
LINE
8
BLACK
6
CONTINUOUS
10
251.862
20
-46.575
11
264.862
21
-46.575
0
LINE
8
BLACK
6
CONTINUOUS
10
103.725
20
-66.125
11
103.725
21
-79.125
0
ARC
8
BLACK
10
28.025
20
-66.125
40
0.500001
50
90
51
180
0
LINE
8
BLACK
6
CONTINUOUS
10
175.662
20
-79.625
11
188.662
21
-79.625
0
LINE
8
BLACK
6
CONTINUOUS
10
66.125
20
-117.725
11
79.125
21
-117.725
0
LINE
8
BLACK
6
CONTINUOUS
10
66.125
20
-103.725
11
79.125
21
-103.725
0
ARC
8
BLACK
10
251.862
20
-79.125
40
0.5
50
180
51
270
0
LINE
8
BLACK
6
CONTINUOUS
10
117.725
20
-66.125
11
117.725
21
-79.125
0
LINE
8
BLACK
6
CONTINUOUS
10
65.625
20
-104.225
11
65.625
21
-117.225
0
LINE
8
BLACK
6
CONTINUOUS
10
251.862
20
-65.625
11
264.862
21
-65.625
0
ARC
8
BLACK
10
47.075
20
-117.225
40
0.5
50
180
51
270
0
ARC
8
BLACK
10
169.612
20
-66.125
40
0.5
50
-0
51
90
0
ARC
8
BLACK
10
117.225
20
-85.175
40
0.5
50
-0
51
90
0
ARC
8
BLACK
10
104.225
20
-85.175
40
0.5
50
90
51
180
0
ARC
8
BLACK
10
175.662
20
-79.125
40
0.5
50
180
51
270
0
ARC
8
BLACK
10
226.762
20
-79.125
40
0.5
50
-90
51
-0
0
LINE
8
BLACK
6
CONTINUOUS
10
104.225
20
-103.725
11
117.225
21
-103.725
0
ARC
8
BLACK
10
117.225
20
-66.125
40
0.5
50
-0
51
90
0
ARC
8
BLACK
10
245.812
20
-60.075
40
0.5
50
-90
51
-0
0
LINE
8
BLACK
6
CONTINUOUS
10
213.762
20
-79.625
11
226.762
21
-79.625
0
ARC
8
BLACK
10
28.025
20
-85.175
40
0.5
50
90
51
180
0
ARC
8
BLACK
10
232.812
20
-79.125
40
0.5
50
180
51
270
0
ARC
8
BLACK
10
123.275
20
-79.125
40
0.5
50
180
51
270
0
ARC
8
BLACK
10
245.812
20
-79.125
40
0.5
50
-90
51
-0
0
ARC
8
BLACK
10
104.225
20
-66.125
40
0.500001
50
90
51
180
0
ARC
8
BLACK
10
194.712
20
-66.125
40
0.500001
50
90
51
180
0
ARC
8
BLACK
10
28.025
20
-104.225
40
0.5
50
90
51
180
0
LINE
8
BLACK
6
CONTINUOUS
10
208.212
20
-66.125
11
208.212
21
-79.125
0
LINE
8
BLACK
6
CONTINUOUS
10
117.725
20
-85.175
11
117.725
21
-98.175
0
ARC
8
BLACK
10
41.025
20
-104.225
40
0.5
50
-0
51
90
0
LINE
8
BLACK
6
CONTINUOUS
10
41.525
20
-85.175
11
41.525
21
-98.175
0
ARC
8
BLACK
10
60.075
20
-98.175
40
0.5
50
-90
51
-0
0
LINE
8
BLACK
6
CONTINUOUS
10
47.075
20
-117.725
11
60.075
21
-117.725
0
ARC
8
BLACK
10
28.025
20
-79.125
40
0.5
50
180
51
270
0
LINE
8
BLACK
6
CONTINUOUS
10
136.775
20
-85.175
11
136.775
21
-98.175
0
ARC
8
BLACK
10
41.025
20
-85.175
40
0.5
50
-0
51
90
0
LINE
8
BLACK
6
CONTINUOUS
10
232.812
20
-65.625
11
245.812
21
-65.625
0
LINE
8
BLACK
6
CONTINUOUS
10
170.112
20
-66.125
11
170.112
21
-79.125
0
LINE
8
BLACK
6
CONTINUOUS
10
98.675
20
-85.175
11
98.675
21
-98.175
0
ARC
8
BLACK
10
85.175
20
-85.175
40
0.5
50
90
51
180
0
ARC
8
BLACK
10
245.812
20
-66.125
40
0.5
50
-0
51
90
0
ARC
8
BLACK
10
41.025
20
-98.175
40
0.5
50
-90
51
-0
0
LINE
8
BLACK
6
CONTINUOUS
10
194.712
20
-79.625
11
207.712
21
-79.625
0
ARC
8
BLACK
10
47.075
20
-98.175
40
0.5
50
180
51
270
0
LINE
8
BLACK
6
CONTINUOUS
10
66.125
20
-98.675
11
79.125
21
-98.675
0
LINE
8
BLACK
6
CONTINUOUS
10
60.575
20
-85.175
11
60.575
21
-98.175
0
LINE
8
BLACK
6
CONTINUOUS
10
66.125
20
-84.675
11
79.125
21
-84.675
0
LINE
8
BLACK
6
CONTINUOUS
10
79.625
20
-104.225
11
79.625
21
-117.225
0
ARC
8
BLACK
10
169.612
20
-60.075
40
0.5
50
-90
51
-0
0
ARC
8
BLACK
10
136.275
20
-47.075
40
0.5
50
-0
51
90
0
LINE
8
BLACK
6
CONTINUOUS
10
123.275
20
-46.575
11
136.275
21
-46.575
0
LINE
8
BLACK
6
CONTINUOUS
10
156.112
20
-47.075
11
156.112
21
-60.075
0
LINE
8
BLACK
6
CONTINUOUS
10
136.775
20
-47.075
11
136.775
21
-60.075
0
LINE
8
BLACK
6
CONTINUOUS
10
232.812
20
-79.625
11
245.812
21
-79.625
0
ARC
8
BLACK
10
123.275
20
-85.175
40
0.5
50
90
51
180
0
LINE
8
BLACK
6
CONTINUOUS
10
98.675
20
-47.075
11
98.675
21
-60.075
0
LINE
8
BLACK
6
CONTINUOUS
10
47.075
20
-46.575
11
60.075
21
-46.575
0
LINE
8
BLACK
6
CONTINUOUS
10
156.612
20
-46.575
11
169.612
21
-46.575
0
ARC
8
BLACK
10
79.125
20
-98.175
40
0.5
50
-90
51
-0
0
ARC
8
BLACK
10
66.125
20
-98.175
40
0.5
50
180
51
270
0
LINE
8
BLACK
6
CONTINUOUS
10
66.125
20
-60.575
11
79.125
21
-60.575
0
LINE
8
BLACK
6
CONTINUOUS
10
246.312
20
-47.075
11
246.312
21
-60.075
0
LINE
8
BLACK
6
CONTINUOUS
10
28.025
20
-60.575
11
41.025
21
-60.575
0
LINE
8
BLACK
6
CONTINUOUS
10
85.175
20
-98.675
11
98.175
21
-98.675
0
ARC
8
BLACK
10
104.225
20
-60.075
40
0.5
50
180
51
270
0
LINE
8
BLACK
6
CONTINUOUS
10
66.125
20
-46.575
11
79.125
21
-46.575
0
ARC
8
BLACK
10
66.125
20
-60.075
40
0.5
50
180
51
270
0
ARC
8
BLACK
10
264.862
20
-66.125
40
0.500001
50
-0
51
90
0
ARC
8
BLACK
10
175.662
20
-60.075
40
0.5
50
180
51
270
0
LINE
8
BLACK
6
CONTINUOUS
10
65.625
20
-47.075
11
65.625
21
-60.075
0
LINE
8
BLACK
6
CONTINUOUS
10
79.625
20
-85.175
11
79.625
21
-98.175
0
LINE
8
BLACK
6
CONTINUOUS
10
104.225
20
-46.575
11
117.225
21
-46.575
0
ARC
8
BLACK
10
79.125
20
-85.175
40
0.5
50
-0
51
90
0
ARC
8
BLACK
10
194.712
20
-60.075
40
0.5
50
180
51
270
0
ARC
8
BLACK
10
85.175
20
-60.075
40
0.5
50
180
51
270
0
ARC
8
BLACK
10
251.862
20
-66.125
40
0.500001
50
90
51
180
0
ARC
8
BLACK
10
98.175
20
-85.175
40
0.500001
50
-0
51
90
0
LINE
8
BLACK
6
CONTINUOUS
10
41.525
20
-47.075
11
41.525
21
-60.075
0
ARC
8
BLACK
10
79.125
20
-47.075
40
0.5
50
-0
51
90
0
LINE
8
BLACK
6
CONTINUOUS
10
103.725
20
-47.075
11
103.725
21
-60.075
0
LINE
8
BLACK
6
CONTINUOUS
10
85.175
20
-46.575
11
98.175
21
-46.575
0
LINE
8
BLACK
6
CONTINUOUS
10
28.025
20
-46.575
11
41.025
21
-46.575
0
ARC
8
BLACK
10
66.125
20
-85.175
40
0.5
50
90
51
180
0
LINE
8
BLACK
6
CONTINUOUS
10
85.175
20
-84.675
11
98.175
21
-84.675
0
LINE
8
BLACK
6
CONTINUOUS
10
170.112
20
-47.075
11
170.112
21
-60.075
0
LINE
8
BLACK
6
CONTINUOUS
10
60.575
20
-47.075
11
60.575
21
-60.075
0
ARC
8
BLACK
10
156.612
20
-60.075
40
0.5
50
180
51
270
0
ARC
8
BLACK
10
98.175
20
-47.075
40
0.500001
50
-0
51
90
0
ARC
8
BLACK
10
98.175
20
-79.125
40
0.5
50
-90
51
-0
0
LINE
8
BLACK
6
CONTINUOUS
10
232.312
20
-47.075
11
232.312
21
-60.075
0
LINE
8
BLACK
6
CONTINUOUS
10
265.363
20
-66.125
11
265.363
21
-79.125
0
LINE
8
BLACK
6
CONTINUOUS
10
232.812
20
-46.575
11
245.812
21
-46.575
0
ARC
8
BLACK
10
156.612
20
-47.075
40
0.5
50
90
51
180
0
LINE
8
BLACK
6
CONTINUOUS
10
46.575
20
-47.075
11
46.575
21
-60.075
0
ARC
8
BLACK
10
60.075
20
-60.075
40
0.5
50
-90
51
-0
0
ARC
8
BLACK
10
104.225
20
-47.075
40
0.5
50
90
51
180
0
LINE
8
BLACK
6
CONTINUOUS
10
123.275
20
-60.575
11
136.275
21
-60.575
0
ARC
8
BLACK
10
47.075
20
-47.075
40
0.5
50
90
51
180
0
ARC
8
BLACK
10
123.275
20
-47.075
40
0.5
50
90
51
180
0
ARC
8
BLACK
10
267.887
20
-120.25
40
3
50
-90
51
-0
0
LINE
8
BLACK
6
CONTINUOUS
10
175.162
20
-47.075
11
175.162
21
-60.075
0
LINE
8
BLACK
6
CONTINUOUS
10
27.525
20
-47.075
11
27.525
21
-60.075
0
ARC
8
BLACK
10
117.225
20
-47.075
40
0.5
50
-0
51
90
0
LINE
8
BLACK
6
CONTINUOUS
10
104.225
20
-60.575
11
117.225
21
-60.575
0
LINE
8
BLACK
6
CONTINUOUS
10
84.675
20
-85.175
11
84.675
21
-98.175
0
ARC
8
BLACK
10
47.075
20
-60.075
40
0.5
50
180
51
270
0
ARC
8
BLACK
10
123.275
20
-60.075
40
0.5
50
180
51
270
0
ARC
8
BLACK
10
28.025
20
-47.075
40
0.5
50
90
51
180
0
ARC
8
BLACK
10
79.125
20
-60.075
40
0.5
50
-90
51
-0
0
ARC
8
BLACK
10
136.275
20
-60.075
40
0.5
50
-90
51
-0
0
ARC
8
BLACK
10
169.612
20
-47.075
40
0.5
50
-0
51
90
0
ARC
8
BLACK
10
41.025
20
-47.075
40
0.5
50
-0
51
90
0
LINE
8
BLACK
6
CONTINUOUS
10
122.775
20
-47.075
11
122.775
21
-60.075
0
LINE
8
BLACK
6
CONTINUOUS
10
84.675
20
-47.075
11
84.675
21
-60.075
0
ARC
8
BLACK
10
113.75
20
-41.025
40
0.5
50
180
51
270
0
LINE
8
BLACK
6
CONTINUOUS
10
108.2
20
-28.025
11
108.2
21
-41.025
0
LINE
8
BLACK
6
CONTINUOUS
10
56.6
20
-41.525
11
69.6
21
-41.525
0
LINE
8
BLACK
6
CONTINUOUS
10
151.825
20
-28.025
11
151.825
21
-41.025
0
ARC
8
BLACK
10
94.7
20
-41.025
40
0.5
50
180
51
270
0
LINE
8
BLACK
6
CONTINUOUS
10
151.825
20
-41.025
11
156.612
21
-41.05
0
ARC
8
BLACK
10
107.7
20
-41.025
40
0.5
50
-90
51
-0
0
ARC
8
BLACK
10
126.75
20
-41.025
40
0.5
50
-90
51
-0
0
LINE
8
BLACK
6
CONTINUOUS
10
94.7
20
-41.525
11
107.7
21
-41.525
0
ARC
8
BLACK
10
56.6
20
-41.025
40
0.5
50
180
51
270
0
LINE
8
BLACK
6
CONTINUOUS
10
89.15
20
-28.025
11
89.15
21
-41.025
0
LINE
8
BLACK
6
CONTINUOUS
10
56.1
20
-28.025
11
56.1
21
-41.025
0
ARC
8
BLACK
10
69.6
20
-41.025
40
0.5
50
-90
51
-0
0
LINE
8
BLACK
6
CONTINUOUS
10
70.1
20
-28.025
11
70.1
21
-41.025
0
LINE
8
BLACK
6
CONTINUOUS
10
132.3
20
-28.025
11
132.3
21
-41.025
0
LINE
8
BLACK
6
CONTINUOUS
10
75.65
20
-41.525
11
88.65
21
-41.525
0
ARC
8
BLACK
10
75.65
20
-41.025
40
0.5
50
180
51
270
0
LINE
8
BLACK
6
CONTINUOUS
10
37.05
20
-28.025
11
37.05
21
-41.025
0
LINE
8
BLACK
6
CONTINUOUS
10
51.05
20
-28.025
11
51.05
21
-41.025
0
ARC
8
BLACK
10
37.55
20
-41.025
40
0.5
50
180
51
270
0
LINE
8
BLACK
6
CONTINUOUS
10
132.8
20
-41.525
11
145.8
21
-41.525
0
LINE
8
BLACK
6
CONTINUOUS
10
94.2
20
-28.025
11
94.2
21
-41.025
0
LINE
8
BLACK
6
CONTINUOUS
10
75.15
20
-28.025
11
75.15
21
-41.025
0
LINE
8
BLACK
6
CONTINUOUS
10
113.75
20
-41.525
11
126.75
21
-41.525
0
LINE
8
BLACK
6
CONTINUOUS
10
127.25
20
-28.025
11
127.25
21
-41.025
0
LINE
8
BLACK
6
CONTINUOUS
10
146.3
20
-28.025
11
146.3
21
-41.025
0
ARC
8
BLACK
10
145.8
20
-41.025
40
0.5
50
-90
51
-0
0
ARC
8
BLACK
10
88.65
20
-41.025
40
0.5
50
-90
51
-0
0
ARC
8
BLACK
10
50.55
20
-41.025
40
0.5
50
-90
51
-0
0
LINE
8
BLACK
6
CONTINUOUS
10
113.25
20
-28.025
11
113.25
21
-41.025
0
LINE
8
BLACK
6
CONTINUOUS
10
37.55
20
-41.525
11
50.55
21
-41.525
0
CIRCLE
8
BLACK
10
29.0119
20
-39.3004
40
1.75
0
ARC
8
BLACK
10
132.8
20
-41.025
40
0.5
50
180
51
270
0
LINE
8
BLACK
6
CONTINUOUS
10
156.612
20
-41.05
11
169.612
21
-41.05
0
LINE
8
BLACK
6
CONTINUOUS
10
151.825
20
-28.025
11
151.825
21
-25
0
LINE
8
BLACK
6
CONTINUOUS
10
90.6632
20
-22
11
148.825
21
-22
0
LINE
8
BLACK
6
CONTINUOUS
10
25
20
-22
11
84.6632
21
-22
0
ARC
8
BLACK
10
87.6632
20
-22
40
3
50
-0
51
180
0
CIRCLE
8
BLACK
10
29.0119
20
-28.2504
40
1.75
0
CIRCLE
8
BLACK
10
29.0119
20
-33.7754
40
1.75
0
ARC
8
BLACK
10
132.8
20
-28.025
40
0.5
50
90
51
180
0
ARC
8
BLACK
10
37.55
20
-28.025
40
0.5
50
90
51
180
0
LINE
8
BLACK
6
CONTINUOUS
10
94.7
20
-27.525
11
107.7
21
-27.525
0
LINE
8
BLACK
6
CONTINUOUS
10
113.75
20
-27.525
11
126.75
21
-27.525
0
ARC
8
BLACK
10
75.65
20
-28.025
40
0.5
50
90
51
180
0
LINE
8
BLACK
6
CONTINUOUS
10
56.6
20
-27.525
11
69.6
21
-27.525
0
ARC
8
BLACK
10
126.75
20
-28.025
40
0.5
50
-0
51
90
0
ARC
8
BLACK
10
25
20
-25
40
3
50
90
51
180
0
ARC
8
BLACK
10
56.6
20
-28.025
40
0.5
50
90
51
180
0
ARC
8
BLACK
10
145.8
20
-28.025
40
0.5
50
-0
51
90
0
ARC
8
BLACK
10
50.55
20
-28.025
40
0.500001
50
-0
51
90
0
ARC
8
BLACK
10
69.6
20
-28.025
40
0.5
50
-0
51
90
0
ARC
8
BLACK
10
88.65
20
-28.025
40
0.5
50
-0
51
90
0
LINE
8
BLACK
6
CONTINUOUS
10
37.55
20
-27.525
11
50.55
21
-27.525
0
LINE
8
BLACK
6
CONTINUOUS
10
132.8
20
-27.525
11
145.8
21
-27.525
0
LINE
8
BLACK
6
CONTINUOUS
10
75.65
20
-27.525
11
88.65
21
-27.525
0
ARC
8
BLACK
10
113.75
20
-28.025
40
0.5
50
90
51
180
0
ARC
8
BLACK
10
107.7
20
-28.025
40
0.500001
50
-0
51
90
0
ARC
8
BLACK
10
94.7
20
-28.025
40
0.5
50
90
51
180
0
ARC
8
BLACK
10
148.825
20
-25
40
3
50
-0
51
90
0
LINE
8
BLACK
6
CONTINUOUS
10
208.388
20
-41.05
11
267.887
21
-41.05
0
ARC
8
BLACK
10
205.388
20
-41.05
40
3
50
-0
51
180
0
LINE
8
BLACK
6
CONTINUOUS
10
169.612
20
-41.05
11
202.388
21
-41.05
0
ARC
8
BLACK
10
267.887
20
-44.05
40
3
50
-0
51
90
  0
ENDSEC
  0
EOF
