G04 #@! TF.GenerationSoftware,KiCad,Pcbnew,(5.1.4-0)*
G04 #@! TF.CreationDate,2020-12-16T23:05:57-05:00*
G04 #@! TF.ProjectId,,58585858-5858-4585-9858-585858585858,rev?*
G04 #@! TF.SameCoordinates,Original*
G04 #@! TF.FileFunction,Profile,NP*
%FSLAX46Y46*%
G04 Gerber Fmt 4.6, Leading zero omitted, Abs format (unit mm)*
G04 Created by KiCad (PCBNEW (5.1.4-0)) date 2020-12-16 23:05:57*
%MOMM*%
%LPD*%
G04 APERTURE LIST*
%ADD10C,0.200000*%
G04 APERTURE END LIST*
D10*
X117725000Y-60075000D02*
G75*
G02X117225000Y-60575000I-500000J0D01*
G01*
X60075000Y-46574999D02*
G75*
G02X60575000Y-47074999I0J-500000D01*
G01*
X227262500Y-60075000D02*
G75*
G02X226762500Y-60575000I-500000J0D01*
G01*
X227262500Y-47074999D02*
X227262500Y-60075000D01*
X47074999Y-60575000D02*
X60075000Y-60575000D01*
X117725000Y-47074999D02*
X117725000Y-60075000D01*
X79625000Y-47074999D02*
X79625000Y-60075000D01*
X189162500Y-60075000D02*
G75*
G02X188662500Y-60575000I-500000J0D01*
G01*
X98674999Y-60075000D02*
G75*
G02X98174999Y-60575000I-500000J0D01*
G01*
X41525000Y-60075000D02*
G75*
G02X41025000Y-60575000I-500000J0D01*
G01*
X25000000Y-123250001D02*
G75*
G02X21999999Y-120250000I0J3000001D01*
G01*
X232812500Y-60575000D02*
X245812500Y-60575000D01*
X232812500Y-60575000D02*
G75*
G02X232312500Y-60075000I0J500000D01*
G01*
X28025000Y-60575000D02*
G75*
G02X27525000Y-60075000I0J500000D01*
G01*
X65624999Y-47074999D02*
G75*
G02X66124999Y-46574999I500000J0D01*
G01*
X270887500Y-85150000D02*
X270887500Y-120250000D01*
X188662500Y-46574999D02*
G75*
G02X189162500Y-47074999I0J-500000D01*
G01*
X251862500Y-79625000D02*
X264862499Y-79625000D01*
X208387999Y-123250000D02*
G75*
G02X202387999Y-123250000I-3000000J0D01*
G01*
X90663166Y-123250000D02*
X202388000Y-123250000D01*
X270887500Y-79150000D02*
G75*
G02X270887500Y-85150000I0J-3000000D01*
G01*
X270887500Y-44050000D02*
X270887500Y-79149999D01*
X22000000Y-25000000D02*
X22000000Y-69625000D01*
X25000000Y-123250000D02*
X84663166Y-123250000D01*
X208387999Y-123250000D02*
X267887500Y-123250000D01*
X22000000Y-75625000D02*
G75*
G02X22000000Y-69625000I0J3000000D01*
G01*
X22000000Y-75625000D02*
X22000000Y-120250000D01*
X90663166Y-123250000D02*
G75*
G02X84663166Y-123250000I-3000000J0D01*
G01*
X41524999Y-66125000D02*
X41524999Y-79125000D01*
X251362500Y-47074999D02*
G75*
G02X251862500Y-46574999I500000J0D01*
G01*
X265362499Y-98175000D02*
G75*
G02X264862499Y-98675000I-500000J0D01*
G01*
X28025000Y-65625000D02*
X41025000Y-65625000D01*
X208212499Y-79125000D02*
G75*
G02X207712499Y-79625000I-500000J0D01*
G01*
X251862500Y-98675000D02*
G75*
G02X251362500Y-98175000I0J500000D01*
G01*
X194712500Y-60575000D02*
X207712499Y-60575000D01*
X28025000Y-79625000D02*
X41025000Y-79625000D01*
X265362499Y-60075000D02*
G75*
G02X264862499Y-60575000I-500000J0D01*
G01*
X85175000Y-98675000D02*
G75*
G02X84675000Y-98175000I0J500000D01*
G01*
X213762500Y-79625000D02*
G75*
G02X213262500Y-79125000I0J500000D01*
G01*
X79125000Y-65625000D02*
G75*
G02X79625000Y-66125000I0J-500000D01*
G01*
X60075000Y-84675000D02*
G75*
G02X60575000Y-85175000I0J-500000D01*
G01*
X251362500Y-47074999D02*
X251362500Y-60075000D01*
X166612499Y-119225000D02*
G75*
G02X166112499Y-119725000I-500000J0D01*
G01*
X245812500Y-46574999D02*
G75*
G02X246312500Y-47074999I0J-500000D01*
G01*
X213262500Y-66125000D02*
X213262500Y-79125000D01*
X265362500Y-47074999D02*
X265362500Y-60075000D01*
X213262500Y-47074999D02*
G75*
G02X213762500Y-46574999I500000J0D01*
G01*
X226762500Y-46574999D02*
G75*
G02X227262500Y-47074999I0J-500000D01*
G01*
X104225000Y-98675000D02*
X117225000Y-98675000D01*
X98674999Y-98175000D02*
G75*
G02X98174999Y-98675000I-500000J0D01*
G01*
X194712500Y-46574999D02*
X207712499Y-46574999D01*
X46574999Y-104225000D02*
X46574999Y-117225000D01*
X175662500Y-46574999D02*
X188662500Y-46574999D01*
X175662500Y-60575000D02*
X188662500Y-60575000D01*
X104225000Y-79625000D02*
G75*
G02X103725000Y-79125000I0J500000D01*
G01*
X28025000Y-103725000D02*
X41025000Y-103725000D01*
X213762500Y-65625000D02*
X226762500Y-65625000D01*
X47074999Y-65625000D02*
X60075000Y-65625000D01*
X46574999Y-85175000D02*
G75*
G02X47074999Y-84675000I500000J0D01*
G01*
X246312500Y-66125000D02*
X246312500Y-79125000D01*
X213762500Y-103725000D02*
X226762500Y-103725000D01*
X213262500Y-104225000D02*
X213262500Y-117225000D01*
X213762500Y-60575000D02*
G75*
G02X213262500Y-60075000I0J500000D01*
G01*
X213262500Y-47074999D02*
X213262500Y-60075000D01*
X213762500Y-117725000D02*
X226762500Y-117725000D01*
X227262500Y-104225000D02*
X227262500Y-117225000D01*
X46574999Y-104225000D02*
G75*
G02X47074999Y-103725000I500000J0D01*
G01*
X104225000Y-65625000D02*
X117225000Y-65625000D01*
X28025000Y-117725000D02*
X41025000Y-117725000D01*
X207712499Y-46574999D02*
G75*
G02X208212499Y-47074999I0J-500000D01*
G01*
X85175000Y-60575000D02*
X98174999Y-60575000D01*
X27524999Y-66125000D02*
X27524999Y-79125000D01*
X41525000Y-79125000D02*
G75*
G02X41025000Y-79625000I-500000J0D01*
G01*
X189162500Y-47074999D02*
X189162500Y-60075000D01*
X245812500Y-84675000D02*
G75*
G02X246312500Y-85175000I0J-500000D01*
G01*
X79625000Y-79125000D02*
G75*
G02X79125000Y-79625000I-500000J0D01*
G01*
X213262500Y-104225000D02*
G75*
G02X213762500Y-103725000I500000J0D01*
G01*
X60575000Y-104225000D02*
X60575000Y-117225000D01*
X122774999Y-66125000D02*
G75*
G02X123275000Y-65624999I500001J0D01*
G01*
X175162500Y-47074999D02*
G75*
G02X175662500Y-46574999I500000J0D01*
G01*
X104225000Y-84675000D02*
X117225000Y-84675000D01*
X175162500Y-85175000D02*
X175162500Y-98175000D01*
X251862500Y-103725000D02*
X264862499Y-103725000D01*
X251862500Y-117725000D02*
X264862499Y-117725000D01*
X207712499Y-84675000D02*
G75*
G02X208212499Y-85175000I0J-500000D01*
G01*
X197712499Y-105225000D02*
X197712499Y-119225000D01*
X194712500Y-98675000D02*
G75*
G02X194212500Y-98175000I0J500000D01*
G01*
X84674999Y-66125000D02*
G75*
G02X85175000Y-65624999I500001J0D01*
G01*
X232812500Y-117725000D02*
G75*
G02X232312500Y-117225000I0J500000D01*
G01*
X103725000Y-104225000D02*
X103725000Y-117225000D01*
X208212499Y-85175000D02*
X208212499Y-98175000D01*
X265362500Y-104225000D02*
X265362500Y-117225000D01*
X156612500Y-84675000D02*
X169612500Y-84675000D01*
X117725000Y-117225000D02*
G75*
G02X117225000Y-117725000I-500000J0D01*
G01*
X88675000Y-104725000D02*
X94675000Y-104725000D01*
X156612500Y-98675000D02*
G75*
G02X156112500Y-98175000I0J500000D01*
G01*
X213762500Y-98675000D02*
X226762500Y-98675000D01*
X156112500Y-85175000D02*
X156112500Y-98175000D01*
X213762500Y-98675000D02*
G75*
G02X213262500Y-98175000I0J500000D01*
G01*
X213762500Y-117725000D02*
G75*
G02X213262500Y-117225000I0J500000D01*
G01*
X60575000Y-79125000D02*
G75*
G02X60075000Y-79625000I-500000J0D01*
G01*
X246312500Y-85175000D02*
X246312500Y-98175000D01*
X84675000Y-66125000D02*
X84675000Y-79125000D01*
X123275000Y-98675000D02*
X136275000Y-98675000D01*
X232312500Y-85175000D02*
G75*
G02X232812500Y-84675000I500000J0D01*
G01*
X166112499Y-104725000D02*
G75*
G02X166612499Y-105225000I0J-500000D01*
G01*
X246312500Y-104225000D02*
X246312500Y-117225000D01*
X265362499Y-117225000D02*
G75*
G02X264862499Y-117725000I-500000J0D01*
G01*
X194212500Y-85175000D02*
X194212500Y-98175000D01*
X126275000Y-105225000D02*
G75*
G02X126775000Y-104725000I500000J0D01*
G01*
X227262500Y-66125000D02*
X227262500Y-79125000D01*
X85175000Y-79625000D02*
X98174999Y-79625000D01*
X104225000Y-117725000D02*
G75*
G02X103725000Y-117225000I0J500000D01*
G01*
X245812500Y-103725000D02*
G75*
G02X246312500Y-104225000I0J-500000D01*
G01*
X103725000Y-104225000D02*
G75*
G02X104225000Y-103725000I500000J0D01*
G01*
X227262500Y-117225000D02*
G75*
G02X226762500Y-117725000I-500000J0D01*
G01*
X175662500Y-103725000D02*
X188662500Y-103725000D01*
X66124999Y-79625000D02*
X79125000Y-79625000D01*
X208212499Y-60075000D02*
G75*
G02X207712499Y-60575000I-500000J0D01*
G01*
X251362500Y-104225000D02*
G75*
G02X251862500Y-103725000I500000J0D01*
G01*
X28025000Y-84675000D02*
X41025000Y-84675000D01*
X47074999Y-79625000D02*
X60075000Y-79625000D01*
X232312500Y-104225000D02*
G75*
G02X232812500Y-103725000I500000J0D01*
G01*
X156612500Y-65625000D02*
X169612500Y-65625000D01*
X232312500Y-85175000D02*
X232312500Y-98175000D01*
X232312500Y-104225000D02*
X232312500Y-117225000D01*
X251362500Y-104225000D02*
X251362500Y-117225000D01*
X251862500Y-117725000D02*
G75*
G02X251362500Y-117225000I0J500000D01*
G01*
X85175000Y-65625000D02*
X98174999Y-65625000D01*
X117725000Y-104225000D02*
X117725000Y-117225000D01*
X160112500Y-119725000D02*
X166112499Y-119725000D01*
X66124999Y-79625000D02*
G75*
G02X65624999Y-79125000I0J500000D01*
G01*
X264862499Y-103724999D02*
G75*
G02X265362500Y-104225000I0J-500001D01*
G01*
X123275000Y-79625000D02*
X136275000Y-79625000D01*
X136775000Y-98175000D02*
G75*
G02X136275000Y-98675000I-500000J0D01*
G01*
X123275000Y-84675000D02*
X136275000Y-84675000D01*
X189162500Y-98175000D02*
G75*
G02X188662500Y-98675000I-500000J0D01*
G01*
X264862499Y-46574998D02*
G75*
G02X265362500Y-47074999I0J-500001D01*
G01*
X189162500Y-104225000D02*
X189162500Y-117225000D01*
X226762500Y-103725000D02*
G75*
G02X227262500Y-104225000I0J-500000D01*
G01*
X175662500Y-117725000D02*
G75*
G02X175162500Y-117225000I0J500000D01*
G01*
X232812500Y-103725000D02*
X245812500Y-103725000D01*
X246312500Y-117225000D02*
G75*
G02X245812500Y-117725000I-500000J0D01*
G01*
X95175000Y-119225000D02*
G75*
G02X94675000Y-119725000I-500000J0D01*
G01*
X232812500Y-117725000D02*
X245812500Y-117725000D01*
X251362500Y-85175000D02*
X251362500Y-98175000D01*
X27524999Y-104225000D02*
X27524999Y-117225000D01*
X98675000Y-66125000D02*
X98675000Y-79125000D01*
X126274999Y-105225000D02*
X126274999Y-119225000D01*
X213262500Y-85175000D02*
X213262500Y-98175000D01*
X88174999Y-105225000D02*
X88174999Y-119225000D01*
X136275000Y-65625000D02*
G75*
G02X136775000Y-66125000I0J-500000D01*
G01*
X136775000Y-79125000D02*
G75*
G02X136275000Y-79625000I-500000J0D01*
G01*
X194212500Y-85175000D02*
G75*
G02X194712500Y-84675000I500000J0D01*
G01*
X65624998Y-66125000D02*
G75*
G02X66124999Y-65624999I500001J0D01*
G01*
X156612500Y-98675000D02*
X169612500Y-98675000D01*
X160112500Y-119725001D02*
G75*
G02X159612499Y-119225000I0J500001D01*
G01*
X188662500Y-84675000D02*
G75*
G02X189162500Y-85175000I0J-500000D01*
G01*
X246312500Y-98175000D02*
G75*
G02X245812500Y-98675000I-500000J0D01*
G01*
X156612500Y-79625000D02*
X169612500Y-79625000D01*
X117725000Y-79125000D02*
G75*
G02X117225000Y-79625000I-500000J0D01*
G01*
X264862499Y-84674999D02*
G75*
G02X265362500Y-85175000I0J-500001D01*
G01*
X232812500Y-98675000D02*
G75*
G02X232312500Y-98175000I0J500000D01*
G01*
X226762500Y-84675000D02*
G75*
G02X227262500Y-85175000I0J-500000D01*
G01*
X226762500Y-65625000D02*
G75*
G02X227262500Y-66125000I0J-500000D01*
G01*
X160112500Y-104725000D02*
X166112499Y-104725000D01*
X88675000Y-119725001D02*
G75*
G02X88174999Y-119225000I0J500001D01*
G01*
X189162500Y-85175000D02*
X189162500Y-98175000D01*
X60575000Y-66125000D02*
X60575000Y-79125000D01*
X198212499Y-119725000D02*
G75*
G02X197712499Y-119225000I0J500000D01*
G01*
X175162500Y-104225000D02*
X175162500Y-117225000D01*
X126775000Y-119725001D02*
G75*
G02X126274999Y-119225000I0J500001D01*
G01*
X132775000Y-104725001D02*
G75*
G02X133274999Y-105225000I0J-499999D01*
G01*
X208212499Y-98175000D02*
G75*
G02X207712499Y-98675000I-500000J0D01*
G01*
X46574999Y-66125000D02*
X46574999Y-79125000D01*
X41524999Y-104225000D02*
X41524999Y-117225000D01*
X227262500Y-98175000D02*
G75*
G02X226762500Y-98675000I-500000J0D01*
G01*
X95175000Y-105225000D02*
X95175000Y-119225000D01*
X170112500Y-85175000D02*
X170112500Y-98175000D01*
X175162500Y-85175000D02*
G75*
G02X175662500Y-84675000I500000J0D01*
G01*
X60075000Y-65625000D02*
G75*
G02X60575000Y-66125000I0J-500000D01*
G01*
X126775000Y-119725000D02*
X132775000Y-119725000D01*
X123275000Y-65625000D02*
X136275000Y-65625000D01*
X133275000Y-105225000D02*
X133275000Y-119225000D01*
X204212500Y-104725000D02*
G75*
G02X204712500Y-105225000I0J-500000D01*
G01*
X175662500Y-84675000D02*
X188662500Y-84675000D01*
X88675000Y-119725000D02*
X94675000Y-119725000D01*
X213762500Y-84675000D02*
X226762500Y-84675000D01*
X175662500Y-98675000D02*
G75*
G02X175162500Y-98175000I0J500000D01*
G01*
X66124999Y-65625000D02*
X79125000Y-65625000D01*
X251862500Y-60575000D02*
G75*
G02X251362500Y-60075000I0J500000D01*
G01*
X175662500Y-98675000D02*
X188662500Y-98675000D01*
X94675000Y-104725000D02*
G75*
G02X95175000Y-105225000I0J-500000D01*
G01*
X204712500Y-119225000D02*
G75*
G02X204212500Y-119725000I-500000J0D01*
G01*
X194712500Y-84675000D02*
X207712499Y-84675000D01*
X213262500Y-85175000D02*
G75*
G02X213762500Y-84675000I500000J0D01*
G01*
X198212499Y-119725000D02*
X204212500Y-119725000D01*
X122775000Y-66125000D02*
X122775000Y-79125000D01*
X198212499Y-104725000D02*
X204212500Y-104725000D01*
X175662500Y-117725000D02*
X188662500Y-117725000D01*
X188662500Y-103725000D02*
G75*
G02X189162500Y-104225000I0J-500000D01*
G01*
X88175000Y-105225000D02*
G75*
G02X88675000Y-104725000I500000J0D01*
G01*
X126775000Y-104725000D02*
X132775000Y-104725000D01*
X156112500Y-85175000D02*
G75*
G02X156612500Y-84675000I500000J0D01*
G01*
X251362500Y-85175000D02*
G75*
G02X251862500Y-84675000I500000J0D01*
G01*
X265362500Y-85175000D02*
X265362500Y-98175000D01*
X227262500Y-85175000D02*
X227262500Y-98175000D01*
X170112500Y-98175000D02*
G75*
G02X169612500Y-98675000I-500000J0D01*
G01*
X159612500Y-105225000D02*
X159612500Y-119225000D01*
X85175000Y-79625000D02*
G75*
G02X84675000Y-79125000I0J500000D01*
G01*
X156612500Y-79625000D02*
G75*
G02X156112500Y-79125000I0J500000D01*
G01*
X156612500Y-60575000D02*
X169612500Y-60575000D01*
X232812500Y-98675000D02*
X245812500Y-98675000D01*
X251862500Y-98675000D02*
X264862499Y-98675000D01*
X204712500Y-105225000D02*
X204712500Y-119225000D01*
X46574998Y-66125000D02*
G75*
G02X47074999Y-65624999I500001J0D01*
G01*
X251862500Y-84675000D02*
X264862499Y-84675000D01*
X232312500Y-47074999D02*
G75*
G02X232812500Y-46574999I500000J0D01*
G01*
X166612499Y-105225000D02*
X166612499Y-119225000D01*
X194212500Y-47074999D02*
G75*
G02X194712500Y-46574999I500000J0D01*
G01*
X136275000Y-84675000D02*
G75*
G02X136775000Y-85175000I0J-500000D01*
G01*
X213762500Y-46574999D02*
X226762500Y-46574999D01*
X47074999Y-79625000D02*
G75*
G02X46574999Y-79125000I0J500000D01*
G01*
X189162500Y-66125000D02*
X189162500Y-79125000D01*
X46574999Y-85175000D02*
X46574999Y-98175000D01*
X213262499Y-66125000D02*
G75*
G02X213762500Y-65624999I500001J0D01*
G01*
X133275000Y-119225000D02*
G75*
G02X132775000Y-119725000I-500000J0D01*
G01*
X136775000Y-66125000D02*
X136775000Y-79125000D01*
X251862500Y-60575000D02*
X264862499Y-60575000D01*
X28025000Y-98675000D02*
G75*
G02X27525000Y-98175000I0J500000D01*
G01*
X175162500Y-104225000D02*
G75*
G02X175662500Y-103725000I500000J0D01*
G01*
X175162499Y-66125000D02*
G75*
G02X175662500Y-65624999I500001J0D01*
G01*
X79125000Y-103725000D02*
G75*
G02X79625000Y-104225000I0J-500000D01*
G01*
X175162500Y-66125000D02*
X175162500Y-79125000D01*
X194712500Y-79625000D02*
G75*
G02X194212500Y-79125000I0J500000D01*
G01*
X27524999Y-85175000D02*
X27524999Y-98175000D01*
X79625000Y-66125000D02*
X79625000Y-79125000D01*
X28025000Y-98675000D02*
X41025000Y-98675000D01*
X47074999Y-98675000D02*
X60075000Y-98675000D01*
X213762500Y-60575000D02*
X226762500Y-60575000D01*
X65625000Y-66125000D02*
X65625000Y-79125000D01*
X169612500Y-84675000D02*
G75*
G02X170112500Y-85175000I0J-500000D01*
G01*
X159612500Y-105225000D02*
G75*
G02X160112500Y-104725000I500000J0D01*
G01*
X232812500Y-84675000D02*
X245812500Y-84675000D01*
X84675000Y-47074999D02*
G75*
G02X85175000Y-46574999I500000J0D01*
G01*
X65624999Y-104225000D02*
G75*
G02X66124999Y-103725000I500000J0D01*
G01*
X208212499Y-47074999D02*
X208212499Y-60075000D01*
X104225000Y-117725000D02*
X117225000Y-117725000D01*
X104225000Y-79625000D02*
X117225000Y-79625000D01*
X197712499Y-105225000D02*
G75*
G02X198212499Y-104725000I500000J0D01*
G01*
X41025000Y-65625000D02*
G75*
G02X41525000Y-66125000I0J-500000D01*
G01*
X123275000Y-98675000D02*
G75*
G02X122775000Y-98175000I0J500000D01*
G01*
X189162500Y-117225000D02*
G75*
G02X188662500Y-117725000I-500000J0D01*
G01*
X194712500Y-98675000D02*
X207712499Y-98675000D01*
X194212500Y-47074999D02*
X194212500Y-60075000D01*
X170112500Y-79125000D02*
G75*
G02X169612500Y-79625000I-500000J0D01*
G01*
X117225000Y-103725000D02*
G75*
G02X117725000Y-104225000I0J-500000D01*
G01*
X207712499Y-65625000D02*
G75*
G02X208212499Y-66125000I0J-500000D01*
G01*
X79625000Y-117225000D02*
G75*
G02X79125000Y-117725000I-500000J0D01*
G01*
X60075000Y-103725000D02*
G75*
G02X60575000Y-104225000I0J-500000D01*
G01*
X98174999Y-65624999D02*
G75*
G02X98675000Y-66125000I0J-500001D01*
G01*
X66124999Y-117725000D02*
G75*
G02X65624999Y-117225000I0J500000D01*
G01*
X194712500Y-65625000D02*
X207712499Y-65625000D01*
X117725000Y-98175000D02*
G75*
G02X117225000Y-98675000I-500000J0D01*
G01*
X60575000Y-117225000D02*
G75*
G02X60075000Y-117725000I-500000J0D01*
G01*
X251362500Y-66125000D02*
X251362500Y-79125000D01*
X232312500Y-66125000D02*
X232312500Y-79125000D01*
X65625000Y-85175000D02*
X65625000Y-98175000D01*
X189162500Y-79125000D02*
G75*
G02X188662500Y-79625000I-500000J0D01*
G01*
X232312499Y-66125000D02*
G75*
G02X232812500Y-65624999I500001J0D01*
G01*
X104225000Y-98675000D02*
G75*
G02X103725000Y-98175000I0J500000D01*
G01*
X122775000Y-85175000D02*
X122775000Y-98175000D01*
X188662500Y-65625000D02*
G75*
G02X189162500Y-66125000I0J-500000D01*
G01*
X156112500Y-66125000D02*
X156112500Y-79125000D01*
X156112499Y-66125000D02*
G75*
G02X156612500Y-65624999I500001J0D01*
G01*
X175662500Y-65625000D02*
X188662500Y-65625000D01*
X47074999Y-103725000D02*
X60075000Y-103725000D01*
X103725000Y-85175000D02*
X103725000Y-98175000D01*
X28025000Y-117725000D02*
G75*
G02X27525000Y-117225000I0J500000D01*
G01*
X41525000Y-117225000D02*
G75*
G02X41025000Y-117725000I-500000J0D01*
G01*
X47074999Y-84675000D02*
X60075000Y-84675000D01*
X194212500Y-66125000D02*
X194212500Y-79125000D01*
X265362499Y-79125000D02*
G75*
G02X264862499Y-79625000I-500000J0D01*
G01*
X251862500Y-46574999D02*
X264862499Y-46574999D01*
X103725000Y-66125000D02*
X103725000Y-79125000D01*
X27524999Y-66125000D02*
G75*
G02X28025000Y-65624999I500001J0D01*
G01*
X175662500Y-79625000D02*
X188662500Y-79625000D01*
X66124999Y-117725000D02*
X79125000Y-117725000D01*
X66124999Y-103725000D02*
X79125000Y-103725000D01*
X251862500Y-79625000D02*
G75*
G02X251362500Y-79125000I0J500000D01*
G01*
X117725000Y-66125000D02*
X117725000Y-79125000D01*
X65625000Y-104225000D02*
X65625000Y-117225000D01*
X251862500Y-65625000D02*
X264862499Y-65625000D01*
X47074999Y-117725000D02*
G75*
G02X46574999Y-117225000I0J500000D01*
G01*
X169612500Y-65625000D02*
G75*
G02X170112500Y-66125000I0J-500000D01*
G01*
X117225000Y-84675000D02*
G75*
G02X117725000Y-85175000I0J-500000D01*
G01*
X103725000Y-85175000D02*
G75*
G02X104225000Y-84675000I500000J0D01*
G01*
X175662500Y-79625000D02*
G75*
G02X175162500Y-79125000I0J500000D01*
G01*
X227262500Y-79125000D02*
G75*
G02X226762500Y-79625000I-500000J0D01*
G01*
X104225000Y-103725000D02*
X117225000Y-103725000D01*
X117225000Y-65625000D02*
G75*
G02X117725000Y-66125000I0J-500000D01*
G01*
X246312500Y-60075000D02*
G75*
G02X245812500Y-60575000I-500000J0D01*
G01*
X213762500Y-79625000D02*
X226762500Y-79625000D01*
X27525000Y-85175000D02*
G75*
G02X28025000Y-84675000I500000J0D01*
G01*
X232812500Y-79625000D02*
G75*
G02X232312500Y-79125000I0J500000D01*
G01*
X123275000Y-79625000D02*
G75*
G02X122775000Y-79125000I0J500000D01*
G01*
X246312500Y-79125000D02*
G75*
G02X245812500Y-79625000I-500000J0D01*
G01*
X103724999Y-66125000D02*
G75*
G02X104225000Y-65624999I500001J0D01*
G01*
X194212499Y-66125000D02*
G75*
G02X194712500Y-65624999I500001J0D01*
G01*
X27525000Y-104225000D02*
G75*
G02X28025000Y-103725000I500000J0D01*
G01*
X208212499Y-66125000D02*
X208212499Y-79125000D01*
X117725000Y-85175000D02*
X117725000Y-98175000D01*
X41025000Y-103725000D02*
G75*
G02X41525000Y-104225000I0J-500000D01*
G01*
X41524999Y-85175000D02*
X41524999Y-98175000D01*
X60575000Y-98175000D02*
G75*
G02X60075000Y-98675000I-500000J0D01*
G01*
X47074999Y-117725000D02*
X60075000Y-117725000D01*
X28025000Y-79625000D02*
G75*
G02X27525000Y-79125000I0J500000D01*
G01*
X136775000Y-85175000D02*
X136775000Y-98175000D01*
X41025000Y-84675000D02*
G75*
G02X41525000Y-85175000I0J-500000D01*
G01*
X232812500Y-65625000D02*
X245812500Y-65625000D01*
X170112500Y-66125000D02*
X170112500Y-79125000D01*
X98675000Y-85175000D02*
X98675000Y-98175000D01*
X84675000Y-85175000D02*
G75*
G02X85175000Y-84675000I500000J0D01*
G01*
X245812500Y-65625000D02*
G75*
G02X246312500Y-66125000I0J-500000D01*
G01*
X41525000Y-98175000D02*
G75*
G02X41025000Y-98675000I-500000J0D01*
G01*
X194712500Y-79625000D02*
X207712499Y-79625000D01*
X47074999Y-98675000D02*
G75*
G02X46574999Y-98175000I0J500000D01*
G01*
X66124999Y-98675000D02*
X79125000Y-98675000D01*
X60575000Y-85175000D02*
X60575000Y-98175000D01*
X66124999Y-84675000D02*
X79125000Y-84675000D01*
X79625000Y-104225000D02*
X79625000Y-117225000D01*
X170112500Y-60075000D02*
G75*
G02X169612500Y-60575000I-500000J0D01*
G01*
X136275000Y-46574999D02*
G75*
G02X136775000Y-47074999I0J-500000D01*
G01*
X123275000Y-46574999D02*
X136275000Y-46574999D01*
X156112500Y-47074999D02*
X156112500Y-60075000D01*
X136775000Y-47074999D02*
X136775000Y-60075000D01*
X232812500Y-79625000D02*
X245812500Y-79625000D01*
X122775000Y-85175000D02*
G75*
G02X123275000Y-84675000I500000J0D01*
G01*
X98675000Y-47074999D02*
X98675000Y-60075000D01*
X47074999Y-46574999D02*
X60075000Y-46574999D01*
X156612500Y-46574999D02*
X169612500Y-46574999D01*
X79625000Y-98175000D02*
G75*
G02X79125000Y-98675000I-500000J0D01*
G01*
X66124999Y-98675000D02*
G75*
G02X65624999Y-98175000I0J500000D01*
G01*
X66124999Y-60575000D02*
X79125000Y-60575000D01*
X246312500Y-47074999D02*
X246312500Y-60075000D01*
X28025000Y-60575000D02*
X41025000Y-60575000D01*
X85175000Y-98675000D02*
X98174999Y-98675000D01*
X104225000Y-60575000D02*
G75*
G02X103725000Y-60075000I0J500000D01*
G01*
X66124999Y-46574999D02*
X79125000Y-46574999D01*
X66124999Y-60575000D02*
G75*
G02X65624999Y-60075000I0J500000D01*
G01*
X264862499Y-65624999D02*
G75*
G02X265362500Y-66125000I0J-500001D01*
G01*
X175662500Y-60575000D02*
G75*
G02X175162500Y-60075000I0J500000D01*
G01*
X65625000Y-47074999D02*
X65625000Y-60075000D01*
X79625000Y-85175000D02*
X79625000Y-98175000D01*
X104225000Y-46574999D02*
X117225000Y-46574999D01*
X79125000Y-84675000D02*
G75*
G02X79625000Y-85175000I0J-500000D01*
G01*
X194712500Y-60575000D02*
G75*
G02X194212500Y-60075000I0J500000D01*
G01*
X85175000Y-60575000D02*
G75*
G02X84675000Y-60075000I0J500000D01*
G01*
X251362499Y-66125000D02*
G75*
G02X251862500Y-65624999I500001J0D01*
G01*
X98174999Y-84674999D02*
G75*
G02X98675000Y-85175000I0J-500001D01*
G01*
X41524999Y-47074999D02*
X41524999Y-60075000D01*
X79125000Y-46574999D02*
G75*
G02X79625000Y-47074999I0J-500000D01*
G01*
X103725000Y-47074999D02*
X103725000Y-60075000D01*
X85175000Y-46574999D02*
X98174999Y-46574999D01*
X28025000Y-46574999D02*
X41025000Y-46574999D01*
X65624999Y-85175000D02*
G75*
G02X66124999Y-84675000I500000J0D01*
G01*
X85175000Y-84675000D02*
X98174999Y-84675000D01*
X170112500Y-47074999D02*
X170112500Y-60075000D01*
X60575000Y-47074999D02*
X60575000Y-60075000D01*
X156612500Y-60575000D02*
G75*
G02X156112500Y-60075000I0J500000D01*
G01*
X98174999Y-46574998D02*
G75*
G02X98675000Y-47074999I0J-500001D01*
G01*
X98674999Y-79125000D02*
G75*
G02X98174999Y-79625000I-500000J0D01*
G01*
X232312500Y-47074999D02*
X232312500Y-60075000D01*
X265362500Y-66125000D02*
X265362500Y-79125000D01*
X232812500Y-46574999D02*
X245812500Y-46574999D01*
X156112500Y-47074999D02*
G75*
G02X156612500Y-46574999I500000J0D01*
G01*
X46574999Y-47074999D02*
X46574999Y-60075000D01*
X60575000Y-60075000D02*
G75*
G02X60075000Y-60575000I-500000J0D01*
G01*
X103725000Y-47074999D02*
G75*
G02X104225000Y-46574999I500000J0D01*
G01*
X123275000Y-60575000D02*
X136275000Y-60575000D01*
X46574999Y-47074999D02*
G75*
G02X47074999Y-46574999I500000J0D01*
G01*
X122775000Y-47074999D02*
G75*
G02X123275000Y-46574999I500000J0D01*
G01*
X270887500Y-120249999D02*
G75*
G02X267887500Y-123249999I-3000000J0D01*
G01*
X175162500Y-47074999D02*
X175162500Y-60075000D01*
X27524999Y-47074999D02*
X27524999Y-60075000D01*
X117225000Y-46574999D02*
G75*
G02X117725000Y-47074999I0J-500000D01*
G01*
X104225000Y-60575000D02*
X117225000Y-60575000D01*
X84675000Y-85175000D02*
X84675000Y-98175000D01*
X47074999Y-60575000D02*
G75*
G02X46574999Y-60075000I0J500000D01*
G01*
X123275000Y-60575000D02*
G75*
G02X122775000Y-60075000I0J500000D01*
G01*
X27525000Y-47074999D02*
G75*
G02X28025000Y-46574999I500000J0D01*
G01*
X79625000Y-60075000D02*
G75*
G02X79125000Y-60575000I-500000J0D01*
G01*
X136775000Y-60075000D02*
G75*
G02X136275000Y-60575000I-500000J0D01*
G01*
X169612500Y-46574999D02*
G75*
G02X170112500Y-47074999I0J-500000D01*
G01*
X41025000Y-46574999D02*
G75*
G02X41525000Y-47074999I0J-500000D01*
G01*
X122775000Y-47074999D02*
X122775000Y-60075000D01*
X84675000Y-47074999D02*
X84675000Y-60075000D01*
X113750000Y-41525000D02*
G75*
G02X113250000Y-41025000I0J500000D01*
G01*
X108200000Y-28025000D02*
X108200000Y-41025000D01*
X56600000Y-41525000D02*
X69600000Y-41525000D01*
X151825000Y-28025000D02*
X151825000Y-41025000D01*
X94700000Y-41525000D02*
G75*
G02X94200000Y-41025000I0J500000D01*
G01*
X151825000Y-41025000D02*
X156612500Y-41050000D01*
X108199999Y-41025000D02*
G75*
G02X107699999Y-41525000I-500000J0D01*
G01*
X127250000Y-41025000D02*
G75*
G02X126750000Y-41525000I-500000J0D01*
G01*
X94700000Y-41524999D02*
X107699999Y-41525000D01*
X56600000Y-41525000D02*
G75*
G02X56100000Y-41025000I0J500000D01*
G01*
X89149999Y-28025000D02*
X89149999Y-41025000D01*
X56100000Y-28025000D02*
X56100000Y-41025000D01*
X70100000Y-41025000D02*
G75*
G02X69600000Y-41525000I-500000J0D01*
G01*
X70100000Y-28025000D02*
X70100000Y-41025000D01*
X132300000Y-28025000D02*
X132300000Y-41025000D01*
X75650000Y-41525000D02*
X88650000Y-41525000D01*
X75650000Y-41525000D02*
G75*
G02X75150000Y-41025000I0J500000D01*
G01*
X37050000Y-28025000D02*
X37050000Y-41025000D01*
X51050000Y-28025000D02*
X51050000Y-41025000D01*
X37549999Y-41525000D02*
G75*
G02X37049999Y-41025000I0J500000D01*
G01*
X132799999Y-41524999D02*
X145800000Y-41525000D01*
X94200000Y-28025000D02*
X94200000Y-41025000D01*
X75149999Y-28025000D02*
X75149999Y-41025000D01*
X113750000Y-41524999D02*
X126750000Y-41525000D01*
X127250000Y-28025000D02*
X127250000Y-41025000D01*
X146300000Y-28025000D02*
X146300000Y-41025000D01*
X146300000Y-41025000D02*
G75*
G02X145800000Y-41525000I-500000J0D01*
G01*
X89150000Y-41025000D02*
G75*
G02X88650000Y-41525000I-500000J0D01*
G01*
X51049999Y-41025000D02*
G75*
G02X50549999Y-41525000I-500000J0D01*
G01*
X113250000Y-28025000D02*
X113250000Y-41025000D01*
X37549999Y-41525000D02*
X50549999Y-41525000D01*
X30761907Y-39300370D02*
G75*
G03X30761907Y-39300370I-1750000J0D01*
G01*
X132799999Y-41525000D02*
G75*
G02X132299999Y-41025000I0J500000D01*
G01*
X156612500Y-41050000D02*
X169612500Y-41050000D01*
X151825000Y-28025000D02*
X151825000Y-25000000D01*
X90663166Y-22000000D02*
X148825000Y-22000000D01*
X25000000Y-22000000D02*
X84663166Y-22000000D01*
X84663166Y-22000000D02*
G75*
G02X90663166Y-22000000I3000000J0D01*
G01*
X30761907Y-28250370D02*
G75*
G03X30761907Y-28250370I-1750000J0D01*
G01*
X30761907Y-33775370D02*
G75*
G03X30761907Y-33775370I-1750000J0D01*
G01*
X132299999Y-28025000D02*
G75*
G02X132799999Y-27525000I500000J0D01*
G01*
X37049999Y-28025000D02*
G75*
G02X37549999Y-27525000I500000J0D01*
G01*
X94700000Y-27525000D02*
X107699999Y-27525000D01*
X113750000Y-27525000D02*
X126750000Y-27525000D01*
X75150000Y-28025000D02*
G75*
G02X75650000Y-27525000I500000J0D01*
G01*
X56600000Y-27525000D02*
X69600000Y-27525000D01*
X126750000Y-27525000D02*
G75*
G02X127250000Y-28025000I0J-500000D01*
G01*
X21999999Y-25000000D02*
G75*
G02X24999999Y-22000000I3000000J0D01*
G01*
X56100000Y-28025000D02*
G75*
G02X56600000Y-27525000I500000J0D01*
G01*
X145800000Y-27525000D02*
G75*
G02X146300000Y-28025000I0J-500000D01*
G01*
X50549999Y-27524999D02*
G75*
G02X51050000Y-28025000I0J-500001D01*
G01*
X69600000Y-27525000D02*
G75*
G02X70100000Y-28025000I0J-500000D01*
G01*
X88650000Y-27525000D02*
G75*
G02X89150000Y-28025000I0J-500000D01*
G01*
X37549999Y-27525000D02*
X50549999Y-27525000D01*
X132799999Y-27525000D02*
X145800000Y-27525000D01*
X75650000Y-27525000D02*
X88650000Y-27525000D01*
X113250000Y-28025000D02*
G75*
G02X113750000Y-27525000I500000J0D01*
G01*
X107699999Y-27524999D02*
G75*
G02X108200000Y-28025000I0J-500001D01*
G01*
X94200000Y-28025000D02*
G75*
G02X94700000Y-27525000I500000J0D01*
G01*
X148825000Y-22000000D02*
G75*
G02X151825000Y-25000000I0J-3000000D01*
G01*
X208387999Y-41050000D02*
X267887500Y-41050000D01*
X202387999Y-41050000D02*
G75*
G02X208387999Y-41050000I3000000J0D01*
G01*
X169612500Y-41050000D02*
X202388000Y-41050000D01*
X267887500Y-41050000D02*
G75*
G02X270887500Y-44050000I0J-3000000D01*
G01*
M02*
