G04 #@! TF.GenerationSoftware,KiCad,Pcbnew,(5.1.4-0)*
G04 #@! TF.CreationDate,2020-12-15T23:12:41-05:00*
G04 #@! TF.ProjectId,V4N4G0RTH0N,56344e34-4730-4525-9448-304e2e6b6963,rev?*
G04 #@! TF.SameCoordinates,Original*
G04 #@! TF.FileFunction,Legend,Top*
G04 #@! TF.FilePolarity,Positive*
%FSLAX46Y46*%
G04 Gerber Fmt 4.6, Leading zero omitted, Abs format (unit mm)*
G04 Created by KiCad (PCBNEW (5.1.4-0)) date 2020-12-15 23:12:41*
%MOMM*%
%LPD*%
G04 APERTURE LIST*
%ADD10C,0.300000*%
%ADD11C,0.120000*%
%ADD12C,0.150000*%
%ADD13C,1.852000*%
%ADD14C,4.089800*%
%ADD15C,0.752000*%
%ADD16O,1.102000X2.202000*%
%ADD17O,1.102000X1.702000*%
%ADD18C,1.902000*%
%ADD19R,1.902000X1.902000*%
%ADD20C,3.150000*%
G04 APERTURE END LIST*
D10*
X142974142Y-81854857D02*
X143045571Y-81649500D01*
X143045571Y-81292357D01*
X142974142Y-81140571D01*
X142902714Y-81060214D01*
X142759857Y-80970928D01*
X142617000Y-80953071D01*
X142474142Y-81006642D01*
X142402714Y-81069142D01*
X142331285Y-81203071D01*
X142259857Y-81479857D01*
X142188428Y-81613785D01*
X142117000Y-81676285D01*
X141974142Y-81729857D01*
X141831285Y-81712000D01*
X141688428Y-81622714D01*
X141617000Y-81542357D01*
X141545571Y-81390571D01*
X141545571Y-81033428D01*
X141617000Y-80828071D01*
X141545571Y-80390571D02*
X141545571Y-79533428D01*
X143045571Y-80149500D02*
X141545571Y-79962000D01*
X142617000Y-79238785D02*
X142617000Y-78524500D01*
X143045571Y-79435214D02*
X141545571Y-78747714D01*
X143045571Y-78435214D01*
X141617000Y-76970928D02*
X141545571Y-77104857D01*
X141545571Y-77319142D01*
X141617000Y-77542357D01*
X141759857Y-77703071D01*
X141902714Y-77792357D01*
X142188428Y-77899500D01*
X142402714Y-77926285D01*
X142688428Y-77890571D01*
X142831285Y-77837000D01*
X142974142Y-77712000D01*
X143045571Y-77506642D01*
X143045571Y-77363785D01*
X142974142Y-77140571D01*
X142902714Y-77060214D01*
X142402714Y-76997714D01*
X142402714Y-77283428D01*
X141617000Y-75470928D02*
X141545571Y-75604857D01*
X141545571Y-75819142D01*
X141617000Y-76042357D01*
X141759857Y-76203071D01*
X141902714Y-76292357D01*
X142188428Y-76399500D01*
X142402714Y-76426285D01*
X142688428Y-76390571D01*
X142831285Y-76337000D01*
X142974142Y-76212000D01*
X143045571Y-76006642D01*
X143045571Y-75863785D01*
X142974142Y-75640571D01*
X142902714Y-75560214D01*
X142402714Y-75497714D01*
X142402714Y-75783428D01*
X142259857Y-74837000D02*
X142259857Y-74337000D01*
X143045571Y-74220928D02*
X143045571Y-74935214D01*
X141545571Y-74747714D01*
X141545571Y-74033428D01*
X143045571Y-72720928D02*
X142331285Y-73131642D01*
X143045571Y-73578071D02*
X141545571Y-73390571D01*
X141545571Y-72819142D01*
X141617000Y-72685214D01*
X141688428Y-72622714D01*
X141831285Y-72569142D01*
X142045571Y-72595928D01*
X142188428Y-72685214D01*
X142259857Y-72765571D01*
X142331285Y-72917357D01*
X142331285Y-73488785D01*
X142259857Y-70337000D02*
X142331285Y-70131642D01*
X142402714Y-70069142D01*
X142545571Y-70015571D01*
X142759857Y-70042357D01*
X142902714Y-70131642D01*
X142974142Y-70212000D01*
X143045571Y-70363785D01*
X143045571Y-70935214D01*
X141545571Y-70747714D01*
X141545571Y-70247714D01*
X141617000Y-70113785D01*
X141688428Y-70051285D01*
X141831285Y-69997714D01*
X141974142Y-70015571D01*
X142117000Y-70104857D01*
X142188428Y-70185214D01*
X142259857Y-70337000D01*
X142259857Y-70837000D01*
X142617000Y-69453071D02*
X142617000Y-68738785D01*
X143045571Y-69649500D02*
X141545571Y-68962000D01*
X143045571Y-68649500D01*
X143045571Y-68149500D02*
X141545571Y-67962000D01*
X141545571Y-67604857D01*
X141617000Y-67399500D01*
X141759857Y-67274500D01*
X141902714Y-67220928D01*
X142188428Y-67185214D01*
X142402714Y-67212000D01*
X142688428Y-67319142D01*
X142831285Y-67408428D01*
X142974142Y-67569142D01*
X143045571Y-67792357D01*
X143045571Y-68149500D01*
X148657571Y-81196142D02*
X148657571Y-80910428D01*
X148729000Y-80776500D01*
X148871857Y-80651500D01*
X149157571Y-80615785D01*
X149657571Y-80678285D01*
X149943285Y-80785428D01*
X150086142Y-80946142D01*
X150157571Y-81097928D01*
X150157571Y-81383642D01*
X150086142Y-81517571D01*
X149943285Y-81642571D01*
X149657571Y-81678285D01*
X149157571Y-81615785D01*
X148871857Y-81508642D01*
X148729000Y-81347928D01*
X148657571Y-81196142D01*
X150157571Y-79240785D02*
X149443285Y-79651500D01*
X150157571Y-80097928D02*
X148657571Y-79910428D01*
X148657571Y-79339000D01*
X148729000Y-79205071D01*
X148800428Y-79142571D01*
X148943285Y-79089000D01*
X149157571Y-79115785D01*
X149300428Y-79205071D01*
X149371857Y-79285428D01*
X149443285Y-79437214D01*
X149443285Y-80008642D01*
X148657571Y-78624714D02*
X148657571Y-77767571D01*
X150157571Y-78383642D02*
X148657571Y-78196142D01*
X150157571Y-77455071D02*
X148657571Y-77267571D01*
X149371857Y-77356857D02*
X149371857Y-76499714D01*
X150157571Y-76597928D02*
X148657571Y-76410428D01*
X148657571Y-75410428D02*
X148657571Y-75124714D01*
X148729000Y-74990785D01*
X148871857Y-74865785D01*
X149157571Y-74830071D01*
X149657571Y-74892571D01*
X149943285Y-74999714D01*
X150086142Y-75160428D01*
X150157571Y-75312214D01*
X150157571Y-75597928D01*
X150086142Y-75731857D01*
X149943285Y-75856857D01*
X149657571Y-75892571D01*
X149157571Y-75830071D01*
X148871857Y-75722928D01*
X148729000Y-75562214D01*
X148657571Y-75410428D01*
X148729000Y-72205071D02*
X148657571Y-72339000D01*
X148657571Y-72553285D01*
X148729000Y-72776500D01*
X148871857Y-72937214D01*
X149014714Y-73026500D01*
X149300428Y-73133642D01*
X149514714Y-73160428D01*
X149800428Y-73124714D01*
X149943285Y-73071142D01*
X150086142Y-72946142D01*
X150157571Y-72740785D01*
X150157571Y-72597928D01*
X150086142Y-72374714D01*
X150014714Y-72294357D01*
X149514714Y-72231857D01*
X149514714Y-72517571D01*
X148657571Y-71196142D02*
X148657571Y-70910428D01*
X148729000Y-70776500D01*
X148871857Y-70651500D01*
X149157571Y-70615785D01*
X149657571Y-70678285D01*
X149943285Y-70785428D01*
X150086142Y-70946142D01*
X150157571Y-71097928D01*
X150157571Y-71383642D01*
X150086142Y-71517571D01*
X149943285Y-71642571D01*
X149657571Y-71678285D01*
X149157571Y-71615785D01*
X148871857Y-71508642D01*
X148729000Y-71347928D01*
X148657571Y-71196142D01*
X148657571Y-69624714D02*
X148657571Y-69339000D01*
X148729000Y-69205071D01*
X148871857Y-69080071D01*
X149157571Y-69044357D01*
X149657571Y-69106857D01*
X149943285Y-69214000D01*
X150086142Y-69374714D01*
X150157571Y-69526500D01*
X150157571Y-69812214D01*
X150086142Y-69946142D01*
X149943285Y-70071142D01*
X149657571Y-70106857D01*
X149157571Y-70044357D01*
X148871857Y-69937214D01*
X148729000Y-69776500D01*
X148657571Y-69624714D01*
X150157571Y-68526500D02*
X148657571Y-68339000D01*
X148657571Y-67981857D01*
X148729000Y-67776500D01*
X148871857Y-67651500D01*
X149014714Y-67597928D01*
X149300428Y-67562214D01*
X149514714Y-67589000D01*
X149800428Y-67696142D01*
X149943285Y-67785428D01*
X150086142Y-67946142D01*
X150157571Y-68169357D01*
X150157571Y-68526500D01*
D11*
X26253000Y-43847000D02*
X26253000Y-44003000D01*
X26253000Y-41531000D02*
X26253000Y-41687000D01*
X28854130Y-43846837D02*
G75*
G02X26772039Y-43847000I-1041130J1079837D01*
G01*
X28854130Y-41687163D02*
G75*
G03X26772039Y-41687000I-1041130J-1079837D01*
G01*
X29485335Y-43845608D02*
G75*
G02X26253000Y-44002516I-1672335J1078608D01*
G01*
X29485335Y-41688392D02*
G75*
G03X26253000Y-41531484I-1672335J-1078608D01*
G01*
X26253000Y-38322000D02*
X26253000Y-38478000D01*
X26253000Y-36006000D02*
X26253000Y-36162000D01*
X28854130Y-38321837D02*
G75*
G02X26772039Y-38322000I-1041130J1079837D01*
G01*
X28854130Y-36162163D02*
G75*
G03X26772039Y-36162000I-1041130J-1079837D01*
G01*
X29485335Y-38320608D02*
G75*
G02X26253000Y-38477516I-1672335J1078608D01*
G01*
X29485335Y-36163392D02*
G75*
G03X26253000Y-36006484I-1672335J-1078608D01*
G01*
X26253000Y-32797000D02*
X26253000Y-32953000D01*
X26253000Y-30481000D02*
X26253000Y-30637000D01*
X28854130Y-32796837D02*
G75*
G02X26772039Y-32797000I-1041130J1079837D01*
G01*
X28854130Y-30637163D02*
G75*
G03X26772039Y-30637000I-1041130J-1079837D01*
G01*
X29485335Y-32795608D02*
G75*
G02X26253000Y-32952516I-1672335J1078608D01*
G01*
X29485335Y-30638392D02*
G75*
G03X26253000Y-30481484I-1672335J-1078608D01*
G01*
D12*
X26598714Y-40259380D02*
X26598714Y-39259380D01*
X26836809Y-39259380D01*
X26979666Y-39307000D01*
X27074904Y-39402238D01*
X27122523Y-39497476D01*
X27170142Y-39687952D01*
X27170142Y-39830809D01*
X27122523Y-40021285D01*
X27074904Y-40116523D01*
X26979666Y-40211761D01*
X26836809Y-40259380D01*
X26598714Y-40259380D01*
X28074904Y-39259380D02*
X27598714Y-39259380D01*
X27551095Y-39735571D01*
X27598714Y-39687952D01*
X27693952Y-39640333D01*
X27932047Y-39640333D01*
X28027285Y-39687952D01*
X28074904Y-39735571D01*
X28122523Y-39830809D01*
X28122523Y-40068904D01*
X28074904Y-40164142D01*
X28027285Y-40211761D01*
X27932047Y-40259380D01*
X27693952Y-40259380D01*
X27598714Y-40211761D01*
X27551095Y-40164142D01*
X28455857Y-39259380D02*
X29074904Y-39259380D01*
X28741571Y-39640333D01*
X28884428Y-39640333D01*
X28979666Y-39687952D01*
X29027285Y-39735571D01*
X29074904Y-39830809D01*
X29074904Y-40068904D01*
X29027285Y-40164142D01*
X28979666Y-40211761D01*
X28884428Y-40259380D01*
X28598714Y-40259380D01*
X28503476Y-40211761D01*
X28455857Y-40164142D01*
X26598714Y-34734380D02*
X26598714Y-33734380D01*
X26836809Y-33734380D01*
X26979666Y-33782000D01*
X27074904Y-33877238D01*
X27122523Y-33972476D01*
X27170142Y-34162952D01*
X27170142Y-34305809D01*
X27122523Y-34496285D01*
X27074904Y-34591523D01*
X26979666Y-34686761D01*
X26836809Y-34734380D01*
X26598714Y-34734380D01*
X28074904Y-33734380D02*
X27598714Y-33734380D01*
X27551095Y-34210571D01*
X27598714Y-34162952D01*
X27693952Y-34115333D01*
X27932047Y-34115333D01*
X28027285Y-34162952D01*
X28074904Y-34210571D01*
X28122523Y-34305809D01*
X28122523Y-34543904D01*
X28074904Y-34639142D01*
X28027285Y-34686761D01*
X27932047Y-34734380D01*
X27693952Y-34734380D01*
X27598714Y-34686761D01*
X27551095Y-34639142D01*
X28503476Y-33829619D02*
X28551095Y-33782000D01*
X28646333Y-33734380D01*
X28884428Y-33734380D01*
X28979666Y-33782000D01*
X29027285Y-33829619D01*
X29074904Y-33924857D01*
X29074904Y-34020095D01*
X29027285Y-34162952D01*
X28455857Y-34734380D01*
X29074904Y-34734380D01*
X26598714Y-29209380D02*
X26598714Y-28209380D01*
X26836809Y-28209380D01*
X26979666Y-28257000D01*
X27074904Y-28352238D01*
X27122523Y-28447476D01*
X27170142Y-28637952D01*
X27170142Y-28780809D01*
X27122523Y-28971285D01*
X27074904Y-29066523D01*
X26979666Y-29161761D01*
X26836809Y-29209380D01*
X26598714Y-29209380D01*
X28074904Y-28209380D02*
X27598714Y-28209380D01*
X27551095Y-28685571D01*
X27598714Y-28637952D01*
X27693952Y-28590333D01*
X27932047Y-28590333D01*
X28027285Y-28637952D01*
X28074904Y-28685571D01*
X28122523Y-28780809D01*
X28122523Y-29018904D01*
X28074904Y-29114142D01*
X28027285Y-29161761D01*
X27932047Y-29209380D01*
X27693952Y-29209380D01*
X27598714Y-29161761D01*
X27551095Y-29114142D01*
X29074904Y-29209380D02*
X28503476Y-29209380D01*
X28789190Y-29209380D02*
X28789190Y-28209380D01*
X28693952Y-28352238D01*
X28598714Y-28447476D01*
X28503476Y-28495095D01*
%LPC*%
D13*
X262255000Y-114300000D03*
X252095000Y-114300000D03*
D14*
X257175000Y-114300000D03*
D15*
X55214000Y-31777000D03*
X49434000Y-31777000D03*
D16*
X48004000Y-32307000D03*
X56644000Y-32307000D03*
D17*
X48004000Y-28127000D03*
X56644000Y-28127000D03*
D18*
X29083000Y-42767000D03*
D19*
X26543000Y-42767000D03*
D18*
X29083000Y-37242000D03*
D19*
X26543000Y-37242000D03*
D18*
X29083000Y-31717000D03*
D19*
X26543000Y-31717000D03*
D13*
X224155000Y-95200399D03*
X213995000Y-95200399D03*
D14*
X219075000Y-95200399D03*
D13*
X243205000Y-114300000D03*
X233045000Y-114300000D03*
D14*
X238125000Y-114300000D03*
D13*
X224155000Y-114300000D03*
X213995000Y-114300000D03*
D14*
X219075000Y-114300000D03*
X200025000Y-106045000D03*
X161925000Y-106045000D03*
D20*
X200025000Y-121285000D03*
X161925000Y-121285000D03*
D13*
X186055000Y-114300000D03*
X175895000Y-114300000D03*
D14*
X180975000Y-114300000D03*
X128587500Y-106045000D03*
X90487500Y-106045000D03*
D20*
X128587500Y-121285000D03*
X90487500Y-121285000D03*
D13*
X114617500Y-114300000D03*
X104457500Y-114300000D03*
D14*
X109537500Y-114300000D03*
D13*
X76517500Y-114300000D03*
X66357500Y-114300000D03*
D14*
X71437500Y-114300000D03*
D13*
X57467500Y-114300000D03*
X47307500Y-114300000D03*
D14*
X52387500Y-114300000D03*
D13*
X38417500Y-114300000D03*
X28257500Y-114300000D03*
D14*
X33337500Y-114300000D03*
D13*
X262255000Y-95250000D03*
X252095000Y-95250000D03*
D14*
X257175000Y-95250000D03*
D13*
X243205000Y-95250000D03*
X233045000Y-95250000D03*
D14*
X238125000Y-95250000D03*
D13*
X205105000Y-95250000D03*
X194945000Y-95250000D03*
D14*
X200025000Y-95250000D03*
D13*
X186055000Y-95250000D03*
X175895000Y-95250000D03*
D14*
X180975000Y-95250000D03*
D13*
X167005000Y-95250000D03*
X156845000Y-95250000D03*
D14*
X161925000Y-95250000D03*
D13*
X133667500Y-95250000D03*
X123507500Y-95250000D03*
D14*
X128587500Y-95250000D03*
D13*
X114617500Y-95250000D03*
X104457500Y-95250000D03*
D14*
X109537500Y-95250000D03*
D13*
X95567500Y-95250000D03*
X85407500Y-95250000D03*
D14*
X90487500Y-95250000D03*
D13*
X76517500Y-95250000D03*
X66357500Y-95250000D03*
D14*
X71437500Y-95250000D03*
D13*
X57467500Y-95250000D03*
X47307500Y-95250000D03*
D14*
X52387500Y-95250000D03*
D13*
X38417500Y-95250000D03*
X28257500Y-95250000D03*
D14*
X33337500Y-95250000D03*
D13*
X262255000Y-76200000D03*
X252095000Y-76200000D03*
D14*
X257175000Y-76200000D03*
D13*
X243205000Y-76200000D03*
X233045000Y-76200000D03*
D14*
X238125000Y-76200000D03*
D13*
X224155000Y-76200000D03*
X213995000Y-76200000D03*
D14*
X219075000Y-76200000D03*
D13*
X205105000Y-76200000D03*
X194945000Y-76200000D03*
D14*
X200025000Y-76200000D03*
D13*
X186055000Y-76200000D03*
X175895000Y-76200000D03*
D14*
X180975000Y-76200000D03*
D13*
X167005000Y-76200000D03*
X156845000Y-76200000D03*
D14*
X161925000Y-76200000D03*
D13*
X133667500Y-76200000D03*
X123507500Y-76200000D03*
D14*
X128587500Y-76200000D03*
D13*
X114617500Y-76200000D03*
X104457500Y-76200000D03*
D14*
X109537500Y-76200000D03*
D13*
X95567500Y-76200000D03*
X85407500Y-76200000D03*
D14*
X90487500Y-76200000D03*
D13*
X76517500Y-76200000D03*
X66357500Y-76200000D03*
D14*
X71437500Y-76200000D03*
D13*
X57467500Y-76200000D03*
X47307500Y-76200000D03*
D14*
X52387500Y-76200000D03*
D13*
X38417500Y-76200000D03*
X28257500Y-76200000D03*
D14*
X33337500Y-76200000D03*
D13*
X262255000Y-57150000D03*
X252095000Y-57150000D03*
D14*
X257175000Y-57150000D03*
D13*
X243205000Y-57150000D03*
X233045000Y-57150000D03*
D14*
X238125000Y-57150000D03*
D13*
X224155000Y-57150000D03*
X213995000Y-57150000D03*
D14*
X219075000Y-57150000D03*
D13*
X205105000Y-57150000D03*
X194945000Y-57150000D03*
D14*
X200025000Y-57150000D03*
D13*
X186055000Y-57150000D03*
X175895000Y-57150000D03*
D14*
X180975000Y-57150000D03*
D13*
X167005000Y-57150000D03*
X156845000Y-57150000D03*
D14*
X161925000Y-57150000D03*
D13*
X133667500Y-57150000D03*
X123507500Y-57150000D03*
D14*
X128587500Y-57150000D03*
D13*
X114617500Y-57150000D03*
X104457500Y-57150000D03*
D14*
X109537500Y-57150000D03*
D13*
X95567500Y-57150000D03*
X85407500Y-57150000D03*
D14*
X90487500Y-57150000D03*
D13*
X76517500Y-57150000D03*
X66357500Y-57150000D03*
D14*
X71437500Y-57150000D03*
D13*
X57467500Y-57150000D03*
X47307500Y-57150000D03*
D14*
X52387500Y-57150000D03*
D13*
X38417500Y-57150000D03*
X28257500Y-57150000D03*
D14*
X33337500Y-57150000D03*
D13*
X143192500Y-38100000D03*
X133032500Y-38100000D03*
D14*
X138112500Y-38100000D03*
D13*
X124142500Y-38100000D03*
X113982500Y-38100000D03*
D14*
X119062500Y-38100000D03*
D13*
X105092500Y-38100000D03*
X94932500Y-38100000D03*
D14*
X100012500Y-38100000D03*
D13*
X86042500Y-38100000D03*
X75882500Y-38100000D03*
D14*
X80962500Y-38100000D03*
D13*
X66992500Y-38100000D03*
X56832500Y-38100000D03*
D14*
X61912500Y-38100000D03*
D13*
X47942500Y-38100000D03*
X37782500Y-38100000D03*
D14*
X42862500Y-38100000D03*
M02*
