G04 #@! TF.GenerationSoftware,KiCad,Pcbnew,(5.1.4-0)*
G04 #@! TF.CreationDate,2020-12-15T08:58:37-05:00*
G04 #@! TF.ProjectId,V4N4G0RTH0N,56344e34-4730-4525-9448-304e2e6b6963,rev?*
G04 #@! TF.SameCoordinates,Original*
G04 #@! TF.FileFunction,Legend,Top*
G04 #@! TF.FilePolarity,Positive*
%FSLAX46Y46*%
G04 Gerber Fmt 4.6, Leading zero omitted, Abs format (unit mm)*
G04 Created by KiCad (PCBNEW (5.1.4-0)) date 2020-12-15 08:58:37*
%MOMM*%
%LPD*%
G04 APERTURE LIST*
%ADD10C,0.120000*%
%ADD11C,0.150000*%
%ADD12C,1.852000*%
%ADD13C,4.089800*%
%ADD14C,0.752000*%
%ADD15O,1.102000X2.202000*%
%ADD16O,1.102000X1.702000*%
%ADD17C,1.902000*%
%ADD18R,1.902000X1.902000*%
%ADD19C,3.150000*%
G04 APERTURE END LIST*
D10*
X26253000Y-43847000D02*
X26253000Y-44003000D01*
X26253000Y-41531000D02*
X26253000Y-41687000D01*
X28854130Y-43846837D02*
G75*
G02X26772039Y-43847000I-1041130J1079837D01*
G01*
X28854130Y-41687163D02*
G75*
G03X26772039Y-41687000I-1041130J-1079837D01*
G01*
X29485335Y-43845608D02*
G75*
G02X26253000Y-44002516I-1672335J1078608D01*
G01*
X29485335Y-41688392D02*
G75*
G03X26253000Y-41531484I-1672335J-1078608D01*
G01*
X26253000Y-38322000D02*
X26253000Y-38478000D01*
X26253000Y-36006000D02*
X26253000Y-36162000D01*
X28854130Y-38321837D02*
G75*
G02X26772039Y-38322000I-1041130J1079837D01*
G01*
X28854130Y-36162163D02*
G75*
G03X26772039Y-36162000I-1041130J-1079837D01*
G01*
X29485335Y-38320608D02*
G75*
G02X26253000Y-38477516I-1672335J1078608D01*
G01*
X29485335Y-36163392D02*
G75*
G03X26253000Y-36006484I-1672335J-1078608D01*
G01*
X26253000Y-32797000D02*
X26253000Y-32953000D01*
X26253000Y-30481000D02*
X26253000Y-30637000D01*
X28854130Y-32796837D02*
G75*
G02X26772039Y-32797000I-1041130J1079837D01*
G01*
X28854130Y-30637163D02*
G75*
G03X26772039Y-30637000I-1041130J-1079837D01*
G01*
X29485335Y-32795608D02*
G75*
G02X26253000Y-32952516I-1672335J1078608D01*
G01*
X29485335Y-30638392D02*
G75*
G03X26253000Y-30481484I-1672335J-1078608D01*
G01*
D11*
X26598714Y-40259380D02*
X26598714Y-39259380D01*
X26836809Y-39259380D01*
X26979666Y-39307000D01*
X27074904Y-39402238D01*
X27122523Y-39497476D01*
X27170142Y-39687952D01*
X27170142Y-39830809D01*
X27122523Y-40021285D01*
X27074904Y-40116523D01*
X26979666Y-40211761D01*
X26836809Y-40259380D01*
X26598714Y-40259380D01*
X28074904Y-39259380D02*
X27598714Y-39259380D01*
X27551095Y-39735571D01*
X27598714Y-39687952D01*
X27693952Y-39640333D01*
X27932047Y-39640333D01*
X28027285Y-39687952D01*
X28074904Y-39735571D01*
X28122523Y-39830809D01*
X28122523Y-40068904D01*
X28074904Y-40164142D01*
X28027285Y-40211761D01*
X27932047Y-40259380D01*
X27693952Y-40259380D01*
X27598714Y-40211761D01*
X27551095Y-40164142D01*
X28455857Y-39259380D02*
X29074904Y-39259380D01*
X28741571Y-39640333D01*
X28884428Y-39640333D01*
X28979666Y-39687952D01*
X29027285Y-39735571D01*
X29074904Y-39830809D01*
X29074904Y-40068904D01*
X29027285Y-40164142D01*
X28979666Y-40211761D01*
X28884428Y-40259380D01*
X28598714Y-40259380D01*
X28503476Y-40211761D01*
X28455857Y-40164142D01*
X26598714Y-34734380D02*
X26598714Y-33734380D01*
X26836809Y-33734380D01*
X26979666Y-33782000D01*
X27074904Y-33877238D01*
X27122523Y-33972476D01*
X27170142Y-34162952D01*
X27170142Y-34305809D01*
X27122523Y-34496285D01*
X27074904Y-34591523D01*
X26979666Y-34686761D01*
X26836809Y-34734380D01*
X26598714Y-34734380D01*
X28074904Y-33734380D02*
X27598714Y-33734380D01*
X27551095Y-34210571D01*
X27598714Y-34162952D01*
X27693952Y-34115333D01*
X27932047Y-34115333D01*
X28027285Y-34162952D01*
X28074904Y-34210571D01*
X28122523Y-34305809D01*
X28122523Y-34543904D01*
X28074904Y-34639142D01*
X28027285Y-34686761D01*
X27932047Y-34734380D01*
X27693952Y-34734380D01*
X27598714Y-34686761D01*
X27551095Y-34639142D01*
X28503476Y-33829619D02*
X28551095Y-33782000D01*
X28646333Y-33734380D01*
X28884428Y-33734380D01*
X28979666Y-33782000D01*
X29027285Y-33829619D01*
X29074904Y-33924857D01*
X29074904Y-34020095D01*
X29027285Y-34162952D01*
X28455857Y-34734380D01*
X29074904Y-34734380D01*
X26598714Y-29209380D02*
X26598714Y-28209380D01*
X26836809Y-28209380D01*
X26979666Y-28257000D01*
X27074904Y-28352238D01*
X27122523Y-28447476D01*
X27170142Y-28637952D01*
X27170142Y-28780809D01*
X27122523Y-28971285D01*
X27074904Y-29066523D01*
X26979666Y-29161761D01*
X26836809Y-29209380D01*
X26598714Y-29209380D01*
X28074904Y-28209380D02*
X27598714Y-28209380D01*
X27551095Y-28685571D01*
X27598714Y-28637952D01*
X27693952Y-28590333D01*
X27932047Y-28590333D01*
X28027285Y-28637952D01*
X28074904Y-28685571D01*
X28122523Y-28780809D01*
X28122523Y-29018904D01*
X28074904Y-29114142D01*
X28027285Y-29161761D01*
X27932047Y-29209380D01*
X27693952Y-29209380D01*
X27598714Y-29161761D01*
X27551095Y-29114142D01*
X29074904Y-29209380D02*
X28503476Y-29209380D01*
X28789190Y-29209380D02*
X28789190Y-28209380D01*
X28693952Y-28352238D01*
X28598714Y-28447476D01*
X28503476Y-28495095D01*
%LPC*%
D12*
X262255000Y-114300000D03*
X252095000Y-114300000D03*
D13*
X257175000Y-114300000D03*
D14*
X55214000Y-31777000D03*
X49434000Y-31777000D03*
D15*
X48004000Y-32307000D03*
X56644000Y-32307000D03*
D16*
X48004000Y-28127000D03*
X56644000Y-28127000D03*
D17*
X29083000Y-42767000D03*
D18*
X26543000Y-42767000D03*
D17*
X29083000Y-37242000D03*
D18*
X26543000Y-37242000D03*
D17*
X29083000Y-31717000D03*
D18*
X26543000Y-31717000D03*
D12*
X224155000Y-95200399D03*
X213995000Y-95200399D03*
D13*
X219075000Y-95200399D03*
D12*
X243205000Y-114300000D03*
X233045000Y-114300000D03*
D13*
X238125000Y-114300000D03*
D12*
X224155000Y-114300000D03*
X213995000Y-114300000D03*
D13*
X219075000Y-114300000D03*
X200025000Y-106045000D03*
X161925000Y-106045000D03*
D19*
X200025000Y-121285000D03*
X161925000Y-121285000D03*
D12*
X186055000Y-114300000D03*
X175895000Y-114300000D03*
D13*
X180975000Y-114300000D03*
X128587500Y-106045000D03*
X90487500Y-106045000D03*
D19*
X128587500Y-121285000D03*
X90487500Y-121285000D03*
D12*
X114617500Y-114300000D03*
X104457500Y-114300000D03*
D13*
X109537500Y-114300000D03*
D12*
X76517500Y-114300000D03*
X66357500Y-114300000D03*
D13*
X71437500Y-114300000D03*
D12*
X57467500Y-114300000D03*
X47307500Y-114300000D03*
D13*
X52387500Y-114300000D03*
D12*
X38417500Y-114300000D03*
X28257500Y-114300000D03*
D13*
X33337500Y-114300000D03*
D12*
X262255000Y-95250000D03*
X252095000Y-95250000D03*
D13*
X257175000Y-95250000D03*
D12*
X243205000Y-95250000D03*
X233045000Y-95250000D03*
D13*
X238125000Y-95250000D03*
D12*
X205105000Y-95250000D03*
X194945000Y-95250000D03*
D13*
X200025000Y-95250000D03*
D12*
X186055000Y-95250000D03*
X175895000Y-95250000D03*
D13*
X180975000Y-95250000D03*
D12*
X167005000Y-95250000D03*
X156845000Y-95250000D03*
D13*
X161925000Y-95250000D03*
D12*
X133667500Y-95250000D03*
X123507500Y-95250000D03*
D13*
X128587500Y-95250000D03*
D12*
X114617500Y-95250000D03*
X104457500Y-95250000D03*
D13*
X109537500Y-95250000D03*
D12*
X95567500Y-95250000D03*
X85407500Y-95250000D03*
D13*
X90487500Y-95250000D03*
D12*
X76517500Y-95250000D03*
X66357500Y-95250000D03*
D13*
X71437500Y-95250000D03*
D12*
X57467500Y-95250000D03*
X47307500Y-95250000D03*
D13*
X52387500Y-95250000D03*
D12*
X38417500Y-95250000D03*
X28257500Y-95250000D03*
D13*
X33337500Y-95250000D03*
D12*
X262255000Y-76200000D03*
X252095000Y-76200000D03*
D13*
X257175000Y-76200000D03*
D12*
X243205000Y-76200000D03*
X233045000Y-76200000D03*
D13*
X238125000Y-76200000D03*
D12*
X224155000Y-76200000D03*
X213995000Y-76200000D03*
D13*
X219075000Y-76200000D03*
D12*
X205105000Y-76200000D03*
X194945000Y-76200000D03*
D13*
X200025000Y-76200000D03*
D12*
X186055000Y-76200000D03*
X175895000Y-76200000D03*
D13*
X180975000Y-76200000D03*
D12*
X167005000Y-76200000D03*
X156845000Y-76200000D03*
D13*
X161925000Y-76200000D03*
D12*
X133667500Y-76200000D03*
X123507500Y-76200000D03*
D13*
X128587500Y-76200000D03*
D12*
X114617500Y-76200000D03*
X104457500Y-76200000D03*
D13*
X109537500Y-76200000D03*
D12*
X95567500Y-76200000D03*
X85407500Y-76200000D03*
D13*
X90487500Y-76200000D03*
D12*
X76517500Y-76200000D03*
X66357500Y-76200000D03*
D13*
X71437500Y-76200000D03*
D12*
X57467500Y-76200000D03*
X47307500Y-76200000D03*
D13*
X52387500Y-76200000D03*
D12*
X38417500Y-76200000D03*
X28257500Y-76200000D03*
D13*
X33337500Y-76200000D03*
D12*
X262255000Y-57150000D03*
X252095000Y-57150000D03*
D13*
X257175000Y-57150000D03*
D12*
X243205000Y-57150000D03*
X233045000Y-57150000D03*
D13*
X238125000Y-57150000D03*
D12*
X224155000Y-57150000D03*
X213995000Y-57150000D03*
D13*
X219075000Y-57150000D03*
D12*
X205105000Y-57150000D03*
X194945000Y-57150000D03*
D13*
X200025000Y-57150000D03*
D12*
X186055000Y-57150000D03*
X175895000Y-57150000D03*
D13*
X180975000Y-57150000D03*
D12*
X167005000Y-57150000D03*
X156845000Y-57150000D03*
D13*
X161925000Y-57150000D03*
D12*
X133667500Y-57150000D03*
X123507500Y-57150000D03*
D13*
X128587500Y-57150000D03*
D12*
X114617500Y-57150000D03*
X104457500Y-57150000D03*
D13*
X109537500Y-57150000D03*
D12*
X95567500Y-57150000D03*
X85407500Y-57150000D03*
D13*
X90487500Y-57150000D03*
D12*
X76517500Y-57150000D03*
X66357500Y-57150000D03*
D13*
X71437500Y-57150000D03*
D12*
X57467500Y-57150000D03*
X47307500Y-57150000D03*
D13*
X52387500Y-57150000D03*
D12*
X38417500Y-57150000D03*
X28257500Y-57150000D03*
D13*
X33337500Y-57150000D03*
D12*
X143192500Y-38100000D03*
X133032500Y-38100000D03*
D13*
X138112500Y-38100000D03*
D12*
X124142500Y-38100000D03*
X113982500Y-38100000D03*
D13*
X119062500Y-38100000D03*
D12*
X105092500Y-38100000D03*
X94932500Y-38100000D03*
D13*
X100012500Y-38100000D03*
D12*
X86042500Y-38100000D03*
X75882500Y-38100000D03*
D13*
X80962500Y-38100000D03*
D12*
X66992500Y-38100000D03*
X56832500Y-38100000D03*
D13*
X61912500Y-38100000D03*
D12*
X47942500Y-38100000D03*
X37782500Y-38100000D03*
D13*
X42862500Y-38100000D03*
M02*
