M48
; DRILL file {KiCad (5.1.4-0)} date Tuesday, December 15, 2020 at 11:09:17 PM
; FORMAT={-:-/ absolute / inch / decimal}
; #@! TF.CreationDate,2020-12-15T23:09:17-05:00
; #@! TF.GenerationSoftware,Kicad,Pcbnew,(5.1.4-0)
; #@! TF.FileFunction,NonPlated,1,2,NPTH
FMAT,2
INCH
T1C0.0256
T2C0.0689
T3C0.1200
T4C0.1570
%
G90
G05
T1
X1.9462Y-1.2511
X2.1738Y-1.2511
T2
X9.175Y-4.5
X9.575Y-4.5
X3.3625Y-3.0
X3.7625Y-3.0
X2.6125Y-2.25
X3.0125Y-2.25
X2.2375Y-1.5
X2.6375Y-1.5
X2.6125Y-4.5
X3.0125Y-4.5
X6.925Y-2.25
X7.325Y-2.25
X9.925Y-4.5
X6.175Y-3.75
X4.8625Y-2.25
X6.925Y-4.5
X7.325Y-4.5
X5.2625Y-2.25
X6.575Y-3.75
X1.1125Y-3.0
X1.5125Y-3.0
X9.175Y-2.25
X9.575Y-2.25
X1.1125Y-2.25
X1.5125Y-2.25
X7.675Y-3.0
X8.075Y-3.0
X1.8625Y-3.0
X2.2625Y-3.0
X1.1125Y-4.5
X1.5125Y-4.5
X3.3625Y-2.25
X3.7625Y-2.25
X6.175Y-3.0
X6.575Y-3.0
X4.4875Y-1.5
X4.8875Y-1.5
X9.925Y-3.0
X10.325Y-3.0
X4.1125Y-3.0
X4.5125Y-3.0
X7.675Y-2.25
X4.1125Y-3.75
X4.5125Y-3.75
X8.075Y-2.25
X6.925Y-3.75
X4.1125Y-4.5
X7.325Y-3.75
X10.325Y-4.5
X9.175Y-3.75
X9.575Y-3.75
X8.425Y-3.0
X8.825Y-3.0
X2.9875Y-1.5
X3.3875Y-1.5
X8.425Y-4.5
X4.5125Y-4.5
X8.825Y-4.5
X2.6125Y-3.75
X3.0125Y-3.75
X6.925Y-3.0
X1.8875Y-1.5
X1.8625Y-2.25
X7.325Y-3.0
X10.325Y-2.25
X1.1125Y-3.75
X1.5125Y-3.75
X2.2625Y-2.25
X1.8625Y-4.5
X2.2625Y-4.5
X2.6125Y-3.0
X3.0125Y-3.0
X6.175Y-2.25
X6.575Y-2.25
X1.4875Y-1.5
X4.8625Y-3.75
X5.2625Y-3.75
X9.925Y-2.25
X4.1125Y-2.25
X4.5125Y-2.25
X4.8625Y-3.0
X8.825Y-3.748
X9.925Y-3.75
X5.2625Y-3.0
X5.2375Y-1.5
X5.6375Y-1.5
X10.325Y-3.75
X9.175Y-3.0
X3.7375Y-1.5
X4.1375Y-1.5
X7.675Y-3.75
X9.575Y-3.0
X8.425Y-3.748
X3.3625Y-3.75
X3.7625Y-3.75
X8.075Y-3.75
X8.425Y-2.25
X8.825Y-2.25
X1.8625Y-3.75
X2.2625Y-3.75
T3
X6.375Y-4.775
X7.875Y-4.775
X3.5625Y-4.775
X5.0625Y-4.775
T4
X3.5625Y-3.75
X8.625Y-4.5
X7.875Y-3.75
X2.0625Y-3.75
X6.375Y-4.175
X9.375Y-2.25
X1.3125Y-2.25
X2.8125Y-4.5
X1.3125Y-3.0
X2.4375Y-1.5
X7.125Y-4.5
X2.0625Y-3.0
X4.3125Y-3.75
X9.375Y-3.75
X10.125Y-3.0
X1.3125Y-4.5
X7.875Y-4.175
X7.875Y-3.0
X6.375Y-3.0
X4.6875Y-1.5
X5.0625Y-2.25
X6.375Y-3.75
X8.625Y-3.0
X3.1875Y-1.5
X7.125Y-3.75
X7.125Y-2.25
X3.5625Y-2.25
X4.3125Y-3.0
X7.875Y-2.25
X6.375Y-2.25
X3.5625Y-4.175
X2.8125Y-2.25
X5.0625Y-4.175
X2.0625Y-2.25
X4.3125Y-4.5
X10.125Y-2.25
X2.0625Y-4.5
X2.8125Y-3.0
X8.625Y-2.25
X9.375Y-4.5
X4.3125Y-2.25
X5.4375Y-1.5
X10.125Y-4.5
X2.8125Y-3.75
X8.625Y-3.748
X7.125Y-3.0
X5.0625Y-3.0
X3.9375Y-1.5
X10.125Y-3.75
X1.3125Y-3.75
X5.0625Y-3.75
X1.6875Y-1.5
X9.375Y-3.0
X3.5625Y-3.0
T0
M30
