M48
; DRILL file {KiCad (5.1.4-0)} date Tuesday, December 15, 2020 at 08:58:50 AM
; FORMAT={-:-/ absolute / inch / decimal}
; #@! TF.CreationDate,2020-12-15T08:58:50-05:00
; #@! TF.GenerationSoftware,Kicad,Pcbnew,(5.1.4-0)
; #@! TF.FileFunction,Plated,1,2,PTH
FMAT,2
INCH
T1C0.0157
T2C0.0236
T3C0.0354
T4C0.0579
%
G90
G05
T1
X1.2778Y-1.7622
X1.2973Y-1.5227
X1.31Y-1.415
X1.31Y-1.64
X1.9148Y-1.435
X1.95Y-1.205
X1.97Y-1.435
X2.04Y-1.7813
X2.04Y-1.89
X2.06Y-1.375
X2.06Y-1.505
X2.08Y-1.7813
X2.08Y-1.88
X2.15Y-1.435
X2.1688Y-1.3593
X2.17Y-1.205
X3.8Y-4.1844
X4.1625Y-4.0175
X4.9125Y-3.4125
X5.21Y-4.0313
X5.4213Y-4.2437
X5.45Y-4.76
X5.51Y-2.005
X5.5494Y-2.005
X5.5887Y-2.005
X5.62Y-3.31
X5.63Y-4.14
X5.66Y-2.56
X5.66Y-4.1
X5.66Y-4.76
X5.69Y-1.81
X5.6994Y-4.1
X5.7236Y-3.435
X5.7387Y-4.1
X5.775Y-1.2
X5.796Y-4.105
X5.8354Y-4.105
X5.8747Y-4.105
X5.9Y-4.76
X6.045Y-4.1918
X6.1Y-4.68
X6.195Y-4.235
X6.2Y-4.355
X6.2Y-4.3944
X6.7272Y-4.5882
X6.7272Y-4.5882
X6.73Y-1.922
X6.76Y-4.61
X6.77Y-1.9
X7.725Y-4.125
X8.475Y-4.14
X9.225Y-4.1714
X9.975Y-4.195
T3
X1.045Y-1.6837
X1.145Y-1.6837
X1.045Y-1.4662
X1.145Y-1.4662
X1.045Y-1.2487
X1.145Y-1.2487
T4
X3.4125Y-3.65
X3.4641Y-3.5925
X3.6609Y-3.5728
X3.6625Y-3.55
X7.725Y-2.9
X7.7766Y-2.8425
X7.9734Y-2.8228
X7.975Y-2.8
X7.725Y-2.15
X7.7766Y-2.0925
X9.475Y-4.3
X9.4734Y-4.3228
X9.975Y-2.9
X10.0266Y-2.8425
X10.2234Y-2.8228
X10.225Y-2.8
X7.9734Y-2.0728
X1.9125Y-3.65
X1.9641Y-3.5925
X2.1625Y-3.55
X2.6625Y-2.15
X2.7141Y-2.0925
X2.9109Y-2.0728
X2.9125Y-2.05
X9.225Y-4.4
X9.2766Y-4.3425
X8.475Y-3.648
X8.5266Y-3.5906
X8.7234Y-3.5709
X8.725Y-3.548
X7.725Y-3.65
X7.7766Y-3.5925
X7.9734Y-3.5728
X7.975Y-3.55
X7.975Y-2.05
X2.1609Y-3.5728
X1.4109Y-4.3228
X2.6625Y-4.4
X2.7141Y-4.3425
X2.9109Y-4.3228
X2.9125Y-4.3
X1.9125Y-2.9
X1.9641Y-2.8425
X2.1609Y-2.8228
X2.1625Y-2.8
X6.225Y-3.65
X6.2766Y-3.5925
X6.4734Y-3.5728
X6.475Y-3.55
X6.225Y-2.15
X6.2766Y-2.0925
X6.4734Y-2.0728
X6.475Y-2.05
X1.1625Y-4.4
X1.2141Y-4.3425
X1.4125Y-4.3
X2.2875Y-1.4
X2.3391Y-1.3425
X2.5359Y-1.3228
X2.5375Y-1.3
X6.225Y-2.9
X6.2766Y-2.8425
X4.1625Y-2.9
X9.975Y-2.15
X10.0266Y-2.0925
X10.2234Y-2.0728
X10.225Y-2.05
X6.4734Y-2.8228
X6.475Y-2.8
X6.975Y-4.4
X7.0266Y-4.3425
X7.2234Y-4.3228
X7.225Y-4.3
X4.2141Y-2.8425
X4.4109Y-2.8228
X4.4125Y-2.8
X4.1625Y-3.65
X4.2141Y-3.5925
X4.4109Y-3.5728
X4.4125Y-3.55
X1.1625Y-2.15
X1.2141Y-2.0925
X1.4109Y-2.0728
X1.4125Y-2.05
X9.225Y-3.65
X9.4734Y-3.5728
X9.475Y-3.55
X8.475Y-2.9
X8.5266Y-2.8425
X8.7234Y-2.8228
X8.725Y-2.8
X8.475Y-2.15
X8.5266Y-2.0925
X8.7234Y-2.0728
X8.725Y-2.05
X9.2766Y-3.5925
X2.6625Y-3.65
X2.7141Y-3.5925
X4.5375Y-1.4
X4.5891Y-1.3425
X4.7859Y-1.3228
X4.7875Y-1.3
X7.0266Y-2.8425
X7.2234Y-2.8228
X7.225Y-2.8
X4.1625Y-2.15
X4.2141Y-2.0925
X4.4109Y-2.0728
X4.4125Y-2.05
X3.4125Y-2.15
X3.4641Y-2.0925
X3.6609Y-2.0728
X3.6625Y-2.05
X1.1625Y-3.65
X1.2141Y-3.5925
X1.4109Y-3.5728
X1.4125Y-3.55
X2.9109Y-3.5728
X2.9125Y-3.55
X6.975Y-2.9
X6.975Y-3.65
X7.0266Y-3.5925
X7.2234Y-3.5728
X7.225Y-3.55
X6.975Y-2.15
X7.0266Y-2.0925
X7.2234Y-2.0728
X7.225Y-2.05
X1.9125Y-4.4
X1.9641Y-4.3425
X2.1609Y-4.3228
X4.9641Y-3.5925
X4.1625Y-4.4
X3.0375Y-1.4
X3.0891Y-1.3425
X3.2859Y-1.3228
X3.2875Y-1.3
X2.6625Y-2.9
X2.7141Y-2.8425
X2.9109Y-2.8228
X2.9125Y-2.8
X1.9125Y-2.15
X1.9641Y-2.0925
X2.1609Y-2.0728
X2.1625Y-2.05
X4.2141Y-4.3425
X4.4109Y-4.3228
X4.4125Y-4.3
X1.5375Y-1.4
X1.5891Y-1.3425
X2.1625Y-4.3
X8.475Y-4.4
X8.5266Y-4.3425
X5.3391Y-1.3425
X1.7875Y-1.3
X4.9125Y-3.65
X5.1609Y-3.5728
X5.1625Y-3.55
X5.2875Y-1.4
X5.5359Y-1.3228
X5.5375Y-1.3
X1.2141Y-2.8425
X8.7234Y-4.3228
X8.725Y-4.3
X1.1625Y-2.9
X1.4125Y-2.8
X1.7859Y-1.3228
X1.4109Y-2.8228
X9.975Y-3.65
X9.975Y-4.4
X10.0266Y-4.3425
X10.2234Y-4.3228
X10.225Y-4.3
X4.9125Y-2.9
X5.1609Y-2.8228
X5.1625Y-2.8
X10.0266Y-3.5925
X10.2234Y-3.5728
X10.225Y-3.55
X9.2766Y-2.8425
X4.9641Y-2.8425
X9.225Y-2.9
X9.4734Y-2.8228
X9.475Y-2.8
X3.7875Y-1.4
X3.8391Y-1.3425
X4.0359Y-1.3228
X4.0375Y-1.3
X3.6609Y-2.8228
X3.6625Y-2.8
X5.1609Y-2.0728
X9.4734Y-2.0728
X3.4125Y-2.9
X3.4641Y-2.8425
X4.9125Y-2.15
X4.9641Y-2.0925
X9.225Y-2.15
X9.475Y-2.05
X5.1625Y-2.05
X9.2766Y-2.0925
T2
G00X1.8899Y-1.0956
M15
G01X1.8899Y-1.1192
M16
G05
G00X1.8899Y-1.2503
M15
G01X1.8899Y-1.2936
M16
G05
G00X2.2301Y-1.0956
M15
G01X2.2301Y-1.1192
M16
G05
G00X2.2301Y-1.2503
M15
G01X2.2301Y-1.2936
M16
G05
T0
M30
