G04 #@! TF.GenerationSoftware,KiCad,Pcbnew,(5.1.4-0)*
G04 #@! TF.CreationDate,2020-12-15T08:58:37-05:00*
G04 #@! TF.ProjectId,V4N4G0RTH0N,56344e34-4730-4525-9448-304e2e6b6963,rev?*
G04 #@! TF.SameCoordinates,Original*
G04 #@! TF.FileFunction,Legend,Bot*
G04 #@! TF.FilePolarity,Positive*
%FSLAX46Y46*%
G04 Gerber Fmt 4.6, Leading zero omitted, Abs format (unit mm)*
G04 Created by KiCad (PCBNEW (5.1.4-0)) date 2020-12-15 08:58:37*
%MOMM*%
%LPD*%
G04 APERTURE LIST*
%ADD10C,0.120000*%
%ADD11C,0.150000*%
%ADD12C,1.852000*%
%ADD13C,2.352000*%
%ADD14C,4.089800*%
%ADD15C,2.352000*%
%ADD16C,0.100000*%
%ADD17C,0.702000*%
%ADD18R,1.302000X1.502000*%
%ADD19R,0.702000X1.552000*%
%ADD20R,0.402000X1.552000*%
%ADD21C,0.752000*%
%ADD22R,1.602000X0.652000*%
%ADD23R,0.652000X1.602000*%
%ADD24C,1.127000*%
%ADD25C,1.902000*%
%ADD26R,1.902000X1.902000*%
%ADD27C,1.102000*%
%ADD28R,1.302000X1.002000*%
%ADD29C,3.150000*%
G04 APERTURE END LIST*
D10*
X52324000Y-38009000D02*
X50524000Y-38009000D01*
X52324000Y-38009000D02*
X53124000Y-38009000D01*
X52324000Y-34889000D02*
X51524000Y-34889000D01*
X52324000Y-34889000D02*
X53124000Y-34889000D01*
X135254000Y-111284000D02*
X135254000Y-115284000D01*
X131954000Y-111284000D02*
X135254000Y-111284000D01*
D11*
X150015000Y-118205000D02*
X150015000Y-119480000D01*
X150590000Y-107855000D02*
X150590000Y-108530000D01*
X140240000Y-107855000D02*
X140240000Y-108530000D01*
X140240000Y-118205000D02*
X140240000Y-117530000D01*
X150590000Y-118205000D02*
X150590000Y-117530000D01*
X140240000Y-118205000D02*
X140915000Y-118205000D01*
X140240000Y-107855000D02*
X140915000Y-107855000D01*
X150590000Y-107855000D02*
X149915000Y-107855000D01*
X150590000Y-118205000D02*
X150015000Y-118205000D01*
D10*
X59663064Y-30580000D02*
X59208936Y-30580000D01*
X59663064Y-29110000D02*
X59208936Y-29110000D01*
X44984936Y-29110000D02*
X45439064Y-29110000D01*
X44984936Y-30580000D02*
X45439064Y-30580000D01*
X32612064Y-46836000D02*
X32157936Y-46836000D01*
X32612064Y-45366000D02*
X32157936Y-45366000D01*
X32612064Y-40867000D02*
X32157936Y-40867000D01*
X32612064Y-39397000D02*
X32157936Y-39397000D01*
X32612064Y-35279000D02*
X32157936Y-35279000D01*
X32612064Y-33809000D02*
X32157936Y-33809000D01*
X154840000Y-106883564D02*
X154840000Y-106429436D01*
X156310000Y-106883564D02*
X156310000Y-106429436D01*
X53113000Y-43280064D02*
X53113000Y-42825936D01*
X54583000Y-43280064D02*
X54583000Y-42825936D01*
X50192000Y-43280064D02*
X50192000Y-42825936D01*
X51662000Y-43280064D02*
X51662000Y-42825936D01*
X154278000Y-108196748D02*
X154278000Y-108719252D01*
X152808000Y-108196748D02*
X152808000Y-108719252D01*
X136044000Y-120149252D02*
X136044000Y-119626748D01*
X137514000Y-120149252D02*
X137514000Y-119626748D01*
X133342748Y-115851000D02*
X133865252Y-115851000D01*
X133342748Y-117321000D02*
X133865252Y-117321000D01*
X133865252Y-110844000D02*
X133342748Y-110844000D01*
X133865252Y-109374000D02*
X133342748Y-109374000D01*
X145534748Y-121439000D02*
X146057252Y-121439000D01*
X145534748Y-122909000D02*
X146057252Y-122909000D01*
X152808000Y-118244252D02*
X152808000Y-117721748D01*
X154278000Y-118244252D02*
X154278000Y-117721748D01*
X141231252Y-105891000D02*
X140708748Y-105891000D01*
X141231252Y-104421000D02*
X140708748Y-104421000D01*
X261350000Y-122774000D02*
X261350000Y-118874000D01*
X259350000Y-122774000D02*
X259350000Y-118874000D01*
X261350000Y-122774000D02*
X259350000Y-122774000D01*
X242300000Y-122773000D02*
X242300000Y-118873000D01*
X240300000Y-122773000D02*
X240300000Y-118873000D01*
X242300000Y-122773000D02*
X240300000Y-122773000D01*
X223250000Y-122773000D02*
X223250000Y-118873000D01*
X221250000Y-122773000D02*
X221250000Y-118873000D01*
X223250000Y-122773000D02*
X221250000Y-122773000D01*
X185150000Y-122774000D02*
X185150000Y-118874000D01*
X183150000Y-122774000D02*
X183150000Y-118874000D01*
X185150000Y-122774000D02*
X183150000Y-122774000D01*
X114030000Y-122773000D02*
X114030000Y-118873000D01*
X112030000Y-122773000D02*
X112030000Y-118873000D01*
X114030000Y-122773000D02*
X112030000Y-122773000D01*
X75930000Y-122773000D02*
X75930000Y-118873000D01*
X73930000Y-122773000D02*
X73930000Y-118873000D01*
X75930000Y-122773000D02*
X73930000Y-122773000D01*
X56880000Y-122773000D02*
X56880000Y-118873000D01*
X54880000Y-122773000D02*
X54880000Y-118873000D01*
X56880000Y-122773000D02*
X54880000Y-122773000D01*
X37830000Y-122773000D02*
X37830000Y-118873000D01*
X35830000Y-122773000D02*
X35830000Y-118873000D01*
X37830000Y-122773000D02*
X35830000Y-122773000D01*
X261350000Y-103723000D02*
X261350000Y-99823000D01*
X259350000Y-103723000D02*
X259350000Y-99823000D01*
X261350000Y-103723000D02*
X259350000Y-103723000D01*
X242300000Y-103723000D02*
X242300000Y-99823000D01*
X240300000Y-103723000D02*
X240300000Y-99823000D01*
X242300000Y-103723000D02*
X240300000Y-103723000D01*
X223250000Y-103723000D02*
X223250000Y-99823000D01*
X221250000Y-103723000D02*
X221250000Y-99823000D01*
X223250000Y-103723000D02*
X221250000Y-103723000D01*
X209280000Y-103723000D02*
X209280000Y-99823000D01*
X207280000Y-103723000D02*
X207280000Y-99823000D01*
X209280000Y-103723000D02*
X207280000Y-103723000D01*
X185150000Y-103723000D02*
X185150000Y-99823000D01*
X183150000Y-103723000D02*
X183150000Y-99823000D01*
X185150000Y-103723000D02*
X183150000Y-103723000D01*
X171180000Y-103723000D02*
X171180000Y-99823000D01*
X169180000Y-103723000D02*
X169180000Y-99823000D01*
X171180000Y-103723000D02*
X169180000Y-103723000D01*
X137906000Y-103723000D02*
X137906000Y-99823000D01*
X135906000Y-103723000D02*
X135906000Y-99823000D01*
X137906000Y-103723000D02*
X135906000Y-103723000D01*
X114030000Y-103723000D02*
X114030000Y-99823000D01*
X112030000Y-103723000D02*
X112030000Y-99823000D01*
X114030000Y-103723000D02*
X112030000Y-103723000D01*
X99806000Y-103723000D02*
X99806000Y-99823000D01*
X97806000Y-103723000D02*
X97806000Y-99823000D01*
X99806000Y-103723000D02*
X97806000Y-103723000D01*
X75930000Y-103723000D02*
X75930000Y-99823000D01*
X73930000Y-103723000D02*
X73930000Y-99823000D01*
X75930000Y-103723000D02*
X73930000Y-103723000D01*
X56880000Y-103723000D02*
X56880000Y-99823000D01*
X54880000Y-103723000D02*
X54880000Y-99823000D01*
X56880000Y-103723000D02*
X54880000Y-103723000D01*
X37830000Y-103723000D02*
X37830000Y-99823000D01*
X35830000Y-103723000D02*
X35830000Y-99823000D01*
X37830000Y-103723000D02*
X35830000Y-103723000D01*
X261350000Y-84673000D02*
X261350000Y-80773000D01*
X259350000Y-84673000D02*
X259350000Y-80773000D01*
X261350000Y-84673000D02*
X259350000Y-84673000D01*
X242300000Y-84673000D02*
X242300000Y-80773000D01*
X240300000Y-84673000D02*
X240300000Y-80773000D01*
X242300000Y-84673000D02*
X240300000Y-84673000D01*
X223250000Y-84673000D02*
X223250000Y-80773000D01*
X221250000Y-84673000D02*
X221250000Y-80773000D01*
X223250000Y-84673000D02*
X221250000Y-84673000D01*
X204200000Y-84673000D02*
X204200000Y-80773000D01*
X202200000Y-84673000D02*
X202200000Y-80773000D01*
X204200000Y-84673000D02*
X202200000Y-84673000D01*
X185150000Y-84673000D02*
X185150000Y-80773000D01*
X183150000Y-84673000D02*
X183150000Y-80773000D01*
X185150000Y-84673000D02*
X183150000Y-84673000D01*
X166100000Y-84673000D02*
X166100000Y-80773000D01*
X164100000Y-84673000D02*
X164100000Y-80773000D01*
X166100000Y-84673000D02*
X164100000Y-84673000D01*
X133080000Y-84673000D02*
X133080000Y-80773000D01*
X131080000Y-84673000D02*
X131080000Y-80773000D01*
X133080000Y-84673000D02*
X131080000Y-84673000D01*
X114030000Y-84673000D02*
X114030000Y-80773000D01*
X112030000Y-84673000D02*
X112030000Y-80773000D01*
X114030000Y-84673000D02*
X112030000Y-84673000D01*
X94980000Y-84673000D02*
X94980000Y-80773000D01*
X92980000Y-84673000D02*
X92980000Y-80773000D01*
X94980000Y-84673000D02*
X92980000Y-84673000D01*
X75930000Y-84673000D02*
X75930000Y-80773000D01*
X73930000Y-84673000D02*
X73930000Y-80773000D01*
X75930000Y-84673000D02*
X73930000Y-84673000D01*
X56880000Y-84673000D02*
X56880000Y-80773000D01*
X54880000Y-84673000D02*
X54880000Y-80773000D01*
X56880000Y-84673000D02*
X54880000Y-84673000D01*
X37830000Y-84673000D02*
X37830000Y-80773000D01*
X35830000Y-84673000D02*
X35830000Y-80773000D01*
X37830000Y-84673000D02*
X35830000Y-84673000D01*
X261349000Y-65623000D02*
X261349000Y-61723000D01*
X259349000Y-65623000D02*
X259349000Y-61723000D01*
X261349000Y-65623000D02*
X259349000Y-65623000D01*
X242300000Y-65623000D02*
X242300000Y-61723000D01*
X240300000Y-65623000D02*
X240300000Y-61723000D01*
X242300000Y-65623000D02*
X240300000Y-65623000D01*
X223250000Y-65623000D02*
X223250000Y-61723000D01*
X221250000Y-65623000D02*
X221250000Y-61723000D01*
X223250000Y-65623000D02*
X221250000Y-65623000D01*
X204200000Y-65623000D02*
X204200000Y-61723000D01*
X202200000Y-65623000D02*
X202200000Y-61723000D01*
X204200000Y-65623000D02*
X202200000Y-65623000D01*
X185150000Y-65623000D02*
X185150000Y-61723000D01*
X183150000Y-65623000D02*
X183150000Y-61723000D01*
X185150000Y-65623000D02*
X183150000Y-65623000D01*
X166100000Y-65623000D02*
X166100000Y-61723000D01*
X164100000Y-65623000D02*
X164100000Y-61723000D01*
X166100000Y-65623000D02*
X164100000Y-65623000D01*
X133080000Y-65623000D02*
X133080000Y-61723000D01*
X131080000Y-65623000D02*
X131080000Y-61723000D01*
X133080000Y-65623000D02*
X131080000Y-65623000D01*
X114030000Y-65623000D02*
X114030000Y-61723000D01*
X112030000Y-65623000D02*
X112030000Y-61723000D01*
X114030000Y-65623000D02*
X112030000Y-65623000D01*
X94980000Y-65623000D02*
X94980000Y-61723000D01*
X92980000Y-65623000D02*
X92980000Y-61723000D01*
X94980000Y-65623000D02*
X92980000Y-65623000D01*
X75930000Y-65623000D02*
X75930000Y-61723000D01*
X73930000Y-65623000D02*
X73930000Y-61723000D01*
X75930000Y-65623000D02*
X73930000Y-65623000D01*
X56880000Y-65623000D02*
X56880000Y-61723000D01*
X54880000Y-65623000D02*
X54880000Y-61723000D01*
X56880000Y-65623000D02*
X54880000Y-65623000D01*
X37830000Y-65623000D02*
X37830000Y-61723000D01*
X35830000Y-65623000D02*
X35830000Y-61723000D01*
X37830000Y-65623000D02*
X35830000Y-65623000D01*
X141970000Y-46573000D02*
X141970000Y-42673000D01*
X139970000Y-46573000D02*
X139970000Y-42673000D01*
X141970000Y-46573000D02*
X139970000Y-46573000D01*
X122920000Y-46573000D02*
X122920000Y-42673000D01*
X120920000Y-46573000D02*
X120920000Y-42673000D01*
X122920000Y-46573000D02*
X120920000Y-46573000D01*
X103870000Y-46573000D02*
X103870000Y-42673000D01*
X101870000Y-46573000D02*
X101870000Y-42673000D01*
X103870000Y-46573000D02*
X101870000Y-46573000D01*
X84820000Y-46573000D02*
X84820000Y-42673000D01*
X82820000Y-46573000D02*
X82820000Y-42673000D01*
X84820000Y-46573000D02*
X82820000Y-46573000D01*
X65770000Y-46573000D02*
X65770000Y-42673000D01*
X63770000Y-46573000D02*
X63770000Y-42673000D01*
X65770000Y-46573000D02*
X63770000Y-46573000D01*
X46720000Y-46573000D02*
X46720000Y-42673000D01*
X44720000Y-46573000D02*
X44720000Y-42673000D01*
X46720000Y-46573000D02*
X44720000Y-46573000D01*
D11*
X53085904Y-38301380D02*
X53085904Y-39110904D01*
X53038285Y-39206142D01*
X52990666Y-39253761D01*
X52895428Y-39301380D01*
X52704952Y-39301380D01*
X52609714Y-39253761D01*
X52562095Y-39206142D01*
X52514476Y-39110904D01*
X52514476Y-38301380D01*
X52085904Y-38396619D02*
X52038285Y-38349000D01*
X51943047Y-38301380D01*
X51704952Y-38301380D01*
X51609714Y-38349000D01*
X51562095Y-38396619D01*
X51514476Y-38491857D01*
X51514476Y-38587095D01*
X51562095Y-38729952D01*
X52133523Y-39301380D01*
X51514476Y-39301380D01*
X131130190Y-112807809D02*
X131606380Y-112807809D01*
X130606380Y-112474476D02*
X131130190Y-112807809D01*
X130606380Y-113141142D01*
X131606380Y-113998285D02*
X131606380Y-113426857D01*
X131606380Y-113712571D02*
X130606380Y-113712571D01*
X130749238Y-113617333D01*
X130844476Y-113522095D01*
X130892095Y-113426857D01*
X54062095Y-34229380D02*
X54062095Y-35038904D01*
X54014476Y-35134142D01*
X53966857Y-35181761D01*
X53871619Y-35229380D01*
X53681142Y-35229380D01*
X53585904Y-35181761D01*
X53538285Y-35134142D01*
X53490666Y-35038904D01*
X53490666Y-34229380D01*
X53062095Y-35181761D02*
X52919238Y-35229380D01*
X52681142Y-35229380D01*
X52585904Y-35181761D01*
X52538285Y-35134142D01*
X52490666Y-35038904D01*
X52490666Y-34943666D01*
X52538285Y-34848428D01*
X52585904Y-34800809D01*
X52681142Y-34753190D01*
X52871619Y-34705571D01*
X52966857Y-34657952D01*
X53014476Y-34610333D01*
X53062095Y-34515095D01*
X53062095Y-34419857D01*
X53014476Y-34324619D01*
X52966857Y-34277000D01*
X52871619Y-34229380D01*
X52633523Y-34229380D01*
X52490666Y-34277000D01*
X51728761Y-34705571D02*
X51585904Y-34753190D01*
X51538285Y-34800809D01*
X51490666Y-34896047D01*
X51490666Y-35038904D01*
X51538285Y-35134142D01*
X51585904Y-35181761D01*
X51681142Y-35229380D01*
X52062095Y-35229380D01*
X52062095Y-34229380D01*
X51728761Y-34229380D01*
X51633523Y-34277000D01*
X51585904Y-34324619D01*
X51538285Y-34419857D01*
X51538285Y-34515095D01*
X51585904Y-34610333D01*
X51633523Y-34657952D01*
X51728761Y-34705571D01*
X52062095Y-34705571D01*
X50538285Y-35229380D02*
X51109714Y-35229380D01*
X50824000Y-35229380D02*
X50824000Y-34229380D01*
X50919238Y-34372238D01*
X51014476Y-34467476D01*
X51109714Y-34515095D01*
X152317380Y-112268095D02*
X153126904Y-112268095D01*
X153222142Y-112315714D01*
X153269761Y-112363333D01*
X153317380Y-112458571D01*
X153317380Y-112649047D01*
X153269761Y-112744285D01*
X153222142Y-112791904D01*
X153126904Y-112839523D01*
X152317380Y-112839523D01*
X153317380Y-113839523D02*
X153317380Y-113268095D01*
X153317380Y-113553809D02*
X152317380Y-113553809D01*
X152460238Y-113458571D01*
X152555476Y-113363333D01*
X152603095Y-113268095D01*
X59602666Y-28647380D02*
X59936000Y-28171190D01*
X60174095Y-28647380D02*
X60174095Y-27647380D01*
X59793142Y-27647380D01*
X59697904Y-27695000D01*
X59650285Y-27742619D01*
X59602666Y-27837857D01*
X59602666Y-27980714D01*
X59650285Y-28075952D01*
X59697904Y-28123571D01*
X59793142Y-28171190D01*
X60174095Y-28171190D01*
X59126476Y-28647380D02*
X58936000Y-28647380D01*
X58840761Y-28599761D01*
X58793142Y-28552142D01*
X58697904Y-28409285D01*
X58650285Y-28218809D01*
X58650285Y-27837857D01*
X58697904Y-27742619D01*
X58745523Y-27695000D01*
X58840761Y-27647380D01*
X59031238Y-27647380D01*
X59126476Y-27695000D01*
X59174095Y-27742619D01*
X59221714Y-27837857D01*
X59221714Y-28075952D01*
X59174095Y-28171190D01*
X59126476Y-28218809D01*
X59031238Y-28266428D01*
X58840761Y-28266428D01*
X58745523Y-28218809D01*
X58697904Y-28171190D01*
X58650285Y-28075952D01*
X45378666Y-31947380D02*
X45712000Y-31471190D01*
X45950095Y-31947380D02*
X45950095Y-30947380D01*
X45569142Y-30947380D01*
X45473904Y-30995000D01*
X45426285Y-31042619D01*
X45378666Y-31137857D01*
X45378666Y-31280714D01*
X45426285Y-31375952D01*
X45473904Y-31423571D01*
X45569142Y-31471190D01*
X45950095Y-31471190D01*
X44807238Y-31375952D02*
X44902476Y-31328333D01*
X44950095Y-31280714D01*
X44997714Y-31185476D01*
X44997714Y-31137857D01*
X44950095Y-31042619D01*
X44902476Y-30995000D01*
X44807238Y-30947380D01*
X44616761Y-30947380D01*
X44521523Y-30995000D01*
X44473904Y-31042619D01*
X44426285Y-31137857D01*
X44426285Y-31185476D01*
X44473904Y-31280714D01*
X44521523Y-31328333D01*
X44616761Y-31375952D01*
X44807238Y-31375952D01*
X44902476Y-31423571D01*
X44950095Y-31471190D01*
X44997714Y-31566428D01*
X44997714Y-31756904D01*
X44950095Y-31852142D01*
X44902476Y-31899761D01*
X44807238Y-31947380D01*
X44616761Y-31947380D01*
X44521523Y-31899761D01*
X44473904Y-31852142D01*
X44426285Y-31756904D01*
X44426285Y-31566428D01*
X44473904Y-31471190D01*
X44521523Y-31423571D01*
X44616761Y-31375952D01*
X32551666Y-44903380D02*
X32885000Y-44427190D01*
X33123095Y-44903380D02*
X33123095Y-43903380D01*
X32742142Y-43903380D01*
X32646904Y-43951000D01*
X32599285Y-43998619D01*
X32551666Y-44093857D01*
X32551666Y-44236714D01*
X32599285Y-44331952D01*
X32646904Y-44379571D01*
X32742142Y-44427190D01*
X33123095Y-44427190D01*
X32218333Y-43903380D02*
X31551666Y-43903380D01*
X31980238Y-44903380D01*
X32551666Y-38934380D02*
X32885000Y-38458190D01*
X33123095Y-38934380D02*
X33123095Y-37934380D01*
X32742142Y-37934380D01*
X32646904Y-37982000D01*
X32599285Y-38029619D01*
X32551666Y-38124857D01*
X32551666Y-38267714D01*
X32599285Y-38362952D01*
X32646904Y-38410571D01*
X32742142Y-38458190D01*
X33123095Y-38458190D01*
X31694523Y-37934380D02*
X31885000Y-37934380D01*
X31980238Y-37982000D01*
X32027857Y-38029619D01*
X32123095Y-38172476D01*
X32170714Y-38362952D01*
X32170714Y-38743904D01*
X32123095Y-38839142D01*
X32075476Y-38886761D01*
X31980238Y-38934380D01*
X31789761Y-38934380D01*
X31694523Y-38886761D01*
X31646904Y-38839142D01*
X31599285Y-38743904D01*
X31599285Y-38505809D01*
X31646904Y-38410571D01*
X31694523Y-38362952D01*
X31789761Y-38315333D01*
X31980238Y-38315333D01*
X32075476Y-38362952D01*
X32123095Y-38410571D01*
X32170714Y-38505809D01*
X32551666Y-33346380D02*
X32885000Y-32870190D01*
X33123095Y-33346380D02*
X33123095Y-32346380D01*
X32742142Y-32346380D01*
X32646904Y-32394000D01*
X32599285Y-32441619D01*
X32551666Y-32536857D01*
X32551666Y-32679714D01*
X32599285Y-32774952D01*
X32646904Y-32822571D01*
X32742142Y-32870190D01*
X33123095Y-32870190D01*
X31646904Y-32346380D02*
X32123095Y-32346380D01*
X32170714Y-32822571D01*
X32123095Y-32774952D01*
X32027857Y-32727333D01*
X31789761Y-32727333D01*
X31694523Y-32774952D01*
X31646904Y-32822571D01*
X31599285Y-32917809D01*
X31599285Y-33155904D01*
X31646904Y-33251142D01*
X31694523Y-33298761D01*
X31789761Y-33346380D01*
X32027857Y-33346380D01*
X32123095Y-33298761D01*
X32170714Y-33251142D01*
X157677380Y-106489833D02*
X157201190Y-106156500D01*
X157677380Y-105918404D02*
X156677380Y-105918404D01*
X156677380Y-106299357D01*
X156725000Y-106394595D01*
X156772619Y-106442214D01*
X156867857Y-106489833D01*
X157010714Y-106489833D01*
X157105952Y-106442214D01*
X157153571Y-106394595D01*
X157201190Y-106299357D01*
X157201190Y-105918404D01*
X157010714Y-107346976D02*
X157677380Y-107346976D01*
X156629761Y-107108880D02*
X157344047Y-106870785D01*
X157344047Y-107489833D01*
X55950380Y-42886333D02*
X55474190Y-42553000D01*
X55950380Y-42314904D02*
X54950380Y-42314904D01*
X54950380Y-42695857D01*
X54998000Y-42791095D01*
X55045619Y-42838714D01*
X55140857Y-42886333D01*
X55283714Y-42886333D01*
X55378952Y-42838714D01*
X55426571Y-42791095D01*
X55474190Y-42695857D01*
X55474190Y-42314904D01*
X55045619Y-43267285D02*
X54998000Y-43314904D01*
X54950380Y-43410142D01*
X54950380Y-43648238D01*
X54998000Y-43743476D01*
X55045619Y-43791095D01*
X55140857Y-43838714D01*
X55236095Y-43838714D01*
X55378952Y-43791095D01*
X55950380Y-43219666D01*
X55950380Y-43838714D01*
X53029380Y-42886333D02*
X52553190Y-42553000D01*
X53029380Y-42314904D02*
X52029380Y-42314904D01*
X52029380Y-42695857D01*
X52077000Y-42791095D01*
X52124619Y-42838714D01*
X52219857Y-42886333D01*
X52362714Y-42886333D01*
X52457952Y-42838714D01*
X52505571Y-42791095D01*
X52553190Y-42695857D01*
X52553190Y-42314904D01*
X53029380Y-43838714D02*
X53029380Y-43267285D01*
X53029380Y-43553000D02*
X52029380Y-43553000D01*
X52172238Y-43457761D01*
X52267476Y-43362523D01*
X52315095Y-43267285D01*
X152220142Y-108291333D02*
X152267761Y-108243714D01*
X152315380Y-108100857D01*
X152315380Y-108005619D01*
X152267761Y-107862761D01*
X152172523Y-107767523D01*
X152077285Y-107719904D01*
X151886809Y-107672285D01*
X151743952Y-107672285D01*
X151553476Y-107719904D01*
X151458238Y-107767523D01*
X151363000Y-107862761D01*
X151315380Y-108005619D01*
X151315380Y-108100857D01*
X151363000Y-108243714D01*
X151410619Y-108291333D01*
X151315380Y-108624666D02*
X151315380Y-109291333D01*
X152315380Y-108862761D01*
X138816142Y-119721333D02*
X138863761Y-119673714D01*
X138911380Y-119530857D01*
X138911380Y-119435619D01*
X138863761Y-119292761D01*
X138768523Y-119197523D01*
X138673285Y-119149904D01*
X138482809Y-119102285D01*
X138339952Y-119102285D01*
X138149476Y-119149904D01*
X138054238Y-119197523D01*
X137959000Y-119292761D01*
X137911380Y-119435619D01*
X137911380Y-119530857D01*
X137959000Y-119673714D01*
X138006619Y-119721333D01*
X137911380Y-120578476D02*
X137911380Y-120388000D01*
X137959000Y-120292761D01*
X138006619Y-120245142D01*
X138149476Y-120149904D01*
X138339952Y-120102285D01*
X138720904Y-120102285D01*
X138816142Y-120149904D01*
X138863761Y-120197523D01*
X138911380Y-120292761D01*
X138911380Y-120483238D01*
X138863761Y-120578476D01*
X138816142Y-120626095D01*
X138720904Y-120673714D01*
X138482809Y-120673714D01*
X138387571Y-120626095D01*
X138339952Y-120578476D01*
X138292333Y-120483238D01*
X138292333Y-120292761D01*
X138339952Y-120197523D01*
X138387571Y-120149904D01*
X138482809Y-120102285D01*
X133770666Y-118623142D02*
X133818285Y-118670761D01*
X133961142Y-118718380D01*
X134056380Y-118718380D01*
X134199238Y-118670761D01*
X134294476Y-118575523D01*
X134342095Y-118480285D01*
X134389714Y-118289809D01*
X134389714Y-118146952D01*
X134342095Y-117956476D01*
X134294476Y-117861238D01*
X134199238Y-117766000D01*
X134056380Y-117718380D01*
X133961142Y-117718380D01*
X133818285Y-117766000D01*
X133770666Y-117813619D01*
X132865904Y-117718380D02*
X133342095Y-117718380D01*
X133389714Y-118194571D01*
X133342095Y-118146952D01*
X133246857Y-118099333D01*
X133008761Y-118099333D01*
X132913523Y-118146952D01*
X132865904Y-118194571D01*
X132818285Y-118289809D01*
X132818285Y-118527904D01*
X132865904Y-118623142D01*
X132913523Y-118670761D01*
X133008761Y-118718380D01*
X133246857Y-118718380D01*
X133342095Y-118670761D01*
X133389714Y-118623142D01*
X133770666Y-108786142D02*
X133818285Y-108833761D01*
X133961142Y-108881380D01*
X134056380Y-108881380D01*
X134199238Y-108833761D01*
X134294476Y-108738523D01*
X134342095Y-108643285D01*
X134389714Y-108452809D01*
X134389714Y-108309952D01*
X134342095Y-108119476D01*
X134294476Y-108024238D01*
X134199238Y-107929000D01*
X134056380Y-107881380D01*
X133961142Y-107881380D01*
X133818285Y-107929000D01*
X133770666Y-107976619D01*
X132913523Y-108214714D02*
X132913523Y-108881380D01*
X133151619Y-107833761D02*
X133389714Y-108548047D01*
X132770666Y-108548047D01*
X145962666Y-124211142D02*
X146010285Y-124258761D01*
X146153142Y-124306380D01*
X146248380Y-124306380D01*
X146391238Y-124258761D01*
X146486476Y-124163523D01*
X146534095Y-124068285D01*
X146581714Y-123877809D01*
X146581714Y-123734952D01*
X146534095Y-123544476D01*
X146486476Y-123449238D01*
X146391238Y-123354000D01*
X146248380Y-123306380D01*
X146153142Y-123306380D01*
X146010285Y-123354000D01*
X145962666Y-123401619D01*
X145629333Y-123306380D02*
X145010285Y-123306380D01*
X145343619Y-123687333D01*
X145200761Y-123687333D01*
X145105523Y-123734952D01*
X145057904Y-123782571D01*
X145010285Y-123877809D01*
X145010285Y-124115904D01*
X145057904Y-124211142D01*
X145105523Y-124258761D01*
X145200761Y-124306380D01*
X145486476Y-124306380D01*
X145581714Y-124258761D01*
X145629333Y-124211142D01*
X155580142Y-117816333D02*
X155627761Y-117768714D01*
X155675380Y-117625857D01*
X155675380Y-117530619D01*
X155627761Y-117387761D01*
X155532523Y-117292523D01*
X155437285Y-117244904D01*
X155246809Y-117197285D01*
X155103952Y-117197285D01*
X154913476Y-117244904D01*
X154818238Y-117292523D01*
X154723000Y-117387761D01*
X154675380Y-117530619D01*
X154675380Y-117625857D01*
X154723000Y-117768714D01*
X154770619Y-117816333D01*
X154770619Y-118197285D02*
X154723000Y-118244904D01*
X154675380Y-118340142D01*
X154675380Y-118578238D01*
X154723000Y-118673476D01*
X154770619Y-118721095D01*
X154865857Y-118768714D01*
X154961095Y-118768714D01*
X155103952Y-118721095D01*
X155675380Y-118149666D01*
X155675380Y-118768714D01*
X141136666Y-103833142D02*
X141184285Y-103880761D01*
X141327142Y-103928380D01*
X141422380Y-103928380D01*
X141565238Y-103880761D01*
X141660476Y-103785523D01*
X141708095Y-103690285D01*
X141755714Y-103499809D01*
X141755714Y-103356952D01*
X141708095Y-103166476D01*
X141660476Y-103071238D01*
X141565238Y-102976000D01*
X141422380Y-102928380D01*
X141327142Y-102928380D01*
X141184285Y-102976000D01*
X141136666Y-103023619D01*
X140184285Y-103928380D02*
X140755714Y-103928380D01*
X140470000Y-103928380D02*
X140470000Y-102928380D01*
X140565238Y-103071238D01*
X140660476Y-103166476D01*
X140755714Y-103214095D01*
X262802380Y-119309714D02*
X261802380Y-119309714D01*
X261802380Y-119547809D01*
X261850000Y-119690666D01*
X261945238Y-119785904D01*
X262040476Y-119833523D01*
X262230952Y-119881142D01*
X262373809Y-119881142D01*
X262564285Y-119833523D01*
X262659523Y-119785904D01*
X262754761Y-119690666D01*
X262802380Y-119547809D01*
X262802380Y-119309714D01*
X261802380Y-120785904D02*
X261802380Y-120309714D01*
X262278571Y-120262095D01*
X262230952Y-120309714D01*
X262183333Y-120404952D01*
X262183333Y-120643047D01*
X262230952Y-120738285D01*
X262278571Y-120785904D01*
X262373809Y-120833523D01*
X262611904Y-120833523D01*
X262707142Y-120785904D01*
X262754761Y-120738285D01*
X262802380Y-120643047D01*
X262802380Y-120404952D01*
X262754761Y-120309714D01*
X262707142Y-120262095D01*
X261802380Y-121452571D02*
X261802380Y-121547809D01*
X261850000Y-121643047D01*
X261897619Y-121690666D01*
X261992857Y-121738285D01*
X262183333Y-121785904D01*
X262421428Y-121785904D01*
X262611904Y-121738285D01*
X262707142Y-121690666D01*
X262754761Y-121643047D01*
X262802380Y-121547809D01*
X262802380Y-121452571D01*
X262754761Y-121357333D01*
X262707142Y-121309714D01*
X262611904Y-121262095D01*
X262421428Y-121214476D01*
X262183333Y-121214476D01*
X261992857Y-121262095D01*
X261897619Y-121309714D01*
X261850000Y-121357333D01*
X261802380Y-121452571D01*
X243752380Y-119308714D02*
X242752380Y-119308714D01*
X242752380Y-119546809D01*
X242800000Y-119689666D01*
X242895238Y-119784904D01*
X242990476Y-119832523D01*
X243180952Y-119880142D01*
X243323809Y-119880142D01*
X243514285Y-119832523D01*
X243609523Y-119784904D01*
X243704761Y-119689666D01*
X243752380Y-119546809D01*
X243752380Y-119308714D01*
X243085714Y-120737285D02*
X243752380Y-120737285D01*
X242704761Y-120499190D02*
X243419047Y-120261095D01*
X243419047Y-120880142D01*
X243752380Y-121308714D02*
X243752380Y-121499190D01*
X243704761Y-121594428D01*
X243657142Y-121642047D01*
X243514285Y-121737285D01*
X243323809Y-121784904D01*
X242942857Y-121784904D01*
X242847619Y-121737285D01*
X242800000Y-121689666D01*
X242752380Y-121594428D01*
X242752380Y-121403952D01*
X242800000Y-121308714D01*
X242847619Y-121261095D01*
X242942857Y-121213476D01*
X243180952Y-121213476D01*
X243276190Y-121261095D01*
X243323809Y-121308714D01*
X243371428Y-121403952D01*
X243371428Y-121594428D01*
X243323809Y-121689666D01*
X243276190Y-121737285D01*
X243180952Y-121784904D01*
X224702380Y-119308714D02*
X223702380Y-119308714D01*
X223702380Y-119546809D01*
X223750000Y-119689666D01*
X223845238Y-119784904D01*
X223940476Y-119832523D01*
X224130952Y-119880142D01*
X224273809Y-119880142D01*
X224464285Y-119832523D01*
X224559523Y-119784904D01*
X224654761Y-119689666D01*
X224702380Y-119546809D01*
X224702380Y-119308714D01*
X224035714Y-120737285D02*
X224702380Y-120737285D01*
X223654761Y-120499190D02*
X224369047Y-120261095D01*
X224369047Y-120880142D01*
X224130952Y-121403952D02*
X224083333Y-121308714D01*
X224035714Y-121261095D01*
X223940476Y-121213476D01*
X223892857Y-121213476D01*
X223797619Y-121261095D01*
X223750000Y-121308714D01*
X223702380Y-121403952D01*
X223702380Y-121594428D01*
X223750000Y-121689666D01*
X223797619Y-121737285D01*
X223892857Y-121784904D01*
X223940476Y-121784904D01*
X224035714Y-121737285D01*
X224083333Y-121689666D01*
X224130952Y-121594428D01*
X224130952Y-121403952D01*
X224178571Y-121308714D01*
X224226190Y-121261095D01*
X224321428Y-121213476D01*
X224511904Y-121213476D01*
X224607142Y-121261095D01*
X224654761Y-121308714D01*
X224702380Y-121403952D01*
X224702380Y-121594428D01*
X224654761Y-121689666D01*
X224607142Y-121737285D01*
X224511904Y-121784904D01*
X224321428Y-121784904D01*
X224226190Y-121737285D01*
X224178571Y-121689666D01*
X224130952Y-121594428D01*
X186602380Y-119309714D02*
X185602380Y-119309714D01*
X185602380Y-119547809D01*
X185650000Y-119690666D01*
X185745238Y-119785904D01*
X185840476Y-119833523D01*
X186030952Y-119881142D01*
X186173809Y-119881142D01*
X186364285Y-119833523D01*
X186459523Y-119785904D01*
X186554761Y-119690666D01*
X186602380Y-119547809D01*
X186602380Y-119309714D01*
X185935714Y-120738285D02*
X186602380Y-120738285D01*
X185554761Y-120500190D02*
X186269047Y-120262095D01*
X186269047Y-120881142D01*
X185602380Y-121166857D02*
X185602380Y-121833523D01*
X186602380Y-121404952D01*
X115482380Y-119308714D02*
X114482380Y-119308714D01*
X114482380Y-119546809D01*
X114530000Y-119689666D01*
X114625238Y-119784904D01*
X114720476Y-119832523D01*
X114910952Y-119880142D01*
X115053809Y-119880142D01*
X115244285Y-119832523D01*
X115339523Y-119784904D01*
X115434761Y-119689666D01*
X115482380Y-119546809D01*
X115482380Y-119308714D01*
X114815714Y-120737285D02*
X115482380Y-120737285D01*
X114434761Y-120499190D02*
X115149047Y-120261095D01*
X115149047Y-120880142D01*
X114482380Y-121689666D02*
X114482380Y-121499190D01*
X114530000Y-121403952D01*
X114577619Y-121356333D01*
X114720476Y-121261095D01*
X114910952Y-121213476D01*
X115291904Y-121213476D01*
X115387142Y-121261095D01*
X115434761Y-121308714D01*
X115482380Y-121403952D01*
X115482380Y-121594428D01*
X115434761Y-121689666D01*
X115387142Y-121737285D01*
X115291904Y-121784904D01*
X115053809Y-121784904D01*
X114958571Y-121737285D01*
X114910952Y-121689666D01*
X114863333Y-121594428D01*
X114863333Y-121403952D01*
X114910952Y-121308714D01*
X114958571Y-121261095D01*
X115053809Y-121213476D01*
X77382380Y-119308714D02*
X76382380Y-119308714D01*
X76382380Y-119546809D01*
X76430000Y-119689666D01*
X76525238Y-119784904D01*
X76620476Y-119832523D01*
X76810952Y-119880142D01*
X76953809Y-119880142D01*
X77144285Y-119832523D01*
X77239523Y-119784904D01*
X77334761Y-119689666D01*
X77382380Y-119546809D01*
X77382380Y-119308714D01*
X76715714Y-120737285D02*
X77382380Y-120737285D01*
X76334761Y-120499190D02*
X77049047Y-120261095D01*
X77049047Y-120880142D01*
X76382380Y-121737285D02*
X76382380Y-121261095D01*
X76858571Y-121213476D01*
X76810952Y-121261095D01*
X76763333Y-121356333D01*
X76763333Y-121594428D01*
X76810952Y-121689666D01*
X76858571Y-121737285D01*
X76953809Y-121784904D01*
X77191904Y-121784904D01*
X77287142Y-121737285D01*
X77334761Y-121689666D01*
X77382380Y-121594428D01*
X77382380Y-121356333D01*
X77334761Y-121261095D01*
X77287142Y-121213476D01*
X58332380Y-119308714D02*
X57332380Y-119308714D01*
X57332380Y-119546809D01*
X57380000Y-119689666D01*
X57475238Y-119784904D01*
X57570476Y-119832523D01*
X57760952Y-119880142D01*
X57903809Y-119880142D01*
X58094285Y-119832523D01*
X58189523Y-119784904D01*
X58284761Y-119689666D01*
X58332380Y-119546809D01*
X58332380Y-119308714D01*
X57665714Y-120737285D02*
X58332380Y-120737285D01*
X57284761Y-120499190D02*
X57999047Y-120261095D01*
X57999047Y-120880142D01*
X57665714Y-121689666D02*
X58332380Y-121689666D01*
X57284761Y-121451571D02*
X57999047Y-121213476D01*
X57999047Y-121832523D01*
X39282380Y-119308714D02*
X38282380Y-119308714D01*
X38282380Y-119546809D01*
X38330000Y-119689666D01*
X38425238Y-119784904D01*
X38520476Y-119832523D01*
X38710952Y-119880142D01*
X38853809Y-119880142D01*
X39044285Y-119832523D01*
X39139523Y-119784904D01*
X39234761Y-119689666D01*
X39282380Y-119546809D01*
X39282380Y-119308714D01*
X38615714Y-120737285D02*
X39282380Y-120737285D01*
X38234761Y-120499190D02*
X38949047Y-120261095D01*
X38949047Y-120880142D01*
X38282380Y-121165857D02*
X38282380Y-121784904D01*
X38663333Y-121451571D01*
X38663333Y-121594428D01*
X38710952Y-121689666D01*
X38758571Y-121737285D01*
X38853809Y-121784904D01*
X39091904Y-121784904D01*
X39187142Y-121737285D01*
X39234761Y-121689666D01*
X39282380Y-121594428D01*
X39282380Y-121308714D01*
X39234761Y-121213476D01*
X39187142Y-121165857D01*
X262802380Y-100258714D02*
X261802380Y-100258714D01*
X261802380Y-100496809D01*
X261850000Y-100639666D01*
X261945238Y-100734904D01*
X262040476Y-100782523D01*
X262230952Y-100830142D01*
X262373809Y-100830142D01*
X262564285Y-100782523D01*
X262659523Y-100734904D01*
X262754761Y-100639666D01*
X262802380Y-100496809D01*
X262802380Y-100258714D01*
X262135714Y-101687285D02*
X262802380Y-101687285D01*
X261754761Y-101449190D02*
X262469047Y-101211095D01*
X262469047Y-101830142D01*
X261897619Y-102163476D02*
X261850000Y-102211095D01*
X261802380Y-102306333D01*
X261802380Y-102544428D01*
X261850000Y-102639666D01*
X261897619Y-102687285D01*
X261992857Y-102734904D01*
X262088095Y-102734904D01*
X262230952Y-102687285D01*
X262802380Y-102115857D01*
X262802380Y-102734904D01*
X243752380Y-100258714D02*
X242752380Y-100258714D01*
X242752380Y-100496809D01*
X242800000Y-100639666D01*
X242895238Y-100734904D01*
X242990476Y-100782523D01*
X243180952Y-100830142D01*
X243323809Y-100830142D01*
X243514285Y-100782523D01*
X243609523Y-100734904D01*
X243704761Y-100639666D01*
X243752380Y-100496809D01*
X243752380Y-100258714D01*
X243085714Y-101687285D02*
X243752380Y-101687285D01*
X242704761Y-101449190D02*
X243419047Y-101211095D01*
X243419047Y-101830142D01*
X243752380Y-102734904D02*
X243752380Y-102163476D01*
X243752380Y-102449190D02*
X242752380Y-102449190D01*
X242895238Y-102353952D01*
X242990476Y-102258714D01*
X243038095Y-102163476D01*
X224702380Y-100258714D02*
X223702380Y-100258714D01*
X223702380Y-100496809D01*
X223750000Y-100639666D01*
X223845238Y-100734904D01*
X223940476Y-100782523D01*
X224130952Y-100830142D01*
X224273809Y-100830142D01*
X224464285Y-100782523D01*
X224559523Y-100734904D01*
X224654761Y-100639666D01*
X224702380Y-100496809D01*
X224702380Y-100258714D01*
X224035714Y-101687285D02*
X224702380Y-101687285D01*
X223654761Y-101449190D02*
X224369047Y-101211095D01*
X224369047Y-101830142D01*
X223702380Y-102401571D02*
X223702380Y-102496809D01*
X223750000Y-102592047D01*
X223797619Y-102639666D01*
X223892857Y-102687285D01*
X224083333Y-102734904D01*
X224321428Y-102734904D01*
X224511904Y-102687285D01*
X224607142Y-102639666D01*
X224654761Y-102592047D01*
X224702380Y-102496809D01*
X224702380Y-102401571D01*
X224654761Y-102306333D01*
X224607142Y-102258714D01*
X224511904Y-102211095D01*
X224321428Y-102163476D01*
X224083333Y-102163476D01*
X223892857Y-102211095D01*
X223797619Y-102258714D01*
X223750000Y-102306333D01*
X223702380Y-102401571D01*
X210732380Y-100258714D02*
X209732380Y-100258714D01*
X209732380Y-100496809D01*
X209780000Y-100639666D01*
X209875238Y-100734904D01*
X209970476Y-100782523D01*
X210160952Y-100830142D01*
X210303809Y-100830142D01*
X210494285Y-100782523D01*
X210589523Y-100734904D01*
X210684761Y-100639666D01*
X210732380Y-100496809D01*
X210732380Y-100258714D01*
X209732380Y-101163476D02*
X209732380Y-101782523D01*
X210113333Y-101449190D01*
X210113333Y-101592047D01*
X210160952Y-101687285D01*
X210208571Y-101734904D01*
X210303809Y-101782523D01*
X210541904Y-101782523D01*
X210637142Y-101734904D01*
X210684761Y-101687285D01*
X210732380Y-101592047D01*
X210732380Y-101306333D01*
X210684761Y-101211095D01*
X210637142Y-101163476D01*
X210732380Y-102258714D02*
X210732380Y-102449190D01*
X210684761Y-102544428D01*
X210637142Y-102592047D01*
X210494285Y-102687285D01*
X210303809Y-102734904D01*
X209922857Y-102734904D01*
X209827619Y-102687285D01*
X209780000Y-102639666D01*
X209732380Y-102544428D01*
X209732380Y-102353952D01*
X209780000Y-102258714D01*
X209827619Y-102211095D01*
X209922857Y-102163476D01*
X210160952Y-102163476D01*
X210256190Y-102211095D01*
X210303809Y-102258714D01*
X210351428Y-102353952D01*
X210351428Y-102544428D01*
X210303809Y-102639666D01*
X210256190Y-102687285D01*
X210160952Y-102734904D01*
X186602380Y-100258714D02*
X185602380Y-100258714D01*
X185602380Y-100496809D01*
X185650000Y-100639666D01*
X185745238Y-100734904D01*
X185840476Y-100782523D01*
X186030952Y-100830142D01*
X186173809Y-100830142D01*
X186364285Y-100782523D01*
X186459523Y-100734904D01*
X186554761Y-100639666D01*
X186602380Y-100496809D01*
X186602380Y-100258714D01*
X185602380Y-101163476D02*
X185602380Y-101782523D01*
X185983333Y-101449190D01*
X185983333Y-101592047D01*
X186030952Y-101687285D01*
X186078571Y-101734904D01*
X186173809Y-101782523D01*
X186411904Y-101782523D01*
X186507142Y-101734904D01*
X186554761Y-101687285D01*
X186602380Y-101592047D01*
X186602380Y-101306333D01*
X186554761Y-101211095D01*
X186507142Y-101163476D01*
X186030952Y-102353952D02*
X185983333Y-102258714D01*
X185935714Y-102211095D01*
X185840476Y-102163476D01*
X185792857Y-102163476D01*
X185697619Y-102211095D01*
X185650000Y-102258714D01*
X185602380Y-102353952D01*
X185602380Y-102544428D01*
X185650000Y-102639666D01*
X185697619Y-102687285D01*
X185792857Y-102734904D01*
X185840476Y-102734904D01*
X185935714Y-102687285D01*
X185983333Y-102639666D01*
X186030952Y-102544428D01*
X186030952Y-102353952D01*
X186078571Y-102258714D01*
X186126190Y-102211095D01*
X186221428Y-102163476D01*
X186411904Y-102163476D01*
X186507142Y-102211095D01*
X186554761Y-102258714D01*
X186602380Y-102353952D01*
X186602380Y-102544428D01*
X186554761Y-102639666D01*
X186507142Y-102687285D01*
X186411904Y-102734904D01*
X186221428Y-102734904D01*
X186126190Y-102687285D01*
X186078571Y-102639666D01*
X186030952Y-102544428D01*
X172632380Y-100258714D02*
X171632380Y-100258714D01*
X171632380Y-100496809D01*
X171680000Y-100639666D01*
X171775238Y-100734904D01*
X171870476Y-100782523D01*
X172060952Y-100830142D01*
X172203809Y-100830142D01*
X172394285Y-100782523D01*
X172489523Y-100734904D01*
X172584761Y-100639666D01*
X172632380Y-100496809D01*
X172632380Y-100258714D01*
X171632380Y-101163476D02*
X171632380Y-101782523D01*
X172013333Y-101449190D01*
X172013333Y-101592047D01*
X172060952Y-101687285D01*
X172108571Y-101734904D01*
X172203809Y-101782523D01*
X172441904Y-101782523D01*
X172537142Y-101734904D01*
X172584761Y-101687285D01*
X172632380Y-101592047D01*
X172632380Y-101306333D01*
X172584761Y-101211095D01*
X172537142Y-101163476D01*
X171632380Y-102115857D02*
X171632380Y-102782523D01*
X172632380Y-102353952D01*
X139358380Y-100258714D02*
X138358380Y-100258714D01*
X138358380Y-100496809D01*
X138406000Y-100639666D01*
X138501238Y-100734904D01*
X138596476Y-100782523D01*
X138786952Y-100830142D01*
X138929809Y-100830142D01*
X139120285Y-100782523D01*
X139215523Y-100734904D01*
X139310761Y-100639666D01*
X139358380Y-100496809D01*
X139358380Y-100258714D01*
X138358380Y-101163476D02*
X138358380Y-101782523D01*
X138739333Y-101449190D01*
X138739333Y-101592047D01*
X138786952Y-101687285D01*
X138834571Y-101734904D01*
X138929809Y-101782523D01*
X139167904Y-101782523D01*
X139263142Y-101734904D01*
X139310761Y-101687285D01*
X139358380Y-101592047D01*
X139358380Y-101306333D01*
X139310761Y-101211095D01*
X139263142Y-101163476D01*
X138358380Y-102639666D02*
X138358380Y-102449190D01*
X138406000Y-102353952D01*
X138453619Y-102306333D01*
X138596476Y-102211095D01*
X138786952Y-102163476D01*
X139167904Y-102163476D01*
X139263142Y-102211095D01*
X139310761Y-102258714D01*
X139358380Y-102353952D01*
X139358380Y-102544428D01*
X139310761Y-102639666D01*
X139263142Y-102687285D01*
X139167904Y-102734904D01*
X138929809Y-102734904D01*
X138834571Y-102687285D01*
X138786952Y-102639666D01*
X138739333Y-102544428D01*
X138739333Y-102353952D01*
X138786952Y-102258714D01*
X138834571Y-102211095D01*
X138929809Y-102163476D01*
X115482380Y-100258714D02*
X114482380Y-100258714D01*
X114482380Y-100496809D01*
X114530000Y-100639666D01*
X114625238Y-100734904D01*
X114720476Y-100782523D01*
X114910952Y-100830142D01*
X115053809Y-100830142D01*
X115244285Y-100782523D01*
X115339523Y-100734904D01*
X115434761Y-100639666D01*
X115482380Y-100496809D01*
X115482380Y-100258714D01*
X114482380Y-101163476D02*
X114482380Y-101782523D01*
X114863333Y-101449190D01*
X114863333Y-101592047D01*
X114910952Y-101687285D01*
X114958571Y-101734904D01*
X115053809Y-101782523D01*
X115291904Y-101782523D01*
X115387142Y-101734904D01*
X115434761Y-101687285D01*
X115482380Y-101592047D01*
X115482380Y-101306333D01*
X115434761Y-101211095D01*
X115387142Y-101163476D01*
X114482380Y-102687285D02*
X114482380Y-102211095D01*
X114958571Y-102163476D01*
X114910952Y-102211095D01*
X114863333Y-102306333D01*
X114863333Y-102544428D01*
X114910952Y-102639666D01*
X114958571Y-102687285D01*
X115053809Y-102734904D01*
X115291904Y-102734904D01*
X115387142Y-102687285D01*
X115434761Y-102639666D01*
X115482380Y-102544428D01*
X115482380Y-102306333D01*
X115434761Y-102211095D01*
X115387142Y-102163476D01*
X101258380Y-100258714D02*
X100258380Y-100258714D01*
X100258380Y-100496809D01*
X100306000Y-100639666D01*
X100401238Y-100734904D01*
X100496476Y-100782523D01*
X100686952Y-100830142D01*
X100829809Y-100830142D01*
X101020285Y-100782523D01*
X101115523Y-100734904D01*
X101210761Y-100639666D01*
X101258380Y-100496809D01*
X101258380Y-100258714D01*
X100258380Y-101163476D02*
X100258380Y-101782523D01*
X100639333Y-101449190D01*
X100639333Y-101592047D01*
X100686952Y-101687285D01*
X100734571Y-101734904D01*
X100829809Y-101782523D01*
X101067904Y-101782523D01*
X101163142Y-101734904D01*
X101210761Y-101687285D01*
X101258380Y-101592047D01*
X101258380Y-101306333D01*
X101210761Y-101211095D01*
X101163142Y-101163476D01*
X100591714Y-102639666D02*
X101258380Y-102639666D01*
X100210761Y-102401571D02*
X100925047Y-102163476D01*
X100925047Y-102782523D01*
X77382380Y-100258714D02*
X76382380Y-100258714D01*
X76382380Y-100496809D01*
X76430000Y-100639666D01*
X76525238Y-100734904D01*
X76620476Y-100782523D01*
X76810952Y-100830142D01*
X76953809Y-100830142D01*
X77144285Y-100782523D01*
X77239523Y-100734904D01*
X77334761Y-100639666D01*
X77382380Y-100496809D01*
X77382380Y-100258714D01*
X76382380Y-101163476D02*
X76382380Y-101782523D01*
X76763333Y-101449190D01*
X76763333Y-101592047D01*
X76810952Y-101687285D01*
X76858571Y-101734904D01*
X76953809Y-101782523D01*
X77191904Y-101782523D01*
X77287142Y-101734904D01*
X77334761Y-101687285D01*
X77382380Y-101592047D01*
X77382380Y-101306333D01*
X77334761Y-101211095D01*
X77287142Y-101163476D01*
X76382380Y-102115857D02*
X76382380Y-102734904D01*
X76763333Y-102401571D01*
X76763333Y-102544428D01*
X76810952Y-102639666D01*
X76858571Y-102687285D01*
X76953809Y-102734904D01*
X77191904Y-102734904D01*
X77287142Y-102687285D01*
X77334761Y-102639666D01*
X77382380Y-102544428D01*
X77382380Y-102258714D01*
X77334761Y-102163476D01*
X77287142Y-102115857D01*
X58332380Y-100258714D02*
X57332380Y-100258714D01*
X57332380Y-100496809D01*
X57380000Y-100639666D01*
X57475238Y-100734904D01*
X57570476Y-100782523D01*
X57760952Y-100830142D01*
X57903809Y-100830142D01*
X58094285Y-100782523D01*
X58189523Y-100734904D01*
X58284761Y-100639666D01*
X58332380Y-100496809D01*
X58332380Y-100258714D01*
X57332380Y-101163476D02*
X57332380Y-101782523D01*
X57713333Y-101449190D01*
X57713333Y-101592047D01*
X57760952Y-101687285D01*
X57808571Y-101734904D01*
X57903809Y-101782523D01*
X58141904Y-101782523D01*
X58237142Y-101734904D01*
X58284761Y-101687285D01*
X58332380Y-101592047D01*
X58332380Y-101306333D01*
X58284761Y-101211095D01*
X58237142Y-101163476D01*
X57427619Y-102163476D02*
X57380000Y-102211095D01*
X57332380Y-102306333D01*
X57332380Y-102544428D01*
X57380000Y-102639666D01*
X57427619Y-102687285D01*
X57522857Y-102734904D01*
X57618095Y-102734904D01*
X57760952Y-102687285D01*
X58332380Y-102115857D01*
X58332380Y-102734904D01*
X39282380Y-100258714D02*
X38282380Y-100258714D01*
X38282380Y-100496809D01*
X38330000Y-100639666D01*
X38425238Y-100734904D01*
X38520476Y-100782523D01*
X38710952Y-100830142D01*
X38853809Y-100830142D01*
X39044285Y-100782523D01*
X39139523Y-100734904D01*
X39234761Y-100639666D01*
X39282380Y-100496809D01*
X39282380Y-100258714D01*
X38282380Y-101163476D02*
X38282380Y-101782523D01*
X38663333Y-101449190D01*
X38663333Y-101592047D01*
X38710952Y-101687285D01*
X38758571Y-101734904D01*
X38853809Y-101782523D01*
X39091904Y-101782523D01*
X39187142Y-101734904D01*
X39234761Y-101687285D01*
X39282380Y-101592047D01*
X39282380Y-101306333D01*
X39234761Y-101211095D01*
X39187142Y-101163476D01*
X39282380Y-102734904D02*
X39282380Y-102163476D01*
X39282380Y-102449190D02*
X38282380Y-102449190D01*
X38425238Y-102353952D01*
X38520476Y-102258714D01*
X38568095Y-102163476D01*
X262802380Y-81208714D02*
X261802380Y-81208714D01*
X261802380Y-81446809D01*
X261850000Y-81589666D01*
X261945238Y-81684904D01*
X262040476Y-81732523D01*
X262230952Y-81780142D01*
X262373809Y-81780142D01*
X262564285Y-81732523D01*
X262659523Y-81684904D01*
X262754761Y-81589666D01*
X262802380Y-81446809D01*
X262802380Y-81208714D01*
X261802380Y-82113476D02*
X261802380Y-82732523D01*
X262183333Y-82399190D01*
X262183333Y-82542047D01*
X262230952Y-82637285D01*
X262278571Y-82684904D01*
X262373809Y-82732523D01*
X262611904Y-82732523D01*
X262707142Y-82684904D01*
X262754761Y-82637285D01*
X262802380Y-82542047D01*
X262802380Y-82256333D01*
X262754761Y-82161095D01*
X262707142Y-82113476D01*
X261802380Y-83351571D02*
X261802380Y-83446809D01*
X261850000Y-83542047D01*
X261897619Y-83589666D01*
X261992857Y-83637285D01*
X262183333Y-83684904D01*
X262421428Y-83684904D01*
X262611904Y-83637285D01*
X262707142Y-83589666D01*
X262754761Y-83542047D01*
X262802380Y-83446809D01*
X262802380Y-83351571D01*
X262754761Y-83256333D01*
X262707142Y-83208714D01*
X262611904Y-83161095D01*
X262421428Y-83113476D01*
X262183333Y-83113476D01*
X261992857Y-83161095D01*
X261897619Y-83208714D01*
X261850000Y-83256333D01*
X261802380Y-83351571D01*
X243752380Y-81208714D02*
X242752380Y-81208714D01*
X242752380Y-81446809D01*
X242800000Y-81589666D01*
X242895238Y-81684904D01*
X242990476Y-81732523D01*
X243180952Y-81780142D01*
X243323809Y-81780142D01*
X243514285Y-81732523D01*
X243609523Y-81684904D01*
X243704761Y-81589666D01*
X243752380Y-81446809D01*
X243752380Y-81208714D01*
X242847619Y-82161095D02*
X242800000Y-82208714D01*
X242752380Y-82303952D01*
X242752380Y-82542047D01*
X242800000Y-82637285D01*
X242847619Y-82684904D01*
X242942857Y-82732523D01*
X243038095Y-82732523D01*
X243180952Y-82684904D01*
X243752380Y-82113476D01*
X243752380Y-82732523D01*
X243752380Y-83208714D02*
X243752380Y-83399190D01*
X243704761Y-83494428D01*
X243657142Y-83542047D01*
X243514285Y-83637285D01*
X243323809Y-83684904D01*
X242942857Y-83684904D01*
X242847619Y-83637285D01*
X242800000Y-83589666D01*
X242752380Y-83494428D01*
X242752380Y-83303952D01*
X242800000Y-83208714D01*
X242847619Y-83161095D01*
X242942857Y-83113476D01*
X243180952Y-83113476D01*
X243276190Y-83161095D01*
X243323809Y-83208714D01*
X243371428Y-83303952D01*
X243371428Y-83494428D01*
X243323809Y-83589666D01*
X243276190Y-83637285D01*
X243180952Y-83684904D01*
X224702380Y-81208714D02*
X223702380Y-81208714D01*
X223702380Y-81446809D01*
X223750000Y-81589666D01*
X223845238Y-81684904D01*
X223940476Y-81732523D01*
X224130952Y-81780142D01*
X224273809Y-81780142D01*
X224464285Y-81732523D01*
X224559523Y-81684904D01*
X224654761Y-81589666D01*
X224702380Y-81446809D01*
X224702380Y-81208714D01*
X223797619Y-82161095D02*
X223750000Y-82208714D01*
X223702380Y-82303952D01*
X223702380Y-82542047D01*
X223750000Y-82637285D01*
X223797619Y-82684904D01*
X223892857Y-82732523D01*
X223988095Y-82732523D01*
X224130952Y-82684904D01*
X224702380Y-82113476D01*
X224702380Y-82732523D01*
X224130952Y-83303952D02*
X224083333Y-83208714D01*
X224035714Y-83161095D01*
X223940476Y-83113476D01*
X223892857Y-83113476D01*
X223797619Y-83161095D01*
X223750000Y-83208714D01*
X223702380Y-83303952D01*
X223702380Y-83494428D01*
X223750000Y-83589666D01*
X223797619Y-83637285D01*
X223892857Y-83684904D01*
X223940476Y-83684904D01*
X224035714Y-83637285D01*
X224083333Y-83589666D01*
X224130952Y-83494428D01*
X224130952Y-83303952D01*
X224178571Y-83208714D01*
X224226190Y-83161095D01*
X224321428Y-83113476D01*
X224511904Y-83113476D01*
X224607142Y-83161095D01*
X224654761Y-83208714D01*
X224702380Y-83303952D01*
X224702380Y-83494428D01*
X224654761Y-83589666D01*
X224607142Y-83637285D01*
X224511904Y-83684904D01*
X224321428Y-83684904D01*
X224226190Y-83637285D01*
X224178571Y-83589666D01*
X224130952Y-83494428D01*
X205652380Y-81208714D02*
X204652380Y-81208714D01*
X204652380Y-81446809D01*
X204700000Y-81589666D01*
X204795238Y-81684904D01*
X204890476Y-81732523D01*
X205080952Y-81780142D01*
X205223809Y-81780142D01*
X205414285Y-81732523D01*
X205509523Y-81684904D01*
X205604761Y-81589666D01*
X205652380Y-81446809D01*
X205652380Y-81208714D01*
X204747619Y-82161095D02*
X204700000Y-82208714D01*
X204652380Y-82303952D01*
X204652380Y-82542047D01*
X204700000Y-82637285D01*
X204747619Y-82684904D01*
X204842857Y-82732523D01*
X204938095Y-82732523D01*
X205080952Y-82684904D01*
X205652380Y-82113476D01*
X205652380Y-82732523D01*
X204652380Y-83065857D02*
X204652380Y-83732523D01*
X205652380Y-83303952D01*
X186602380Y-81208714D02*
X185602380Y-81208714D01*
X185602380Y-81446809D01*
X185650000Y-81589666D01*
X185745238Y-81684904D01*
X185840476Y-81732523D01*
X186030952Y-81780142D01*
X186173809Y-81780142D01*
X186364285Y-81732523D01*
X186459523Y-81684904D01*
X186554761Y-81589666D01*
X186602380Y-81446809D01*
X186602380Y-81208714D01*
X185697619Y-82161095D02*
X185650000Y-82208714D01*
X185602380Y-82303952D01*
X185602380Y-82542047D01*
X185650000Y-82637285D01*
X185697619Y-82684904D01*
X185792857Y-82732523D01*
X185888095Y-82732523D01*
X186030952Y-82684904D01*
X186602380Y-82113476D01*
X186602380Y-82732523D01*
X185602380Y-83589666D02*
X185602380Y-83399190D01*
X185650000Y-83303952D01*
X185697619Y-83256333D01*
X185840476Y-83161095D01*
X186030952Y-83113476D01*
X186411904Y-83113476D01*
X186507142Y-83161095D01*
X186554761Y-83208714D01*
X186602380Y-83303952D01*
X186602380Y-83494428D01*
X186554761Y-83589666D01*
X186507142Y-83637285D01*
X186411904Y-83684904D01*
X186173809Y-83684904D01*
X186078571Y-83637285D01*
X186030952Y-83589666D01*
X185983333Y-83494428D01*
X185983333Y-83303952D01*
X186030952Y-83208714D01*
X186078571Y-83161095D01*
X186173809Y-83113476D01*
X167552380Y-81208714D02*
X166552380Y-81208714D01*
X166552380Y-81446809D01*
X166600000Y-81589666D01*
X166695238Y-81684904D01*
X166790476Y-81732523D01*
X166980952Y-81780142D01*
X167123809Y-81780142D01*
X167314285Y-81732523D01*
X167409523Y-81684904D01*
X167504761Y-81589666D01*
X167552380Y-81446809D01*
X167552380Y-81208714D01*
X166647619Y-82161095D02*
X166600000Y-82208714D01*
X166552380Y-82303952D01*
X166552380Y-82542047D01*
X166600000Y-82637285D01*
X166647619Y-82684904D01*
X166742857Y-82732523D01*
X166838095Y-82732523D01*
X166980952Y-82684904D01*
X167552380Y-82113476D01*
X167552380Y-82732523D01*
X166552380Y-83637285D02*
X166552380Y-83161095D01*
X167028571Y-83113476D01*
X166980952Y-83161095D01*
X166933333Y-83256333D01*
X166933333Y-83494428D01*
X166980952Y-83589666D01*
X167028571Y-83637285D01*
X167123809Y-83684904D01*
X167361904Y-83684904D01*
X167457142Y-83637285D01*
X167504761Y-83589666D01*
X167552380Y-83494428D01*
X167552380Y-83256333D01*
X167504761Y-83161095D01*
X167457142Y-83113476D01*
X134532380Y-81208714D02*
X133532380Y-81208714D01*
X133532380Y-81446809D01*
X133580000Y-81589666D01*
X133675238Y-81684904D01*
X133770476Y-81732523D01*
X133960952Y-81780142D01*
X134103809Y-81780142D01*
X134294285Y-81732523D01*
X134389523Y-81684904D01*
X134484761Y-81589666D01*
X134532380Y-81446809D01*
X134532380Y-81208714D01*
X133627619Y-82161095D02*
X133580000Y-82208714D01*
X133532380Y-82303952D01*
X133532380Y-82542047D01*
X133580000Y-82637285D01*
X133627619Y-82684904D01*
X133722857Y-82732523D01*
X133818095Y-82732523D01*
X133960952Y-82684904D01*
X134532380Y-82113476D01*
X134532380Y-82732523D01*
X133865714Y-83589666D02*
X134532380Y-83589666D01*
X133484761Y-83351571D02*
X134199047Y-83113476D01*
X134199047Y-83732523D01*
X115482380Y-81208714D02*
X114482380Y-81208714D01*
X114482380Y-81446809D01*
X114530000Y-81589666D01*
X114625238Y-81684904D01*
X114720476Y-81732523D01*
X114910952Y-81780142D01*
X115053809Y-81780142D01*
X115244285Y-81732523D01*
X115339523Y-81684904D01*
X115434761Y-81589666D01*
X115482380Y-81446809D01*
X115482380Y-81208714D01*
X114577619Y-82161095D02*
X114530000Y-82208714D01*
X114482380Y-82303952D01*
X114482380Y-82542047D01*
X114530000Y-82637285D01*
X114577619Y-82684904D01*
X114672857Y-82732523D01*
X114768095Y-82732523D01*
X114910952Y-82684904D01*
X115482380Y-82113476D01*
X115482380Y-82732523D01*
X114482380Y-83065857D02*
X114482380Y-83684904D01*
X114863333Y-83351571D01*
X114863333Y-83494428D01*
X114910952Y-83589666D01*
X114958571Y-83637285D01*
X115053809Y-83684904D01*
X115291904Y-83684904D01*
X115387142Y-83637285D01*
X115434761Y-83589666D01*
X115482380Y-83494428D01*
X115482380Y-83208714D01*
X115434761Y-83113476D01*
X115387142Y-83065857D01*
X96432380Y-81208714D02*
X95432380Y-81208714D01*
X95432380Y-81446809D01*
X95480000Y-81589666D01*
X95575238Y-81684904D01*
X95670476Y-81732523D01*
X95860952Y-81780142D01*
X96003809Y-81780142D01*
X96194285Y-81732523D01*
X96289523Y-81684904D01*
X96384761Y-81589666D01*
X96432380Y-81446809D01*
X96432380Y-81208714D01*
X95527619Y-82161095D02*
X95480000Y-82208714D01*
X95432380Y-82303952D01*
X95432380Y-82542047D01*
X95480000Y-82637285D01*
X95527619Y-82684904D01*
X95622857Y-82732523D01*
X95718095Y-82732523D01*
X95860952Y-82684904D01*
X96432380Y-82113476D01*
X96432380Y-82732523D01*
X95527619Y-83113476D02*
X95480000Y-83161095D01*
X95432380Y-83256333D01*
X95432380Y-83494428D01*
X95480000Y-83589666D01*
X95527619Y-83637285D01*
X95622857Y-83684904D01*
X95718095Y-83684904D01*
X95860952Y-83637285D01*
X96432380Y-83065857D01*
X96432380Y-83684904D01*
X77382380Y-81208714D02*
X76382380Y-81208714D01*
X76382380Y-81446809D01*
X76430000Y-81589666D01*
X76525238Y-81684904D01*
X76620476Y-81732523D01*
X76810952Y-81780142D01*
X76953809Y-81780142D01*
X77144285Y-81732523D01*
X77239523Y-81684904D01*
X77334761Y-81589666D01*
X77382380Y-81446809D01*
X77382380Y-81208714D01*
X76477619Y-82161095D02*
X76430000Y-82208714D01*
X76382380Y-82303952D01*
X76382380Y-82542047D01*
X76430000Y-82637285D01*
X76477619Y-82684904D01*
X76572857Y-82732523D01*
X76668095Y-82732523D01*
X76810952Y-82684904D01*
X77382380Y-82113476D01*
X77382380Y-82732523D01*
X77382380Y-83684904D02*
X77382380Y-83113476D01*
X77382380Y-83399190D02*
X76382380Y-83399190D01*
X76525238Y-83303952D01*
X76620476Y-83208714D01*
X76668095Y-83113476D01*
X58332380Y-81208714D02*
X57332380Y-81208714D01*
X57332380Y-81446809D01*
X57380000Y-81589666D01*
X57475238Y-81684904D01*
X57570476Y-81732523D01*
X57760952Y-81780142D01*
X57903809Y-81780142D01*
X58094285Y-81732523D01*
X58189523Y-81684904D01*
X58284761Y-81589666D01*
X58332380Y-81446809D01*
X58332380Y-81208714D01*
X57427619Y-82161095D02*
X57380000Y-82208714D01*
X57332380Y-82303952D01*
X57332380Y-82542047D01*
X57380000Y-82637285D01*
X57427619Y-82684904D01*
X57522857Y-82732523D01*
X57618095Y-82732523D01*
X57760952Y-82684904D01*
X58332380Y-82113476D01*
X58332380Y-82732523D01*
X57332380Y-83351571D02*
X57332380Y-83446809D01*
X57380000Y-83542047D01*
X57427619Y-83589666D01*
X57522857Y-83637285D01*
X57713333Y-83684904D01*
X57951428Y-83684904D01*
X58141904Y-83637285D01*
X58237142Y-83589666D01*
X58284761Y-83542047D01*
X58332380Y-83446809D01*
X58332380Y-83351571D01*
X58284761Y-83256333D01*
X58237142Y-83208714D01*
X58141904Y-83161095D01*
X57951428Y-83113476D01*
X57713333Y-83113476D01*
X57522857Y-83161095D01*
X57427619Y-83208714D01*
X57380000Y-83256333D01*
X57332380Y-83351571D01*
X39282380Y-81208714D02*
X38282380Y-81208714D01*
X38282380Y-81446809D01*
X38330000Y-81589666D01*
X38425238Y-81684904D01*
X38520476Y-81732523D01*
X38710952Y-81780142D01*
X38853809Y-81780142D01*
X39044285Y-81732523D01*
X39139523Y-81684904D01*
X39234761Y-81589666D01*
X39282380Y-81446809D01*
X39282380Y-81208714D01*
X39282380Y-82732523D02*
X39282380Y-82161095D01*
X39282380Y-82446809D02*
X38282380Y-82446809D01*
X38425238Y-82351571D01*
X38520476Y-82256333D01*
X38568095Y-82161095D01*
X39282380Y-83208714D02*
X39282380Y-83399190D01*
X39234761Y-83494428D01*
X39187142Y-83542047D01*
X39044285Y-83637285D01*
X38853809Y-83684904D01*
X38472857Y-83684904D01*
X38377619Y-83637285D01*
X38330000Y-83589666D01*
X38282380Y-83494428D01*
X38282380Y-83303952D01*
X38330000Y-83208714D01*
X38377619Y-83161095D01*
X38472857Y-83113476D01*
X38710952Y-83113476D01*
X38806190Y-83161095D01*
X38853809Y-83208714D01*
X38901428Y-83303952D01*
X38901428Y-83494428D01*
X38853809Y-83589666D01*
X38806190Y-83637285D01*
X38710952Y-83684904D01*
X262801380Y-62158714D02*
X261801380Y-62158714D01*
X261801380Y-62396809D01*
X261849000Y-62539666D01*
X261944238Y-62634904D01*
X262039476Y-62682523D01*
X262229952Y-62730142D01*
X262372809Y-62730142D01*
X262563285Y-62682523D01*
X262658523Y-62634904D01*
X262753761Y-62539666D01*
X262801380Y-62396809D01*
X262801380Y-62158714D01*
X262801380Y-63682523D02*
X262801380Y-63111095D01*
X262801380Y-63396809D02*
X261801380Y-63396809D01*
X261944238Y-63301571D01*
X262039476Y-63206333D01*
X262087095Y-63111095D01*
X262229952Y-64253952D02*
X262182333Y-64158714D01*
X262134714Y-64111095D01*
X262039476Y-64063476D01*
X261991857Y-64063476D01*
X261896619Y-64111095D01*
X261849000Y-64158714D01*
X261801380Y-64253952D01*
X261801380Y-64444428D01*
X261849000Y-64539666D01*
X261896619Y-64587285D01*
X261991857Y-64634904D01*
X262039476Y-64634904D01*
X262134714Y-64587285D01*
X262182333Y-64539666D01*
X262229952Y-64444428D01*
X262229952Y-64253952D01*
X262277571Y-64158714D01*
X262325190Y-64111095D01*
X262420428Y-64063476D01*
X262610904Y-64063476D01*
X262706142Y-64111095D01*
X262753761Y-64158714D01*
X262801380Y-64253952D01*
X262801380Y-64444428D01*
X262753761Y-64539666D01*
X262706142Y-64587285D01*
X262610904Y-64634904D01*
X262420428Y-64634904D01*
X262325190Y-64587285D01*
X262277571Y-64539666D01*
X262229952Y-64444428D01*
X243752380Y-62158714D02*
X242752380Y-62158714D01*
X242752380Y-62396809D01*
X242800000Y-62539666D01*
X242895238Y-62634904D01*
X242990476Y-62682523D01*
X243180952Y-62730142D01*
X243323809Y-62730142D01*
X243514285Y-62682523D01*
X243609523Y-62634904D01*
X243704761Y-62539666D01*
X243752380Y-62396809D01*
X243752380Y-62158714D01*
X243752380Y-63682523D02*
X243752380Y-63111095D01*
X243752380Y-63396809D02*
X242752380Y-63396809D01*
X242895238Y-63301571D01*
X242990476Y-63206333D01*
X243038095Y-63111095D01*
X242752380Y-64015857D02*
X242752380Y-64682523D01*
X243752380Y-64253952D01*
X224702380Y-62158714D02*
X223702380Y-62158714D01*
X223702380Y-62396809D01*
X223750000Y-62539666D01*
X223845238Y-62634904D01*
X223940476Y-62682523D01*
X224130952Y-62730142D01*
X224273809Y-62730142D01*
X224464285Y-62682523D01*
X224559523Y-62634904D01*
X224654761Y-62539666D01*
X224702380Y-62396809D01*
X224702380Y-62158714D01*
X224702380Y-63682523D02*
X224702380Y-63111095D01*
X224702380Y-63396809D02*
X223702380Y-63396809D01*
X223845238Y-63301571D01*
X223940476Y-63206333D01*
X223988095Y-63111095D01*
X223702380Y-64539666D02*
X223702380Y-64349190D01*
X223750000Y-64253952D01*
X223797619Y-64206333D01*
X223940476Y-64111095D01*
X224130952Y-64063476D01*
X224511904Y-64063476D01*
X224607142Y-64111095D01*
X224654761Y-64158714D01*
X224702380Y-64253952D01*
X224702380Y-64444428D01*
X224654761Y-64539666D01*
X224607142Y-64587285D01*
X224511904Y-64634904D01*
X224273809Y-64634904D01*
X224178571Y-64587285D01*
X224130952Y-64539666D01*
X224083333Y-64444428D01*
X224083333Y-64253952D01*
X224130952Y-64158714D01*
X224178571Y-64111095D01*
X224273809Y-64063476D01*
X205652380Y-62158714D02*
X204652380Y-62158714D01*
X204652380Y-62396809D01*
X204700000Y-62539666D01*
X204795238Y-62634904D01*
X204890476Y-62682523D01*
X205080952Y-62730142D01*
X205223809Y-62730142D01*
X205414285Y-62682523D01*
X205509523Y-62634904D01*
X205604761Y-62539666D01*
X205652380Y-62396809D01*
X205652380Y-62158714D01*
X205652380Y-63682523D02*
X205652380Y-63111095D01*
X205652380Y-63396809D02*
X204652380Y-63396809D01*
X204795238Y-63301571D01*
X204890476Y-63206333D01*
X204938095Y-63111095D01*
X204652380Y-64587285D02*
X204652380Y-64111095D01*
X205128571Y-64063476D01*
X205080952Y-64111095D01*
X205033333Y-64206333D01*
X205033333Y-64444428D01*
X205080952Y-64539666D01*
X205128571Y-64587285D01*
X205223809Y-64634904D01*
X205461904Y-64634904D01*
X205557142Y-64587285D01*
X205604761Y-64539666D01*
X205652380Y-64444428D01*
X205652380Y-64206333D01*
X205604761Y-64111095D01*
X205557142Y-64063476D01*
X186602380Y-62158714D02*
X185602380Y-62158714D01*
X185602380Y-62396809D01*
X185650000Y-62539666D01*
X185745238Y-62634904D01*
X185840476Y-62682523D01*
X186030952Y-62730142D01*
X186173809Y-62730142D01*
X186364285Y-62682523D01*
X186459523Y-62634904D01*
X186554761Y-62539666D01*
X186602380Y-62396809D01*
X186602380Y-62158714D01*
X186602380Y-63682523D02*
X186602380Y-63111095D01*
X186602380Y-63396809D02*
X185602380Y-63396809D01*
X185745238Y-63301571D01*
X185840476Y-63206333D01*
X185888095Y-63111095D01*
X185935714Y-64539666D02*
X186602380Y-64539666D01*
X185554761Y-64301571D02*
X186269047Y-64063476D01*
X186269047Y-64682523D01*
X167552380Y-62158714D02*
X166552380Y-62158714D01*
X166552380Y-62396809D01*
X166600000Y-62539666D01*
X166695238Y-62634904D01*
X166790476Y-62682523D01*
X166980952Y-62730142D01*
X167123809Y-62730142D01*
X167314285Y-62682523D01*
X167409523Y-62634904D01*
X167504761Y-62539666D01*
X167552380Y-62396809D01*
X167552380Y-62158714D01*
X167552380Y-63682523D02*
X167552380Y-63111095D01*
X167552380Y-63396809D02*
X166552380Y-63396809D01*
X166695238Y-63301571D01*
X166790476Y-63206333D01*
X166838095Y-63111095D01*
X166552380Y-64015857D02*
X166552380Y-64634904D01*
X166933333Y-64301571D01*
X166933333Y-64444428D01*
X166980952Y-64539666D01*
X167028571Y-64587285D01*
X167123809Y-64634904D01*
X167361904Y-64634904D01*
X167457142Y-64587285D01*
X167504761Y-64539666D01*
X167552380Y-64444428D01*
X167552380Y-64158714D01*
X167504761Y-64063476D01*
X167457142Y-64015857D01*
X134532380Y-62158714D02*
X133532380Y-62158714D01*
X133532380Y-62396809D01*
X133580000Y-62539666D01*
X133675238Y-62634904D01*
X133770476Y-62682523D01*
X133960952Y-62730142D01*
X134103809Y-62730142D01*
X134294285Y-62682523D01*
X134389523Y-62634904D01*
X134484761Y-62539666D01*
X134532380Y-62396809D01*
X134532380Y-62158714D01*
X134532380Y-63682523D02*
X134532380Y-63111095D01*
X134532380Y-63396809D02*
X133532380Y-63396809D01*
X133675238Y-63301571D01*
X133770476Y-63206333D01*
X133818095Y-63111095D01*
X133627619Y-64063476D02*
X133580000Y-64111095D01*
X133532380Y-64206333D01*
X133532380Y-64444428D01*
X133580000Y-64539666D01*
X133627619Y-64587285D01*
X133722857Y-64634904D01*
X133818095Y-64634904D01*
X133960952Y-64587285D01*
X134532380Y-64015857D01*
X134532380Y-64634904D01*
X115482380Y-62158714D02*
X114482380Y-62158714D01*
X114482380Y-62396809D01*
X114530000Y-62539666D01*
X114625238Y-62634904D01*
X114720476Y-62682523D01*
X114910952Y-62730142D01*
X115053809Y-62730142D01*
X115244285Y-62682523D01*
X115339523Y-62634904D01*
X115434761Y-62539666D01*
X115482380Y-62396809D01*
X115482380Y-62158714D01*
X115482380Y-63682523D02*
X115482380Y-63111095D01*
X115482380Y-63396809D02*
X114482380Y-63396809D01*
X114625238Y-63301571D01*
X114720476Y-63206333D01*
X114768095Y-63111095D01*
X115482380Y-64634904D02*
X115482380Y-64063476D01*
X115482380Y-64349190D02*
X114482380Y-64349190D01*
X114625238Y-64253952D01*
X114720476Y-64158714D01*
X114768095Y-64063476D01*
X96432380Y-62158714D02*
X95432380Y-62158714D01*
X95432380Y-62396809D01*
X95480000Y-62539666D01*
X95575238Y-62634904D01*
X95670476Y-62682523D01*
X95860952Y-62730142D01*
X96003809Y-62730142D01*
X96194285Y-62682523D01*
X96289523Y-62634904D01*
X96384761Y-62539666D01*
X96432380Y-62396809D01*
X96432380Y-62158714D01*
X96432380Y-63682523D02*
X96432380Y-63111095D01*
X96432380Y-63396809D02*
X95432380Y-63396809D01*
X95575238Y-63301571D01*
X95670476Y-63206333D01*
X95718095Y-63111095D01*
X95432380Y-64301571D02*
X95432380Y-64396809D01*
X95480000Y-64492047D01*
X95527619Y-64539666D01*
X95622857Y-64587285D01*
X95813333Y-64634904D01*
X96051428Y-64634904D01*
X96241904Y-64587285D01*
X96337142Y-64539666D01*
X96384761Y-64492047D01*
X96432380Y-64396809D01*
X96432380Y-64301571D01*
X96384761Y-64206333D01*
X96337142Y-64158714D01*
X96241904Y-64111095D01*
X96051428Y-64063476D01*
X95813333Y-64063476D01*
X95622857Y-64111095D01*
X95527619Y-64158714D01*
X95480000Y-64206333D01*
X95432380Y-64301571D01*
X77382380Y-62634904D02*
X76382380Y-62634904D01*
X76382380Y-62873000D01*
X76430000Y-63015857D01*
X76525238Y-63111095D01*
X76620476Y-63158714D01*
X76810952Y-63206333D01*
X76953809Y-63206333D01*
X77144285Y-63158714D01*
X77239523Y-63111095D01*
X77334761Y-63015857D01*
X77382380Y-62873000D01*
X77382380Y-62634904D01*
X77382380Y-63682523D02*
X77382380Y-63873000D01*
X77334761Y-63968238D01*
X77287142Y-64015857D01*
X77144285Y-64111095D01*
X76953809Y-64158714D01*
X76572857Y-64158714D01*
X76477619Y-64111095D01*
X76430000Y-64063476D01*
X76382380Y-63968238D01*
X76382380Y-63777761D01*
X76430000Y-63682523D01*
X76477619Y-63634904D01*
X76572857Y-63587285D01*
X76810952Y-63587285D01*
X76906190Y-63634904D01*
X76953809Y-63682523D01*
X77001428Y-63777761D01*
X77001428Y-63968238D01*
X76953809Y-64063476D01*
X76906190Y-64111095D01*
X76810952Y-64158714D01*
X58332380Y-62634904D02*
X57332380Y-62634904D01*
X57332380Y-62873000D01*
X57380000Y-63015857D01*
X57475238Y-63111095D01*
X57570476Y-63158714D01*
X57760952Y-63206333D01*
X57903809Y-63206333D01*
X58094285Y-63158714D01*
X58189523Y-63111095D01*
X58284761Y-63015857D01*
X58332380Y-62873000D01*
X58332380Y-62634904D01*
X57760952Y-63777761D02*
X57713333Y-63682523D01*
X57665714Y-63634904D01*
X57570476Y-63587285D01*
X57522857Y-63587285D01*
X57427619Y-63634904D01*
X57380000Y-63682523D01*
X57332380Y-63777761D01*
X57332380Y-63968238D01*
X57380000Y-64063476D01*
X57427619Y-64111095D01*
X57522857Y-64158714D01*
X57570476Y-64158714D01*
X57665714Y-64111095D01*
X57713333Y-64063476D01*
X57760952Y-63968238D01*
X57760952Y-63777761D01*
X57808571Y-63682523D01*
X57856190Y-63634904D01*
X57951428Y-63587285D01*
X58141904Y-63587285D01*
X58237142Y-63634904D01*
X58284761Y-63682523D01*
X58332380Y-63777761D01*
X58332380Y-63968238D01*
X58284761Y-64063476D01*
X58237142Y-64111095D01*
X58141904Y-64158714D01*
X57951428Y-64158714D01*
X57856190Y-64111095D01*
X57808571Y-64063476D01*
X57760952Y-63968238D01*
X39282380Y-62634904D02*
X38282380Y-62634904D01*
X38282380Y-62873000D01*
X38330000Y-63015857D01*
X38425238Y-63111095D01*
X38520476Y-63158714D01*
X38710952Y-63206333D01*
X38853809Y-63206333D01*
X39044285Y-63158714D01*
X39139523Y-63111095D01*
X39234761Y-63015857D01*
X39282380Y-62873000D01*
X39282380Y-62634904D01*
X38282380Y-63539666D02*
X38282380Y-64206333D01*
X39282380Y-63777761D01*
X143422380Y-43584904D02*
X142422380Y-43584904D01*
X142422380Y-43823000D01*
X142470000Y-43965857D01*
X142565238Y-44061095D01*
X142660476Y-44108714D01*
X142850952Y-44156333D01*
X142993809Y-44156333D01*
X143184285Y-44108714D01*
X143279523Y-44061095D01*
X143374761Y-43965857D01*
X143422380Y-43823000D01*
X143422380Y-43584904D01*
X142422380Y-45013476D02*
X142422380Y-44823000D01*
X142470000Y-44727761D01*
X142517619Y-44680142D01*
X142660476Y-44584904D01*
X142850952Y-44537285D01*
X143231904Y-44537285D01*
X143327142Y-44584904D01*
X143374761Y-44632523D01*
X143422380Y-44727761D01*
X143422380Y-44918238D01*
X143374761Y-45013476D01*
X143327142Y-45061095D01*
X143231904Y-45108714D01*
X142993809Y-45108714D01*
X142898571Y-45061095D01*
X142850952Y-45013476D01*
X142803333Y-44918238D01*
X142803333Y-44727761D01*
X142850952Y-44632523D01*
X142898571Y-44584904D01*
X142993809Y-44537285D01*
X124372380Y-43584904D02*
X123372380Y-43584904D01*
X123372380Y-43823000D01*
X123420000Y-43965857D01*
X123515238Y-44061095D01*
X123610476Y-44108714D01*
X123800952Y-44156333D01*
X123943809Y-44156333D01*
X124134285Y-44108714D01*
X124229523Y-44061095D01*
X124324761Y-43965857D01*
X124372380Y-43823000D01*
X124372380Y-43584904D01*
X123372380Y-45061095D02*
X123372380Y-44584904D01*
X123848571Y-44537285D01*
X123800952Y-44584904D01*
X123753333Y-44680142D01*
X123753333Y-44918238D01*
X123800952Y-45013476D01*
X123848571Y-45061095D01*
X123943809Y-45108714D01*
X124181904Y-45108714D01*
X124277142Y-45061095D01*
X124324761Y-45013476D01*
X124372380Y-44918238D01*
X124372380Y-44680142D01*
X124324761Y-44584904D01*
X124277142Y-44537285D01*
X105322380Y-43584904D02*
X104322380Y-43584904D01*
X104322380Y-43823000D01*
X104370000Y-43965857D01*
X104465238Y-44061095D01*
X104560476Y-44108714D01*
X104750952Y-44156333D01*
X104893809Y-44156333D01*
X105084285Y-44108714D01*
X105179523Y-44061095D01*
X105274761Y-43965857D01*
X105322380Y-43823000D01*
X105322380Y-43584904D01*
X104655714Y-45013476D02*
X105322380Y-45013476D01*
X104274761Y-44775380D02*
X104989047Y-44537285D01*
X104989047Y-45156333D01*
X86272380Y-43584904D02*
X85272380Y-43584904D01*
X85272380Y-43823000D01*
X85320000Y-43965857D01*
X85415238Y-44061095D01*
X85510476Y-44108714D01*
X85700952Y-44156333D01*
X85843809Y-44156333D01*
X86034285Y-44108714D01*
X86129523Y-44061095D01*
X86224761Y-43965857D01*
X86272380Y-43823000D01*
X86272380Y-43584904D01*
X85272380Y-44489666D02*
X85272380Y-45108714D01*
X85653333Y-44775380D01*
X85653333Y-44918238D01*
X85700952Y-45013476D01*
X85748571Y-45061095D01*
X85843809Y-45108714D01*
X86081904Y-45108714D01*
X86177142Y-45061095D01*
X86224761Y-45013476D01*
X86272380Y-44918238D01*
X86272380Y-44632523D01*
X86224761Y-44537285D01*
X86177142Y-44489666D01*
X67222380Y-43584904D02*
X66222380Y-43584904D01*
X66222380Y-43823000D01*
X66270000Y-43965857D01*
X66365238Y-44061095D01*
X66460476Y-44108714D01*
X66650952Y-44156333D01*
X66793809Y-44156333D01*
X66984285Y-44108714D01*
X67079523Y-44061095D01*
X67174761Y-43965857D01*
X67222380Y-43823000D01*
X67222380Y-43584904D01*
X66317619Y-44537285D02*
X66270000Y-44584904D01*
X66222380Y-44680142D01*
X66222380Y-44918238D01*
X66270000Y-45013476D01*
X66317619Y-45061095D01*
X66412857Y-45108714D01*
X66508095Y-45108714D01*
X66650952Y-45061095D01*
X67222380Y-44489666D01*
X67222380Y-45108714D01*
X48172380Y-43584904D02*
X47172380Y-43584904D01*
X47172380Y-43823000D01*
X47220000Y-43965857D01*
X47315238Y-44061095D01*
X47410476Y-44108714D01*
X47600952Y-44156333D01*
X47743809Y-44156333D01*
X47934285Y-44108714D01*
X48029523Y-44061095D01*
X48124761Y-43965857D01*
X48172380Y-43823000D01*
X48172380Y-43584904D01*
X48172380Y-45108714D02*
X48172380Y-44537285D01*
X48172380Y-44823000D02*
X47172380Y-44823000D01*
X47315238Y-44727761D01*
X47410476Y-44632523D01*
X47458095Y-44537285D01*
%LPC*%
D12*
X262255000Y-114300000D03*
X252095000Y-114300000D03*
D13*
X254675000Y-110300000D03*
D14*
X257175000Y-114300000D03*
D13*
X254020001Y-111030000D03*
D15*
X253365000Y-111760000D02*
X254675002Y-110300000D01*
D13*
X259715000Y-109220000D03*
X259695000Y-109510000D03*
D15*
X259675000Y-109800000D02*
X259715000Y-109220000D01*
D16*
G36*
X54016702Y-37048845D02*
G01*
X54033738Y-37051372D01*
X54050445Y-37055557D01*
X54066661Y-37061359D01*
X54082230Y-37068723D01*
X54097003Y-37077577D01*
X54110836Y-37087837D01*
X54123597Y-37099403D01*
X54135163Y-37112164D01*
X54145423Y-37125997D01*
X54154277Y-37140770D01*
X54161641Y-37156339D01*
X54167443Y-37172555D01*
X54171628Y-37189262D01*
X54174155Y-37206298D01*
X54175000Y-37223500D01*
X54175000Y-37574500D01*
X54174155Y-37591702D01*
X54171628Y-37608738D01*
X54167443Y-37625445D01*
X54161641Y-37641661D01*
X54154277Y-37657230D01*
X54145423Y-37672003D01*
X54135163Y-37685836D01*
X54123597Y-37698597D01*
X54110836Y-37710163D01*
X54097003Y-37720423D01*
X54082230Y-37729277D01*
X54066661Y-37736641D01*
X54050445Y-37742443D01*
X54033738Y-37746628D01*
X54016702Y-37749155D01*
X53999500Y-37750000D01*
X52923500Y-37750000D01*
X52906298Y-37749155D01*
X52889262Y-37746628D01*
X52872555Y-37742443D01*
X52856339Y-37736641D01*
X52840770Y-37729277D01*
X52825997Y-37720423D01*
X52812164Y-37710163D01*
X52799403Y-37698597D01*
X52787837Y-37685836D01*
X52777577Y-37672003D01*
X52768723Y-37657230D01*
X52761359Y-37641661D01*
X52755557Y-37625445D01*
X52751372Y-37608738D01*
X52748845Y-37591702D01*
X52748000Y-37574500D01*
X52748000Y-37223500D01*
X52748845Y-37206298D01*
X52751372Y-37189262D01*
X52755557Y-37172555D01*
X52761359Y-37156339D01*
X52768723Y-37140770D01*
X52777577Y-37125997D01*
X52787837Y-37112164D01*
X52799403Y-37099403D01*
X52812164Y-37087837D01*
X52825997Y-37077577D01*
X52840770Y-37068723D01*
X52856339Y-37061359D01*
X52872555Y-37055557D01*
X52889262Y-37051372D01*
X52906298Y-37048845D01*
X52923500Y-37048000D01*
X53999500Y-37048000D01*
X54016702Y-37048845D01*
X54016702Y-37048845D01*
G37*
D17*
X53461500Y-37399000D03*
D16*
G36*
X54016702Y-36098845D02*
G01*
X54033738Y-36101372D01*
X54050445Y-36105557D01*
X54066661Y-36111359D01*
X54082230Y-36118723D01*
X54097003Y-36127577D01*
X54110836Y-36137837D01*
X54123597Y-36149403D01*
X54135163Y-36162164D01*
X54145423Y-36175997D01*
X54154277Y-36190770D01*
X54161641Y-36206339D01*
X54167443Y-36222555D01*
X54171628Y-36239262D01*
X54174155Y-36256298D01*
X54175000Y-36273500D01*
X54175000Y-36624500D01*
X54174155Y-36641702D01*
X54171628Y-36658738D01*
X54167443Y-36675445D01*
X54161641Y-36691661D01*
X54154277Y-36707230D01*
X54145423Y-36722003D01*
X54135163Y-36735836D01*
X54123597Y-36748597D01*
X54110836Y-36760163D01*
X54097003Y-36770423D01*
X54082230Y-36779277D01*
X54066661Y-36786641D01*
X54050445Y-36792443D01*
X54033738Y-36796628D01*
X54016702Y-36799155D01*
X53999500Y-36800000D01*
X52923500Y-36800000D01*
X52906298Y-36799155D01*
X52889262Y-36796628D01*
X52872555Y-36792443D01*
X52856339Y-36786641D01*
X52840770Y-36779277D01*
X52825997Y-36770423D01*
X52812164Y-36760163D01*
X52799403Y-36748597D01*
X52787837Y-36735836D01*
X52777577Y-36722003D01*
X52768723Y-36707230D01*
X52761359Y-36691661D01*
X52755557Y-36675445D01*
X52751372Y-36658738D01*
X52748845Y-36641702D01*
X52748000Y-36624500D01*
X52748000Y-36273500D01*
X52748845Y-36256298D01*
X52751372Y-36239262D01*
X52755557Y-36222555D01*
X52761359Y-36206339D01*
X52768723Y-36190770D01*
X52777577Y-36175997D01*
X52787837Y-36162164D01*
X52799403Y-36149403D01*
X52812164Y-36137837D01*
X52825997Y-36127577D01*
X52840770Y-36118723D01*
X52856339Y-36111359D01*
X52872555Y-36105557D01*
X52889262Y-36101372D01*
X52906298Y-36098845D01*
X52923500Y-36098000D01*
X53999500Y-36098000D01*
X54016702Y-36098845D01*
X54016702Y-36098845D01*
G37*
D17*
X53461500Y-36449000D03*
D16*
G36*
X54016702Y-35148845D02*
G01*
X54033738Y-35151372D01*
X54050445Y-35155557D01*
X54066661Y-35161359D01*
X54082230Y-35168723D01*
X54097003Y-35177577D01*
X54110836Y-35187837D01*
X54123597Y-35199403D01*
X54135163Y-35212164D01*
X54145423Y-35225997D01*
X54154277Y-35240770D01*
X54161641Y-35256339D01*
X54167443Y-35272555D01*
X54171628Y-35289262D01*
X54174155Y-35306298D01*
X54175000Y-35323500D01*
X54175000Y-35674500D01*
X54174155Y-35691702D01*
X54171628Y-35708738D01*
X54167443Y-35725445D01*
X54161641Y-35741661D01*
X54154277Y-35757230D01*
X54145423Y-35772003D01*
X54135163Y-35785836D01*
X54123597Y-35798597D01*
X54110836Y-35810163D01*
X54097003Y-35820423D01*
X54082230Y-35829277D01*
X54066661Y-35836641D01*
X54050445Y-35842443D01*
X54033738Y-35846628D01*
X54016702Y-35849155D01*
X53999500Y-35850000D01*
X52923500Y-35850000D01*
X52906298Y-35849155D01*
X52889262Y-35846628D01*
X52872555Y-35842443D01*
X52856339Y-35836641D01*
X52840770Y-35829277D01*
X52825997Y-35820423D01*
X52812164Y-35810163D01*
X52799403Y-35798597D01*
X52787837Y-35785836D01*
X52777577Y-35772003D01*
X52768723Y-35757230D01*
X52761359Y-35741661D01*
X52755557Y-35725445D01*
X52751372Y-35708738D01*
X52748845Y-35691702D01*
X52748000Y-35674500D01*
X52748000Y-35323500D01*
X52748845Y-35306298D01*
X52751372Y-35289262D01*
X52755557Y-35272555D01*
X52761359Y-35256339D01*
X52768723Y-35240770D01*
X52777577Y-35225997D01*
X52787837Y-35212164D01*
X52799403Y-35199403D01*
X52812164Y-35187837D01*
X52825997Y-35177577D01*
X52840770Y-35168723D01*
X52856339Y-35161359D01*
X52872555Y-35155557D01*
X52889262Y-35151372D01*
X52906298Y-35148845D01*
X52923500Y-35148000D01*
X53999500Y-35148000D01*
X54016702Y-35148845D01*
X54016702Y-35148845D01*
G37*
D17*
X53461500Y-35499000D03*
D16*
G36*
X51741702Y-35148845D02*
G01*
X51758738Y-35151372D01*
X51775445Y-35155557D01*
X51791661Y-35161359D01*
X51807230Y-35168723D01*
X51822003Y-35177577D01*
X51835836Y-35187837D01*
X51848597Y-35199403D01*
X51860163Y-35212164D01*
X51870423Y-35225997D01*
X51879277Y-35240770D01*
X51886641Y-35256339D01*
X51892443Y-35272555D01*
X51896628Y-35289262D01*
X51899155Y-35306298D01*
X51900000Y-35323500D01*
X51900000Y-35674500D01*
X51899155Y-35691702D01*
X51896628Y-35708738D01*
X51892443Y-35725445D01*
X51886641Y-35741661D01*
X51879277Y-35757230D01*
X51870423Y-35772003D01*
X51860163Y-35785836D01*
X51848597Y-35798597D01*
X51835836Y-35810163D01*
X51822003Y-35820423D01*
X51807230Y-35829277D01*
X51791661Y-35836641D01*
X51775445Y-35842443D01*
X51758738Y-35846628D01*
X51741702Y-35849155D01*
X51724500Y-35850000D01*
X50648500Y-35850000D01*
X50631298Y-35849155D01*
X50614262Y-35846628D01*
X50597555Y-35842443D01*
X50581339Y-35836641D01*
X50565770Y-35829277D01*
X50550997Y-35820423D01*
X50537164Y-35810163D01*
X50524403Y-35798597D01*
X50512837Y-35785836D01*
X50502577Y-35772003D01*
X50493723Y-35757230D01*
X50486359Y-35741661D01*
X50480557Y-35725445D01*
X50476372Y-35708738D01*
X50473845Y-35691702D01*
X50473000Y-35674500D01*
X50473000Y-35323500D01*
X50473845Y-35306298D01*
X50476372Y-35289262D01*
X50480557Y-35272555D01*
X50486359Y-35256339D01*
X50493723Y-35240770D01*
X50502577Y-35225997D01*
X50512837Y-35212164D01*
X50524403Y-35199403D01*
X50537164Y-35187837D01*
X50550997Y-35177577D01*
X50565770Y-35168723D01*
X50581339Y-35161359D01*
X50597555Y-35155557D01*
X50614262Y-35151372D01*
X50631298Y-35148845D01*
X50648500Y-35148000D01*
X51724500Y-35148000D01*
X51741702Y-35148845D01*
X51741702Y-35148845D01*
G37*
D17*
X51186500Y-35499000D03*
D16*
G36*
X51741702Y-36098845D02*
G01*
X51758738Y-36101372D01*
X51775445Y-36105557D01*
X51791661Y-36111359D01*
X51807230Y-36118723D01*
X51822003Y-36127577D01*
X51835836Y-36137837D01*
X51848597Y-36149403D01*
X51860163Y-36162164D01*
X51870423Y-36175997D01*
X51879277Y-36190770D01*
X51886641Y-36206339D01*
X51892443Y-36222555D01*
X51896628Y-36239262D01*
X51899155Y-36256298D01*
X51900000Y-36273500D01*
X51900000Y-36624500D01*
X51899155Y-36641702D01*
X51896628Y-36658738D01*
X51892443Y-36675445D01*
X51886641Y-36691661D01*
X51879277Y-36707230D01*
X51870423Y-36722003D01*
X51860163Y-36735836D01*
X51848597Y-36748597D01*
X51835836Y-36760163D01*
X51822003Y-36770423D01*
X51807230Y-36779277D01*
X51791661Y-36786641D01*
X51775445Y-36792443D01*
X51758738Y-36796628D01*
X51741702Y-36799155D01*
X51724500Y-36800000D01*
X50648500Y-36800000D01*
X50631298Y-36799155D01*
X50614262Y-36796628D01*
X50597555Y-36792443D01*
X50581339Y-36786641D01*
X50565770Y-36779277D01*
X50550997Y-36770423D01*
X50537164Y-36760163D01*
X50524403Y-36748597D01*
X50512837Y-36735836D01*
X50502577Y-36722003D01*
X50493723Y-36707230D01*
X50486359Y-36691661D01*
X50480557Y-36675445D01*
X50476372Y-36658738D01*
X50473845Y-36641702D01*
X50473000Y-36624500D01*
X50473000Y-36273500D01*
X50473845Y-36256298D01*
X50476372Y-36239262D01*
X50480557Y-36222555D01*
X50486359Y-36206339D01*
X50493723Y-36190770D01*
X50502577Y-36175997D01*
X50512837Y-36162164D01*
X50524403Y-36149403D01*
X50537164Y-36137837D01*
X50550997Y-36127577D01*
X50565770Y-36118723D01*
X50581339Y-36111359D01*
X50597555Y-36105557D01*
X50614262Y-36101372D01*
X50631298Y-36098845D01*
X50648500Y-36098000D01*
X51724500Y-36098000D01*
X51741702Y-36098845D01*
X51741702Y-36098845D01*
G37*
D17*
X51186500Y-36449000D03*
D16*
G36*
X51741702Y-37048845D02*
G01*
X51758738Y-37051372D01*
X51775445Y-37055557D01*
X51791661Y-37061359D01*
X51807230Y-37068723D01*
X51822003Y-37077577D01*
X51835836Y-37087837D01*
X51848597Y-37099403D01*
X51860163Y-37112164D01*
X51870423Y-37125997D01*
X51879277Y-37140770D01*
X51886641Y-37156339D01*
X51892443Y-37172555D01*
X51896628Y-37189262D01*
X51899155Y-37206298D01*
X51900000Y-37223500D01*
X51900000Y-37574500D01*
X51899155Y-37591702D01*
X51896628Y-37608738D01*
X51892443Y-37625445D01*
X51886641Y-37641661D01*
X51879277Y-37657230D01*
X51870423Y-37672003D01*
X51860163Y-37685836D01*
X51848597Y-37698597D01*
X51835836Y-37710163D01*
X51822003Y-37720423D01*
X51807230Y-37729277D01*
X51791661Y-37736641D01*
X51775445Y-37742443D01*
X51758738Y-37746628D01*
X51741702Y-37749155D01*
X51724500Y-37750000D01*
X50648500Y-37750000D01*
X50631298Y-37749155D01*
X50614262Y-37746628D01*
X50597555Y-37742443D01*
X50581339Y-37736641D01*
X50565770Y-37729277D01*
X50550997Y-37720423D01*
X50537164Y-37710163D01*
X50524403Y-37698597D01*
X50512837Y-37685836D01*
X50502577Y-37672003D01*
X50493723Y-37657230D01*
X50486359Y-37641661D01*
X50480557Y-37625445D01*
X50476372Y-37608738D01*
X50473845Y-37591702D01*
X50473000Y-37574500D01*
X50473000Y-37223500D01*
X50473845Y-37206298D01*
X50476372Y-37189262D01*
X50480557Y-37172555D01*
X50486359Y-37156339D01*
X50493723Y-37140770D01*
X50502577Y-37125997D01*
X50512837Y-37112164D01*
X50524403Y-37099403D01*
X50537164Y-37087837D01*
X50550997Y-37077577D01*
X50565770Y-37068723D01*
X50581339Y-37061359D01*
X50597555Y-37055557D01*
X50614262Y-37051372D01*
X50631298Y-37048845D01*
X50648500Y-37048000D01*
X51724500Y-37048000D01*
X51741702Y-37048845D01*
X51741702Y-37048845D01*
G37*
D17*
X51186500Y-37399000D03*
D18*
X132754000Y-112184000D03*
X132754000Y-114384000D03*
X134454000Y-114384000D03*
X134454000Y-112184000D03*
D19*
X55549000Y-33222000D03*
X49099000Y-33222000D03*
X54774000Y-33222000D03*
X49874000Y-33222000D03*
D20*
X50574000Y-33222000D03*
X54074000Y-33222000D03*
X51074000Y-33222000D03*
X53574000Y-33222000D03*
X51574000Y-33222000D03*
X53074000Y-33222000D03*
X52574000Y-33222000D03*
X52074000Y-33222000D03*
D21*
X55214000Y-31777000D03*
X49434000Y-31777000D03*
D22*
X151115000Y-117030000D03*
X151115000Y-116230000D03*
X151115000Y-115430000D03*
X151115000Y-114630000D03*
X151115000Y-113830000D03*
X151115000Y-113030000D03*
X151115000Y-112230000D03*
X151115000Y-111430000D03*
X151115000Y-110630000D03*
X151115000Y-109830000D03*
X151115000Y-109030000D03*
D23*
X149415000Y-107330000D03*
X148615000Y-107330000D03*
X147815000Y-107330000D03*
X147015000Y-107330000D03*
X146215000Y-107330000D03*
X145415000Y-107330000D03*
X144615000Y-107330000D03*
X143815000Y-107330000D03*
X143015000Y-107330000D03*
X142215000Y-107330000D03*
X141415000Y-107330000D03*
D22*
X139715000Y-109030000D03*
X139715000Y-109830000D03*
X139715000Y-110630000D03*
X139715000Y-111430000D03*
X139715000Y-112230000D03*
X139715000Y-113030000D03*
X139715000Y-113830000D03*
X139715000Y-114630000D03*
X139715000Y-115430000D03*
X139715000Y-116230000D03*
X139715000Y-117030000D03*
D23*
X141415000Y-118730000D03*
X142215000Y-118730000D03*
X143015000Y-118730000D03*
X143815000Y-118730000D03*
X144615000Y-118730000D03*
X145415000Y-118730000D03*
X146215000Y-118730000D03*
X147015000Y-118730000D03*
X147815000Y-118730000D03*
X148615000Y-118730000D03*
X149415000Y-118730000D03*
D16*
G36*
X58839066Y-29095324D02*
G01*
X58865749Y-29099282D01*
X58891916Y-29105836D01*
X58917314Y-29114924D01*
X58941699Y-29126457D01*
X58964836Y-29140325D01*
X58986503Y-29156394D01*
X59006490Y-29174510D01*
X59024606Y-29194497D01*
X59040675Y-29216164D01*
X59054543Y-29239301D01*
X59066076Y-29263686D01*
X59075164Y-29289084D01*
X59081718Y-29315251D01*
X59085676Y-29341934D01*
X59087000Y-29368877D01*
X59087000Y-30321123D01*
X59085676Y-30348066D01*
X59081718Y-30374749D01*
X59075164Y-30400916D01*
X59066076Y-30426314D01*
X59054543Y-30450699D01*
X59040675Y-30473836D01*
X59024606Y-30495503D01*
X59006490Y-30515490D01*
X58986503Y-30533606D01*
X58964836Y-30549675D01*
X58941699Y-30563543D01*
X58917314Y-30575076D01*
X58891916Y-30584164D01*
X58865749Y-30590718D01*
X58839066Y-30594676D01*
X58812123Y-30596000D01*
X58234877Y-30596000D01*
X58207934Y-30594676D01*
X58181251Y-30590718D01*
X58155084Y-30584164D01*
X58129686Y-30575076D01*
X58105301Y-30563543D01*
X58082164Y-30549675D01*
X58060497Y-30533606D01*
X58040510Y-30515490D01*
X58022394Y-30495503D01*
X58006325Y-30473836D01*
X57992457Y-30450699D01*
X57980924Y-30426314D01*
X57971836Y-30400916D01*
X57965282Y-30374749D01*
X57961324Y-30348066D01*
X57960000Y-30321123D01*
X57960000Y-29368877D01*
X57961324Y-29341934D01*
X57965282Y-29315251D01*
X57971836Y-29289084D01*
X57980924Y-29263686D01*
X57992457Y-29239301D01*
X58006325Y-29216164D01*
X58022394Y-29194497D01*
X58040510Y-29174510D01*
X58060497Y-29156394D01*
X58082164Y-29140325D01*
X58105301Y-29126457D01*
X58129686Y-29114924D01*
X58155084Y-29105836D01*
X58181251Y-29099282D01*
X58207934Y-29095324D01*
X58234877Y-29094000D01*
X58812123Y-29094000D01*
X58839066Y-29095324D01*
X58839066Y-29095324D01*
G37*
D24*
X58523500Y-29845000D03*
D16*
G36*
X60664066Y-29095324D02*
G01*
X60690749Y-29099282D01*
X60716916Y-29105836D01*
X60742314Y-29114924D01*
X60766699Y-29126457D01*
X60789836Y-29140325D01*
X60811503Y-29156394D01*
X60831490Y-29174510D01*
X60849606Y-29194497D01*
X60865675Y-29216164D01*
X60879543Y-29239301D01*
X60891076Y-29263686D01*
X60900164Y-29289084D01*
X60906718Y-29315251D01*
X60910676Y-29341934D01*
X60912000Y-29368877D01*
X60912000Y-30321123D01*
X60910676Y-30348066D01*
X60906718Y-30374749D01*
X60900164Y-30400916D01*
X60891076Y-30426314D01*
X60879543Y-30450699D01*
X60865675Y-30473836D01*
X60849606Y-30495503D01*
X60831490Y-30515490D01*
X60811503Y-30533606D01*
X60789836Y-30549675D01*
X60766699Y-30563543D01*
X60742314Y-30575076D01*
X60716916Y-30584164D01*
X60690749Y-30590718D01*
X60664066Y-30594676D01*
X60637123Y-30596000D01*
X60059877Y-30596000D01*
X60032934Y-30594676D01*
X60006251Y-30590718D01*
X59980084Y-30584164D01*
X59954686Y-30575076D01*
X59930301Y-30563543D01*
X59907164Y-30549675D01*
X59885497Y-30533606D01*
X59865510Y-30515490D01*
X59847394Y-30495503D01*
X59831325Y-30473836D01*
X59817457Y-30450699D01*
X59805924Y-30426314D01*
X59796836Y-30400916D01*
X59790282Y-30374749D01*
X59786324Y-30348066D01*
X59785000Y-30321123D01*
X59785000Y-29368877D01*
X59786324Y-29341934D01*
X59790282Y-29315251D01*
X59796836Y-29289084D01*
X59805924Y-29263686D01*
X59817457Y-29239301D01*
X59831325Y-29216164D01*
X59847394Y-29194497D01*
X59865510Y-29174510D01*
X59885497Y-29156394D01*
X59907164Y-29140325D01*
X59930301Y-29126457D01*
X59954686Y-29114924D01*
X59980084Y-29105836D01*
X60006251Y-29099282D01*
X60032934Y-29095324D01*
X60059877Y-29094000D01*
X60637123Y-29094000D01*
X60664066Y-29095324D01*
X60664066Y-29095324D01*
G37*
D24*
X60348500Y-29845000D03*
D16*
G36*
X46440066Y-29095324D02*
G01*
X46466749Y-29099282D01*
X46492916Y-29105836D01*
X46518314Y-29114924D01*
X46542699Y-29126457D01*
X46565836Y-29140325D01*
X46587503Y-29156394D01*
X46607490Y-29174510D01*
X46625606Y-29194497D01*
X46641675Y-29216164D01*
X46655543Y-29239301D01*
X46667076Y-29263686D01*
X46676164Y-29289084D01*
X46682718Y-29315251D01*
X46686676Y-29341934D01*
X46688000Y-29368877D01*
X46688000Y-30321123D01*
X46686676Y-30348066D01*
X46682718Y-30374749D01*
X46676164Y-30400916D01*
X46667076Y-30426314D01*
X46655543Y-30450699D01*
X46641675Y-30473836D01*
X46625606Y-30495503D01*
X46607490Y-30515490D01*
X46587503Y-30533606D01*
X46565836Y-30549675D01*
X46542699Y-30563543D01*
X46518314Y-30575076D01*
X46492916Y-30584164D01*
X46466749Y-30590718D01*
X46440066Y-30594676D01*
X46413123Y-30596000D01*
X45835877Y-30596000D01*
X45808934Y-30594676D01*
X45782251Y-30590718D01*
X45756084Y-30584164D01*
X45730686Y-30575076D01*
X45706301Y-30563543D01*
X45683164Y-30549675D01*
X45661497Y-30533606D01*
X45641510Y-30515490D01*
X45623394Y-30495503D01*
X45607325Y-30473836D01*
X45593457Y-30450699D01*
X45581924Y-30426314D01*
X45572836Y-30400916D01*
X45566282Y-30374749D01*
X45562324Y-30348066D01*
X45561000Y-30321123D01*
X45561000Y-29368877D01*
X45562324Y-29341934D01*
X45566282Y-29315251D01*
X45572836Y-29289084D01*
X45581924Y-29263686D01*
X45593457Y-29239301D01*
X45607325Y-29216164D01*
X45623394Y-29194497D01*
X45641510Y-29174510D01*
X45661497Y-29156394D01*
X45683164Y-29140325D01*
X45706301Y-29126457D01*
X45730686Y-29114924D01*
X45756084Y-29105836D01*
X45782251Y-29099282D01*
X45808934Y-29095324D01*
X45835877Y-29094000D01*
X46413123Y-29094000D01*
X46440066Y-29095324D01*
X46440066Y-29095324D01*
G37*
D24*
X46124500Y-29845000D03*
D16*
G36*
X44615066Y-29095324D02*
G01*
X44641749Y-29099282D01*
X44667916Y-29105836D01*
X44693314Y-29114924D01*
X44717699Y-29126457D01*
X44740836Y-29140325D01*
X44762503Y-29156394D01*
X44782490Y-29174510D01*
X44800606Y-29194497D01*
X44816675Y-29216164D01*
X44830543Y-29239301D01*
X44842076Y-29263686D01*
X44851164Y-29289084D01*
X44857718Y-29315251D01*
X44861676Y-29341934D01*
X44863000Y-29368877D01*
X44863000Y-30321123D01*
X44861676Y-30348066D01*
X44857718Y-30374749D01*
X44851164Y-30400916D01*
X44842076Y-30426314D01*
X44830543Y-30450699D01*
X44816675Y-30473836D01*
X44800606Y-30495503D01*
X44782490Y-30515490D01*
X44762503Y-30533606D01*
X44740836Y-30549675D01*
X44717699Y-30563543D01*
X44693314Y-30575076D01*
X44667916Y-30584164D01*
X44641749Y-30590718D01*
X44615066Y-30594676D01*
X44588123Y-30596000D01*
X44010877Y-30596000D01*
X43983934Y-30594676D01*
X43957251Y-30590718D01*
X43931084Y-30584164D01*
X43905686Y-30575076D01*
X43881301Y-30563543D01*
X43858164Y-30549675D01*
X43836497Y-30533606D01*
X43816510Y-30515490D01*
X43798394Y-30495503D01*
X43782325Y-30473836D01*
X43768457Y-30450699D01*
X43756924Y-30426314D01*
X43747836Y-30400916D01*
X43741282Y-30374749D01*
X43737324Y-30348066D01*
X43736000Y-30321123D01*
X43736000Y-29368877D01*
X43737324Y-29341934D01*
X43741282Y-29315251D01*
X43747836Y-29289084D01*
X43756924Y-29263686D01*
X43768457Y-29239301D01*
X43782325Y-29216164D01*
X43798394Y-29194497D01*
X43816510Y-29174510D01*
X43836497Y-29156394D01*
X43858164Y-29140325D01*
X43881301Y-29126457D01*
X43905686Y-29114924D01*
X43931084Y-29105836D01*
X43957251Y-29099282D01*
X43983934Y-29095324D01*
X44010877Y-29094000D01*
X44588123Y-29094000D01*
X44615066Y-29095324D01*
X44615066Y-29095324D01*
G37*
D24*
X44299500Y-29845000D03*
D16*
G36*
X31788066Y-45351324D02*
G01*
X31814749Y-45355282D01*
X31840916Y-45361836D01*
X31866314Y-45370924D01*
X31890699Y-45382457D01*
X31913836Y-45396325D01*
X31935503Y-45412394D01*
X31955490Y-45430510D01*
X31973606Y-45450497D01*
X31989675Y-45472164D01*
X32003543Y-45495301D01*
X32015076Y-45519686D01*
X32024164Y-45545084D01*
X32030718Y-45571251D01*
X32034676Y-45597934D01*
X32036000Y-45624877D01*
X32036000Y-46577123D01*
X32034676Y-46604066D01*
X32030718Y-46630749D01*
X32024164Y-46656916D01*
X32015076Y-46682314D01*
X32003543Y-46706699D01*
X31989675Y-46729836D01*
X31973606Y-46751503D01*
X31955490Y-46771490D01*
X31935503Y-46789606D01*
X31913836Y-46805675D01*
X31890699Y-46819543D01*
X31866314Y-46831076D01*
X31840916Y-46840164D01*
X31814749Y-46846718D01*
X31788066Y-46850676D01*
X31761123Y-46852000D01*
X31183877Y-46852000D01*
X31156934Y-46850676D01*
X31130251Y-46846718D01*
X31104084Y-46840164D01*
X31078686Y-46831076D01*
X31054301Y-46819543D01*
X31031164Y-46805675D01*
X31009497Y-46789606D01*
X30989510Y-46771490D01*
X30971394Y-46751503D01*
X30955325Y-46729836D01*
X30941457Y-46706699D01*
X30929924Y-46682314D01*
X30920836Y-46656916D01*
X30914282Y-46630749D01*
X30910324Y-46604066D01*
X30909000Y-46577123D01*
X30909000Y-45624877D01*
X30910324Y-45597934D01*
X30914282Y-45571251D01*
X30920836Y-45545084D01*
X30929924Y-45519686D01*
X30941457Y-45495301D01*
X30955325Y-45472164D01*
X30971394Y-45450497D01*
X30989510Y-45430510D01*
X31009497Y-45412394D01*
X31031164Y-45396325D01*
X31054301Y-45382457D01*
X31078686Y-45370924D01*
X31104084Y-45361836D01*
X31130251Y-45355282D01*
X31156934Y-45351324D01*
X31183877Y-45350000D01*
X31761123Y-45350000D01*
X31788066Y-45351324D01*
X31788066Y-45351324D01*
G37*
D24*
X31472500Y-46101000D03*
D16*
G36*
X33613066Y-45351324D02*
G01*
X33639749Y-45355282D01*
X33665916Y-45361836D01*
X33691314Y-45370924D01*
X33715699Y-45382457D01*
X33738836Y-45396325D01*
X33760503Y-45412394D01*
X33780490Y-45430510D01*
X33798606Y-45450497D01*
X33814675Y-45472164D01*
X33828543Y-45495301D01*
X33840076Y-45519686D01*
X33849164Y-45545084D01*
X33855718Y-45571251D01*
X33859676Y-45597934D01*
X33861000Y-45624877D01*
X33861000Y-46577123D01*
X33859676Y-46604066D01*
X33855718Y-46630749D01*
X33849164Y-46656916D01*
X33840076Y-46682314D01*
X33828543Y-46706699D01*
X33814675Y-46729836D01*
X33798606Y-46751503D01*
X33780490Y-46771490D01*
X33760503Y-46789606D01*
X33738836Y-46805675D01*
X33715699Y-46819543D01*
X33691314Y-46831076D01*
X33665916Y-46840164D01*
X33639749Y-46846718D01*
X33613066Y-46850676D01*
X33586123Y-46852000D01*
X33008877Y-46852000D01*
X32981934Y-46850676D01*
X32955251Y-46846718D01*
X32929084Y-46840164D01*
X32903686Y-46831076D01*
X32879301Y-46819543D01*
X32856164Y-46805675D01*
X32834497Y-46789606D01*
X32814510Y-46771490D01*
X32796394Y-46751503D01*
X32780325Y-46729836D01*
X32766457Y-46706699D01*
X32754924Y-46682314D01*
X32745836Y-46656916D01*
X32739282Y-46630749D01*
X32735324Y-46604066D01*
X32734000Y-46577123D01*
X32734000Y-45624877D01*
X32735324Y-45597934D01*
X32739282Y-45571251D01*
X32745836Y-45545084D01*
X32754924Y-45519686D01*
X32766457Y-45495301D01*
X32780325Y-45472164D01*
X32796394Y-45450497D01*
X32814510Y-45430510D01*
X32834497Y-45412394D01*
X32856164Y-45396325D01*
X32879301Y-45382457D01*
X32903686Y-45370924D01*
X32929084Y-45361836D01*
X32955251Y-45355282D01*
X32981934Y-45351324D01*
X33008877Y-45350000D01*
X33586123Y-45350000D01*
X33613066Y-45351324D01*
X33613066Y-45351324D01*
G37*
D24*
X33297500Y-46101000D03*
D16*
G36*
X31788066Y-39382324D02*
G01*
X31814749Y-39386282D01*
X31840916Y-39392836D01*
X31866314Y-39401924D01*
X31890699Y-39413457D01*
X31913836Y-39427325D01*
X31935503Y-39443394D01*
X31955490Y-39461510D01*
X31973606Y-39481497D01*
X31989675Y-39503164D01*
X32003543Y-39526301D01*
X32015076Y-39550686D01*
X32024164Y-39576084D01*
X32030718Y-39602251D01*
X32034676Y-39628934D01*
X32036000Y-39655877D01*
X32036000Y-40608123D01*
X32034676Y-40635066D01*
X32030718Y-40661749D01*
X32024164Y-40687916D01*
X32015076Y-40713314D01*
X32003543Y-40737699D01*
X31989675Y-40760836D01*
X31973606Y-40782503D01*
X31955490Y-40802490D01*
X31935503Y-40820606D01*
X31913836Y-40836675D01*
X31890699Y-40850543D01*
X31866314Y-40862076D01*
X31840916Y-40871164D01*
X31814749Y-40877718D01*
X31788066Y-40881676D01*
X31761123Y-40883000D01*
X31183877Y-40883000D01*
X31156934Y-40881676D01*
X31130251Y-40877718D01*
X31104084Y-40871164D01*
X31078686Y-40862076D01*
X31054301Y-40850543D01*
X31031164Y-40836675D01*
X31009497Y-40820606D01*
X30989510Y-40802490D01*
X30971394Y-40782503D01*
X30955325Y-40760836D01*
X30941457Y-40737699D01*
X30929924Y-40713314D01*
X30920836Y-40687916D01*
X30914282Y-40661749D01*
X30910324Y-40635066D01*
X30909000Y-40608123D01*
X30909000Y-39655877D01*
X30910324Y-39628934D01*
X30914282Y-39602251D01*
X30920836Y-39576084D01*
X30929924Y-39550686D01*
X30941457Y-39526301D01*
X30955325Y-39503164D01*
X30971394Y-39481497D01*
X30989510Y-39461510D01*
X31009497Y-39443394D01*
X31031164Y-39427325D01*
X31054301Y-39413457D01*
X31078686Y-39401924D01*
X31104084Y-39392836D01*
X31130251Y-39386282D01*
X31156934Y-39382324D01*
X31183877Y-39381000D01*
X31761123Y-39381000D01*
X31788066Y-39382324D01*
X31788066Y-39382324D01*
G37*
D24*
X31472500Y-40132000D03*
D16*
G36*
X33613066Y-39382324D02*
G01*
X33639749Y-39386282D01*
X33665916Y-39392836D01*
X33691314Y-39401924D01*
X33715699Y-39413457D01*
X33738836Y-39427325D01*
X33760503Y-39443394D01*
X33780490Y-39461510D01*
X33798606Y-39481497D01*
X33814675Y-39503164D01*
X33828543Y-39526301D01*
X33840076Y-39550686D01*
X33849164Y-39576084D01*
X33855718Y-39602251D01*
X33859676Y-39628934D01*
X33861000Y-39655877D01*
X33861000Y-40608123D01*
X33859676Y-40635066D01*
X33855718Y-40661749D01*
X33849164Y-40687916D01*
X33840076Y-40713314D01*
X33828543Y-40737699D01*
X33814675Y-40760836D01*
X33798606Y-40782503D01*
X33780490Y-40802490D01*
X33760503Y-40820606D01*
X33738836Y-40836675D01*
X33715699Y-40850543D01*
X33691314Y-40862076D01*
X33665916Y-40871164D01*
X33639749Y-40877718D01*
X33613066Y-40881676D01*
X33586123Y-40883000D01*
X33008877Y-40883000D01*
X32981934Y-40881676D01*
X32955251Y-40877718D01*
X32929084Y-40871164D01*
X32903686Y-40862076D01*
X32879301Y-40850543D01*
X32856164Y-40836675D01*
X32834497Y-40820606D01*
X32814510Y-40802490D01*
X32796394Y-40782503D01*
X32780325Y-40760836D01*
X32766457Y-40737699D01*
X32754924Y-40713314D01*
X32745836Y-40687916D01*
X32739282Y-40661749D01*
X32735324Y-40635066D01*
X32734000Y-40608123D01*
X32734000Y-39655877D01*
X32735324Y-39628934D01*
X32739282Y-39602251D01*
X32745836Y-39576084D01*
X32754924Y-39550686D01*
X32766457Y-39526301D01*
X32780325Y-39503164D01*
X32796394Y-39481497D01*
X32814510Y-39461510D01*
X32834497Y-39443394D01*
X32856164Y-39427325D01*
X32879301Y-39413457D01*
X32903686Y-39401924D01*
X32929084Y-39392836D01*
X32955251Y-39386282D01*
X32981934Y-39382324D01*
X33008877Y-39381000D01*
X33586123Y-39381000D01*
X33613066Y-39382324D01*
X33613066Y-39382324D01*
G37*
D24*
X33297500Y-40132000D03*
D16*
G36*
X31788066Y-33794324D02*
G01*
X31814749Y-33798282D01*
X31840916Y-33804836D01*
X31866314Y-33813924D01*
X31890699Y-33825457D01*
X31913836Y-33839325D01*
X31935503Y-33855394D01*
X31955490Y-33873510D01*
X31973606Y-33893497D01*
X31989675Y-33915164D01*
X32003543Y-33938301D01*
X32015076Y-33962686D01*
X32024164Y-33988084D01*
X32030718Y-34014251D01*
X32034676Y-34040934D01*
X32036000Y-34067877D01*
X32036000Y-35020123D01*
X32034676Y-35047066D01*
X32030718Y-35073749D01*
X32024164Y-35099916D01*
X32015076Y-35125314D01*
X32003543Y-35149699D01*
X31989675Y-35172836D01*
X31973606Y-35194503D01*
X31955490Y-35214490D01*
X31935503Y-35232606D01*
X31913836Y-35248675D01*
X31890699Y-35262543D01*
X31866314Y-35274076D01*
X31840916Y-35283164D01*
X31814749Y-35289718D01*
X31788066Y-35293676D01*
X31761123Y-35295000D01*
X31183877Y-35295000D01*
X31156934Y-35293676D01*
X31130251Y-35289718D01*
X31104084Y-35283164D01*
X31078686Y-35274076D01*
X31054301Y-35262543D01*
X31031164Y-35248675D01*
X31009497Y-35232606D01*
X30989510Y-35214490D01*
X30971394Y-35194503D01*
X30955325Y-35172836D01*
X30941457Y-35149699D01*
X30929924Y-35125314D01*
X30920836Y-35099916D01*
X30914282Y-35073749D01*
X30910324Y-35047066D01*
X30909000Y-35020123D01*
X30909000Y-34067877D01*
X30910324Y-34040934D01*
X30914282Y-34014251D01*
X30920836Y-33988084D01*
X30929924Y-33962686D01*
X30941457Y-33938301D01*
X30955325Y-33915164D01*
X30971394Y-33893497D01*
X30989510Y-33873510D01*
X31009497Y-33855394D01*
X31031164Y-33839325D01*
X31054301Y-33825457D01*
X31078686Y-33813924D01*
X31104084Y-33804836D01*
X31130251Y-33798282D01*
X31156934Y-33794324D01*
X31183877Y-33793000D01*
X31761123Y-33793000D01*
X31788066Y-33794324D01*
X31788066Y-33794324D01*
G37*
D24*
X31472500Y-34544000D03*
D16*
G36*
X33613066Y-33794324D02*
G01*
X33639749Y-33798282D01*
X33665916Y-33804836D01*
X33691314Y-33813924D01*
X33715699Y-33825457D01*
X33738836Y-33839325D01*
X33760503Y-33855394D01*
X33780490Y-33873510D01*
X33798606Y-33893497D01*
X33814675Y-33915164D01*
X33828543Y-33938301D01*
X33840076Y-33962686D01*
X33849164Y-33988084D01*
X33855718Y-34014251D01*
X33859676Y-34040934D01*
X33861000Y-34067877D01*
X33861000Y-35020123D01*
X33859676Y-35047066D01*
X33855718Y-35073749D01*
X33849164Y-35099916D01*
X33840076Y-35125314D01*
X33828543Y-35149699D01*
X33814675Y-35172836D01*
X33798606Y-35194503D01*
X33780490Y-35214490D01*
X33760503Y-35232606D01*
X33738836Y-35248675D01*
X33715699Y-35262543D01*
X33691314Y-35274076D01*
X33665916Y-35283164D01*
X33639749Y-35289718D01*
X33613066Y-35293676D01*
X33586123Y-35295000D01*
X33008877Y-35295000D01*
X32981934Y-35293676D01*
X32955251Y-35289718D01*
X32929084Y-35283164D01*
X32903686Y-35274076D01*
X32879301Y-35262543D01*
X32856164Y-35248675D01*
X32834497Y-35232606D01*
X32814510Y-35214490D01*
X32796394Y-35194503D01*
X32780325Y-35172836D01*
X32766457Y-35149699D01*
X32754924Y-35125314D01*
X32745836Y-35099916D01*
X32739282Y-35073749D01*
X32735324Y-35047066D01*
X32734000Y-35020123D01*
X32734000Y-34067877D01*
X32735324Y-34040934D01*
X32739282Y-34014251D01*
X32745836Y-33988084D01*
X32754924Y-33962686D01*
X32766457Y-33938301D01*
X32780325Y-33915164D01*
X32796394Y-33893497D01*
X32814510Y-33873510D01*
X32834497Y-33855394D01*
X32856164Y-33839325D01*
X32879301Y-33825457D01*
X32903686Y-33813924D01*
X32929084Y-33804836D01*
X32955251Y-33798282D01*
X32981934Y-33794324D01*
X33008877Y-33793000D01*
X33586123Y-33793000D01*
X33613066Y-33794324D01*
X33613066Y-33794324D01*
G37*
D24*
X33297500Y-34544000D03*
D16*
G36*
X156078066Y-105181824D02*
G01*
X156104749Y-105185782D01*
X156130916Y-105192336D01*
X156156314Y-105201424D01*
X156180699Y-105212957D01*
X156203836Y-105226825D01*
X156225503Y-105242894D01*
X156245490Y-105261010D01*
X156263606Y-105280997D01*
X156279675Y-105302664D01*
X156293543Y-105325801D01*
X156305076Y-105350186D01*
X156314164Y-105375584D01*
X156320718Y-105401751D01*
X156324676Y-105428434D01*
X156326000Y-105455377D01*
X156326000Y-106032623D01*
X156324676Y-106059566D01*
X156320718Y-106086249D01*
X156314164Y-106112416D01*
X156305076Y-106137814D01*
X156293543Y-106162199D01*
X156279675Y-106185336D01*
X156263606Y-106207003D01*
X156245490Y-106226990D01*
X156225503Y-106245106D01*
X156203836Y-106261175D01*
X156180699Y-106275043D01*
X156156314Y-106286576D01*
X156130916Y-106295664D01*
X156104749Y-106302218D01*
X156078066Y-106306176D01*
X156051123Y-106307500D01*
X155098877Y-106307500D01*
X155071934Y-106306176D01*
X155045251Y-106302218D01*
X155019084Y-106295664D01*
X154993686Y-106286576D01*
X154969301Y-106275043D01*
X154946164Y-106261175D01*
X154924497Y-106245106D01*
X154904510Y-106226990D01*
X154886394Y-106207003D01*
X154870325Y-106185336D01*
X154856457Y-106162199D01*
X154844924Y-106137814D01*
X154835836Y-106112416D01*
X154829282Y-106086249D01*
X154825324Y-106059566D01*
X154824000Y-106032623D01*
X154824000Y-105455377D01*
X154825324Y-105428434D01*
X154829282Y-105401751D01*
X154835836Y-105375584D01*
X154844924Y-105350186D01*
X154856457Y-105325801D01*
X154870325Y-105302664D01*
X154886394Y-105280997D01*
X154904510Y-105261010D01*
X154924497Y-105242894D01*
X154946164Y-105226825D01*
X154969301Y-105212957D01*
X154993686Y-105201424D01*
X155019084Y-105192336D01*
X155045251Y-105185782D01*
X155071934Y-105181824D01*
X155098877Y-105180500D01*
X156051123Y-105180500D01*
X156078066Y-105181824D01*
X156078066Y-105181824D01*
G37*
D24*
X155575000Y-105744000D03*
D16*
G36*
X156078066Y-107006824D02*
G01*
X156104749Y-107010782D01*
X156130916Y-107017336D01*
X156156314Y-107026424D01*
X156180699Y-107037957D01*
X156203836Y-107051825D01*
X156225503Y-107067894D01*
X156245490Y-107086010D01*
X156263606Y-107105997D01*
X156279675Y-107127664D01*
X156293543Y-107150801D01*
X156305076Y-107175186D01*
X156314164Y-107200584D01*
X156320718Y-107226751D01*
X156324676Y-107253434D01*
X156326000Y-107280377D01*
X156326000Y-107857623D01*
X156324676Y-107884566D01*
X156320718Y-107911249D01*
X156314164Y-107937416D01*
X156305076Y-107962814D01*
X156293543Y-107987199D01*
X156279675Y-108010336D01*
X156263606Y-108032003D01*
X156245490Y-108051990D01*
X156225503Y-108070106D01*
X156203836Y-108086175D01*
X156180699Y-108100043D01*
X156156314Y-108111576D01*
X156130916Y-108120664D01*
X156104749Y-108127218D01*
X156078066Y-108131176D01*
X156051123Y-108132500D01*
X155098877Y-108132500D01*
X155071934Y-108131176D01*
X155045251Y-108127218D01*
X155019084Y-108120664D01*
X154993686Y-108111576D01*
X154969301Y-108100043D01*
X154946164Y-108086175D01*
X154924497Y-108070106D01*
X154904510Y-108051990D01*
X154886394Y-108032003D01*
X154870325Y-108010336D01*
X154856457Y-107987199D01*
X154844924Y-107962814D01*
X154835836Y-107937416D01*
X154829282Y-107911249D01*
X154825324Y-107884566D01*
X154824000Y-107857623D01*
X154824000Y-107280377D01*
X154825324Y-107253434D01*
X154829282Y-107226751D01*
X154835836Y-107200584D01*
X154844924Y-107175186D01*
X154856457Y-107150801D01*
X154870325Y-107127664D01*
X154886394Y-107105997D01*
X154904510Y-107086010D01*
X154924497Y-107067894D01*
X154946164Y-107051825D01*
X154969301Y-107037957D01*
X154993686Y-107026424D01*
X155019084Y-107017336D01*
X155045251Y-107010782D01*
X155071934Y-107006824D01*
X155098877Y-107005500D01*
X156051123Y-107005500D01*
X156078066Y-107006824D01*
X156078066Y-107006824D01*
G37*
D24*
X155575000Y-107569000D03*
D16*
G36*
X54351066Y-41578324D02*
G01*
X54377749Y-41582282D01*
X54403916Y-41588836D01*
X54429314Y-41597924D01*
X54453699Y-41609457D01*
X54476836Y-41623325D01*
X54498503Y-41639394D01*
X54518490Y-41657510D01*
X54536606Y-41677497D01*
X54552675Y-41699164D01*
X54566543Y-41722301D01*
X54578076Y-41746686D01*
X54587164Y-41772084D01*
X54593718Y-41798251D01*
X54597676Y-41824934D01*
X54599000Y-41851877D01*
X54599000Y-42429123D01*
X54597676Y-42456066D01*
X54593718Y-42482749D01*
X54587164Y-42508916D01*
X54578076Y-42534314D01*
X54566543Y-42558699D01*
X54552675Y-42581836D01*
X54536606Y-42603503D01*
X54518490Y-42623490D01*
X54498503Y-42641606D01*
X54476836Y-42657675D01*
X54453699Y-42671543D01*
X54429314Y-42683076D01*
X54403916Y-42692164D01*
X54377749Y-42698718D01*
X54351066Y-42702676D01*
X54324123Y-42704000D01*
X53371877Y-42704000D01*
X53344934Y-42702676D01*
X53318251Y-42698718D01*
X53292084Y-42692164D01*
X53266686Y-42683076D01*
X53242301Y-42671543D01*
X53219164Y-42657675D01*
X53197497Y-42641606D01*
X53177510Y-42623490D01*
X53159394Y-42603503D01*
X53143325Y-42581836D01*
X53129457Y-42558699D01*
X53117924Y-42534314D01*
X53108836Y-42508916D01*
X53102282Y-42482749D01*
X53098324Y-42456066D01*
X53097000Y-42429123D01*
X53097000Y-41851877D01*
X53098324Y-41824934D01*
X53102282Y-41798251D01*
X53108836Y-41772084D01*
X53117924Y-41746686D01*
X53129457Y-41722301D01*
X53143325Y-41699164D01*
X53159394Y-41677497D01*
X53177510Y-41657510D01*
X53197497Y-41639394D01*
X53219164Y-41623325D01*
X53242301Y-41609457D01*
X53266686Y-41597924D01*
X53292084Y-41588836D01*
X53318251Y-41582282D01*
X53344934Y-41578324D01*
X53371877Y-41577000D01*
X54324123Y-41577000D01*
X54351066Y-41578324D01*
X54351066Y-41578324D01*
G37*
D24*
X53848000Y-42140500D03*
D16*
G36*
X54351066Y-43403324D02*
G01*
X54377749Y-43407282D01*
X54403916Y-43413836D01*
X54429314Y-43422924D01*
X54453699Y-43434457D01*
X54476836Y-43448325D01*
X54498503Y-43464394D01*
X54518490Y-43482510D01*
X54536606Y-43502497D01*
X54552675Y-43524164D01*
X54566543Y-43547301D01*
X54578076Y-43571686D01*
X54587164Y-43597084D01*
X54593718Y-43623251D01*
X54597676Y-43649934D01*
X54599000Y-43676877D01*
X54599000Y-44254123D01*
X54597676Y-44281066D01*
X54593718Y-44307749D01*
X54587164Y-44333916D01*
X54578076Y-44359314D01*
X54566543Y-44383699D01*
X54552675Y-44406836D01*
X54536606Y-44428503D01*
X54518490Y-44448490D01*
X54498503Y-44466606D01*
X54476836Y-44482675D01*
X54453699Y-44496543D01*
X54429314Y-44508076D01*
X54403916Y-44517164D01*
X54377749Y-44523718D01*
X54351066Y-44527676D01*
X54324123Y-44529000D01*
X53371877Y-44529000D01*
X53344934Y-44527676D01*
X53318251Y-44523718D01*
X53292084Y-44517164D01*
X53266686Y-44508076D01*
X53242301Y-44496543D01*
X53219164Y-44482675D01*
X53197497Y-44466606D01*
X53177510Y-44448490D01*
X53159394Y-44428503D01*
X53143325Y-44406836D01*
X53129457Y-44383699D01*
X53117924Y-44359314D01*
X53108836Y-44333916D01*
X53102282Y-44307749D01*
X53098324Y-44281066D01*
X53097000Y-44254123D01*
X53097000Y-43676877D01*
X53098324Y-43649934D01*
X53102282Y-43623251D01*
X53108836Y-43597084D01*
X53117924Y-43571686D01*
X53129457Y-43547301D01*
X53143325Y-43524164D01*
X53159394Y-43502497D01*
X53177510Y-43482510D01*
X53197497Y-43464394D01*
X53219164Y-43448325D01*
X53242301Y-43434457D01*
X53266686Y-43422924D01*
X53292084Y-43413836D01*
X53318251Y-43407282D01*
X53344934Y-43403324D01*
X53371877Y-43402000D01*
X54324123Y-43402000D01*
X54351066Y-43403324D01*
X54351066Y-43403324D01*
G37*
D24*
X53848000Y-43965500D03*
D16*
G36*
X51430066Y-41578324D02*
G01*
X51456749Y-41582282D01*
X51482916Y-41588836D01*
X51508314Y-41597924D01*
X51532699Y-41609457D01*
X51555836Y-41623325D01*
X51577503Y-41639394D01*
X51597490Y-41657510D01*
X51615606Y-41677497D01*
X51631675Y-41699164D01*
X51645543Y-41722301D01*
X51657076Y-41746686D01*
X51666164Y-41772084D01*
X51672718Y-41798251D01*
X51676676Y-41824934D01*
X51678000Y-41851877D01*
X51678000Y-42429123D01*
X51676676Y-42456066D01*
X51672718Y-42482749D01*
X51666164Y-42508916D01*
X51657076Y-42534314D01*
X51645543Y-42558699D01*
X51631675Y-42581836D01*
X51615606Y-42603503D01*
X51597490Y-42623490D01*
X51577503Y-42641606D01*
X51555836Y-42657675D01*
X51532699Y-42671543D01*
X51508314Y-42683076D01*
X51482916Y-42692164D01*
X51456749Y-42698718D01*
X51430066Y-42702676D01*
X51403123Y-42704000D01*
X50450877Y-42704000D01*
X50423934Y-42702676D01*
X50397251Y-42698718D01*
X50371084Y-42692164D01*
X50345686Y-42683076D01*
X50321301Y-42671543D01*
X50298164Y-42657675D01*
X50276497Y-42641606D01*
X50256510Y-42623490D01*
X50238394Y-42603503D01*
X50222325Y-42581836D01*
X50208457Y-42558699D01*
X50196924Y-42534314D01*
X50187836Y-42508916D01*
X50181282Y-42482749D01*
X50177324Y-42456066D01*
X50176000Y-42429123D01*
X50176000Y-41851877D01*
X50177324Y-41824934D01*
X50181282Y-41798251D01*
X50187836Y-41772084D01*
X50196924Y-41746686D01*
X50208457Y-41722301D01*
X50222325Y-41699164D01*
X50238394Y-41677497D01*
X50256510Y-41657510D01*
X50276497Y-41639394D01*
X50298164Y-41623325D01*
X50321301Y-41609457D01*
X50345686Y-41597924D01*
X50371084Y-41588836D01*
X50397251Y-41582282D01*
X50423934Y-41578324D01*
X50450877Y-41577000D01*
X51403123Y-41577000D01*
X51430066Y-41578324D01*
X51430066Y-41578324D01*
G37*
D24*
X50927000Y-42140500D03*
D16*
G36*
X51430066Y-43403324D02*
G01*
X51456749Y-43407282D01*
X51482916Y-43413836D01*
X51508314Y-43422924D01*
X51532699Y-43434457D01*
X51555836Y-43448325D01*
X51577503Y-43464394D01*
X51597490Y-43482510D01*
X51615606Y-43502497D01*
X51631675Y-43524164D01*
X51645543Y-43547301D01*
X51657076Y-43571686D01*
X51666164Y-43597084D01*
X51672718Y-43623251D01*
X51676676Y-43649934D01*
X51678000Y-43676877D01*
X51678000Y-44254123D01*
X51676676Y-44281066D01*
X51672718Y-44307749D01*
X51666164Y-44333916D01*
X51657076Y-44359314D01*
X51645543Y-44383699D01*
X51631675Y-44406836D01*
X51615606Y-44428503D01*
X51597490Y-44448490D01*
X51577503Y-44466606D01*
X51555836Y-44482675D01*
X51532699Y-44496543D01*
X51508314Y-44508076D01*
X51482916Y-44517164D01*
X51456749Y-44523718D01*
X51430066Y-44527676D01*
X51403123Y-44529000D01*
X50450877Y-44529000D01*
X50423934Y-44527676D01*
X50397251Y-44523718D01*
X50371084Y-44517164D01*
X50345686Y-44508076D01*
X50321301Y-44496543D01*
X50298164Y-44482675D01*
X50276497Y-44466606D01*
X50256510Y-44448490D01*
X50238394Y-44428503D01*
X50222325Y-44406836D01*
X50208457Y-44383699D01*
X50196924Y-44359314D01*
X50187836Y-44333916D01*
X50181282Y-44307749D01*
X50177324Y-44281066D01*
X50176000Y-44254123D01*
X50176000Y-43676877D01*
X50177324Y-43649934D01*
X50181282Y-43623251D01*
X50187836Y-43597084D01*
X50196924Y-43571686D01*
X50208457Y-43547301D01*
X50222325Y-43524164D01*
X50238394Y-43502497D01*
X50256510Y-43482510D01*
X50276497Y-43464394D01*
X50298164Y-43448325D01*
X50321301Y-43434457D01*
X50345686Y-43422924D01*
X50371084Y-43413836D01*
X50397251Y-43407282D01*
X50423934Y-43403324D01*
X50450877Y-43402000D01*
X51403123Y-43402000D01*
X51430066Y-43403324D01*
X51430066Y-43403324D01*
G37*
D24*
X50927000Y-43965500D03*
D25*
X29083000Y-42767000D03*
D26*
X26543000Y-42767000D03*
D25*
X29083000Y-37242000D03*
D26*
X26543000Y-37242000D03*
D25*
X29083000Y-31717000D03*
D26*
X26543000Y-31717000D03*
D16*
G36*
X154070504Y-108858327D02*
G01*
X154097247Y-108862294D01*
X154123473Y-108868863D01*
X154148929Y-108877971D01*
X154173370Y-108889531D01*
X154196560Y-108903430D01*
X154218275Y-108919536D01*
X154238308Y-108937692D01*
X154256464Y-108957725D01*
X154272570Y-108979440D01*
X154286469Y-109002630D01*
X154298029Y-109027071D01*
X154307137Y-109052527D01*
X154313706Y-109078753D01*
X154317673Y-109105496D01*
X154319000Y-109132500D01*
X154319000Y-109683500D01*
X154317673Y-109710504D01*
X154313706Y-109737247D01*
X154307137Y-109763473D01*
X154298029Y-109788929D01*
X154286469Y-109813370D01*
X154272570Y-109836560D01*
X154256464Y-109858275D01*
X154238308Y-109878308D01*
X154218275Y-109896464D01*
X154196560Y-109912570D01*
X154173370Y-109926469D01*
X154148929Y-109938029D01*
X154123473Y-109947137D01*
X154097247Y-109953706D01*
X154070504Y-109957673D01*
X154043500Y-109959000D01*
X153042500Y-109959000D01*
X153015496Y-109957673D01*
X152988753Y-109953706D01*
X152962527Y-109947137D01*
X152937071Y-109938029D01*
X152912630Y-109926469D01*
X152889440Y-109912570D01*
X152867725Y-109896464D01*
X152847692Y-109878308D01*
X152829536Y-109858275D01*
X152813430Y-109836560D01*
X152799531Y-109813370D01*
X152787971Y-109788929D01*
X152778863Y-109763473D01*
X152772294Y-109737247D01*
X152768327Y-109710504D01*
X152767000Y-109683500D01*
X152767000Y-109132500D01*
X152768327Y-109105496D01*
X152772294Y-109078753D01*
X152778863Y-109052527D01*
X152787971Y-109027071D01*
X152799531Y-109002630D01*
X152813430Y-108979440D01*
X152829536Y-108957725D01*
X152847692Y-108937692D01*
X152867725Y-108919536D01*
X152889440Y-108903430D01*
X152912630Y-108889531D01*
X152937071Y-108877971D01*
X152962527Y-108868863D01*
X152988753Y-108862294D01*
X153015496Y-108858327D01*
X153042500Y-108857000D01*
X154043500Y-108857000D01*
X154070504Y-108858327D01*
X154070504Y-108858327D01*
G37*
D27*
X153543000Y-109408000D03*
D16*
G36*
X154070504Y-106958327D02*
G01*
X154097247Y-106962294D01*
X154123473Y-106968863D01*
X154148929Y-106977971D01*
X154173370Y-106989531D01*
X154196560Y-107003430D01*
X154218275Y-107019536D01*
X154238308Y-107037692D01*
X154256464Y-107057725D01*
X154272570Y-107079440D01*
X154286469Y-107102630D01*
X154298029Y-107127071D01*
X154307137Y-107152527D01*
X154313706Y-107178753D01*
X154317673Y-107205496D01*
X154319000Y-107232500D01*
X154319000Y-107783500D01*
X154317673Y-107810504D01*
X154313706Y-107837247D01*
X154307137Y-107863473D01*
X154298029Y-107888929D01*
X154286469Y-107913370D01*
X154272570Y-107936560D01*
X154256464Y-107958275D01*
X154238308Y-107978308D01*
X154218275Y-107996464D01*
X154196560Y-108012570D01*
X154173370Y-108026469D01*
X154148929Y-108038029D01*
X154123473Y-108047137D01*
X154097247Y-108053706D01*
X154070504Y-108057673D01*
X154043500Y-108059000D01*
X153042500Y-108059000D01*
X153015496Y-108057673D01*
X152988753Y-108053706D01*
X152962527Y-108047137D01*
X152937071Y-108038029D01*
X152912630Y-108026469D01*
X152889440Y-108012570D01*
X152867725Y-107996464D01*
X152847692Y-107978308D01*
X152829536Y-107958275D01*
X152813430Y-107936560D01*
X152799531Y-107913370D01*
X152787971Y-107888929D01*
X152778863Y-107863473D01*
X152772294Y-107837247D01*
X152768327Y-107810504D01*
X152767000Y-107783500D01*
X152767000Y-107232500D01*
X152768327Y-107205496D01*
X152772294Y-107178753D01*
X152778863Y-107152527D01*
X152787971Y-107127071D01*
X152799531Y-107102630D01*
X152813430Y-107079440D01*
X152829536Y-107057725D01*
X152847692Y-107037692D01*
X152867725Y-107019536D01*
X152889440Y-107003430D01*
X152912630Y-106989531D01*
X152937071Y-106977971D01*
X152962527Y-106968863D01*
X152988753Y-106962294D01*
X153015496Y-106958327D01*
X153042500Y-106957000D01*
X154043500Y-106957000D01*
X154070504Y-106958327D01*
X154070504Y-106958327D01*
G37*
D27*
X153543000Y-107508000D03*
D16*
G36*
X137306504Y-118388327D02*
G01*
X137333247Y-118392294D01*
X137359473Y-118398863D01*
X137384929Y-118407971D01*
X137409370Y-118419531D01*
X137432560Y-118433430D01*
X137454275Y-118449536D01*
X137474308Y-118467692D01*
X137492464Y-118487725D01*
X137508570Y-118509440D01*
X137522469Y-118532630D01*
X137534029Y-118557071D01*
X137543137Y-118582527D01*
X137549706Y-118608753D01*
X137553673Y-118635496D01*
X137555000Y-118662500D01*
X137555000Y-119213500D01*
X137553673Y-119240504D01*
X137549706Y-119267247D01*
X137543137Y-119293473D01*
X137534029Y-119318929D01*
X137522469Y-119343370D01*
X137508570Y-119366560D01*
X137492464Y-119388275D01*
X137474308Y-119408308D01*
X137454275Y-119426464D01*
X137432560Y-119442570D01*
X137409370Y-119456469D01*
X137384929Y-119468029D01*
X137359473Y-119477137D01*
X137333247Y-119483706D01*
X137306504Y-119487673D01*
X137279500Y-119489000D01*
X136278500Y-119489000D01*
X136251496Y-119487673D01*
X136224753Y-119483706D01*
X136198527Y-119477137D01*
X136173071Y-119468029D01*
X136148630Y-119456469D01*
X136125440Y-119442570D01*
X136103725Y-119426464D01*
X136083692Y-119408308D01*
X136065536Y-119388275D01*
X136049430Y-119366560D01*
X136035531Y-119343370D01*
X136023971Y-119318929D01*
X136014863Y-119293473D01*
X136008294Y-119267247D01*
X136004327Y-119240504D01*
X136003000Y-119213500D01*
X136003000Y-118662500D01*
X136004327Y-118635496D01*
X136008294Y-118608753D01*
X136014863Y-118582527D01*
X136023971Y-118557071D01*
X136035531Y-118532630D01*
X136049430Y-118509440D01*
X136065536Y-118487725D01*
X136083692Y-118467692D01*
X136103725Y-118449536D01*
X136125440Y-118433430D01*
X136148630Y-118419531D01*
X136173071Y-118407971D01*
X136198527Y-118398863D01*
X136224753Y-118392294D01*
X136251496Y-118388327D01*
X136278500Y-118387000D01*
X137279500Y-118387000D01*
X137306504Y-118388327D01*
X137306504Y-118388327D01*
G37*
D27*
X136779000Y-118938000D03*
D16*
G36*
X137306504Y-120288327D02*
G01*
X137333247Y-120292294D01*
X137359473Y-120298863D01*
X137384929Y-120307971D01*
X137409370Y-120319531D01*
X137432560Y-120333430D01*
X137454275Y-120349536D01*
X137474308Y-120367692D01*
X137492464Y-120387725D01*
X137508570Y-120409440D01*
X137522469Y-120432630D01*
X137534029Y-120457071D01*
X137543137Y-120482527D01*
X137549706Y-120508753D01*
X137553673Y-120535496D01*
X137555000Y-120562500D01*
X137555000Y-121113500D01*
X137553673Y-121140504D01*
X137549706Y-121167247D01*
X137543137Y-121193473D01*
X137534029Y-121218929D01*
X137522469Y-121243370D01*
X137508570Y-121266560D01*
X137492464Y-121288275D01*
X137474308Y-121308308D01*
X137454275Y-121326464D01*
X137432560Y-121342570D01*
X137409370Y-121356469D01*
X137384929Y-121368029D01*
X137359473Y-121377137D01*
X137333247Y-121383706D01*
X137306504Y-121387673D01*
X137279500Y-121389000D01*
X136278500Y-121389000D01*
X136251496Y-121387673D01*
X136224753Y-121383706D01*
X136198527Y-121377137D01*
X136173071Y-121368029D01*
X136148630Y-121356469D01*
X136125440Y-121342570D01*
X136103725Y-121326464D01*
X136083692Y-121308308D01*
X136065536Y-121288275D01*
X136049430Y-121266560D01*
X136035531Y-121243370D01*
X136023971Y-121218929D01*
X136014863Y-121193473D01*
X136008294Y-121167247D01*
X136004327Y-121140504D01*
X136003000Y-121113500D01*
X136003000Y-120562500D01*
X136004327Y-120535496D01*
X136008294Y-120508753D01*
X136014863Y-120482527D01*
X136023971Y-120457071D01*
X136035531Y-120432630D01*
X136049430Y-120409440D01*
X136065536Y-120387725D01*
X136083692Y-120367692D01*
X136103725Y-120349536D01*
X136125440Y-120333430D01*
X136148630Y-120319531D01*
X136173071Y-120307971D01*
X136198527Y-120298863D01*
X136224753Y-120292294D01*
X136251496Y-120288327D01*
X136278500Y-120287000D01*
X137279500Y-120287000D01*
X137306504Y-120288327D01*
X137306504Y-120288327D01*
G37*
D27*
X136779000Y-120838000D03*
D16*
G36*
X134856504Y-115811327D02*
G01*
X134883247Y-115815294D01*
X134909473Y-115821863D01*
X134934929Y-115830971D01*
X134959370Y-115842531D01*
X134982560Y-115856430D01*
X135004275Y-115872536D01*
X135024308Y-115890692D01*
X135042464Y-115910725D01*
X135058570Y-115932440D01*
X135072469Y-115955630D01*
X135084029Y-115980071D01*
X135093137Y-116005527D01*
X135099706Y-116031753D01*
X135103673Y-116058496D01*
X135105000Y-116085500D01*
X135105000Y-117086500D01*
X135103673Y-117113504D01*
X135099706Y-117140247D01*
X135093137Y-117166473D01*
X135084029Y-117191929D01*
X135072469Y-117216370D01*
X135058570Y-117239560D01*
X135042464Y-117261275D01*
X135024308Y-117281308D01*
X135004275Y-117299464D01*
X134982560Y-117315570D01*
X134959370Y-117329469D01*
X134934929Y-117341029D01*
X134909473Y-117350137D01*
X134883247Y-117356706D01*
X134856504Y-117360673D01*
X134829500Y-117362000D01*
X134278500Y-117362000D01*
X134251496Y-117360673D01*
X134224753Y-117356706D01*
X134198527Y-117350137D01*
X134173071Y-117341029D01*
X134148630Y-117329469D01*
X134125440Y-117315570D01*
X134103725Y-117299464D01*
X134083692Y-117281308D01*
X134065536Y-117261275D01*
X134049430Y-117239560D01*
X134035531Y-117216370D01*
X134023971Y-117191929D01*
X134014863Y-117166473D01*
X134008294Y-117140247D01*
X134004327Y-117113504D01*
X134003000Y-117086500D01*
X134003000Y-116085500D01*
X134004327Y-116058496D01*
X134008294Y-116031753D01*
X134014863Y-116005527D01*
X134023971Y-115980071D01*
X134035531Y-115955630D01*
X134049430Y-115932440D01*
X134065536Y-115910725D01*
X134083692Y-115890692D01*
X134103725Y-115872536D01*
X134125440Y-115856430D01*
X134148630Y-115842531D01*
X134173071Y-115830971D01*
X134198527Y-115821863D01*
X134224753Y-115815294D01*
X134251496Y-115811327D01*
X134278500Y-115810000D01*
X134829500Y-115810000D01*
X134856504Y-115811327D01*
X134856504Y-115811327D01*
G37*
D27*
X134554000Y-116586000D03*
D16*
G36*
X132956504Y-115811327D02*
G01*
X132983247Y-115815294D01*
X133009473Y-115821863D01*
X133034929Y-115830971D01*
X133059370Y-115842531D01*
X133082560Y-115856430D01*
X133104275Y-115872536D01*
X133124308Y-115890692D01*
X133142464Y-115910725D01*
X133158570Y-115932440D01*
X133172469Y-115955630D01*
X133184029Y-115980071D01*
X133193137Y-116005527D01*
X133199706Y-116031753D01*
X133203673Y-116058496D01*
X133205000Y-116085500D01*
X133205000Y-117086500D01*
X133203673Y-117113504D01*
X133199706Y-117140247D01*
X133193137Y-117166473D01*
X133184029Y-117191929D01*
X133172469Y-117216370D01*
X133158570Y-117239560D01*
X133142464Y-117261275D01*
X133124308Y-117281308D01*
X133104275Y-117299464D01*
X133082560Y-117315570D01*
X133059370Y-117329469D01*
X133034929Y-117341029D01*
X133009473Y-117350137D01*
X132983247Y-117356706D01*
X132956504Y-117360673D01*
X132929500Y-117362000D01*
X132378500Y-117362000D01*
X132351496Y-117360673D01*
X132324753Y-117356706D01*
X132298527Y-117350137D01*
X132273071Y-117341029D01*
X132248630Y-117329469D01*
X132225440Y-117315570D01*
X132203725Y-117299464D01*
X132183692Y-117281308D01*
X132165536Y-117261275D01*
X132149430Y-117239560D01*
X132135531Y-117216370D01*
X132123971Y-117191929D01*
X132114863Y-117166473D01*
X132108294Y-117140247D01*
X132104327Y-117113504D01*
X132103000Y-117086500D01*
X132103000Y-116085500D01*
X132104327Y-116058496D01*
X132108294Y-116031753D01*
X132114863Y-116005527D01*
X132123971Y-115980071D01*
X132135531Y-115955630D01*
X132149430Y-115932440D01*
X132165536Y-115910725D01*
X132183692Y-115890692D01*
X132203725Y-115872536D01*
X132225440Y-115856430D01*
X132248630Y-115842531D01*
X132273071Y-115830971D01*
X132298527Y-115821863D01*
X132324753Y-115815294D01*
X132351496Y-115811327D01*
X132378500Y-115810000D01*
X132929500Y-115810000D01*
X132956504Y-115811327D01*
X132956504Y-115811327D01*
G37*
D27*
X132654000Y-116586000D03*
D16*
G36*
X132956504Y-109334327D02*
G01*
X132983247Y-109338294D01*
X133009473Y-109344863D01*
X133034929Y-109353971D01*
X133059370Y-109365531D01*
X133082560Y-109379430D01*
X133104275Y-109395536D01*
X133124308Y-109413692D01*
X133142464Y-109433725D01*
X133158570Y-109455440D01*
X133172469Y-109478630D01*
X133184029Y-109503071D01*
X133193137Y-109528527D01*
X133199706Y-109554753D01*
X133203673Y-109581496D01*
X133205000Y-109608500D01*
X133205000Y-110609500D01*
X133203673Y-110636504D01*
X133199706Y-110663247D01*
X133193137Y-110689473D01*
X133184029Y-110714929D01*
X133172469Y-110739370D01*
X133158570Y-110762560D01*
X133142464Y-110784275D01*
X133124308Y-110804308D01*
X133104275Y-110822464D01*
X133082560Y-110838570D01*
X133059370Y-110852469D01*
X133034929Y-110864029D01*
X133009473Y-110873137D01*
X132983247Y-110879706D01*
X132956504Y-110883673D01*
X132929500Y-110885000D01*
X132378500Y-110885000D01*
X132351496Y-110883673D01*
X132324753Y-110879706D01*
X132298527Y-110873137D01*
X132273071Y-110864029D01*
X132248630Y-110852469D01*
X132225440Y-110838570D01*
X132203725Y-110822464D01*
X132183692Y-110804308D01*
X132165536Y-110784275D01*
X132149430Y-110762560D01*
X132135531Y-110739370D01*
X132123971Y-110714929D01*
X132114863Y-110689473D01*
X132108294Y-110663247D01*
X132104327Y-110636504D01*
X132103000Y-110609500D01*
X132103000Y-109608500D01*
X132104327Y-109581496D01*
X132108294Y-109554753D01*
X132114863Y-109528527D01*
X132123971Y-109503071D01*
X132135531Y-109478630D01*
X132149430Y-109455440D01*
X132165536Y-109433725D01*
X132183692Y-109413692D01*
X132203725Y-109395536D01*
X132225440Y-109379430D01*
X132248630Y-109365531D01*
X132273071Y-109353971D01*
X132298527Y-109344863D01*
X132324753Y-109338294D01*
X132351496Y-109334327D01*
X132378500Y-109333000D01*
X132929500Y-109333000D01*
X132956504Y-109334327D01*
X132956504Y-109334327D01*
G37*
D27*
X132654000Y-110109000D03*
D16*
G36*
X134856504Y-109334327D02*
G01*
X134883247Y-109338294D01*
X134909473Y-109344863D01*
X134934929Y-109353971D01*
X134959370Y-109365531D01*
X134982560Y-109379430D01*
X135004275Y-109395536D01*
X135024308Y-109413692D01*
X135042464Y-109433725D01*
X135058570Y-109455440D01*
X135072469Y-109478630D01*
X135084029Y-109503071D01*
X135093137Y-109528527D01*
X135099706Y-109554753D01*
X135103673Y-109581496D01*
X135105000Y-109608500D01*
X135105000Y-110609500D01*
X135103673Y-110636504D01*
X135099706Y-110663247D01*
X135093137Y-110689473D01*
X135084029Y-110714929D01*
X135072469Y-110739370D01*
X135058570Y-110762560D01*
X135042464Y-110784275D01*
X135024308Y-110804308D01*
X135004275Y-110822464D01*
X134982560Y-110838570D01*
X134959370Y-110852469D01*
X134934929Y-110864029D01*
X134909473Y-110873137D01*
X134883247Y-110879706D01*
X134856504Y-110883673D01*
X134829500Y-110885000D01*
X134278500Y-110885000D01*
X134251496Y-110883673D01*
X134224753Y-110879706D01*
X134198527Y-110873137D01*
X134173071Y-110864029D01*
X134148630Y-110852469D01*
X134125440Y-110838570D01*
X134103725Y-110822464D01*
X134083692Y-110804308D01*
X134065536Y-110784275D01*
X134049430Y-110762560D01*
X134035531Y-110739370D01*
X134023971Y-110714929D01*
X134014863Y-110689473D01*
X134008294Y-110663247D01*
X134004327Y-110636504D01*
X134003000Y-110609500D01*
X134003000Y-109608500D01*
X134004327Y-109581496D01*
X134008294Y-109554753D01*
X134014863Y-109528527D01*
X134023971Y-109503071D01*
X134035531Y-109478630D01*
X134049430Y-109455440D01*
X134065536Y-109433725D01*
X134083692Y-109413692D01*
X134103725Y-109395536D01*
X134125440Y-109379430D01*
X134148630Y-109365531D01*
X134173071Y-109353971D01*
X134198527Y-109344863D01*
X134224753Y-109338294D01*
X134251496Y-109334327D01*
X134278500Y-109333000D01*
X134829500Y-109333000D01*
X134856504Y-109334327D01*
X134856504Y-109334327D01*
G37*
D27*
X134554000Y-110109000D03*
D16*
G36*
X147048504Y-121399327D02*
G01*
X147075247Y-121403294D01*
X147101473Y-121409863D01*
X147126929Y-121418971D01*
X147151370Y-121430531D01*
X147174560Y-121444430D01*
X147196275Y-121460536D01*
X147216308Y-121478692D01*
X147234464Y-121498725D01*
X147250570Y-121520440D01*
X147264469Y-121543630D01*
X147276029Y-121568071D01*
X147285137Y-121593527D01*
X147291706Y-121619753D01*
X147295673Y-121646496D01*
X147297000Y-121673500D01*
X147297000Y-122674500D01*
X147295673Y-122701504D01*
X147291706Y-122728247D01*
X147285137Y-122754473D01*
X147276029Y-122779929D01*
X147264469Y-122804370D01*
X147250570Y-122827560D01*
X147234464Y-122849275D01*
X147216308Y-122869308D01*
X147196275Y-122887464D01*
X147174560Y-122903570D01*
X147151370Y-122917469D01*
X147126929Y-122929029D01*
X147101473Y-122938137D01*
X147075247Y-122944706D01*
X147048504Y-122948673D01*
X147021500Y-122950000D01*
X146470500Y-122950000D01*
X146443496Y-122948673D01*
X146416753Y-122944706D01*
X146390527Y-122938137D01*
X146365071Y-122929029D01*
X146340630Y-122917469D01*
X146317440Y-122903570D01*
X146295725Y-122887464D01*
X146275692Y-122869308D01*
X146257536Y-122849275D01*
X146241430Y-122827560D01*
X146227531Y-122804370D01*
X146215971Y-122779929D01*
X146206863Y-122754473D01*
X146200294Y-122728247D01*
X146196327Y-122701504D01*
X146195000Y-122674500D01*
X146195000Y-121673500D01*
X146196327Y-121646496D01*
X146200294Y-121619753D01*
X146206863Y-121593527D01*
X146215971Y-121568071D01*
X146227531Y-121543630D01*
X146241430Y-121520440D01*
X146257536Y-121498725D01*
X146275692Y-121478692D01*
X146295725Y-121460536D01*
X146317440Y-121444430D01*
X146340630Y-121430531D01*
X146365071Y-121418971D01*
X146390527Y-121409863D01*
X146416753Y-121403294D01*
X146443496Y-121399327D01*
X146470500Y-121398000D01*
X147021500Y-121398000D01*
X147048504Y-121399327D01*
X147048504Y-121399327D01*
G37*
D27*
X146746000Y-122174000D03*
D16*
G36*
X145148504Y-121399327D02*
G01*
X145175247Y-121403294D01*
X145201473Y-121409863D01*
X145226929Y-121418971D01*
X145251370Y-121430531D01*
X145274560Y-121444430D01*
X145296275Y-121460536D01*
X145316308Y-121478692D01*
X145334464Y-121498725D01*
X145350570Y-121520440D01*
X145364469Y-121543630D01*
X145376029Y-121568071D01*
X145385137Y-121593527D01*
X145391706Y-121619753D01*
X145395673Y-121646496D01*
X145397000Y-121673500D01*
X145397000Y-122674500D01*
X145395673Y-122701504D01*
X145391706Y-122728247D01*
X145385137Y-122754473D01*
X145376029Y-122779929D01*
X145364469Y-122804370D01*
X145350570Y-122827560D01*
X145334464Y-122849275D01*
X145316308Y-122869308D01*
X145296275Y-122887464D01*
X145274560Y-122903570D01*
X145251370Y-122917469D01*
X145226929Y-122929029D01*
X145201473Y-122938137D01*
X145175247Y-122944706D01*
X145148504Y-122948673D01*
X145121500Y-122950000D01*
X144570500Y-122950000D01*
X144543496Y-122948673D01*
X144516753Y-122944706D01*
X144490527Y-122938137D01*
X144465071Y-122929029D01*
X144440630Y-122917469D01*
X144417440Y-122903570D01*
X144395725Y-122887464D01*
X144375692Y-122869308D01*
X144357536Y-122849275D01*
X144341430Y-122827560D01*
X144327531Y-122804370D01*
X144315971Y-122779929D01*
X144306863Y-122754473D01*
X144300294Y-122728247D01*
X144296327Y-122701504D01*
X144295000Y-122674500D01*
X144295000Y-121673500D01*
X144296327Y-121646496D01*
X144300294Y-121619753D01*
X144306863Y-121593527D01*
X144315971Y-121568071D01*
X144327531Y-121543630D01*
X144341430Y-121520440D01*
X144357536Y-121498725D01*
X144375692Y-121478692D01*
X144395725Y-121460536D01*
X144417440Y-121444430D01*
X144440630Y-121430531D01*
X144465071Y-121418971D01*
X144490527Y-121409863D01*
X144516753Y-121403294D01*
X144543496Y-121399327D01*
X144570500Y-121398000D01*
X145121500Y-121398000D01*
X145148504Y-121399327D01*
X145148504Y-121399327D01*
G37*
D27*
X144846000Y-122174000D03*
D16*
G36*
X154070504Y-116483327D02*
G01*
X154097247Y-116487294D01*
X154123473Y-116493863D01*
X154148929Y-116502971D01*
X154173370Y-116514531D01*
X154196560Y-116528430D01*
X154218275Y-116544536D01*
X154238308Y-116562692D01*
X154256464Y-116582725D01*
X154272570Y-116604440D01*
X154286469Y-116627630D01*
X154298029Y-116652071D01*
X154307137Y-116677527D01*
X154313706Y-116703753D01*
X154317673Y-116730496D01*
X154319000Y-116757500D01*
X154319000Y-117308500D01*
X154317673Y-117335504D01*
X154313706Y-117362247D01*
X154307137Y-117388473D01*
X154298029Y-117413929D01*
X154286469Y-117438370D01*
X154272570Y-117461560D01*
X154256464Y-117483275D01*
X154238308Y-117503308D01*
X154218275Y-117521464D01*
X154196560Y-117537570D01*
X154173370Y-117551469D01*
X154148929Y-117563029D01*
X154123473Y-117572137D01*
X154097247Y-117578706D01*
X154070504Y-117582673D01*
X154043500Y-117584000D01*
X153042500Y-117584000D01*
X153015496Y-117582673D01*
X152988753Y-117578706D01*
X152962527Y-117572137D01*
X152937071Y-117563029D01*
X152912630Y-117551469D01*
X152889440Y-117537570D01*
X152867725Y-117521464D01*
X152847692Y-117503308D01*
X152829536Y-117483275D01*
X152813430Y-117461560D01*
X152799531Y-117438370D01*
X152787971Y-117413929D01*
X152778863Y-117388473D01*
X152772294Y-117362247D01*
X152768327Y-117335504D01*
X152767000Y-117308500D01*
X152767000Y-116757500D01*
X152768327Y-116730496D01*
X152772294Y-116703753D01*
X152778863Y-116677527D01*
X152787971Y-116652071D01*
X152799531Y-116627630D01*
X152813430Y-116604440D01*
X152829536Y-116582725D01*
X152847692Y-116562692D01*
X152867725Y-116544536D01*
X152889440Y-116528430D01*
X152912630Y-116514531D01*
X152937071Y-116502971D01*
X152962527Y-116493863D01*
X152988753Y-116487294D01*
X153015496Y-116483327D01*
X153042500Y-116482000D01*
X154043500Y-116482000D01*
X154070504Y-116483327D01*
X154070504Y-116483327D01*
G37*
D27*
X153543000Y-117033000D03*
D16*
G36*
X154070504Y-118383327D02*
G01*
X154097247Y-118387294D01*
X154123473Y-118393863D01*
X154148929Y-118402971D01*
X154173370Y-118414531D01*
X154196560Y-118428430D01*
X154218275Y-118444536D01*
X154238308Y-118462692D01*
X154256464Y-118482725D01*
X154272570Y-118504440D01*
X154286469Y-118527630D01*
X154298029Y-118552071D01*
X154307137Y-118577527D01*
X154313706Y-118603753D01*
X154317673Y-118630496D01*
X154319000Y-118657500D01*
X154319000Y-119208500D01*
X154317673Y-119235504D01*
X154313706Y-119262247D01*
X154307137Y-119288473D01*
X154298029Y-119313929D01*
X154286469Y-119338370D01*
X154272570Y-119361560D01*
X154256464Y-119383275D01*
X154238308Y-119403308D01*
X154218275Y-119421464D01*
X154196560Y-119437570D01*
X154173370Y-119451469D01*
X154148929Y-119463029D01*
X154123473Y-119472137D01*
X154097247Y-119478706D01*
X154070504Y-119482673D01*
X154043500Y-119484000D01*
X153042500Y-119484000D01*
X153015496Y-119482673D01*
X152988753Y-119478706D01*
X152962527Y-119472137D01*
X152937071Y-119463029D01*
X152912630Y-119451469D01*
X152889440Y-119437570D01*
X152867725Y-119421464D01*
X152847692Y-119403308D01*
X152829536Y-119383275D01*
X152813430Y-119361560D01*
X152799531Y-119338370D01*
X152787971Y-119313929D01*
X152778863Y-119288473D01*
X152772294Y-119262247D01*
X152768327Y-119235504D01*
X152767000Y-119208500D01*
X152767000Y-118657500D01*
X152768327Y-118630496D01*
X152772294Y-118603753D01*
X152778863Y-118577527D01*
X152787971Y-118552071D01*
X152799531Y-118527630D01*
X152813430Y-118504440D01*
X152829536Y-118482725D01*
X152847692Y-118462692D01*
X152867725Y-118444536D01*
X152889440Y-118428430D01*
X152912630Y-118414531D01*
X152937071Y-118402971D01*
X152962527Y-118393863D01*
X152988753Y-118387294D01*
X153015496Y-118383327D01*
X153042500Y-118382000D01*
X154043500Y-118382000D01*
X154070504Y-118383327D01*
X154070504Y-118383327D01*
G37*
D27*
X153543000Y-118933000D03*
D16*
G36*
X140322504Y-104381327D02*
G01*
X140349247Y-104385294D01*
X140375473Y-104391863D01*
X140400929Y-104400971D01*
X140425370Y-104412531D01*
X140448560Y-104426430D01*
X140470275Y-104442536D01*
X140490308Y-104460692D01*
X140508464Y-104480725D01*
X140524570Y-104502440D01*
X140538469Y-104525630D01*
X140550029Y-104550071D01*
X140559137Y-104575527D01*
X140565706Y-104601753D01*
X140569673Y-104628496D01*
X140571000Y-104655500D01*
X140571000Y-105656500D01*
X140569673Y-105683504D01*
X140565706Y-105710247D01*
X140559137Y-105736473D01*
X140550029Y-105761929D01*
X140538469Y-105786370D01*
X140524570Y-105809560D01*
X140508464Y-105831275D01*
X140490308Y-105851308D01*
X140470275Y-105869464D01*
X140448560Y-105885570D01*
X140425370Y-105899469D01*
X140400929Y-105911029D01*
X140375473Y-105920137D01*
X140349247Y-105926706D01*
X140322504Y-105930673D01*
X140295500Y-105932000D01*
X139744500Y-105932000D01*
X139717496Y-105930673D01*
X139690753Y-105926706D01*
X139664527Y-105920137D01*
X139639071Y-105911029D01*
X139614630Y-105899469D01*
X139591440Y-105885570D01*
X139569725Y-105869464D01*
X139549692Y-105851308D01*
X139531536Y-105831275D01*
X139515430Y-105809560D01*
X139501531Y-105786370D01*
X139489971Y-105761929D01*
X139480863Y-105736473D01*
X139474294Y-105710247D01*
X139470327Y-105683504D01*
X139469000Y-105656500D01*
X139469000Y-104655500D01*
X139470327Y-104628496D01*
X139474294Y-104601753D01*
X139480863Y-104575527D01*
X139489971Y-104550071D01*
X139501531Y-104525630D01*
X139515430Y-104502440D01*
X139531536Y-104480725D01*
X139549692Y-104460692D01*
X139569725Y-104442536D01*
X139591440Y-104426430D01*
X139614630Y-104412531D01*
X139639071Y-104400971D01*
X139664527Y-104391863D01*
X139690753Y-104385294D01*
X139717496Y-104381327D01*
X139744500Y-104380000D01*
X140295500Y-104380000D01*
X140322504Y-104381327D01*
X140322504Y-104381327D01*
G37*
D27*
X140020000Y-105156000D03*
D16*
G36*
X142222504Y-104381327D02*
G01*
X142249247Y-104385294D01*
X142275473Y-104391863D01*
X142300929Y-104400971D01*
X142325370Y-104412531D01*
X142348560Y-104426430D01*
X142370275Y-104442536D01*
X142390308Y-104460692D01*
X142408464Y-104480725D01*
X142424570Y-104502440D01*
X142438469Y-104525630D01*
X142450029Y-104550071D01*
X142459137Y-104575527D01*
X142465706Y-104601753D01*
X142469673Y-104628496D01*
X142471000Y-104655500D01*
X142471000Y-105656500D01*
X142469673Y-105683504D01*
X142465706Y-105710247D01*
X142459137Y-105736473D01*
X142450029Y-105761929D01*
X142438469Y-105786370D01*
X142424570Y-105809560D01*
X142408464Y-105831275D01*
X142390308Y-105851308D01*
X142370275Y-105869464D01*
X142348560Y-105885570D01*
X142325370Y-105899469D01*
X142300929Y-105911029D01*
X142275473Y-105920137D01*
X142249247Y-105926706D01*
X142222504Y-105930673D01*
X142195500Y-105932000D01*
X141644500Y-105932000D01*
X141617496Y-105930673D01*
X141590753Y-105926706D01*
X141564527Y-105920137D01*
X141539071Y-105911029D01*
X141514630Y-105899469D01*
X141491440Y-105885570D01*
X141469725Y-105869464D01*
X141449692Y-105851308D01*
X141431536Y-105831275D01*
X141415430Y-105809560D01*
X141401531Y-105786370D01*
X141389971Y-105761929D01*
X141380863Y-105736473D01*
X141374294Y-105710247D01*
X141370327Y-105683504D01*
X141369000Y-105656500D01*
X141369000Y-104655500D01*
X141370327Y-104628496D01*
X141374294Y-104601753D01*
X141380863Y-104575527D01*
X141389971Y-104550071D01*
X141401531Y-104525630D01*
X141415430Y-104502440D01*
X141431536Y-104480725D01*
X141449692Y-104460692D01*
X141469725Y-104442536D01*
X141491440Y-104426430D01*
X141514630Y-104412531D01*
X141539071Y-104400971D01*
X141564527Y-104391863D01*
X141590753Y-104385294D01*
X141617496Y-104381327D01*
X141644500Y-104380000D01*
X142195500Y-104380000D01*
X142222504Y-104381327D01*
X142222504Y-104381327D01*
G37*
D27*
X141920000Y-105156000D03*
D12*
X224155000Y-95200399D03*
X213995000Y-95200399D03*
D13*
X216575000Y-91200399D03*
D14*
X219075000Y-95200399D03*
D13*
X215920001Y-91930399D03*
D15*
X215265000Y-92660399D02*
X216575002Y-91200399D01*
D13*
X221615000Y-90120399D03*
X221595000Y-90410399D03*
D15*
X221575000Y-90700399D02*
X221615000Y-90120399D01*
D28*
X260350000Y-118874000D03*
X260350000Y-122174000D03*
D12*
X243205000Y-114300000D03*
X233045000Y-114300000D03*
D13*
X235625000Y-110300000D03*
D14*
X238125000Y-114300000D03*
D13*
X234970001Y-111030000D03*
D15*
X234315000Y-111760000D02*
X235625002Y-110300000D01*
D13*
X240665000Y-109220000D03*
X240645000Y-109510000D03*
D15*
X240625000Y-109800000D02*
X240665000Y-109220000D01*
D12*
X224155000Y-114300000D03*
X213995000Y-114300000D03*
D13*
X216575000Y-110300000D03*
D14*
X219075000Y-114300000D03*
D13*
X215920001Y-111030000D03*
D15*
X215265000Y-111760000D02*
X216575002Y-110300000D01*
D13*
X221615000Y-109220000D03*
X221595000Y-109510000D03*
D15*
X221575000Y-109800000D02*
X221615000Y-109220000D01*
D14*
X200025000Y-106045000D03*
X161925000Y-106045000D03*
D29*
X200025000Y-121285000D03*
X161925000Y-121285000D03*
D12*
X186055000Y-114300000D03*
X175895000Y-114300000D03*
D13*
X178475000Y-110300000D03*
D14*
X180975000Y-114300000D03*
D13*
X177820001Y-111030000D03*
D15*
X177165000Y-111760000D02*
X178475002Y-110300000D01*
D13*
X183515000Y-109220000D03*
X183495000Y-109510000D03*
D15*
X183475000Y-109800000D02*
X183515000Y-109220000D01*
D14*
X128587500Y-106045000D03*
X90487500Y-106045000D03*
D29*
X128587500Y-121285000D03*
X90487500Y-121285000D03*
D12*
X114617500Y-114300000D03*
X104457500Y-114300000D03*
D13*
X107037500Y-110300000D03*
D14*
X109537500Y-114300000D03*
D13*
X106382501Y-111030000D03*
D15*
X105727500Y-111760000D02*
X107037502Y-110300000D01*
D13*
X112077500Y-109220000D03*
X112057500Y-109510000D03*
D15*
X112037500Y-109800000D02*
X112077500Y-109220000D01*
D12*
X76517500Y-114300000D03*
X66357500Y-114300000D03*
D13*
X68937500Y-110300000D03*
D14*
X71437500Y-114300000D03*
D13*
X68282501Y-111030000D03*
D15*
X67627500Y-111760000D02*
X68937502Y-110300000D01*
D13*
X73977500Y-109220000D03*
X73957500Y-109510000D03*
D15*
X73937500Y-109800000D02*
X73977500Y-109220000D01*
D12*
X57467500Y-114300000D03*
X47307500Y-114300000D03*
D13*
X49887500Y-110300000D03*
D14*
X52387500Y-114300000D03*
D13*
X49232501Y-111030000D03*
D15*
X48577500Y-111760000D02*
X49887502Y-110300000D01*
D13*
X54927500Y-109220000D03*
X54907500Y-109510000D03*
D15*
X54887500Y-109800000D02*
X54927500Y-109220000D01*
D12*
X38417500Y-114300000D03*
X28257500Y-114300000D03*
D13*
X30837500Y-110300000D03*
D14*
X33337500Y-114300000D03*
D13*
X30182501Y-111030000D03*
D15*
X29527500Y-111760000D02*
X30837502Y-110300000D01*
D13*
X35877500Y-109220000D03*
X35857500Y-109510000D03*
D15*
X35837500Y-109800000D02*
X35877500Y-109220000D01*
D12*
X262255000Y-95250000D03*
X252095000Y-95250000D03*
D13*
X254675000Y-91250000D03*
D14*
X257175000Y-95250000D03*
D13*
X254020001Y-91980000D03*
D15*
X253365000Y-92710000D02*
X254675002Y-91250000D01*
D13*
X259715000Y-90170000D03*
X259695000Y-90460000D03*
D15*
X259675000Y-90750000D02*
X259715000Y-90170000D01*
D12*
X243205000Y-95250000D03*
X233045000Y-95250000D03*
D13*
X235625000Y-91250000D03*
D14*
X238125000Y-95250000D03*
D13*
X234970001Y-91980000D03*
D15*
X234315000Y-92710000D02*
X235625002Y-91250000D01*
D13*
X240665000Y-90170000D03*
X240645000Y-90460000D03*
D15*
X240625000Y-90750000D02*
X240665000Y-90170000D01*
D12*
X205105000Y-95250000D03*
X194945000Y-95250000D03*
D13*
X197525000Y-91250000D03*
D14*
X200025000Y-95250000D03*
D13*
X196870001Y-91980000D03*
D15*
X196215000Y-92710000D02*
X197525002Y-91250000D01*
D13*
X202565000Y-90170000D03*
X202545000Y-90460000D03*
D15*
X202525000Y-90750000D02*
X202565000Y-90170000D01*
D12*
X186055000Y-95250000D03*
X175895000Y-95250000D03*
D13*
X178475000Y-91250000D03*
D14*
X180975000Y-95250000D03*
D13*
X177820001Y-91980000D03*
D15*
X177165000Y-92710000D02*
X178475002Y-91250000D01*
D13*
X183515000Y-90170000D03*
X183495000Y-90460000D03*
D15*
X183475000Y-90750000D02*
X183515000Y-90170000D01*
D12*
X167005000Y-95250000D03*
X156845000Y-95250000D03*
D13*
X159425000Y-91250000D03*
D14*
X161925000Y-95250000D03*
D13*
X158770001Y-91980000D03*
D15*
X158115000Y-92710000D02*
X159425002Y-91250000D01*
D13*
X164465000Y-90170000D03*
X164445000Y-90460000D03*
D15*
X164425000Y-90750000D02*
X164465000Y-90170000D01*
D12*
X133667500Y-95250000D03*
X123507500Y-95250000D03*
D13*
X126087500Y-91250000D03*
D14*
X128587500Y-95250000D03*
D13*
X125432501Y-91980000D03*
D15*
X124777500Y-92710000D02*
X126087502Y-91250000D01*
D13*
X131127500Y-90170000D03*
X131107500Y-90460000D03*
D15*
X131087500Y-90750000D02*
X131127500Y-90170000D01*
D12*
X114617500Y-95250000D03*
X104457500Y-95250000D03*
D13*
X107037500Y-91250000D03*
D14*
X109537500Y-95250000D03*
D13*
X106382501Y-91980000D03*
D15*
X105727500Y-92710000D02*
X107037502Y-91250000D01*
D13*
X112077500Y-90170000D03*
X112057500Y-90460000D03*
D15*
X112037500Y-90750000D02*
X112077500Y-90170000D01*
D12*
X95567500Y-95250000D03*
X85407500Y-95250000D03*
D13*
X87987500Y-91250000D03*
D14*
X90487500Y-95250000D03*
D13*
X87332501Y-91980000D03*
D15*
X86677500Y-92710000D02*
X87987502Y-91250000D01*
D13*
X93027500Y-90170000D03*
X93007500Y-90460000D03*
D15*
X92987500Y-90750000D02*
X93027500Y-90170000D01*
D12*
X76517500Y-95250000D03*
X66357500Y-95250000D03*
D13*
X68937500Y-91250000D03*
D14*
X71437500Y-95250000D03*
D13*
X68282501Y-91980000D03*
D15*
X67627500Y-92710000D02*
X68937502Y-91250000D01*
D13*
X73977500Y-90170000D03*
X73957500Y-90460000D03*
D15*
X73937500Y-90750000D02*
X73977500Y-90170000D01*
D12*
X57467500Y-95250000D03*
X47307500Y-95250000D03*
D13*
X49887500Y-91250000D03*
D14*
X52387500Y-95250000D03*
D13*
X49232501Y-91980000D03*
D15*
X48577500Y-92710000D02*
X49887502Y-91250000D01*
D13*
X54927500Y-90170000D03*
X54907500Y-90460000D03*
D15*
X54887500Y-90750000D02*
X54927500Y-90170000D01*
D12*
X38417500Y-95250000D03*
X28257500Y-95250000D03*
D13*
X30837500Y-91250000D03*
D14*
X33337500Y-95250000D03*
D13*
X30182501Y-91980000D03*
D15*
X29527500Y-92710000D02*
X30837502Y-91250000D01*
D13*
X35877500Y-90170000D03*
X35857500Y-90460000D03*
D15*
X35837500Y-90750000D02*
X35877500Y-90170000D01*
D12*
X262255000Y-76200000D03*
X252095000Y-76200000D03*
D13*
X254675000Y-72200000D03*
D14*
X257175000Y-76200000D03*
D13*
X254020001Y-72930000D03*
D15*
X253365000Y-73660000D02*
X254675002Y-72200000D01*
D13*
X259715000Y-71120000D03*
X259695000Y-71410000D03*
D15*
X259675000Y-71700000D02*
X259715000Y-71120000D01*
D12*
X243205000Y-76200000D03*
X233045000Y-76200000D03*
D13*
X235625000Y-72200000D03*
D14*
X238125000Y-76200000D03*
D13*
X234970001Y-72930000D03*
D15*
X234315000Y-73660000D02*
X235625002Y-72200000D01*
D13*
X240665000Y-71120000D03*
X240645000Y-71410000D03*
D15*
X240625000Y-71700000D02*
X240665000Y-71120000D01*
D12*
X224155000Y-76200000D03*
X213995000Y-76200000D03*
D13*
X216575000Y-72200000D03*
D14*
X219075000Y-76200000D03*
D13*
X215920001Y-72930000D03*
D15*
X215265000Y-73660000D02*
X216575002Y-72200000D01*
D13*
X221615000Y-71120000D03*
X221595000Y-71410000D03*
D15*
X221575000Y-71700000D02*
X221615000Y-71120000D01*
D12*
X205105000Y-76200000D03*
X194945000Y-76200000D03*
D13*
X197525000Y-72200000D03*
D14*
X200025000Y-76200000D03*
D13*
X196870001Y-72930000D03*
D15*
X196215000Y-73660000D02*
X197525002Y-72200000D01*
D13*
X202565000Y-71120000D03*
X202545000Y-71410000D03*
D15*
X202525000Y-71700000D02*
X202565000Y-71120000D01*
D12*
X186055000Y-76200000D03*
X175895000Y-76200000D03*
D13*
X178475000Y-72200000D03*
D14*
X180975000Y-76200000D03*
D13*
X177820001Y-72930000D03*
D15*
X177165000Y-73660000D02*
X178475002Y-72200000D01*
D13*
X183515000Y-71120000D03*
X183495000Y-71410000D03*
D15*
X183475000Y-71700000D02*
X183515000Y-71120000D01*
D12*
X167005000Y-76200000D03*
X156845000Y-76200000D03*
D13*
X159425000Y-72200000D03*
D14*
X161925000Y-76200000D03*
D13*
X158770001Y-72930000D03*
D15*
X158115000Y-73660000D02*
X159425002Y-72200000D01*
D13*
X164465000Y-71120000D03*
X164445000Y-71410000D03*
D15*
X164425000Y-71700000D02*
X164465000Y-71120000D01*
D12*
X133667500Y-76200000D03*
X123507500Y-76200000D03*
D13*
X126087500Y-72200000D03*
D14*
X128587500Y-76200000D03*
D13*
X125432501Y-72930000D03*
D15*
X124777500Y-73660000D02*
X126087502Y-72200000D01*
D13*
X131127500Y-71120000D03*
X131107500Y-71410000D03*
D15*
X131087500Y-71700000D02*
X131127500Y-71120000D01*
D12*
X114617500Y-76200000D03*
X104457500Y-76200000D03*
D13*
X107037500Y-72200000D03*
D14*
X109537500Y-76200000D03*
D13*
X106382501Y-72930000D03*
D15*
X105727500Y-73660000D02*
X107037502Y-72200000D01*
D13*
X112077500Y-71120000D03*
X112057500Y-71410000D03*
D15*
X112037500Y-71700000D02*
X112077500Y-71120000D01*
D12*
X95567500Y-76200000D03*
X85407500Y-76200000D03*
D13*
X87987500Y-72200000D03*
D14*
X90487500Y-76200000D03*
D13*
X87332501Y-72930000D03*
D15*
X86677500Y-73660000D02*
X87987502Y-72200000D01*
D13*
X93027500Y-71120000D03*
X93007500Y-71410000D03*
D15*
X92987500Y-71700000D02*
X93027500Y-71120000D01*
D12*
X76517500Y-76200000D03*
X66357500Y-76200000D03*
D13*
X68937500Y-72200000D03*
D14*
X71437500Y-76200000D03*
D13*
X68282501Y-72930000D03*
D15*
X67627500Y-73660000D02*
X68937502Y-72200000D01*
D13*
X73977500Y-71120000D03*
X73957500Y-71410000D03*
D15*
X73937500Y-71700000D02*
X73977500Y-71120000D01*
D12*
X57467500Y-76200000D03*
X47307500Y-76200000D03*
D13*
X49887500Y-72200000D03*
D14*
X52387500Y-76200000D03*
D13*
X49232501Y-72930000D03*
D15*
X48577500Y-73660000D02*
X49887502Y-72200000D01*
D13*
X54927500Y-71120000D03*
X54907500Y-71410000D03*
D15*
X54887500Y-71700000D02*
X54927500Y-71120000D01*
D12*
X38417500Y-76200000D03*
X28257500Y-76200000D03*
D13*
X30837500Y-72200000D03*
D14*
X33337500Y-76200000D03*
D13*
X30182501Y-72930000D03*
D15*
X29527500Y-73660000D02*
X30837502Y-72200000D01*
D13*
X35877500Y-71120000D03*
X35857500Y-71410000D03*
D15*
X35837500Y-71700000D02*
X35877500Y-71120000D01*
D12*
X262255000Y-57150000D03*
X252095000Y-57150000D03*
D13*
X254675000Y-53150000D03*
D14*
X257175000Y-57150000D03*
D13*
X254020001Y-53880000D03*
D15*
X253365000Y-54610000D02*
X254675002Y-53150000D01*
D13*
X259715000Y-52070000D03*
X259695000Y-52360000D03*
D15*
X259675000Y-52650000D02*
X259715000Y-52070000D01*
D12*
X243205000Y-57150000D03*
X233045000Y-57150000D03*
D13*
X235625000Y-53150000D03*
D14*
X238125000Y-57150000D03*
D13*
X234970001Y-53880000D03*
D15*
X234315000Y-54610000D02*
X235625002Y-53150000D01*
D13*
X240665000Y-52070000D03*
X240645000Y-52360000D03*
D15*
X240625000Y-52650000D02*
X240665000Y-52070000D01*
D12*
X224155000Y-57150000D03*
X213995000Y-57150000D03*
D13*
X216575000Y-53150000D03*
D14*
X219075000Y-57150000D03*
D13*
X215920001Y-53880000D03*
D15*
X215265000Y-54610000D02*
X216575002Y-53150000D01*
D13*
X221615000Y-52070000D03*
X221595000Y-52360000D03*
D15*
X221575000Y-52650000D02*
X221615000Y-52070000D01*
D12*
X205105000Y-57150000D03*
X194945000Y-57150000D03*
D13*
X197525000Y-53150000D03*
D14*
X200025000Y-57150000D03*
D13*
X196870001Y-53880000D03*
D15*
X196215000Y-54610000D02*
X197525002Y-53150000D01*
D13*
X202565000Y-52070000D03*
X202545000Y-52360000D03*
D15*
X202525000Y-52650000D02*
X202565000Y-52070000D01*
D12*
X186055000Y-57150000D03*
X175895000Y-57150000D03*
D13*
X178475000Y-53150000D03*
D14*
X180975000Y-57150000D03*
D13*
X177820001Y-53880000D03*
D15*
X177165000Y-54610000D02*
X178475002Y-53150000D01*
D13*
X183515000Y-52070000D03*
X183495000Y-52360000D03*
D15*
X183475000Y-52650000D02*
X183515000Y-52070000D01*
D12*
X167005000Y-57150000D03*
X156845000Y-57150000D03*
D13*
X159425000Y-53150000D03*
D14*
X161925000Y-57150000D03*
D13*
X158770001Y-53880000D03*
D15*
X158115000Y-54610000D02*
X159425002Y-53150000D01*
D13*
X164465000Y-52070000D03*
X164445000Y-52360000D03*
D15*
X164425000Y-52650000D02*
X164465000Y-52070000D01*
D12*
X133667500Y-57150000D03*
X123507500Y-57150000D03*
D13*
X126087500Y-53150000D03*
D14*
X128587500Y-57150000D03*
D13*
X125432501Y-53880000D03*
D15*
X124777500Y-54610000D02*
X126087502Y-53150000D01*
D13*
X131127500Y-52070000D03*
X131107500Y-52360000D03*
D15*
X131087500Y-52650000D02*
X131127500Y-52070000D01*
D12*
X114617500Y-57150000D03*
X104457500Y-57150000D03*
D13*
X107037500Y-53150000D03*
D14*
X109537500Y-57150000D03*
D13*
X106382501Y-53880000D03*
D15*
X105727500Y-54610000D02*
X107037502Y-53150000D01*
D13*
X112077500Y-52070000D03*
X112057500Y-52360000D03*
D15*
X112037500Y-52650000D02*
X112077500Y-52070000D01*
D12*
X95567500Y-57150000D03*
X85407500Y-57150000D03*
D13*
X87987500Y-53150000D03*
D14*
X90487500Y-57150000D03*
D13*
X87332501Y-53880000D03*
D15*
X86677500Y-54610000D02*
X87987502Y-53150000D01*
D13*
X93027500Y-52070000D03*
X93007500Y-52360000D03*
D15*
X92987500Y-52650000D02*
X93027500Y-52070000D01*
D12*
X76517500Y-57150000D03*
X66357500Y-57150000D03*
D13*
X68937500Y-53150000D03*
D14*
X71437500Y-57150000D03*
D13*
X68282501Y-53880000D03*
D15*
X67627500Y-54610000D02*
X68937502Y-53150000D01*
D13*
X73977500Y-52070000D03*
X73957500Y-52360000D03*
D15*
X73937500Y-52650000D02*
X73977500Y-52070000D01*
D12*
X57467500Y-57150000D03*
X47307500Y-57150000D03*
D13*
X49887500Y-53150000D03*
D14*
X52387500Y-57150000D03*
D13*
X49232501Y-53880000D03*
D15*
X48577500Y-54610000D02*
X49887502Y-53150000D01*
D13*
X54927500Y-52070000D03*
X54907500Y-52360000D03*
D15*
X54887500Y-52650000D02*
X54927500Y-52070000D01*
D12*
X38417500Y-57150000D03*
X28257500Y-57150000D03*
D13*
X30837500Y-53150000D03*
D14*
X33337500Y-57150000D03*
D13*
X30182501Y-53880000D03*
D15*
X29527500Y-54610000D02*
X30837502Y-53150000D01*
D13*
X35877500Y-52070000D03*
X35857500Y-52360000D03*
D15*
X35837500Y-52650000D02*
X35877500Y-52070000D01*
D12*
X143192500Y-38100000D03*
X133032500Y-38100000D03*
D13*
X135612500Y-34100000D03*
D14*
X138112500Y-38100000D03*
D13*
X134957501Y-34830000D03*
D15*
X134302500Y-35560000D02*
X135612502Y-34100000D01*
D13*
X140652500Y-33020000D03*
X140632500Y-33310000D03*
D15*
X140612500Y-33600000D02*
X140652500Y-33020000D01*
D12*
X124142500Y-38100000D03*
X113982500Y-38100000D03*
D13*
X116562500Y-34100000D03*
D14*
X119062500Y-38100000D03*
D13*
X115907501Y-34830000D03*
D15*
X115252500Y-35560000D02*
X116562502Y-34100000D01*
D13*
X121602500Y-33020000D03*
X121582500Y-33310000D03*
D15*
X121562500Y-33600000D02*
X121602500Y-33020000D01*
D12*
X105092500Y-38100000D03*
X94932500Y-38100000D03*
D13*
X97512500Y-34100000D03*
D14*
X100012500Y-38100000D03*
D13*
X96857501Y-34830000D03*
D15*
X96202500Y-35560000D02*
X97512502Y-34100000D01*
D13*
X102552500Y-33020000D03*
X102532500Y-33310000D03*
D15*
X102512500Y-33600000D02*
X102552500Y-33020000D01*
D12*
X86042500Y-38100000D03*
X75882500Y-38100000D03*
D13*
X78462500Y-34100000D03*
D14*
X80962500Y-38100000D03*
D13*
X77807501Y-34830000D03*
D15*
X77152500Y-35560000D02*
X78462502Y-34100000D01*
D13*
X83502500Y-33020000D03*
X83482500Y-33310000D03*
D15*
X83462500Y-33600000D02*
X83502500Y-33020000D01*
D12*
X66992500Y-38100000D03*
X56832500Y-38100000D03*
D13*
X59412500Y-34100000D03*
D14*
X61912500Y-38100000D03*
D13*
X58757501Y-34830000D03*
D15*
X58102500Y-35560000D02*
X59412502Y-34100000D01*
D13*
X64452500Y-33020000D03*
X64432500Y-33310000D03*
D15*
X64412500Y-33600000D02*
X64452500Y-33020000D01*
D12*
X47942500Y-38100000D03*
X37782500Y-38100000D03*
D13*
X40362500Y-34100000D03*
D14*
X42862500Y-38100000D03*
D13*
X39707501Y-34830000D03*
D15*
X39052500Y-35560000D02*
X40362502Y-34100000D01*
D13*
X45402500Y-33020000D03*
X45382500Y-33310000D03*
D15*
X45362500Y-33600000D02*
X45402500Y-33020000D01*
D28*
X241300000Y-118873000D03*
X241300000Y-122173000D03*
X222250000Y-118873000D03*
X222250000Y-122173000D03*
X184150000Y-118874000D03*
X184150000Y-122174000D03*
X113030000Y-118873000D03*
X113030000Y-122173000D03*
X74930000Y-118873000D03*
X74930000Y-122173000D03*
X55880000Y-118873000D03*
X55880000Y-122173000D03*
X36830000Y-118873000D03*
X36830000Y-122173000D03*
X260350000Y-99823000D03*
X260350000Y-103123000D03*
X241300000Y-99823000D03*
X241300000Y-103123000D03*
X222250000Y-99823000D03*
X222250000Y-103123000D03*
X208280000Y-99823000D03*
X208280000Y-103123000D03*
X184150000Y-99823000D03*
X184150000Y-103123000D03*
X170180000Y-99823000D03*
X170180000Y-103123000D03*
X136906000Y-99823000D03*
X136906000Y-103123000D03*
X113030000Y-99823000D03*
X113030000Y-103123000D03*
X98806000Y-99823000D03*
X98806000Y-103123000D03*
X74930000Y-99823000D03*
X74930000Y-103123000D03*
X55880000Y-99823000D03*
X55880000Y-103123000D03*
X36830000Y-99823000D03*
X36830000Y-103123000D03*
X260350000Y-80773000D03*
X260350000Y-84073000D03*
X241300000Y-80773000D03*
X241300000Y-84073000D03*
X222250000Y-80773000D03*
X222250000Y-84073000D03*
X203200000Y-80773000D03*
X203200000Y-84073000D03*
X184150000Y-80773000D03*
X184150000Y-84073000D03*
X165100000Y-80773000D03*
X165100000Y-84073000D03*
X132080000Y-80773000D03*
X132080000Y-84073000D03*
X113030000Y-80773000D03*
X113030000Y-84073000D03*
X93980000Y-80773000D03*
X93980000Y-84073000D03*
X74930000Y-80773000D03*
X74930000Y-84073000D03*
X55880000Y-80773000D03*
X55880000Y-84073000D03*
X36830000Y-80773000D03*
X36830000Y-84073000D03*
X260349000Y-61723000D03*
X260349000Y-65023000D03*
X241300000Y-61723000D03*
X241300000Y-65023000D03*
X222250000Y-61723000D03*
X222250000Y-65023000D03*
X203200000Y-61723000D03*
X203200000Y-65023000D03*
X184150000Y-61723000D03*
X184150000Y-65023000D03*
X165100000Y-61723000D03*
X165100000Y-65023000D03*
X132080000Y-61723000D03*
X132080000Y-65023000D03*
X113030000Y-61723000D03*
X113030000Y-65023000D03*
X93980000Y-61723000D03*
X93980000Y-65023000D03*
X74930000Y-61723000D03*
X74930000Y-65023000D03*
X55880000Y-61723000D03*
X55880000Y-65023000D03*
X36830000Y-61723000D03*
X36830000Y-65023000D03*
X140970000Y-42673000D03*
X140970000Y-45973000D03*
X121920000Y-42673000D03*
X121920000Y-45973000D03*
X102870000Y-42673000D03*
X102870000Y-45973000D03*
X83820000Y-42673000D03*
X83820000Y-45973000D03*
X64770000Y-42673000D03*
X64770000Y-45973000D03*
X45720000Y-42673000D03*
X45720000Y-45973000D03*
M02*
