G04 #@! TF.GenerationSoftware,KiCad,Pcbnew,(5.1.4-0)*
G04 #@! TF.CreationDate,2020-12-15T23:12:41-05:00*
G04 #@! TF.ProjectId,V4N4G0RTH0N,56344e34-4730-4525-9448-304e2e6b6963,rev?*
G04 #@! TF.SameCoordinates,Original*
G04 #@! TF.FileFunction,Copper,L1,Top*
G04 #@! TF.FilePolarity,Positive*
%FSLAX46Y46*%
G04 Gerber Fmt 4.6, Leading zero omitted, Abs format (unit mm)*
G04 Created by KiCad (PCBNEW (5.1.4-0)) date 2020-12-15 23:12:41*
%MOMM*%
%LPD*%
G04 APERTURE LIST*
%ADD10C,2.250000*%
%ADD11C,2.250000*%
%ADD12O,1.000000X2.100000*%
%ADD13O,1.000000X1.600000*%
%ADD14C,1.800000*%
%ADD15R,1.800000X1.800000*%
%ADD16C,0.800000*%
%ADD17C,0.203200*%
%ADD18C,0.254000*%
G04 APERTURE END LIST*
D10*
X254675000Y-110300000D03*
X254020001Y-111030000D03*
D11*
X253365000Y-111760000D02*
X254675002Y-110300000D01*
D10*
X259715000Y-109220000D03*
X259695000Y-109510000D03*
D11*
X259675000Y-109800000D02*
X259715000Y-109220000D01*
D12*
X48004000Y-32307000D03*
X56644000Y-32307000D03*
D13*
X48004000Y-28127000D03*
X56644000Y-28127000D03*
D14*
X29083000Y-42767000D03*
D15*
X26543000Y-42767000D03*
D14*
X29083000Y-37242000D03*
D15*
X26543000Y-37242000D03*
D14*
X29083000Y-31717000D03*
D15*
X26543000Y-31717000D03*
D10*
X216575000Y-91200399D03*
X215920001Y-91930399D03*
D11*
X215265000Y-92660399D02*
X216575002Y-91200399D01*
D10*
X221615000Y-90120399D03*
X221595000Y-90410399D03*
D11*
X221575000Y-90700399D02*
X221615000Y-90120399D01*
D10*
X235625000Y-110300000D03*
X234970001Y-111030000D03*
D11*
X234315000Y-111760000D02*
X235625002Y-110300000D01*
D10*
X240665000Y-109220000D03*
X240645000Y-109510000D03*
D11*
X240625000Y-109800000D02*
X240665000Y-109220000D01*
D10*
X216575000Y-110300000D03*
X215920001Y-111030000D03*
D11*
X215265000Y-111760000D02*
X216575002Y-110300000D01*
D10*
X221615000Y-109220000D03*
X221595000Y-109510000D03*
D11*
X221575000Y-109800000D02*
X221615000Y-109220000D01*
D10*
X178475000Y-110300000D03*
X177820001Y-111030000D03*
D11*
X177165000Y-111760000D02*
X178475002Y-110300000D01*
D10*
X183515000Y-109220000D03*
X183495000Y-109510000D03*
D11*
X183475000Y-109800000D02*
X183515000Y-109220000D01*
D10*
X107037500Y-110300000D03*
X106382501Y-111030000D03*
D11*
X105727500Y-111760000D02*
X107037502Y-110300000D01*
D10*
X112077500Y-109220000D03*
X112057500Y-109510000D03*
D11*
X112037500Y-109800000D02*
X112077500Y-109220000D01*
D10*
X68937500Y-110300000D03*
X68282501Y-111030000D03*
D11*
X67627500Y-111760000D02*
X68937502Y-110300000D01*
D10*
X73977500Y-109220000D03*
X73957500Y-109510000D03*
D11*
X73937500Y-109800000D02*
X73977500Y-109220000D01*
D10*
X49887500Y-110300000D03*
X49232501Y-111030000D03*
D11*
X48577500Y-111760000D02*
X49887502Y-110300000D01*
D10*
X54927500Y-109220000D03*
X54907500Y-109510000D03*
D11*
X54887500Y-109800000D02*
X54927500Y-109220000D01*
D10*
X30837500Y-110300000D03*
X30182501Y-111030000D03*
D11*
X29527500Y-111760000D02*
X30837502Y-110300000D01*
D10*
X35877500Y-109220000D03*
X35857500Y-109510000D03*
D11*
X35837500Y-109800000D02*
X35877500Y-109220000D01*
D10*
X254675000Y-91250000D03*
X254020001Y-91980000D03*
D11*
X253365000Y-92710000D02*
X254675002Y-91250000D01*
D10*
X259715000Y-90170000D03*
X259695000Y-90460000D03*
D11*
X259675000Y-90750000D02*
X259715000Y-90170000D01*
D10*
X235625000Y-91250000D03*
X234970001Y-91980000D03*
D11*
X234315000Y-92710000D02*
X235625002Y-91250000D01*
D10*
X240665000Y-90170000D03*
X240645000Y-90460000D03*
D11*
X240625000Y-90750000D02*
X240665000Y-90170000D01*
D10*
X197525000Y-91250000D03*
X196870001Y-91980000D03*
D11*
X196215000Y-92710000D02*
X197525002Y-91250000D01*
D10*
X202565000Y-90170000D03*
X202545000Y-90460000D03*
D11*
X202525000Y-90750000D02*
X202565000Y-90170000D01*
D10*
X178475000Y-91250000D03*
X177820001Y-91980000D03*
D11*
X177165000Y-92710000D02*
X178475002Y-91250000D01*
D10*
X183515000Y-90170000D03*
X183495000Y-90460000D03*
D11*
X183475000Y-90750000D02*
X183515000Y-90170000D01*
D10*
X159425000Y-91250000D03*
X158770001Y-91980000D03*
D11*
X158115000Y-92710000D02*
X159425002Y-91250000D01*
D10*
X164465000Y-90170000D03*
X164445000Y-90460000D03*
D11*
X164425000Y-90750000D02*
X164465000Y-90170000D01*
D10*
X126087500Y-91250000D03*
X125432501Y-91980000D03*
D11*
X124777500Y-92710000D02*
X126087502Y-91250000D01*
D10*
X131127500Y-90170000D03*
X131107500Y-90460000D03*
D11*
X131087500Y-90750000D02*
X131127500Y-90170000D01*
D10*
X107037500Y-91250000D03*
X106382501Y-91980000D03*
D11*
X105727500Y-92710000D02*
X107037502Y-91250000D01*
D10*
X112077500Y-90170000D03*
X112057500Y-90460000D03*
D11*
X112037500Y-90750000D02*
X112077500Y-90170000D01*
D10*
X87987500Y-91250000D03*
X87332501Y-91980000D03*
D11*
X86677500Y-92710000D02*
X87987502Y-91250000D01*
D10*
X93027500Y-90170000D03*
X93007500Y-90460000D03*
D11*
X92987500Y-90750000D02*
X93027500Y-90170000D01*
D10*
X68937500Y-91250000D03*
X68282501Y-91980000D03*
D11*
X67627500Y-92710000D02*
X68937502Y-91250000D01*
D10*
X73977500Y-90170000D03*
X73957500Y-90460000D03*
D11*
X73937500Y-90750000D02*
X73977500Y-90170000D01*
D10*
X49887500Y-91250000D03*
X49232501Y-91980000D03*
D11*
X48577500Y-92710000D02*
X49887502Y-91250000D01*
D10*
X54927500Y-90170000D03*
X54907500Y-90460000D03*
D11*
X54887500Y-90750000D02*
X54927500Y-90170000D01*
D10*
X30837500Y-91250000D03*
X30182501Y-91980000D03*
D11*
X29527500Y-92710000D02*
X30837502Y-91250000D01*
D10*
X35877500Y-90170000D03*
X35857500Y-90460000D03*
D11*
X35837500Y-90750000D02*
X35877500Y-90170000D01*
D10*
X254675000Y-72200000D03*
X254020001Y-72930000D03*
D11*
X253365000Y-73660000D02*
X254675002Y-72200000D01*
D10*
X259715000Y-71120000D03*
X259695000Y-71410000D03*
D11*
X259675000Y-71700000D02*
X259715000Y-71120000D01*
D10*
X235625000Y-72200000D03*
X234970001Y-72930000D03*
D11*
X234315000Y-73660000D02*
X235625002Y-72200000D01*
D10*
X240665000Y-71120000D03*
X240645000Y-71410000D03*
D11*
X240625000Y-71700000D02*
X240665000Y-71120000D01*
D10*
X216575000Y-72200000D03*
X215920001Y-72930000D03*
D11*
X215265000Y-73660000D02*
X216575002Y-72200000D01*
D10*
X221615000Y-71120000D03*
X221595000Y-71410000D03*
D11*
X221575000Y-71700000D02*
X221615000Y-71120000D01*
D10*
X197525000Y-72200000D03*
X196870001Y-72930000D03*
D11*
X196215000Y-73660000D02*
X197525002Y-72200000D01*
D10*
X202565000Y-71120000D03*
X202545000Y-71410000D03*
D11*
X202525000Y-71700000D02*
X202565000Y-71120000D01*
D10*
X178475000Y-72200000D03*
X177820001Y-72930000D03*
D11*
X177165000Y-73660000D02*
X178475002Y-72200000D01*
D10*
X183515000Y-71120000D03*
X183495000Y-71410000D03*
D11*
X183475000Y-71700000D02*
X183515000Y-71120000D01*
D10*
X159425000Y-72200000D03*
X158770001Y-72930000D03*
D11*
X158115000Y-73660000D02*
X159425002Y-72200000D01*
D10*
X164465000Y-71120000D03*
X164445000Y-71410000D03*
D11*
X164425000Y-71700000D02*
X164465000Y-71120000D01*
D10*
X126087500Y-72200000D03*
X125432501Y-72930000D03*
D11*
X124777500Y-73660000D02*
X126087502Y-72200000D01*
D10*
X131127500Y-71120000D03*
X131107500Y-71410000D03*
D11*
X131087500Y-71700000D02*
X131127500Y-71120000D01*
D10*
X107037500Y-72200000D03*
X106382501Y-72930000D03*
D11*
X105727500Y-73660000D02*
X107037502Y-72200000D01*
D10*
X112077500Y-71120000D03*
X112057500Y-71410000D03*
D11*
X112037500Y-71700000D02*
X112077500Y-71120000D01*
D10*
X87987500Y-72200000D03*
X87332501Y-72930000D03*
D11*
X86677500Y-73660000D02*
X87987502Y-72200000D01*
D10*
X93027500Y-71120000D03*
X93007500Y-71410000D03*
D11*
X92987500Y-71700000D02*
X93027500Y-71120000D01*
D10*
X68937500Y-72200000D03*
X68282501Y-72930000D03*
D11*
X67627500Y-73660000D02*
X68937502Y-72200000D01*
D10*
X73977500Y-71120000D03*
X73957500Y-71410000D03*
D11*
X73937500Y-71700000D02*
X73977500Y-71120000D01*
D10*
X49887500Y-72200000D03*
X49232501Y-72930000D03*
D11*
X48577500Y-73660000D02*
X49887502Y-72200000D01*
D10*
X54927500Y-71120000D03*
X54907500Y-71410000D03*
D11*
X54887500Y-71700000D02*
X54927500Y-71120000D01*
D10*
X30837500Y-72200000D03*
X30182501Y-72930000D03*
D11*
X29527500Y-73660000D02*
X30837502Y-72200000D01*
D10*
X35877500Y-71120000D03*
X35857500Y-71410000D03*
D11*
X35837500Y-71700000D02*
X35877500Y-71120000D01*
D10*
X254675000Y-53150000D03*
X254020001Y-53880000D03*
D11*
X253365000Y-54610000D02*
X254675002Y-53150000D01*
D10*
X259715000Y-52070000D03*
X259695000Y-52360000D03*
D11*
X259675000Y-52650000D02*
X259715000Y-52070000D01*
D10*
X235625000Y-53150000D03*
X234970001Y-53880000D03*
D11*
X234315000Y-54610000D02*
X235625002Y-53150000D01*
D10*
X240665000Y-52070000D03*
X240645000Y-52360000D03*
D11*
X240625000Y-52650000D02*
X240665000Y-52070000D01*
D10*
X216575000Y-53150000D03*
X215920001Y-53880000D03*
D11*
X215265000Y-54610000D02*
X216575002Y-53150000D01*
D10*
X221615000Y-52070000D03*
X221595000Y-52360000D03*
D11*
X221575000Y-52650000D02*
X221615000Y-52070000D01*
D10*
X197525000Y-53150000D03*
X196870001Y-53880000D03*
D11*
X196215000Y-54610000D02*
X197525002Y-53150000D01*
D10*
X202565000Y-52070000D03*
X202545000Y-52360000D03*
D11*
X202525000Y-52650000D02*
X202565000Y-52070000D01*
D10*
X178475000Y-53150000D03*
X177820001Y-53880000D03*
D11*
X177165000Y-54610000D02*
X178475002Y-53150000D01*
D10*
X183515000Y-52070000D03*
X183495000Y-52360000D03*
D11*
X183475000Y-52650000D02*
X183515000Y-52070000D01*
D10*
X159425000Y-53150000D03*
X158770001Y-53880000D03*
D11*
X158115000Y-54610000D02*
X159425002Y-53150000D01*
D10*
X164465000Y-52070000D03*
X164445000Y-52360000D03*
D11*
X164425000Y-52650000D02*
X164465000Y-52070000D01*
D10*
X126087500Y-53150000D03*
X125432501Y-53880000D03*
D11*
X124777500Y-54610000D02*
X126087502Y-53150000D01*
D10*
X131127500Y-52070000D03*
X131107500Y-52360000D03*
D11*
X131087500Y-52650000D02*
X131127500Y-52070000D01*
D10*
X107037500Y-53150000D03*
X106382501Y-53880000D03*
D11*
X105727500Y-54610000D02*
X107037502Y-53150000D01*
D10*
X112077500Y-52070000D03*
X112057500Y-52360000D03*
D11*
X112037500Y-52650000D02*
X112077500Y-52070000D01*
D10*
X87987500Y-53150000D03*
X87332501Y-53880000D03*
D11*
X86677500Y-54610000D02*
X87987502Y-53150000D01*
D10*
X93027500Y-52070000D03*
X93007500Y-52360000D03*
D11*
X92987500Y-52650000D02*
X93027500Y-52070000D01*
D10*
X68937500Y-53150000D03*
X68282501Y-53880000D03*
D11*
X67627500Y-54610000D02*
X68937502Y-53150000D01*
D10*
X73977500Y-52070000D03*
X73957500Y-52360000D03*
D11*
X73937500Y-52650000D02*
X73977500Y-52070000D01*
D10*
X49887500Y-53150000D03*
X49232501Y-53880000D03*
D11*
X48577500Y-54610000D02*
X49887502Y-53150000D01*
D10*
X54927500Y-52070000D03*
X54907500Y-52360000D03*
D11*
X54887500Y-52650000D02*
X54927500Y-52070000D01*
D10*
X30837500Y-53150000D03*
X30182501Y-53880000D03*
D11*
X29527500Y-54610000D02*
X30837502Y-53150000D01*
D10*
X35877500Y-52070000D03*
X35857500Y-52360000D03*
D11*
X35837500Y-52650000D02*
X35877500Y-52070000D01*
D10*
X135612500Y-34100000D03*
X134957501Y-34830000D03*
D11*
X134302500Y-35560000D02*
X135612502Y-34100000D01*
D10*
X140652500Y-33020000D03*
X140632500Y-33310000D03*
D11*
X140612500Y-33600000D02*
X140652500Y-33020000D01*
D10*
X116562500Y-34100000D03*
X115907501Y-34830000D03*
D11*
X115252500Y-35560000D02*
X116562502Y-34100000D01*
D10*
X121602500Y-33020000D03*
X121582500Y-33310000D03*
D11*
X121562500Y-33600000D02*
X121602500Y-33020000D01*
D10*
X97512500Y-34100000D03*
X96857501Y-34830000D03*
D11*
X96202500Y-35560000D02*
X97512502Y-34100000D01*
D10*
X102552500Y-33020000D03*
X102532500Y-33310000D03*
D11*
X102512500Y-33600000D02*
X102552500Y-33020000D01*
D10*
X78462500Y-34100000D03*
X77807501Y-34830000D03*
D11*
X77152500Y-35560000D02*
X78462502Y-34100000D01*
D10*
X83502500Y-33020000D03*
X83482500Y-33310000D03*
D11*
X83462500Y-33600000D02*
X83502500Y-33020000D01*
D10*
X59412500Y-34100000D03*
X58757501Y-34830000D03*
D11*
X58102500Y-35560000D02*
X59412502Y-34100000D01*
D10*
X64452500Y-33020000D03*
X64432500Y-33310000D03*
D11*
X64412500Y-33600000D02*
X64452500Y-33020000D01*
D10*
X40362500Y-34100000D03*
X39707501Y-34830000D03*
D11*
X39052500Y-35560000D02*
X40362502Y-34100000D01*
D10*
X45402500Y-33020000D03*
X45382500Y-33310000D03*
D11*
X45362500Y-33600000D02*
X45402500Y-33020000D01*
D16*
X50038000Y-36449000D03*
X48634799Y-36449000D03*
X146685000Y-30480000D03*
X157353000Y-107569000D03*
X33274000Y-35941000D03*
X32950433Y-38677567D03*
X33274000Y-41656000D03*
X32456442Y-44759558D03*
X143002000Y-105156000D03*
X153543000Y-106471000D03*
X154940000Y-118872000D03*
X138430000Y-120904000D03*
X143764000Y-120904000D03*
X149860000Y-120904000D03*
X149218013Y-104267000D03*
X144526000Y-45974000D03*
X148218010Y-104267000D03*
X143763000Y-65023000D03*
X147218007Y-104267000D03*
X142749000Y-84073000D03*
X54610000Y-36449000D03*
X49530000Y-30607000D03*
X55118000Y-30607000D03*
X55087906Y-34524972D03*
X96520000Y-106283020D03*
X137700067Y-107790933D03*
X132334000Y-102396000D03*
X105727500Y-102044500D03*
X157480000Y-110617000D03*
X145380000Y-87249000D03*
X124777500Y-86677500D03*
X52324000Y-34925000D03*
X52324000Y-38227000D03*
X170871949Y-116539299D03*
X170871949Y-116539299D03*
X51816000Y-45246000D03*
X51816000Y-48006000D03*
X170942000Y-49657000D03*
X52832000Y-45246000D03*
X171958000Y-48768000D03*
X171704000Y-117094000D03*
X52832000Y-47752000D03*
X157480000Y-111617003D03*
X196215000Y-104775000D03*
X215265000Y-105156000D03*
X234315000Y-105953000D03*
X253365000Y-106553000D03*
X141954006Y-50927000D03*
X145764006Y-104140000D03*
X140954003Y-50927000D03*
X144764003Y-104140000D03*
X139954000Y-50927000D03*
X143764000Y-104140000D03*
D17*
X48004000Y-31053800D02*
X48004000Y-28127000D01*
X48004000Y-32307000D02*
X48004000Y-31053800D01*
X48707200Y-28127000D02*
X56644000Y-28127000D01*
X48004000Y-28127000D02*
X48707200Y-28127000D01*
X56644000Y-29130200D02*
X56644000Y-32307000D01*
X56644000Y-28127000D02*
X56644000Y-29130200D01*
D18*
X50038000Y-36449000D02*
X48634799Y-36449000D01*
X33274000Y-38354000D02*
X32950433Y-38677567D01*
X33274000Y-35941000D02*
X33274000Y-38354000D01*
X33274000Y-41656000D02*
X33274000Y-44577000D01*
X33091442Y-44759558D02*
X32456442Y-44759558D01*
X33274000Y-44577000D02*
X33091442Y-44759558D01*
X157353000Y-104394000D02*
X157353000Y-105410000D01*
X146685000Y-93726000D02*
X157353000Y-104394000D01*
X146685000Y-30480000D02*
X146685000Y-93726000D01*
X157353000Y-105410000D02*
X157353000Y-107569000D01*
X152228000Y-105156000D02*
X153543000Y-106471000D01*
X143002000Y-105156000D02*
X152228000Y-105156000D01*
X154940000Y-118872000D02*
X154940000Y-120650000D01*
X154940000Y-120650000D02*
X154686000Y-120904000D01*
X153543000Y-117475000D02*
X154940000Y-118872000D01*
X153543000Y-106471000D02*
X153543000Y-117475000D01*
D17*
X148787662Y-120847662D02*
X148844000Y-120904000D01*
D18*
X143764000Y-120904000D02*
X138430000Y-120904000D01*
X148844000Y-120904000D02*
X143764000Y-120904000D01*
X154686000Y-120904000D02*
X149860000Y-120904000D01*
X149860000Y-120904000D02*
X148844000Y-120904000D01*
X149218013Y-103701315D02*
X144653000Y-99136302D01*
X149218013Y-104267000D02*
X149218013Y-103701315D01*
X144653000Y-99136302D02*
X144653000Y-61341000D01*
X144653000Y-46101000D02*
X144526000Y-45974000D01*
X144653000Y-61341000D02*
X144653000Y-46101000D01*
X143721969Y-65064031D02*
X143763000Y-65023000D01*
X147945008Y-104130008D02*
X147945008Y-103918039D01*
X148082000Y-104267000D02*
X147945008Y-104130008D01*
X143721969Y-99695000D02*
X143721969Y-65064031D01*
X148218010Y-104267000D02*
X148082000Y-104267000D01*
X147945008Y-103918039D02*
X143721969Y-99695000D01*
X142681006Y-99729999D02*
X142681006Y-84140994D01*
X147218007Y-104267000D02*
X142681006Y-99729999D01*
X142681006Y-84140994D02*
X142749000Y-84073000D01*
D17*
X55118000Y-30607000D02*
X49530000Y-30607000D01*
X54610000Y-35002878D02*
X54610000Y-36449000D01*
X55087906Y-34524972D02*
X54610000Y-35002878D01*
D18*
X39052500Y-35560000D02*
X38543538Y-35560000D01*
X29527500Y-70890000D02*
X30837500Y-72200000D01*
X29527500Y-54610000D02*
X29527500Y-70890000D01*
X29527500Y-89940000D02*
X30837500Y-91250000D01*
X29527500Y-73660000D02*
X29527500Y-89940000D01*
X29527500Y-108990000D02*
X30837500Y-110300000D01*
X29527500Y-92710000D02*
X29527500Y-108990000D01*
X39052500Y-44935000D02*
X30837500Y-53150000D01*
X39052500Y-35560000D02*
X39052500Y-44935000D01*
X58102500Y-35560000D02*
X57593538Y-35560000D01*
X48577500Y-70890000D02*
X49887500Y-72200000D01*
X48577500Y-54610000D02*
X48577500Y-70890000D01*
X48577500Y-89940000D02*
X49887500Y-91250000D01*
X48577500Y-73660000D02*
X48577500Y-89940000D01*
X48577500Y-108990000D02*
X49887500Y-110300000D01*
X48577500Y-92710000D02*
X48577500Y-108990000D01*
D17*
X58102500Y-44935000D02*
X49887500Y-53150000D01*
X58102500Y-35560000D02*
X58102500Y-44935000D01*
D18*
X68937500Y-51559010D02*
X68937500Y-53150000D01*
X68937500Y-43266038D02*
X68937500Y-51559010D01*
X76643538Y-35560000D02*
X68937500Y-43266038D01*
X77152500Y-35560000D02*
X76643538Y-35560000D01*
X67627500Y-70890000D02*
X68937500Y-72200000D01*
X67627500Y-54610000D02*
X67627500Y-70890000D01*
X67627500Y-89940000D02*
X68937500Y-91250000D01*
X67627500Y-73660000D02*
X67627500Y-89940000D01*
X67627500Y-108990000D02*
X68937500Y-110300000D01*
X67627500Y-92710000D02*
X67627500Y-108990000D01*
X87987500Y-51559010D02*
X87987500Y-53150000D01*
X87987500Y-43266038D02*
X87987500Y-51559010D01*
X95693538Y-35560000D02*
X87987500Y-43266038D01*
X96202500Y-35560000D02*
X95693538Y-35560000D01*
X86677500Y-70890000D02*
X87987500Y-72200000D01*
X86677500Y-54610000D02*
X86677500Y-70890000D01*
X86677500Y-89940000D02*
X87987500Y-91250000D01*
X86677500Y-73660000D02*
X86677500Y-89940000D01*
X86677500Y-96440520D02*
X86677500Y-92710000D01*
X96520000Y-106283020D02*
X86677500Y-96440520D01*
X107037500Y-51559010D02*
X107037500Y-53150000D01*
X107037500Y-43266038D02*
X107037500Y-51559010D01*
X114743538Y-35560000D02*
X107037500Y-43266038D01*
X115252500Y-35560000D02*
X114743538Y-35560000D01*
X105727500Y-70890000D02*
X107037500Y-72200000D01*
X105727500Y-54610000D02*
X105727500Y-70890000D01*
X105727500Y-89940000D02*
X107037500Y-91250000D01*
X105727500Y-73660000D02*
X105727500Y-89940000D01*
X105727500Y-108990000D02*
X107037500Y-110300000D01*
X132334000Y-102424866D02*
X132334000Y-102396000D01*
X137700067Y-107790933D02*
X132334000Y-102424866D01*
X105727500Y-102044500D02*
X105727500Y-108990000D01*
X105727500Y-92710000D02*
X105727500Y-102044500D01*
X126087500Y-43266038D02*
X126087500Y-51559010D01*
X126087500Y-51559010D02*
X126087500Y-53150000D01*
X133793538Y-35560000D02*
X126087500Y-43266038D01*
X134302500Y-35560000D02*
X133793538Y-35560000D01*
X124777500Y-70890000D02*
X126087500Y-72200000D01*
X124777500Y-54610000D02*
X124777500Y-70890000D01*
X124777500Y-89940000D02*
X126087500Y-91250000D01*
X151395267Y-103247305D02*
X149406069Y-103247305D01*
X157480000Y-109332038D02*
X151395267Y-103247305D01*
X157480000Y-110617000D02*
X157480000Y-109332038D01*
X149406069Y-103247305D02*
X145107010Y-98948246D01*
X145107010Y-98948246D02*
X145107010Y-87249000D01*
X145107010Y-87249000D02*
X145380000Y-87249000D01*
X125857000Y-91019500D02*
X126087500Y-91250000D01*
X124777500Y-86677500D02*
X124777500Y-89940000D01*
X124777500Y-73660000D02*
X124777500Y-86677500D01*
D17*
X52324000Y-34925000D02*
X52324000Y-38227000D01*
X170918650Y-116586000D02*
X170871949Y-116539299D01*
X170942000Y-116586000D02*
X170918650Y-116586000D01*
X51816000Y-45246000D02*
X51816000Y-46990000D01*
D18*
X51816000Y-46990000D02*
X51816000Y-48006000D01*
D17*
X170942000Y-49911000D02*
X170942000Y-116586000D01*
X170942000Y-49657000D02*
X170942000Y-49911000D01*
X171958000Y-116840000D02*
X171704000Y-117094000D01*
X171958000Y-116586000D02*
X171958000Y-116840000D01*
X52832000Y-45246000D02*
X52832000Y-46736000D01*
D18*
X52832000Y-46736000D02*
X52832000Y-47752000D01*
D17*
X171958000Y-49022000D02*
X171958000Y-116586000D01*
D18*
X158115000Y-70890000D02*
X159425000Y-72200000D01*
X158115000Y-54610000D02*
X158115000Y-70890000D01*
X158115000Y-89940000D02*
X159425000Y-91250000D01*
X158115000Y-73660000D02*
X158115000Y-89940000D01*
X158207001Y-111455687D02*
X158207001Y-92802001D01*
X158045685Y-111617003D02*
X158207001Y-111455687D01*
X158207001Y-92802001D02*
X158115000Y-92710000D01*
X157480000Y-111617003D02*
X158045685Y-111617003D01*
X177165000Y-70890000D02*
X178475000Y-72200000D01*
X177165000Y-54610000D02*
X177165000Y-70890000D01*
X177165000Y-89940000D02*
X178475000Y-91250000D01*
X177165000Y-73660000D02*
X177165000Y-89940000D01*
X177165000Y-108990000D02*
X178475000Y-110300000D01*
X177165000Y-92710000D02*
X177165000Y-108990000D01*
X176307994Y-112617006D02*
X177165000Y-111760000D01*
X196215000Y-70890000D02*
X197525000Y-72200000D01*
X196215000Y-54610000D02*
X196215000Y-70890000D01*
X196215000Y-89940000D02*
X197525000Y-91250000D01*
X196215000Y-73660000D02*
X196215000Y-89940000D01*
D17*
X196215000Y-104209315D02*
X196215000Y-92710000D01*
X196215000Y-104775000D02*
X196215000Y-104209315D01*
D18*
X215265000Y-70890000D02*
X216575000Y-72200000D01*
X215265000Y-54610000D02*
X215265000Y-70890000D01*
X215265000Y-89890399D02*
X216575000Y-91200399D01*
X215265000Y-73660000D02*
X215265000Y-89890399D01*
X215265000Y-108990000D02*
X216575000Y-110300000D01*
X215265000Y-105156000D02*
X215265000Y-108990000D01*
X215265000Y-92660399D02*
X215265000Y-105156000D01*
X234315000Y-70890000D02*
X235625000Y-72200000D01*
X234315000Y-54610000D02*
X234315000Y-70890000D01*
X234315000Y-89940000D02*
X235625000Y-91250000D01*
X234315000Y-73660000D02*
X234315000Y-89940000D01*
X234315000Y-108990000D02*
X235625000Y-110300000D01*
X234315000Y-106045000D02*
X234315000Y-108990000D01*
X234315000Y-92710000D02*
X234315000Y-106045000D01*
X253365000Y-70890000D02*
X254675000Y-72200000D01*
X253365000Y-54610000D02*
X253365000Y-70890000D01*
X253365000Y-89940000D02*
X254675000Y-91250000D01*
X253365000Y-73660000D02*
X253365000Y-89940000D01*
X253365000Y-108990000D02*
X254675000Y-110300000D01*
X253365000Y-106553000D02*
X253365000Y-108990000D01*
X253365000Y-92710000D02*
X253365000Y-106553000D01*
X145764006Y-104064041D02*
X145764006Y-104140000D01*
X141954006Y-100254041D02*
X145764006Y-104064041D01*
X141954006Y-100107994D02*
X141954006Y-100254041D01*
X141954006Y-50927000D02*
X141954006Y-100107994D01*
X144764003Y-104064041D02*
X144764003Y-104140000D01*
X142079481Y-101379519D02*
X144764003Y-104064041D01*
X141945846Y-101245884D02*
X142079481Y-101379519D01*
X140954003Y-100254041D02*
X141317481Y-100617519D01*
X140954003Y-100187003D02*
X140954003Y-100254041D01*
X141317481Y-100617519D02*
X142079481Y-101379519D01*
X141133899Y-100433937D02*
X141317481Y-100617519D01*
X140954003Y-50927000D02*
X140954003Y-100187003D01*
X139954000Y-50927000D02*
X139954000Y-91806038D01*
X139954000Y-91806038D02*
X139954000Y-99441000D01*
X139954000Y-99441000D02*
X139954000Y-100076000D01*
X139954000Y-100330000D02*
X143764000Y-104140000D01*
X139954000Y-100076000D02*
X139954000Y-100330000D01*
M02*
