G04 #@! TF.GenerationSoftware,KiCad,Pcbnew,(5.1.4-0)*
G04 #@! TF.CreationDate,2020-12-16T23:34:57-05:00*
G04 #@! TF.ProjectId,V4N4G0RTH0N,56344e34-4730-4525-9448-304e2e6b6963,rev?*
G04 #@! TF.SameCoordinates,Original*
G04 #@! TF.FileFunction,Soldermask,Top*
G04 #@! TF.FilePolarity,Negative*
%FSLAX46Y46*%
G04 Gerber Fmt 4.6, Leading zero omitted, Abs format (unit mm)*
G04 Created by KiCad (PCBNEW (5.1.4-0)) date 2020-12-16 23:34:57*
%MOMM*%
%LPD*%
G04 APERTURE LIST*
%ADD10C,0.100000*%
G04 APERTURE END LIST*
D10*
G36*
X200332267Y-119740263D02*
G01*
X200484411Y-119770526D01*
X200603137Y-119819704D01*
X200771041Y-119889252D01*
X200771042Y-119889253D01*
X201029004Y-120061617D01*
X201248383Y-120280996D01*
X201363553Y-120453361D01*
X201420748Y-120538959D01*
X201539474Y-120825590D01*
X201600000Y-121129875D01*
X201600000Y-121440125D01*
X201539474Y-121744410D01*
X201420748Y-122031041D01*
X201420747Y-122031042D01*
X201248383Y-122289004D01*
X201029004Y-122508383D01*
X200856639Y-122623553D01*
X200771041Y-122680748D01*
X200603137Y-122750296D01*
X200484411Y-122799474D01*
X200180125Y-122860000D01*
X199869875Y-122860000D01*
X199565589Y-122799474D01*
X199446863Y-122750296D01*
X199278959Y-122680748D01*
X199193361Y-122623553D01*
X199020996Y-122508383D01*
X198801617Y-122289004D01*
X198629253Y-122031042D01*
X198629252Y-122031041D01*
X198510526Y-121744410D01*
X198450000Y-121440125D01*
X198450000Y-121129875D01*
X198510526Y-120825590D01*
X198629252Y-120538959D01*
X198686447Y-120453361D01*
X198801617Y-120280996D01*
X199020996Y-120061617D01*
X199278958Y-119889253D01*
X199278959Y-119889252D01*
X199446863Y-119819704D01*
X199565589Y-119770526D01*
X199717733Y-119740263D01*
X199869875Y-119710000D01*
X200180125Y-119710000D01*
X200332267Y-119740263D01*
X200332267Y-119740263D01*
G37*
G36*
X162232267Y-119740263D02*
G01*
X162384411Y-119770526D01*
X162503137Y-119819704D01*
X162671041Y-119889252D01*
X162671042Y-119889253D01*
X162929004Y-120061617D01*
X163148383Y-120280996D01*
X163263553Y-120453361D01*
X163320748Y-120538959D01*
X163439474Y-120825590D01*
X163500000Y-121129875D01*
X163500000Y-121440125D01*
X163439474Y-121744410D01*
X163320748Y-122031041D01*
X163320747Y-122031042D01*
X163148383Y-122289004D01*
X162929004Y-122508383D01*
X162756639Y-122623553D01*
X162671041Y-122680748D01*
X162503137Y-122750296D01*
X162384411Y-122799474D01*
X162080125Y-122860000D01*
X161769875Y-122860000D01*
X161465589Y-122799474D01*
X161346863Y-122750296D01*
X161178959Y-122680748D01*
X161093361Y-122623553D01*
X160920996Y-122508383D01*
X160701617Y-122289004D01*
X160529253Y-122031042D01*
X160529252Y-122031041D01*
X160410526Y-121744410D01*
X160350000Y-121440125D01*
X160350000Y-121129875D01*
X160410526Y-120825590D01*
X160529252Y-120538959D01*
X160586447Y-120453361D01*
X160701617Y-120280996D01*
X160920996Y-120061617D01*
X161178958Y-119889253D01*
X161178959Y-119889252D01*
X161346863Y-119819704D01*
X161465589Y-119770526D01*
X161617733Y-119740263D01*
X161769875Y-119710000D01*
X162080125Y-119710000D01*
X162232267Y-119740263D01*
X162232267Y-119740263D01*
G37*
G36*
X128894767Y-119740263D02*
G01*
X129046911Y-119770526D01*
X129165637Y-119819704D01*
X129333541Y-119889252D01*
X129333542Y-119889253D01*
X129591504Y-120061617D01*
X129810883Y-120280996D01*
X129926053Y-120453361D01*
X129983248Y-120538959D01*
X130101974Y-120825590D01*
X130162500Y-121129875D01*
X130162500Y-121440125D01*
X130101974Y-121744410D01*
X129983248Y-122031041D01*
X129983247Y-122031042D01*
X129810883Y-122289004D01*
X129591504Y-122508383D01*
X129419139Y-122623553D01*
X129333541Y-122680748D01*
X129165637Y-122750296D01*
X129046911Y-122799474D01*
X128742625Y-122860000D01*
X128432375Y-122860000D01*
X128128089Y-122799474D01*
X128009363Y-122750296D01*
X127841459Y-122680748D01*
X127755861Y-122623553D01*
X127583496Y-122508383D01*
X127364117Y-122289004D01*
X127191753Y-122031042D01*
X127191752Y-122031041D01*
X127073026Y-121744410D01*
X127012500Y-121440125D01*
X127012500Y-121129875D01*
X127073026Y-120825590D01*
X127191752Y-120538959D01*
X127248947Y-120453361D01*
X127364117Y-120280996D01*
X127583496Y-120061617D01*
X127841458Y-119889253D01*
X127841459Y-119889252D01*
X128009363Y-119819704D01*
X128128089Y-119770526D01*
X128280233Y-119740263D01*
X128432375Y-119710000D01*
X128742625Y-119710000D01*
X128894767Y-119740263D01*
X128894767Y-119740263D01*
G37*
G36*
X90794767Y-119740263D02*
G01*
X90946911Y-119770526D01*
X91065637Y-119819704D01*
X91233541Y-119889252D01*
X91233542Y-119889253D01*
X91491504Y-120061617D01*
X91710883Y-120280996D01*
X91826053Y-120453361D01*
X91883248Y-120538959D01*
X92001974Y-120825590D01*
X92062500Y-121129875D01*
X92062500Y-121440125D01*
X92001974Y-121744410D01*
X91883248Y-122031041D01*
X91883247Y-122031042D01*
X91710883Y-122289004D01*
X91491504Y-122508383D01*
X91319139Y-122623553D01*
X91233541Y-122680748D01*
X91065637Y-122750296D01*
X90946911Y-122799474D01*
X90642625Y-122860000D01*
X90332375Y-122860000D01*
X90028089Y-122799474D01*
X89909363Y-122750296D01*
X89741459Y-122680748D01*
X89655861Y-122623553D01*
X89483496Y-122508383D01*
X89264117Y-122289004D01*
X89091753Y-122031042D01*
X89091752Y-122031041D01*
X88973026Y-121744410D01*
X88912500Y-121440125D01*
X88912500Y-121129875D01*
X88973026Y-120825590D01*
X89091752Y-120538959D01*
X89148947Y-120453361D01*
X89264117Y-120280996D01*
X89483496Y-120061617D01*
X89741458Y-119889253D01*
X89741459Y-119889252D01*
X89909363Y-119819704D01*
X90028089Y-119770526D01*
X90180233Y-119740263D01*
X90332375Y-119710000D01*
X90642625Y-119710000D01*
X90794767Y-119740263D01*
X90794767Y-119740263D01*
G37*
G36*
X257771474Y-112333684D02*
G01*
X257989474Y-112423983D01*
X258143623Y-112487833D01*
X258478548Y-112711623D01*
X258763377Y-112996452D01*
X258987167Y-113331377D01*
X259019562Y-113409586D01*
X259141316Y-113703526D01*
X259219900Y-114098594D01*
X259219900Y-114501406D01*
X259141316Y-114896474D01*
X259090451Y-115019272D01*
X258987167Y-115268623D01*
X258763377Y-115603548D01*
X258478548Y-115888377D01*
X258143623Y-116112167D01*
X257989474Y-116176017D01*
X257771474Y-116266316D01*
X257376406Y-116344900D01*
X256973594Y-116344900D01*
X256578526Y-116266316D01*
X256360526Y-116176017D01*
X256206377Y-116112167D01*
X255871452Y-115888377D01*
X255586623Y-115603548D01*
X255362833Y-115268623D01*
X255259549Y-115019272D01*
X255208684Y-114896474D01*
X255130100Y-114501406D01*
X255130100Y-114098594D01*
X255208684Y-113703526D01*
X255330438Y-113409586D01*
X255362833Y-113331377D01*
X255586623Y-112996452D01*
X255871452Y-112711623D01*
X256206377Y-112487833D01*
X256360526Y-112423983D01*
X256578526Y-112333684D01*
X256973594Y-112255100D01*
X257376406Y-112255100D01*
X257771474Y-112333684D01*
X257771474Y-112333684D01*
G37*
G36*
X238721474Y-112333684D02*
G01*
X238939474Y-112423983D01*
X239093623Y-112487833D01*
X239428548Y-112711623D01*
X239713377Y-112996452D01*
X239937167Y-113331377D01*
X239969562Y-113409586D01*
X240091316Y-113703526D01*
X240169900Y-114098594D01*
X240169900Y-114501406D01*
X240091316Y-114896474D01*
X240040451Y-115019272D01*
X239937167Y-115268623D01*
X239713377Y-115603548D01*
X239428548Y-115888377D01*
X239093623Y-116112167D01*
X238939474Y-116176017D01*
X238721474Y-116266316D01*
X238326406Y-116344900D01*
X237923594Y-116344900D01*
X237528526Y-116266316D01*
X237310526Y-116176017D01*
X237156377Y-116112167D01*
X236821452Y-115888377D01*
X236536623Y-115603548D01*
X236312833Y-115268623D01*
X236209549Y-115019272D01*
X236158684Y-114896474D01*
X236080100Y-114501406D01*
X236080100Y-114098594D01*
X236158684Y-113703526D01*
X236280438Y-113409586D01*
X236312833Y-113331377D01*
X236536623Y-112996452D01*
X236821452Y-112711623D01*
X237156377Y-112487833D01*
X237310526Y-112423983D01*
X237528526Y-112333684D01*
X237923594Y-112255100D01*
X238326406Y-112255100D01*
X238721474Y-112333684D01*
X238721474Y-112333684D01*
G37*
G36*
X219671474Y-112333684D02*
G01*
X219889474Y-112423983D01*
X220043623Y-112487833D01*
X220378548Y-112711623D01*
X220663377Y-112996452D01*
X220887167Y-113331377D01*
X220919562Y-113409586D01*
X221041316Y-113703526D01*
X221119900Y-114098594D01*
X221119900Y-114501406D01*
X221041316Y-114896474D01*
X220990451Y-115019272D01*
X220887167Y-115268623D01*
X220663377Y-115603548D01*
X220378548Y-115888377D01*
X220043623Y-116112167D01*
X219889474Y-116176017D01*
X219671474Y-116266316D01*
X219276406Y-116344900D01*
X218873594Y-116344900D01*
X218478526Y-116266316D01*
X218260526Y-116176017D01*
X218106377Y-116112167D01*
X217771452Y-115888377D01*
X217486623Y-115603548D01*
X217262833Y-115268623D01*
X217159549Y-115019272D01*
X217108684Y-114896474D01*
X217030100Y-114501406D01*
X217030100Y-114098594D01*
X217108684Y-113703526D01*
X217230438Y-113409586D01*
X217262833Y-113331377D01*
X217486623Y-112996452D01*
X217771452Y-112711623D01*
X218106377Y-112487833D01*
X218260526Y-112423983D01*
X218478526Y-112333684D01*
X218873594Y-112255100D01*
X219276406Y-112255100D01*
X219671474Y-112333684D01*
X219671474Y-112333684D01*
G37*
G36*
X181571474Y-112333684D02*
G01*
X181789474Y-112423983D01*
X181943623Y-112487833D01*
X182278548Y-112711623D01*
X182563377Y-112996452D01*
X182787167Y-113331377D01*
X182819562Y-113409586D01*
X182941316Y-113703526D01*
X183019900Y-114098594D01*
X183019900Y-114501406D01*
X182941316Y-114896474D01*
X182890451Y-115019272D01*
X182787167Y-115268623D01*
X182563377Y-115603548D01*
X182278548Y-115888377D01*
X181943623Y-116112167D01*
X181789474Y-116176017D01*
X181571474Y-116266316D01*
X181176406Y-116344900D01*
X180773594Y-116344900D01*
X180378526Y-116266316D01*
X180160526Y-116176017D01*
X180006377Y-116112167D01*
X179671452Y-115888377D01*
X179386623Y-115603548D01*
X179162833Y-115268623D01*
X179059549Y-115019272D01*
X179008684Y-114896474D01*
X178930100Y-114501406D01*
X178930100Y-114098594D01*
X179008684Y-113703526D01*
X179130438Y-113409586D01*
X179162833Y-113331377D01*
X179386623Y-112996452D01*
X179671452Y-112711623D01*
X180006377Y-112487833D01*
X180160526Y-112423983D01*
X180378526Y-112333684D01*
X180773594Y-112255100D01*
X181176406Y-112255100D01*
X181571474Y-112333684D01*
X181571474Y-112333684D01*
G37*
G36*
X110133974Y-112333684D02*
G01*
X110351974Y-112423983D01*
X110506123Y-112487833D01*
X110841048Y-112711623D01*
X111125877Y-112996452D01*
X111349667Y-113331377D01*
X111382062Y-113409586D01*
X111503816Y-113703526D01*
X111582400Y-114098594D01*
X111582400Y-114501406D01*
X111503816Y-114896474D01*
X111452951Y-115019272D01*
X111349667Y-115268623D01*
X111125877Y-115603548D01*
X110841048Y-115888377D01*
X110506123Y-116112167D01*
X110351974Y-116176017D01*
X110133974Y-116266316D01*
X109738906Y-116344900D01*
X109336094Y-116344900D01*
X108941026Y-116266316D01*
X108723026Y-116176017D01*
X108568877Y-116112167D01*
X108233952Y-115888377D01*
X107949123Y-115603548D01*
X107725333Y-115268623D01*
X107622049Y-115019272D01*
X107571184Y-114896474D01*
X107492600Y-114501406D01*
X107492600Y-114098594D01*
X107571184Y-113703526D01*
X107692938Y-113409586D01*
X107725333Y-113331377D01*
X107949123Y-112996452D01*
X108233952Y-112711623D01*
X108568877Y-112487833D01*
X108723026Y-112423983D01*
X108941026Y-112333684D01*
X109336094Y-112255100D01*
X109738906Y-112255100D01*
X110133974Y-112333684D01*
X110133974Y-112333684D01*
G37*
G36*
X72033974Y-112333684D02*
G01*
X72251974Y-112423983D01*
X72406123Y-112487833D01*
X72741048Y-112711623D01*
X73025877Y-112996452D01*
X73249667Y-113331377D01*
X73282062Y-113409586D01*
X73403816Y-113703526D01*
X73482400Y-114098594D01*
X73482400Y-114501406D01*
X73403816Y-114896474D01*
X73352951Y-115019272D01*
X73249667Y-115268623D01*
X73025877Y-115603548D01*
X72741048Y-115888377D01*
X72406123Y-116112167D01*
X72251974Y-116176017D01*
X72033974Y-116266316D01*
X71638906Y-116344900D01*
X71236094Y-116344900D01*
X70841026Y-116266316D01*
X70623026Y-116176017D01*
X70468877Y-116112167D01*
X70133952Y-115888377D01*
X69849123Y-115603548D01*
X69625333Y-115268623D01*
X69522049Y-115019272D01*
X69471184Y-114896474D01*
X69392600Y-114501406D01*
X69392600Y-114098594D01*
X69471184Y-113703526D01*
X69592938Y-113409586D01*
X69625333Y-113331377D01*
X69849123Y-112996452D01*
X70133952Y-112711623D01*
X70468877Y-112487833D01*
X70623026Y-112423983D01*
X70841026Y-112333684D01*
X71236094Y-112255100D01*
X71638906Y-112255100D01*
X72033974Y-112333684D01*
X72033974Y-112333684D01*
G37*
G36*
X52983974Y-112333684D02*
G01*
X53201974Y-112423983D01*
X53356123Y-112487833D01*
X53691048Y-112711623D01*
X53975877Y-112996452D01*
X54199667Y-113331377D01*
X54232062Y-113409586D01*
X54353816Y-113703526D01*
X54432400Y-114098594D01*
X54432400Y-114501406D01*
X54353816Y-114896474D01*
X54302951Y-115019272D01*
X54199667Y-115268623D01*
X53975877Y-115603548D01*
X53691048Y-115888377D01*
X53356123Y-116112167D01*
X53201974Y-116176017D01*
X52983974Y-116266316D01*
X52588906Y-116344900D01*
X52186094Y-116344900D01*
X51791026Y-116266316D01*
X51573026Y-116176017D01*
X51418877Y-116112167D01*
X51083952Y-115888377D01*
X50799123Y-115603548D01*
X50575333Y-115268623D01*
X50472049Y-115019272D01*
X50421184Y-114896474D01*
X50342600Y-114501406D01*
X50342600Y-114098594D01*
X50421184Y-113703526D01*
X50542938Y-113409586D01*
X50575333Y-113331377D01*
X50799123Y-112996452D01*
X51083952Y-112711623D01*
X51418877Y-112487833D01*
X51573026Y-112423983D01*
X51791026Y-112333684D01*
X52186094Y-112255100D01*
X52588906Y-112255100D01*
X52983974Y-112333684D01*
X52983974Y-112333684D01*
G37*
G36*
X33933974Y-112333684D02*
G01*
X34151974Y-112423983D01*
X34306123Y-112487833D01*
X34641048Y-112711623D01*
X34925877Y-112996452D01*
X35149667Y-113331377D01*
X35182062Y-113409586D01*
X35303816Y-113703526D01*
X35382400Y-114098594D01*
X35382400Y-114501406D01*
X35303816Y-114896474D01*
X35252951Y-115019272D01*
X35149667Y-115268623D01*
X34925877Y-115603548D01*
X34641048Y-115888377D01*
X34306123Y-116112167D01*
X34151974Y-116176017D01*
X33933974Y-116266316D01*
X33538906Y-116344900D01*
X33136094Y-116344900D01*
X32741026Y-116266316D01*
X32523026Y-116176017D01*
X32368877Y-116112167D01*
X32033952Y-115888377D01*
X31749123Y-115603548D01*
X31525333Y-115268623D01*
X31422049Y-115019272D01*
X31371184Y-114896474D01*
X31292600Y-114501406D01*
X31292600Y-114098594D01*
X31371184Y-113703526D01*
X31492938Y-113409586D01*
X31525333Y-113331377D01*
X31749123Y-112996452D01*
X32033952Y-112711623D01*
X32368877Y-112487833D01*
X32523026Y-112423983D01*
X32741026Y-112333684D01*
X33136094Y-112255100D01*
X33538906Y-112255100D01*
X33933974Y-112333684D01*
X33933974Y-112333684D01*
G37*
G36*
X57737604Y-113409585D02*
G01*
X57906126Y-113479389D01*
X58057791Y-113580728D01*
X58186772Y-113709709D01*
X58288111Y-113861374D01*
X58357915Y-114029896D01*
X58393500Y-114208797D01*
X58393500Y-114391203D01*
X58357915Y-114570104D01*
X58288111Y-114738626D01*
X58186772Y-114890291D01*
X58057791Y-115019272D01*
X57906126Y-115120611D01*
X57737604Y-115190415D01*
X57558703Y-115226000D01*
X57376297Y-115226000D01*
X57197396Y-115190415D01*
X57028874Y-115120611D01*
X56877209Y-115019272D01*
X56748228Y-114890291D01*
X56646889Y-114738626D01*
X56577085Y-114570104D01*
X56541500Y-114391203D01*
X56541500Y-114208797D01*
X56577085Y-114029896D01*
X56646889Y-113861374D01*
X56748228Y-113709709D01*
X56877209Y-113580728D01*
X57028874Y-113479389D01*
X57197396Y-113409585D01*
X57376297Y-113374000D01*
X57558703Y-113374000D01*
X57737604Y-113409585D01*
X57737604Y-113409585D01*
G37*
G36*
X47577604Y-113409585D02*
G01*
X47746126Y-113479389D01*
X47897791Y-113580728D01*
X48026772Y-113709709D01*
X48128111Y-113861374D01*
X48197915Y-114029896D01*
X48233500Y-114208797D01*
X48233500Y-114391203D01*
X48197915Y-114570104D01*
X48128111Y-114738626D01*
X48026772Y-114890291D01*
X47897791Y-115019272D01*
X47746126Y-115120611D01*
X47577604Y-115190415D01*
X47398703Y-115226000D01*
X47216297Y-115226000D01*
X47037396Y-115190415D01*
X46868874Y-115120611D01*
X46717209Y-115019272D01*
X46588228Y-114890291D01*
X46486889Y-114738626D01*
X46417085Y-114570104D01*
X46381500Y-114391203D01*
X46381500Y-114208797D01*
X46417085Y-114029896D01*
X46486889Y-113861374D01*
X46588228Y-113709709D01*
X46717209Y-113580728D01*
X46868874Y-113479389D01*
X47037396Y-113409585D01*
X47216297Y-113374000D01*
X47398703Y-113374000D01*
X47577604Y-113409585D01*
X47577604Y-113409585D01*
G37*
G36*
X38687604Y-113409585D02*
G01*
X38856126Y-113479389D01*
X39007791Y-113580728D01*
X39136772Y-113709709D01*
X39238111Y-113861374D01*
X39307915Y-114029896D01*
X39343500Y-114208797D01*
X39343500Y-114391203D01*
X39307915Y-114570104D01*
X39238111Y-114738626D01*
X39136772Y-114890291D01*
X39007791Y-115019272D01*
X38856126Y-115120611D01*
X38687604Y-115190415D01*
X38508703Y-115226000D01*
X38326297Y-115226000D01*
X38147396Y-115190415D01*
X37978874Y-115120611D01*
X37827209Y-115019272D01*
X37698228Y-114890291D01*
X37596889Y-114738626D01*
X37527085Y-114570104D01*
X37491500Y-114391203D01*
X37491500Y-114208797D01*
X37527085Y-114029896D01*
X37596889Y-113861374D01*
X37698228Y-113709709D01*
X37827209Y-113580728D01*
X37978874Y-113479389D01*
X38147396Y-113409585D01*
X38326297Y-113374000D01*
X38508703Y-113374000D01*
X38687604Y-113409585D01*
X38687604Y-113409585D01*
G37*
G36*
X28527604Y-113409585D02*
G01*
X28696126Y-113479389D01*
X28847791Y-113580728D01*
X28976772Y-113709709D01*
X29078111Y-113861374D01*
X29147915Y-114029896D01*
X29183500Y-114208797D01*
X29183500Y-114391203D01*
X29147915Y-114570104D01*
X29078111Y-114738626D01*
X28976772Y-114890291D01*
X28847791Y-115019272D01*
X28696126Y-115120611D01*
X28527604Y-115190415D01*
X28348703Y-115226000D01*
X28166297Y-115226000D01*
X27987396Y-115190415D01*
X27818874Y-115120611D01*
X27667209Y-115019272D01*
X27538228Y-114890291D01*
X27436889Y-114738626D01*
X27367085Y-114570104D01*
X27331500Y-114391203D01*
X27331500Y-114208797D01*
X27367085Y-114029896D01*
X27436889Y-113861374D01*
X27538228Y-113709709D01*
X27667209Y-113580728D01*
X27818874Y-113479389D01*
X27987396Y-113409585D01*
X28166297Y-113374000D01*
X28348703Y-113374000D01*
X28527604Y-113409585D01*
X28527604Y-113409585D01*
G37*
G36*
X252365104Y-113409585D02*
G01*
X252533626Y-113479389D01*
X252685291Y-113580728D01*
X252814272Y-113709709D01*
X252915611Y-113861374D01*
X252985415Y-114029896D01*
X253021000Y-114208797D01*
X253021000Y-114391203D01*
X252985415Y-114570104D01*
X252915611Y-114738626D01*
X252814272Y-114890291D01*
X252685291Y-115019272D01*
X252533626Y-115120611D01*
X252365104Y-115190415D01*
X252186203Y-115226000D01*
X252003797Y-115226000D01*
X251824896Y-115190415D01*
X251656374Y-115120611D01*
X251504709Y-115019272D01*
X251375728Y-114890291D01*
X251274389Y-114738626D01*
X251204585Y-114570104D01*
X251169000Y-114391203D01*
X251169000Y-114208797D01*
X251204585Y-114029896D01*
X251274389Y-113861374D01*
X251375728Y-113709709D01*
X251504709Y-113580728D01*
X251656374Y-113479389D01*
X251824896Y-113409585D01*
X252003797Y-113374000D01*
X252186203Y-113374000D01*
X252365104Y-113409585D01*
X252365104Y-113409585D01*
G37*
G36*
X66627604Y-113409585D02*
G01*
X66796126Y-113479389D01*
X66947791Y-113580728D01*
X67076772Y-113709709D01*
X67178111Y-113861374D01*
X67247915Y-114029896D01*
X67283500Y-114208797D01*
X67283500Y-114391203D01*
X67247915Y-114570104D01*
X67178111Y-114738626D01*
X67076772Y-114890291D01*
X66947791Y-115019272D01*
X66796126Y-115120611D01*
X66627604Y-115190415D01*
X66448703Y-115226000D01*
X66266297Y-115226000D01*
X66087396Y-115190415D01*
X65918874Y-115120611D01*
X65767209Y-115019272D01*
X65638228Y-114890291D01*
X65536889Y-114738626D01*
X65467085Y-114570104D01*
X65431500Y-114391203D01*
X65431500Y-114208797D01*
X65467085Y-114029896D01*
X65536889Y-113861374D01*
X65638228Y-113709709D01*
X65767209Y-113580728D01*
X65918874Y-113479389D01*
X66087396Y-113409585D01*
X66266297Y-113374000D01*
X66448703Y-113374000D01*
X66627604Y-113409585D01*
X66627604Y-113409585D01*
G37*
G36*
X243475104Y-113409585D02*
G01*
X243643626Y-113479389D01*
X243795291Y-113580728D01*
X243924272Y-113709709D01*
X244025611Y-113861374D01*
X244095415Y-114029896D01*
X244131000Y-114208797D01*
X244131000Y-114391203D01*
X244095415Y-114570104D01*
X244025611Y-114738626D01*
X243924272Y-114890291D01*
X243795291Y-115019272D01*
X243643626Y-115120611D01*
X243475104Y-115190415D01*
X243296203Y-115226000D01*
X243113797Y-115226000D01*
X242934896Y-115190415D01*
X242766374Y-115120611D01*
X242614709Y-115019272D01*
X242485728Y-114890291D01*
X242384389Y-114738626D01*
X242314585Y-114570104D01*
X242279000Y-114391203D01*
X242279000Y-114208797D01*
X242314585Y-114029896D01*
X242384389Y-113861374D01*
X242485728Y-113709709D01*
X242614709Y-113580728D01*
X242766374Y-113479389D01*
X242934896Y-113409585D01*
X243113797Y-113374000D01*
X243296203Y-113374000D01*
X243475104Y-113409585D01*
X243475104Y-113409585D01*
G37*
G36*
X233315104Y-113409585D02*
G01*
X233483626Y-113479389D01*
X233635291Y-113580728D01*
X233764272Y-113709709D01*
X233865611Y-113861374D01*
X233935415Y-114029896D01*
X233971000Y-114208797D01*
X233971000Y-114391203D01*
X233935415Y-114570104D01*
X233865611Y-114738626D01*
X233764272Y-114890291D01*
X233635291Y-115019272D01*
X233483626Y-115120611D01*
X233315104Y-115190415D01*
X233136203Y-115226000D01*
X232953797Y-115226000D01*
X232774896Y-115190415D01*
X232606374Y-115120611D01*
X232454709Y-115019272D01*
X232325728Y-114890291D01*
X232224389Y-114738626D01*
X232154585Y-114570104D01*
X232119000Y-114391203D01*
X232119000Y-114208797D01*
X232154585Y-114029896D01*
X232224389Y-113861374D01*
X232325728Y-113709709D01*
X232454709Y-113580728D01*
X232606374Y-113479389D01*
X232774896Y-113409585D01*
X232953797Y-113374000D01*
X233136203Y-113374000D01*
X233315104Y-113409585D01*
X233315104Y-113409585D01*
G37*
G36*
X76787604Y-113409585D02*
G01*
X76956126Y-113479389D01*
X77107791Y-113580728D01*
X77236772Y-113709709D01*
X77338111Y-113861374D01*
X77407915Y-114029896D01*
X77443500Y-114208797D01*
X77443500Y-114391203D01*
X77407915Y-114570104D01*
X77338111Y-114738626D01*
X77236772Y-114890291D01*
X77107791Y-115019272D01*
X76956126Y-115120611D01*
X76787604Y-115190415D01*
X76608703Y-115226000D01*
X76426297Y-115226000D01*
X76247396Y-115190415D01*
X76078874Y-115120611D01*
X75927209Y-115019272D01*
X75798228Y-114890291D01*
X75696889Y-114738626D01*
X75627085Y-114570104D01*
X75591500Y-114391203D01*
X75591500Y-114208797D01*
X75627085Y-114029896D01*
X75696889Y-113861374D01*
X75798228Y-113709709D01*
X75927209Y-113580728D01*
X76078874Y-113479389D01*
X76247396Y-113409585D01*
X76426297Y-113374000D01*
X76608703Y-113374000D01*
X76787604Y-113409585D01*
X76787604Y-113409585D01*
G37*
G36*
X224425104Y-113409585D02*
G01*
X224593626Y-113479389D01*
X224745291Y-113580728D01*
X224874272Y-113709709D01*
X224975611Y-113861374D01*
X225045415Y-114029896D01*
X225081000Y-114208797D01*
X225081000Y-114391203D01*
X225045415Y-114570104D01*
X224975611Y-114738626D01*
X224874272Y-114890291D01*
X224745291Y-115019272D01*
X224593626Y-115120611D01*
X224425104Y-115190415D01*
X224246203Y-115226000D01*
X224063797Y-115226000D01*
X223884896Y-115190415D01*
X223716374Y-115120611D01*
X223564709Y-115019272D01*
X223435728Y-114890291D01*
X223334389Y-114738626D01*
X223264585Y-114570104D01*
X223229000Y-114391203D01*
X223229000Y-114208797D01*
X223264585Y-114029896D01*
X223334389Y-113861374D01*
X223435728Y-113709709D01*
X223564709Y-113580728D01*
X223716374Y-113479389D01*
X223884896Y-113409585D01*
X224063797Y-113374000D01*
X224246203Y-113374000D01*
X224425104Y-113409585D01*
X224425104Y-113409585D01*
G37*
G36*
X214265104Y-113409585D02*
G01*
X214433626Y-113479389D01*
X214585291Y-113580728D01*
X214714272Y-113709709D01*
X214815611Y-113861374D01*
X214885415Y-114029896D01*
X214921000Y-114208797D01*
X214921000Y-114391203D01*
X214885415Y-114570104D01*
X214815611Y-114738626D01*
X214714272Y-114890291D01*
X214585291Y-115019272D01*
X214433626Y-115120611D01*
X214265104Y-115190415D01*
X214086203Y-115226000D01*
X213903797Y-115226000D01*
X213724896Y-115190415D01*
X213556374Y-115120611D01*
X213404709Y-115019272D01*
X213275728Y-114890291D01*
X213174389Y-114738626D01*
X213104585Y-114570104D01*
X213069000Y-114391203D01*
X213069000Y-114208797D01*
X213104585Y-114029896D01*
X213174389Y-113861374D01*
X213275728Y-113709709D01*
X213404709Y-113580728D01*
X213556374Y-113479389D01*
X213724896Y-113409585D01*
X213903797Y-113374000D01*
X214086203Y-113374000D01*
X214265104Y-113409585D01*
X214265104Y-113409585D01*
G37*
G36*
X104727604Y-113409585D02*
G01*
X104896126Y-113479389D01*
X105047791Y-113580728D01*
X105176772Y-113709709D01*
X105278111Y-113861374D01*
X105347915Y-114029896D01*
X105383500Y-114208797D01*
X105383500Y-114391203D01*
X105347915Y-114570104D01*
X105278111Y-114738626D01*
X105176772Y-114890291D01*
X105047791Y-115019272D01*
X104896126Y-115120611D01*
X104727604Y-115190415D01*
X104548703Y-115226000D01*
X104366297Y-115226000D01*
X104187396Y-115190415D01*
X104018874Y-115120611D01*
X103867209Y-115019272D01*
X103738228Y-114890291D01*
X103636889Y-114738626D01*
X103567085Y-114570104D01*
X103531500Y-114391203D01*
X103531500Y-114208797D01*
X103567085Y-114029896D01*
X103636889Y-113861374D01*
X103738228Y-113709709D01*
X103867209Y-113580728D01*
X104018874Y-113479389D01*
X104187396Y-113409585D01*
X104366297Y-113374000D01*
X104548703Y-113374000D01*
X104727604Y-113409585D01*
X104727604Y-113409585D01*
G37*
G36*
X114887604Y-113409585D02*
G01*
X115056126Y-113479389D01*
X115207791Y-113580728D01*
X115336772Y-113709709D01*
X115438111Y-113861374D01*
X115507915Y-114029896D01*
X115543500Y-114208797D01*
X115543500Y-114391203D01*
X115507915Y-114570104D01*
X115438111Y-114738626D01*
X115336772Y-114890291D01*
X115207791Y-115019272D01*
X115056126Y-115120611D01*
X114887604Y-115190415D01*
X114708703Y-115226000D01*
X114526297Y-115226000D01*
X114347396Y-115190415D01*
X114178874Y-115120611D01*
X114027209Y-115019272D01*
X113898228Y-114890291D01*
X113796889Y-114738626D01*
X113727085Y-114570104D01*
X113691500Y-114391203D01*
X113691500Y-114208797D01*
X113727085Y-114029896D01*
X113796889Y-113861374D01*
X113898228Y-113709709D01*
X114027209Y-113580728D01*
X114178874Y-113479389D01*
X114347396Y-113409585D01*
X114526297Y-113374000D01*
X114708703Y-113374000D01*
X114887604Y-113409585D01*
X114887604Y-113409585D01*
G37*
G36*
X176165104Y-113409585D02*
G01*
X176333626Y-113479389D01*
X176485291Y-113580728D01*
X176614272Y-113709709D01*
X176715611Y-113861374D01*
X176785415Y-114029896D01*
X176821000Y-114208797D01*
X176821000Y-114391203D01*
X176785415Y-114570104D01*
X176715611Y-114738626D01*
X176614272Y-114890291D01*
X176485291Y-115019272D01*
X176333626Y-115120611D01*
X176165104Y-115190415D01*
X175986203Y-115226000D01*
X175803797Y-115226000D01*
X175624896Y-115190415D01*
X175456374Y-115120611D01*
X175304709Y-115019272D01*
X175175728Y-114890291D01*
X175074389Y-114738626D01*
X175004585Y-114570104D01*
X174969000Y-114391203D01*
X174969000Y-114208797D01*
X175004585Y-114029896D01*
X175074389Y-113861374D01*
X175175728Y-113709709D01*
X175304709Y-113580728D01*
X175456374Y-113479389D01*
X175624896Y-113409585D01*
X175803797Y-113374000D01*
X175986203Y-113374000D01*
X176165104Y-113409585D01*
X176165104Y-113409585D01*
G37*
G36*
X186325104Y-113409585D02*
G01*
X186493626Y-113479389D01*
X186645291Y-113580728D01*
X186774272Y-113709709D01*
X186875611Y-113861374D01*
X186945415Y-114029896D01*
X186981000Y-114208797D01*
X186981000Y-114391203D01*
X186945415Y-114570104D01*
X186875611Y-114738626D01*
X186774272Y-114890291D01*
X186645291Y-115019272D01*
X186493626Y-115120611D01*
X186325104Y-115190415D01*
X186146203Y-115226000D01*
X185963797Y-115226000D01*
X185784896Y-115190415D01*
X185616374Y-115120611D01*
X185464709Y-115019272D01*
X185335728Y-114890291D01*
X185234389Y-114738626D01*
X185164585Y-114570104D01*
X185129000Y-114391203D01*
X185129000Y-114208797D01*
X185164585Y-114029896D01*
X185234389Y-113861374D01*
X185335728Y-113709709D01*
X185464709Y-113580728D01*
X185616374Y-113479389D01*
X185784896Y-113409585D01*
X185963797Y-113374000D01*
X186146203Y-113374000D01*
X186325104Y-113409585D01*
X186325104Y-113409585D01*
G37*
G36*
X262525104Y-113409585D02*
G01*
X262693626Y-113479389D01*
X262845291Y-113580728D01*
X262974272Y-113709709D01*
X263075611Y-113861374D01*
X263145415Y-114029896D01*
X263181000Y-114208797D01*
X263181000Y-114391203D01*
X263145415Y-114570104D01*
X263075611Y-114738626D01*
X262974272Y-114890291D01*
X262845291Y-115019272D01*
X262693626Y-115120611D01*
X262525104Y-115190415D01*
X262346203Y-115226000D01*
X262163797Y-115226000D01*
X261984896Y-115190415D01*
X261816374Y-115120611D01*
X261664709Y-115019272D01*
X261535728Y-114890291D01*
X261434389Y-114738626D01*
X261364585Y-114570104D01*
X261329000Y-114391203D01*
X261329000Y-114208797D01*
X261364585Y-114029896D01*
X261434389Y-113861374D01*
X261535728Y-113709709D01*
X261664709Y-113580728D01*
X261816374Y-113479389D01*
X261984896Y-113409585D01*
X262163797Y-113374000D01*
X262346203Y-113374000D01*
X262525104Y-113409585D01*
X262525104Y-113409585D01*
G37*
G36*
X200621474Y-104078684D02*
G01*
X200839474Y-104168983D01*
X200993623Y-104232833D01*
X201328548Y-104456623D01*
X201613377Y-104741452D01*
X201837167Y-105076377D01*
X201837167Y-105076378D01*
X201991316Y-105448526D01*
X202069900Y-105843594D01*
X202069900Y-106246406D01*
X201991316Y-106641474D01*
X201901017Y-106859474D01*
X201837167Y-107013623D01*
X201613377Y-107348548D01*
X201328548Y-107633377D01*
X200993623Y-107857167D01*
X200839474Y-107921017D01*
X200621474Y-108011316D01*
X200226406Y-108089900D01*
X199823594Y-108089900D01*
X199428526Y-108011316D01*
X199210526Y-107921017D01*
X199056377Y-107857167D01*
X198721452Y-107633377D01*
X198436623Y-107348548D01*
X198212833Y-107013623D01*
X198148983Y-106859474D01*
X198058684Y-106641474D01*
X197980100Y-106246406D01*
X197980100Y-105843594D01*
X198058684Y-105448526D01*
X198212833Y-105076378D01*
X198212833Y-105076377D01*
X198436623Y-104741452D01*
X198721452Y-104456623D01*
X199056377Y-104232833D01*
X199210526Y-104168983D01*
X199428526Y-104078684D01*
X199823594Y-104000100D01*
X200226406Y-104000100D01*
X200621474Y-104078684D01*
X200621474Y-104078684D01*
G37*
G36*
X162521474Y-104078684D02*
G01*
X162739474Y-104168983D01*
X162893623Y-104232833D01*
X163228548Y-104456623D01*
X163513377Y-104741452D01*
X163737167Y-105076377D01*
X163737167Y-105076378D01*
X163891316Y-105448526D01*
X163969900Y-105843594D01*
X163969900Y-106246406D01*
X163891316Y-106641474D01*
X163801017Y-106859474D01*
X163737167Y-107013623D01*
X163513377Y-107348548D01*
X163228548Y-107633377D01*
X162893623Y-107857167D01*
X162739474Y-107921017D01*
X162521474Y-108011316D01*
X162126406Y-108089900D01*
X161723594Y-108089900D01*
X161328526Y-108011316D01*
X161110526Y-107921017D01*
X160956377Y-107857167D01*
X160621452Y-107633377D01*
X160336623Y-107348548D01*
X160112833Y-107013623D01*
X160048983Y-106859474D01*
X159958684Y-106641474D01*
X159880100Y-106246406D01*
X159880100Y-105843594D01*
X159958684Y-105448526D01*
X160112833Y-105076378D01*
X160112833Y-105076377D01*
X160336623Y-104741452D01*
X160621452Y-104456623D01*
X160956377Y-104232833D01*
X161110526Y-104168983D01*
X161328526Y-104078684D01*
X161723594Y-104000100D01*
X162126406Y-104000100D01*
X162521474Y-104078684D01*
X162521474Y-104078684D01*
G37*
G36*
X91083974Y-104078684D02*
G01*
X91301974Y-104168983D01*
X91456123Y-104232833D01*
X91791048Y-104456623D01*
X92075877Y-104741452D01*
X92299667Y-105076377D01*
X92299667Y-105076378D01*
X92453816Y-105448526D01*
X92532400Y-105843594D01*
X92532400Y-106246406D01*
X92453816Y-106641474D01*
X92363517Y-106859474D01*
X92299667Y-107013623D01*
X92075877Y-107348548D01*
X91791048Y-107633377D01*
X91456123Y-107857167D01*
X91301974Y-107921017D01*
X91083974Y-108011316D01*
X90688906Y-108089900D01*
X90286094Y-108089900D01*
X89891026Y-108011316D01*
X89673026Y-107921017D01*
X89518877Y-107857167D01*
X89183952Y-107633377D01*
X88899123Y-107348548D01*
X88675333Y-107013623D01*
X88611483Y-106859474D01*
X88521184Y-106641474D01*
X88442600Y-106246406D01*
X88442600Y-105843594D01*
X88521184Y-105448526D01*
X88675333Y-105076378D01*
X88675333Y-105076377D01*
X88899123Y-104741452D01*
X89183952Y-104456623D01*
X89518877Y-104232833D01*
X89673026Y-104168983D01*
X89891026Y-104078684D01*
X90286094Y-104000100D01*
X90688906Y-104000100D01*
X91083974Y-104078684D01*
X91083974Y-104078684D01*
G37*
G36*
X129183974Y-104078684D02*
G01*
X129401974Y-104168983D01*
X129556123Y-104232833D01*
X129891048Y-104456623D01*
X130175877Y-104741452D01*
X130399667Y-105076377D01*
X130399667Y-105076378D01*
X130553816Y-105448526D01*
X130632400Y-105843594D01*
X130632400Y-106246406D01*
X130553816Y-106641474D01*
X130463517Y-106859474D01*
X130399667Y-107013623D01*
X130175877Y-107348548D01*
X129891048Y-107633377D01*
X129556123Y-107857167D01*
X129401974Y-107921017D01*
X129183974Y-108011316D01*
X128788906Y-108089900D01*
X128386094Y-108089900D01*
X127991026Y-108011316D01*
X127773026Y-107921017D01*
X127618877Y-107857167D01*
X127283952Y-107633377D01*
X126999123Y-107348548D01*
X126775333Y-107013623D01*
X126711483Y-106859474D01*
X126621184Y-106641474D01*
X126542600Y-106246406D01*
X126542600Y-105843594D01*
X126621184Y-105448526D01*
X126775333Y-105076378D01*
X126775333Y-105076377D01*
X126999123Y-104741452D01*
X127283952Y-104456623D01*
X127618877Y-104232833D01*
X127773026Y-104168983D01*
X127991026Y-104078684D01*
X128386094Y-104000100D01*
X128788906Y-104000100D01*
X129183974Y-104078684D01*
X129183974Y-104078684D01*
G37*
G36*
X181571474Y-93283684D02*
G01*
X181789474Y-93373983D01*
X181943623Y-93437833D01*
X182278548Y-93661623D01*
X182563377Y-93946452D01*
X182787167Y-94281377D01*
X182819562Y-94359586D01*
X182941316Y-94653526D01*
X183019900Y-95048594D01*
X183019900Y-95451406D01*
X182941316Y-95846474D01*
X182890451Y-95969272D01*
X182787167Y-96218623D01*
X182563377Y-96553548D01*
X182278548Y-96838377D01*
X181943623Y-97062167D01*
X181789474Y-97126017D01*
X181571474Y-97216316D01*
X181176406Y-97294900D01*
X180773594Y-97294900D01*
X180378526Y-97216316D01*
X180160526Y-97126017D01*
X180006377Y-97062167D01*
X179671452Y-96838377D01*
X179386623Y-96553548D01*
X179162833Y-96218623D01*
X179059549Y-95969272D01*
X179008684Y-95846474D01*
X178930100Y-95451406D01*
X178930100Y-95048594D01*
X179008684Y-94653526D01*
X179130438Y-94359586D01*
X179162833Y-94281377D01*
X179386623Y-93946452D01*
X179671452Y-93661623D01*
X180006377Y-93437833D01*
X180160526Y-93373983D01*
X180378526Y-93283684D01*
X180773594Y-93205100D01*
X181176406Y-93205100D01*
X181571474Y-93283684D01*
X181571474Y-93283684D01*
G37*
G36*
X200621474Y-93283684D02*
G01*
X200839474Y-93373983D01*
X200993623Y-93437833D01*
X201328548Y-93661623D01*
X201613377Y-93946452D01*
X201837167Y-94281377D01*
X201869562Y-94359586D01*
X201991316Y-94653526D01*
X202069900Y-95048594D01*
X202069900Y-95451406D01*
X201991316Y-95846474D01*
X201940451Y-95969272D01*
X201837167Y-96218623D01*
X201613377Y-96553548D01*
X201328548Y-96838377D01*
X200993623Y-97062167D01*
X200839474Y-97126017D01*
X200621474Y-97216316D01*
X200226406Y-97294900D01*
X199823594Y-97294900D01*
X199428526Y-97216316D01*
X199210526Y-97126017D01*
X199056377Y-97062167D01*
X198721452Y-96838377D01*
X198436623Y-96553548D01*
X198212833Y-96218623D01*
X198109549Y-95969272D01*
X198058684Y-95846474D01*
X197980100Y-95451406D01*
X197980100Y-95048594D01*
X198058684Y-94653526D01*
X198180438Y-94359586D01*
X198212833Y-94281377D01*
X198436623Y-93946452D01*
X198721452Y-93661623D01*
X199056377Y-93437833D01*
X199210526Y-93373983D01*
X199428526Y-93283684D01*
X199823594Y-93205100D01*
X200226406Y-93205100D01*
X200621474Y-93283684D01*
X200621474Y-93283684D01*
G37*
G36*
X238721474Y-93283684D02*
G01*
X238939474Y-93373983D01*
X239093623Y-93437833D01*
X239428548Y-93661623D01*
X239713377Y-93946452D01*
X239937167Y-94281377D01*
X239969562Y-94359586D01*
X240091316Y-94653526D01*
X240169900Y-95048594D01*
X240169900Y-95451406D01*
X240091316Y-95846474D01*
X240040451Y-95969272D01*
X239937167Y-96218623D01*
X239713377Y-96553548D01*
X239428548Y-96838377D01*
X239093623Y-97062167D01*
X238939474Y-97126017D01*
X238721474Y-97216316D01*
X238326406Y-97294900D01*
X237923594Y-97294900D01*
X237528526Y-97216316D01*
X237310526Y-97126017D01*
X237156377Y-97062167D01*
X236821452Y-96838377D01*
X236536623Y-96553548D01*
X236312833Y-96218623D01*
X236209549Y-95969272D01*
X236158684Y-95846474D01*
X236080100Y-95451406D01*
X236080100Y-95048594D01*
X236158684Y-94653526D01*
X236280438Y-94359586D01*
X236312833Y-94281377D01*
X236536623Y-93946452D01*
X236821452Y-93661623D01*
X237156377Y-93437833D01*
X237310526Y-93373983D01*
X237528526Y-93283684D01*
X237923594Y-93205100D01*
X238326406Y-93205100D01*
X238721474Y-93283684D01*
X238721474Y-93283684D01*
G37*
G36*
X162521474Y-93283684D02*
G01*
X162739474Y-93373983D01*
X162893623Y-93437833D01*
X163228548Y-93661623D01*
X163513377Y-93946452D01*
X163737167Y-94281377D01*
X163769562Y-94359586D01*
X163891316Y-94653526D01*
X163969900Y-95048594D01*
X163969900Y-95451406D01*
X163891316Y-95846474D01*
X163840451Y-95969272D01*
X163737167Y-96218623D01*
X163513377Y-96553548D01*
X163228548Y-96838377D01*
X162893623Y-97062167D01*
X162739474Y-97126017D01*
X162521474Y-97216316D01*
X162126406Y-97294900D01*
X161723594Y-97294900D01*
X161328526Y-97216316D01*
X161110526Y-97126017D01*
X160956377Y-97062167D01*
X160621452Y-96838377D01*
X160336623Y-96553548D01*
X160112833Y-96218623D01*
X160009549Y-95969272D01*
X159958684Y-95846474D01*
X159880100Y-95451406D01*
X159880100Y-95048594D01*
X159958684Y-94653526D01*
X160080438Y-94359586D01*
X160112833Y-94281377D01*
X160336623Y-93946452D01*
X160621452Y-93661623D01*
X160956377Y-93437833D01*
X161110526Y-93373983D01*
X161328526Y-93283684D01*
X161723594Y-93205100D01*
X162126406Y-93205100D01*
X162521474Y-93283684D01*
X162521474Y-93283684D01*
G37*
G36*
X129183974Y-93283684D02*
G01*
X129401974Y-93373983D01*
X129556123Y-93437833D01*
X129891048Y-93661623D01*
X130175877Y-93946452D01*
X130399667Y-94281377D01*
X130432062Y-94359586D01*
X130553816Y-94653526D01*
X130632400Y-95048594D01*
X130632400Y-95451406D01*
X130553816Y-95846474D01*
X130502951Y-95969272D01*
X130399667Y-96218623D01*
X130175877Y-96553548D01*
X129891048Y-96838377D01*
X129556123Y-97062167D01*
X129401974Y-97126017D01*
X129183974Y-97216316D01*
X128788906Y-97294900D01*
X128386094Y-97294900D01*
X127991026Y-97216316D01*
X127773026Y-97126017D01*
X127618877Y-97062167D01*
X127283952Y-96838377D01*
X126999123Y-96553548D01*
X126775333Y-96218623D01*
X126672049Y-95969272D01*
X126621184Y-95846474D01*
X126542600Y-95451406D01*
X126542600Y-95048594D01*
X126621184Y-94653526D01*
X126742938Y-94359586D01*
X126775333Y-94281377D01*
X126999123Y-93946452D01*
X127283952Y-93661623D01*
X127618877Y-93437833D01*
X127773026Y-93373983D01*
X127991026Y-93283684D01*
X128386094Y-93205100D01*
X128788906Y-93205100D01*
X129183974Y-93283684D01*
X129183974Y-93283684D01*
G37*
G36*
X110133974Y-93283684D02*
G01*
X110351974Y-93373983D01*
X110506123Y-93437833D01*
X110841048Y-93661623D01*
X111125877Y-93946452D01*
X111349667Y-94281377D01*
X111382062Y-94359586D01*
X111503816Y-94653526D01*
X111582400Y-95048594D01*
X111582400Y-95451406D01*
X111503816Y-95846474D01*
X111452951Y-95969272D01*
X111349667Y-96218623D01*
X111125877Y-96553548D01*
X110841048Y-96838377D01*
X110506123Y-97062167D01*
X110351974Y-97126017D01*
X110133974Y-97216316D01*
X109738906Y-97294900D01*
X109336094Y-97294900D01*
X108941026Y-97216316D01*
X108723026Y-97126017D01*
X108568877Y-97062167D01*
X108233952Y-96838377D01*
X107949123Y-96553548D01*
X107725333Y-96218623D01*
X107622049Y-95969272D01*
X107571184Y-95846474D01*
X107492600Y-95451406D01*
X107492600Y-95048594D01*
X107571184Y-94653526D01*
X107692938Y-94359586D01*
X107725333Y-94281377D01*
X107949123Y-93946452D01*
X108233952Y-93661623D01*
X108568877Y-93437833D01*
X108723026Y-93373983D01*
X108941026Y-93283684D01*
X109336094Y-93205100D01*
X109738906Y-93205100D01*
X110133974Y-93283684D01*
X110133974Y-93283684D01*
G37*
G36*
X91083974Y-93283684D02*
G01*
X91301974Y-93373983D01*
X91456123Y-93437833D01*
X91791048Y-93661623D01*
X92075877Y-93946452D01*
X92299667Y-94281377D01*
X92332062Y-94359586D01*
X92453816Y-94653526D01*
X92532400Y-95048594D01*
X92532400Y-95451406D01*
X92453816Y-95846474D01*
X92402951Y-95969272D01*
X92299667Y-96218623D01*
X92075877Y-96553548D01*
X91791048Y-96838377D01*
X91456123Y-97062167D01*
X91301974Y-97126017D01*
X91083974Y-97216316D01*
X90688906Y-97294900D01*
X90286094Y-97294900D01*
X89891026Y-97216316D01*
X89673026Y-97126017D01*
X89518877Y-97062167D01*
X89183952Y-96838377D01*
X88899123Y-96553548D01*
X88675333Y-96218623D01*
X88572049Y-95969272D01*
X88521184Y-95846474D01*
X88442600Y-95451406D01*
X88442600Y-95048594D01*
X88521184Y-94653526D01*
X88642938Y-94359586D01*
X88675333Y-94281377D01*
X88899123Y-93946452D01*
X89183952Y-93661623D01*
X89518877Y-93437833D01*
X89673026Y-93373983D01*
X89891026Y-93283684D01*
X90286094Y-93205100D01*
X90688906Y-93205100D01*
X91083974Y-93283684D01*
X91083974Y-93283684D01*
G37*
G36*
X72033974Y-93283684D02*
G01*
X72251974Y-93373983D01*
X72406123Y-93437833D01*
X72741048Y-93661623D01*
X73025877Y-93946452D01*
X73249667Y-94281377D01*
X73282062Y-94359586D01*
X73403816Y-94653526D01*
X73482400Y-95048594D01*
X73482400Y-95451406D01*
X73403816Y-95846474D01*
X73352951Y-95969272D01*
X73249667Y-96218623D01*
X73025877Y-96553548D01*
X72741048Y-96838377D01*
X72406123Y-97062167D01*
X72251974Y-97126017D01*
X72033974Y-97216316D01*
X71638906Y-97294900D01*
X71236094Y-97294900D01*
X70841026Y-97216316D01*
X70623026Y-97126017D01*
X70468877Y-97062167D01*
X70133952Y-96838377D01*
X69849123Y-96553548D01*
X69625333Y-96218623D01*
X69522049Y-95969272D01*
X69471184Y-95846474D01*
X69392600Y-95451406D01*
X69392600Y-95048594D01*
X69471184Y-94653526D01*
X69592938Y-94359586D01*
X69625333Y-94281377D01*
X69849123Y-93946452D01*
X70133952Y-93661623D01*
X70468877Y-93437833D01*
X70623026Y-93373983D01*
X70841026Y-93283684D01*
X71236094Y-93205100D01*
X71638906Y-93205100D01*
X72033974Y-93283684D01*
X72033974Y-93283684D01*
G37*
G36*
X257771474Y-93283684D02*
G01*
X257989474Y-93373983D01*
X258143623Y-93437833D01*
X258478548Y-93661623D01*
X258763377Y-93946452D01*
X258987167Y-94281377D01*
X259019562Y-94359586D01*
X259141316Y-94653526D01*
X259219900Y-95048594D01*
X259219900Y-95451406D01*
X259141316Y-95846474D01*
X259090451Y-95969272D01*
X258987167Y-96218623D01*
X258763377Y-96553548D01*
X258478548Y-96838377D01*
X258143623Y-97062167D01*
X257989474Y-97126017D01*
X257771474Y-97216316D01*
X257376406Y-97294900D01*
X256973594Y-97294900D01*
X256578526Y-97216316D01*
X256360526Y-97126017D01*
X256206377Y-97062167D01*
X255871452Y-96838377D01*
X255586623Y-96553548D01*
X255362833Y-96218623D01*
X255259549Y-95969272D01*
X255208684Y-95846474D01*
X255130100Y-95451406D01*
X255130100Y-95048594D01*
X255208684Y-94653526D01*
X255330438Y-94359586D01*
X255362833Y-94281377D01*
X255586623Y-93946452D01*
X255871452Y-93661623D01*
X256206377Y-93437833D01*
X256360526Y-93373983D01*
X256578526Y-93283684D01*
X256973594Y-93205100D01*
X257376406Y-93205100D01*
X257771474Y-93283684D01*
X257771474Y-93283684D01*
G37*
G36*
X52983974Y-93283684D02*
G01*
X53201974Y-93373983D01*
X53356123Y-93437833D01*
X53691048Y-93661623D01*
X53975877Y-93946452D01*
X54199667Y-94281377D01*
X54232062Y-94359586D01*
X54353816Y-94653526D01*
X54432400Y-95048594D01*
X54432400Y-95451406D01*
X54353816Y-95846474D01*
X54302951Y-95969272D01*
X54199667Y-96218623D01*
X53975877Y-96553548D01*
X53691048Y-96838377D01*
X53356123Y-97062167D01*
X53201974Y-97126017D01*
X52983974Y-97216316D01*
X52588906Y-97294900D01*
X52186094Y-97294900D01*
X51791026Y-97216316D01*
X51573026Y-97126017D01*
X51418877Y-97062167D01*
X51083952Y-96838377D01*
X50799123Y-96553548D01*
X50575333Y-96218623D01*
X50472049Y-95969272D01*
X50421184Y-95846474D01*
X50342600Y-95451406D01*
X50342600Y-95048594D01*
X50421184Y-94653526D01*
X50542938Y-94359586D01*
X50575333Y-94281377D01*
X50799123Y-93946452D01*
X51083952Y-93661623D01*
X51418877Y-93437833D01*
X51573026Y-93373983D01*
X51791026Y-93283684D01*
X52186094Y-93205100D01*
X52588906Y-93205100D01*
X52983974Y-93283684D01*
X52983974Y-93283684D01*
G37*
G36*
X33933974Y-93283684D02*
G01*
X34151974Y-93373983D01*
X34306123Y-93437833D01*
X34641048Y-93661623D01*
X34925877Y-93946452D01*
X35149667Y-94281377D01*
X35182062Y-94359586D01*
X35303816Y-94653526D01*
X35382400Y-95048594D01*
X35382400Y-95451406D01*
X35303816Y-95846474D01*
X35252951Y-95969272D01*
X35149667Y-96218623D01*
X34925877Y-96553548D01*
X34641048Y-96838377D01*
X34306123Y-97062167D01*
X34151974Y-97126017D01*
X33933974Y-97216316D01*
X33538906Y-97294900D01*
X33136094Y-97294900D01*
X32741026Y-97216316D01*
X32523026Y-97126017D01*
X32368877Y-97062167D01*
X32033952Y-96838377D01*
X31749123Y-96553548D01*
X31525333Y-96218623D01*
X31422049Y-95969272D01*
X31371184Y-95846474D01*
X31292600Y-95451406D01*
X31292600Y-95048594D01*
X31371184Y-94653526D01*
X31492938Y-94359586D01*
X31525333Y-94281377D01*
X31749123Y-93946452D01*
X32033952Y-93661623D01*
X32368877Y-93437833D01*
X32523026Y-93373983D01*
X32741026Y-93283684D01*
X33136094Y-93205100D01*
X33538906Y-93205100D01*
X33933974Y-93283684D01*
X33933974Y-93283684D01*
G37*
G36*
X219671474Y-93234083D02*
G01*
X219889474Y-93324382D01*
X220043623Y-93388232D01*
X220378548Y-93612022D01*
X220663377Y-93896851D01*
X220887167Y-94231776D01*
X220919562Y-94309985D01*
X221041316Y-94603925D01*
X221119900Y-94998993D01*
X221119900Y-95401805D01*
X221041316Y-95796873D01*
X220990451Y-95919671D01*
X220887167Y-96169022D01*
X220663377Y-96503947D01*
X220378548Y-96788776D01*
X220043623Y-97012566D01*
X219923875Y-97062167D01*
X219671474Y-97166715D01*
X219276406Y-97245299D01*
X218873594Y-97245299D01*
X218478526Y-97166715D01*
X218226125Y-97062167D01*
X218106377Y-97012566D01*
X217771452Y-96788776D01*
X217486623Y-96503947D01*
X217262833Y-96169022D01*
X217159549Y-95919671D01*
X217108684Y-95796873D01*
X217030100Y-95401805D01*
X217030100Y-94998993D01*
X217108684Y-94603925D01*
X217230438Y-94309985D01*
X217262833Y-94231776D01*
X217486623Y-93896851D01*
X217771452Y-93612022D01*
X218106377Y-93388232D01*
X218260526Y-93324382D01*
X218478526Y-93234083D01*
X218873594Y-93155499D01*
X219276406Y-93155499D01*
X219671474Y-93234083D01*
X219671474Y-93234083D01*
G37*
G36*
X133937604Y-94359585D02*
G01*
X134106126Y-94429389D01*
X134257791Y-94530728D01*
X134386772Y-94659709D01*
X134488111Y-94811374D01*
X134557915Y-94979896D01*
X134593500Y-95158797D01*
X134593500Y-95341203D01*
X134557915Y-95520104D01*
X134488111Y-95688626D01*
X134386772Y-95840291D01*
X134257791Y-95969272D01*
X134106126Y-96070611D01*
X133937604Y-96140415D01*
X133758703Y-96176000D01*
X133576297Y-96176000D01*
X133397396Y-96140415D01*
X133228874Y-96070611D01*
X133077209Y-95969272D01*
X132948228Y-95840291D01*
X132846889Y-95688626D01*
X132777085Y-95520104D01*
X132741500Y-95341203D01*
X132741500Y-95158797D01*
X132777085Y-94979896D01*
X132846889Y-94811374D01*
X132948228Y-94659709D01*
X133077209Y-94530728D01*
X133228874Y-94429389D01*
X133397396Y-94359585D01*
X133576297Y-94324000D01*
X133758703Y-94324000D01*
X133937604Y-94359585D01*
X133937604Y-94359585D01*
G37*
G36*
X114887604Y-94359585D02*
G01*
X115056126Y-94429389D01*
X115207791Y-94530728D01*
X115336772Y-94659709D01*
X115438111Y-94811374D01*
X115507915Y-94979896D01*
X115543500Y-95158797D01*
X115543500Y-95341203D01*
X115507915Y-95520104D01*
X115438111Y-95688626D01*
X115336772Y-95840291D01*
X115207791Y-95969272D01*
X115056126Y-96070611D01*
X114887604Y-96140415D01*
X114708703Y-96176000D01*
X114526297Y-96176000D01*
X114347396Y-96140415D01*
X114178874Y-96070611D01*
X114027209Y-95969272D01*
X113898228Y-95840291D01*
X113796889Y-95688626D01*
X113727085Y-95520104D01*
X113691500Y-95341203D01*
X113691500Y-95158797D01*
X113727085Y-94979896D01*
X113796889Y-94811374D01*
X113898228Y-94659709D01*
X114027209Y-94530728D01*
X114178874Y-94429389D01*
X114347396Y-94359585D01*
X114526297Y-94324000D01*
X114708703Y-94324000D01*
X114887604Y-94359585D01*
X114887604Y-94359585D01*
G37*
G36*
X104727604Y-94359585D02*
G01*
X104896126Y-94429389D01*
X105047791Y-94530728D01*
X105176772Y-94659709D01*
X105278111Y-94811374D01*
X105347915Y-94979896D01*
X105383500Y-95158797D01*
X105383500Y-95341203D01*
X105347915Y-95520104D01*
X105278111Y-95688626D01*
X105176772Y-95840291D01*
X105047791Y-95969272D01*
X104896126Y-96070611D01*
X104727604Y-96140415D01*
X104548703Y-96176000D01*
X104366297Y-96176000D01*
X104187396Y-96140415D01*
X104018874Y-96070611D01*
X103867209Y-95969272D01*
X103738228Y-95840291D01*
X103636889Y-95688626D01*
X103567085Y-95520104D01*
X103531500Y-95341203D01*
X103531500Y-95158797D01*
X103567085Y-94979896D01*
X103636889Y-94811374D01*
X103738228Y-94659709D01*
X103867209Y-94530728D01*
X104018874Y-94429389D01*
X104187396Y-94359585D01*
X104366297Y-94324000D01*
X104548703Y-94324000D01*
X104727604Y-94359585D01*
X104727604Y-94359585D01*
G37*
G36*
X123777604Y-94359585D02*
G01*
X123946126Y-94429389D01*
X124097791Y-94530728D01*
X124226772Y-94659709D01*
X124328111Y-94811374D01*
X124397915Y-94979896D01*
X124433500Y-95158797D01*
X124433500Y-95341203D01*
X124397915Y-95520104D01*
X124328111Y-95688626D01*
X124226772Y-95840291D01*
X124097791Y-95969272D01*
X123946126Y-96070611D01*
X123777604Y-96140415D01*
X123598703Y-96176000D01*
X123416297Y-96176000D01*
X123237396Y-96140415D01*
X123068874Y-96070611D01*
X122917209Y-95969272D01*
X122788228Y-95840291D01*
X122686889Y-95688626D01*
X122617085Y-95520104D01*
X122581500Y-95341203D01*
X122581500Y-95158797D01*
X122617085Y-94979896D01*
X122686889Y-94811374D01*
X122788228Y-94659709D01*
X122917209Y-94530728D01*
X123068874Y-94429389D01*
X123237396Y-94359585D01*
X123416297Y-94324000D01*
X123598703Y-94324000D01*
X123777604Y-94359585D01*
X123777604Y-94359585D01*
G37*
G36*
X38687604Y-94359585D02*
G01*
X38856126Y-94429389D01*
X39007791Y-94530728D01*
X39136772Y-94659709D01*
X39238111Y-94811374D01*
X39307915Y-94979896D01*
X39343500Y-95158797D01*
X39343500Y-95341203D01*
X39307915Y-95520104D01*
X39238111Y-95688626D01*
X39136772Y-95840291D01*
X39007791Y-95969272D01*
X38856126Y-96070611D01*
X38687604Y-96140415D01*
X38508703Y-96176000D01*
X38326297Y-96176000D01*
X38147396Y-96140415D01*
X37978874Y-96070611D01*
X37827209Y-95969272D01*
X37698228Y-95840291D01*
X37596889Y-95688626D01*
X37527085Y-95520104D01*
X37491500Y-95341203D01*
X37491500Y-95158797D01*
X37527085Y-94979896D01*
X37596889Y-94811374D01*
X37698228Y-94659709D01*
X37827209Y-94530728D01*
X37978874Y-94429389D01*
X38147396Y-94359585D01*
X38326297Y-94324000D01*
X38508703Y-94324000D01*
X38687604Y-94359585D01*
X38687604Y-94359585D01*
G37*
G36*
X95837604Y-94359585D02*
G01*
X96006126Y-94429389D01*
X96157791Y-94530728D01*
X96286772Y-94659709D01*
X96388111Y-94811374D01*
X96457915Y-94979896D01*
X96493500Y-95158797D01*
X96493500Y-95341203D01*
X96457915Y-95520104D01*
X96388111Y-95688626D01*
X96286772Y-95840291D01*
X96157791Y-95969272D01*
X96006126Y-96070611D01*
X95837604Y-96140415D01*
X95658703Y-96176000D01*
X95476297Y-96176000D01*
X95297396Y-96140415D01*
X95128874Y-96070611D01*
X94977209Y-95969272D01*
X94848228Y-95840291D01*
X94746889Y-95688626D01*
X94677085Y-95520104D01*
X94641500Y-95341203D01*
X94641500Y-95158797D01*
X94677085Y-94979896D01*
X94746889Y-94811374D01*
X94848228Y-94659709D01*
X94977209Y-94530728D01*
X95128874Y-94429389D01*
X95297396Y-94359585D01*
X95476297Y-94324000D01*
X95658703Y-94324000D01*
X95837604Y-94359585D01*
X95837604Y-94359585D01*
G37*
G36*
X47577604Y-94359585D02*
G01*
X47746126Y-94429389D01*
X47897791Y-94530728D01*
X48026772Y-94659709D01*
X48128111Y-94811374D01*
X48197915Y-94979896D01*
X48233500Y-95158797D01*
X48233500Y-95341203D01*
X48197915Y-95520104D01*
X48128111Y-95688626D01*
X48026772Y-95840291D01*
X47897791Y-95969272D01*
X47746126Y-96070611D01*
X47577604Y-96140415D01*
X47398703Y-96176000D01*
X47216297Y-96176000D01*
X47037396Y-96140415D01*
X46868874Y-96070611D01*
X46717209Y-95969272D01*
X46588228Y-95840291D01*
X46486889Y-95688626D01*
X46417085Y-95520104D01*
X46381500Y-95341203D01*
X46381500Y-95158797D01*
X46417085Y-94979896D01*
X46486889Y-94811374D01*
X46588228Y-94659709D01*
X46717209Y-94530728D01*
X46868874Y-94429389D01*
X47037396Y-94359585D01*
X47216297Y-94324000D01*
X47398703Y-94324000D01*
X47577604Y-94359585D01*
X47577604Y-94359585D01*
G37*
G36*
X57737604Y-94359585D02*
G01*
X57906126Y-94429389D01*
X58057791Y-94530728D01*
X58186772Y-94659709D01*
X58288111Y-94811374D01*
X58357915Y-94979896D01*
X58393500Y-95158797D01*
X58393500Y-95341203D01*
X58357915Y-95520104D01*
X58288111Y-95688626D01*
X58186772Y-95840291D01*
X58057791Y-95969272D01*
X57906126Y-96070611D01*
X57737604Y-96140415D01*
X57558703Y-96176000D01*
X57376297Y-96176000D01*
X57197396Y-96140415D01*
X57028874Y-96070611D01*
X56877209Y-95969272D01*
X56748228Y-95840291D01*
X56646889Y-95688626D01*
X56577085Y-95520104D01*
X56541500Y-95341203D01*
X56541500Y-95158797D01*
X56577085Y-94979896D01*
X56646889Y-94811374D01*
X56748228Y-94659709D01*
X56877209Y-94530728D01*
X57028874Y-94429389D01*
X57197396Y-94359585D01*
X57376297Y-94324000D01*
X57558703Y-94324000D01*
X57737604Y-94359585D01*
X57737604Y-94359585D01*
G37*
G36*
X85677604Y-94359585D02*
G01*
X85846126Y-94429389D01*
X85997791Y-94530728D01*
X86126772Y-94659709D01*
X86228111Y-94811374D01*
X86297915Y-94979896D01*
X86333500Y-95158797D01*
X86333500Y-95341203D01*
X86297915Y-95520104D01*
X86228111Y-95688626D01*
X86126772Y-95840291D01*
X85997791Y-95969272D01*
X85846126Y-96070611D01*
X85677604Y-96140415D01*
X85498703Y-96176000D01*
X85316297Y-96176000D01*
X85137396Y-96140415D01*
X84968874Y-96070611D01*
X84817209Y-95969272D01*
X84688228Y-95840291D01*
X84586889Y-95688626D01*
X84517085Y-95520104D01*
X84481500Y-95341203D01*
X84481500Y-95158797D01*
X84517085Y-94979896D01*
X84586889Y-94811374D01*
X84688228Y-94659709D01*
X84817209Y-94530728D01*
X84968874Y-94429389D01*
X85137396Y-94359585D01*
X85316297Y-94324000D01*
X85498703Y-94324000D01*
X85677604Y-94359585D01*
X85677604Y-94359585D01*
G37*
G36*
X66627604Y-94359585D02*
G01*
X66796126Y-94429389D01*
X66947791Y-94530728D01*
X67076772Y-94659709D01*
X67178111Y-94811374D01*
X67247915Y-94979896D01*
X67283500Y-95158797D01*
X67283500Y-95341203D01*
X67247915Y-95520104D01*
X67178111Y-95688626D01*
X67076772Y-95840291D01*
X66947791Y-95969272D01*
X66796126Y-96070611D01*
X66627604Y-96140415D01*
X66448703Y-96176000D01*
X66266297Y-96176000D01*
X66087396Y-96140415D01*
X65918874Y-96070611D01*
X65767209Y-95969272D01*
X65638228Y-95840291D01*
X65536889Y-95688626D01*
X65467085Y-95520104D01*
X65431500Y-95341203D01*
X65431500Y-95158797D01*
X65467085Y-94979896D01*
X65536889Y-94811374D01*
X65638228Y-94659709D01*
X65767209Y-94530728D01*
X65918874Y-94429389D01*
X66087396Y-94359585D01*
X66266297Y-94324000D01*
X66448703Y-94324000D01*
X66627604Y-94359585D01*
X66627604Y-94359585D01*
G37*
G36*
X76787604Y-94359585D02*
G01*
X76956126Y-94429389D01*
X77107791Y-94530728D01*
X77236772Y-94659709D01*
X77338111Y-94811374D01*
X77407915Y-94979896D01*
X77443500Y-95158797D01*
X77443500Y-95341203D01*
X77407915Y-95520104D01*
X77338111Y-95688626D01*
X77236772Y-95840291D01*
X77107791Y-95969272D01*
X76956126Y-96070611D01*
X76787604Y-96140415D01*
X76608703Y-96176000D01*
X76426297Y-96176000D01*
X76247396Y-96140415D01*
X76078874Y-96070611D01*
X75927209Y-95969272D01*
X75798228Y-95840291D01*
X75696889Y-95688626D01*
X75627085Y-95520104D01*
X75591500Y-95341203D01*
X75591500Y-95158797D01*
X75627085Y-94979896D01*
X75696889Y-94811374D01*
X75798228Y-94659709D01*
X75927209Y-94530728D01*
X76078874Y-94429389D01*
X76247396Y-94359585D01*
X76426297Y-94324000D01*
X76608703Y-94324000D01*
X76787604Y-94359585D01*
X76787604Y-94359585D01*
G37*
G36*
X157115104Y-94359585D02*
G01*
X157283626Y-94429389D01*
X157435291Y-94530728D01*
X157564272Y-94659709D01*
X157665611Y-94811374D01*
X157735415Y-94979896D01*
X157771000Y-95158797D01*
X157771000Y-95341203D01*
X157735415Y-95520104D01*
X157665611Y-95688626D01*
X157564272Y-95840291D01*
X157435291Y-95969272D01*
X157283626Y-96070611D01*
X157115104Y-96140415D01*
X156936203Y-96176000D01*
X156753797Y-96176000D01*
X156574896Y-96140415D01*
X156406374Y-96070611D01*
X156254709Y-95969272D01*
X156125728Y-95840291D01*
X156024389Y-95688626D01*
X155954585Y-95520104D01*
X155919000Y-95341203D01*
X155919000Y-95158797D01*
X155954585Y-94979896D01*
X156024389Y-94811374D01*
X156125728Y-94659709D01*
X156254709Y-94530728D01*
X156406374Y-94429389D01*
X156574896Y-94359585D01*
X156753797Y-94324000D01*
X156936203Y-94324000D01*
X157115104Y-94359585D01*
X157115104Y-94359585D01*
G37*
G36*
X167275104Y-94359585D02*
G01*
X167443626Y-94429389D01*
X167595291Y-94530728D01*
X167724272Y-94659709D01*
X167825611Y-94811374D01*
X167895415Y-94979896D01*
X167931000Y-95158797D01*
X167931000Y-95341203D01*
X167895415Y-95520104D01*
X167825611Y-95688626D01*
X167724272Y-95840291D01*
X167595291Y-95969272D01*
X167443626Y-96070611D01*
X167275104Y-96140415D01*
X167096203Y-96176000D01*
X166913797Y-96176000D01*
X166734896Y-96140415D01*
X166566374Y-96070611D01*
X166414709Y-95969272D01*
X166285728Y-95840291D01*
X166184389Y-95688626D01*
X166114585Y-95520104D01*
X166079000Y-95341203D01*
X166079000Y-95158797D01*
X166114585Y-94979896D01*
X166184389Y-94811374D01*
X166285728Y-94659709D01*
X166414709Y-94530728D01*
X166566374Y-94429389D01*
X166734896Y-94359585D01*
X166913797Y-94324000D01*
X167096203Y-94324000D01*
X167275104Y-94359585D01*
X167275104Y-94359585D01*
G37*
G36*
X28527604Y-94359585D02*
G01*
X28696126Y-94429389D01*
X28847791Y-94530728D01*
X28976772Y-94659709D01*
X29078111Y-94811374D01*
X29147915Y-94979896D01*
X29183500Y-95158797D01*
X29183500Y-95341203D01*
X29147915Y-95520104D01*
X29078111Y-95688626D01*
X28976772Y-95840291D01*
X28847791Y-95969272D01*
X28696126Y-96070611D01*
X28527604Y-96140415D01*
X28348703Y-96176000D01*
X28166297Y-96176000D01*
X27987396Y-96140415D01*
X27818874Y-96070611D01*
X27667209Y-95969272D01*
X27538228Y-95840291D01*
X27436889Y-95688626D01*
X27367085Y-95520104D01*
X27331500Y-95341203D01*
X27331500Y-95158797D01*
X27367085Y-94979896D01*
X27436889Y-94811374D01*
X27538228Y-94659709D01*
X27667209Y-94530728D01*
X27818874Y-94429389D01*
X27987396Y-94359585D01*
X28166297Y-94324000D01*
X28348703Y-94324000D01*
X28527604Y-94359585D01*
X28527604Y-94359585D01*
G37*
G36*
X176165104Y-94359585D02*
G01*
X176333626Y-94429389D01*
X176485291Y-94530728D01*
X176614272Y-94659709D01*
X176715611Y-94811374D01*
X176785415Y-94979896D01*
X176821000Y-95158797D01*
X176821000Y-95341203D01*
X176785415Y-95520104D01*
X176715611Y-95688626D01*
X176614272Y-95840291D01*
X176485291Y-95969272D01*
X176333626Y-96070611D01*
X176165104Y-96140415D01*
X175986203Y-96176000D01*
X175803797Y-96176000D01*
X175624896Y-96140415D01*
X175456374Y-96070611D01*
X175304709Y-95969272D01*
X175175728Y-95840291D01*
X175074389Y-95688626D01*
X175004585Y-95520104D01*
X174969000Y-95341203D01*
X174969000Y-95158797D01*
X175004585Y-94979896D01*
X175074389Y-94811374D01*
X175175728Y-94659709D01*
X175304709Y-94530728D01*
X175456374Y-94429389D01*
X175624896Y-94359585D01*
X175803797Y-94324000D01*
X175986203Y-94324000D01*
X176165104Y-94359585D01*
X176165104Y-94359585D01*
G37*
G36*
X186325104Y-94359585D02*
G01*
X186493626Y-94429389D01*
X186645291Y-94530728D01*
X186774272Y-94659709D01*
X186875611Y-94811374D01*
X186945415Y-94979896D01*
X186981000Y-95158797D01*
X186981000Y-95341203D01*
X186945415Y-95520104D01*
X186875611Y-95688626D01*
X186774272Y-95840291D01*
X186645291Y-95969272D01*
X186493626Y-96070611D01*
X186325104Y-96140415D01*
X186146203Y-96176000D01*
X185963797Y-96176000D01*
X185784896Y-96140415D01*
X185616374Y-96070611D01*
X185464709Y-95969272D01*
X185335728Y-95840291D01*
X185234389Y-95688626D01*
X185164585Y-95520104D01*
X185129000Y-95341203D01*
X185129000Y-95158797D01*
X185164585Y-94979896D01*
X185234389Y-94811374D01*
X185335728Y-94659709D01*
X185464709Y-94530728D01*
X185616374Y-94429389D01*
X185784896Y-94359585D01*
X185963797Y-94324000D01*
X186146203Y-94324000D01*
X186325104Y-94359585D01*
X186325104Y-94359585D01*
G37*
G36*
X262525104Y-94359585D02*
G01*
X262693626Y-94429389D01*
X262845291Y-94530728D01*
X262974272Y-94659709D01*
X263075611Y-94811374D01*
X263145415Y-94979896D01*
X263181000Y-95158797D01*
X263181000Y-95341203D01*
X263145415Y-95520104D01*
X263075611Y-95688626D01*
X262974272Y-95840291D01*
X262845291Y-95969272D01*
X262693626Y-96070611D01*
X262525104Y-96140415D01*
X262346203Y-96176000D01*
X262163797Y-96176000D01*
X261984896Y-96140415D01*
X261816374Y-96070611D01*
X261664709Y-95969272D01*
X261535728Y-95840291D01*
X261434389Y-95688626D01*
X261364585Y-95520104D01*
X261329000Y-95341203D01*
X261329000Y-95158797D01*
X261364585Y-94979896D01*
X261434389Y-94811374D01*
X261535728Y-94659709D01*
X261664709Y-94530728D01*
X261816374Y-94429389D01*
X261984896Y-94359585D01*
X262163797Y-94324000D01*
X262346203Y-94324000D01*
X262525104Y-94359585D01*
X262525104Y-94359585D01*
G37*
G36*
X195215104Y-94359585D02*
G01*
X195383626Y-94429389D01*
X195535291Y-94530728D01*
X195664272Y-94659709D01*
X195765611Y-94811374D01*
X195835415Y-94979896D01*
X195871000Y-95158797D01*
X195871000Y-95341203D01*
X195835415Y-95520104D01*
X195765611Y-95688626D01*
X195664272Y-95840291D01*
X195535291Y-95969272D01*
X195383626Y-96070611D01*
X195215104Y-96140415D01*
X195036203Y-96176000D01*
X194853797Y-96176000D01*
X194674896Y-96140415D01*
X194506374Y-96070611D01*
X194354709Y-95969272D01*
X194225728Y-95840291D01*
X194124389Y-95688626D01*
X194054585Y-95520104D01*
X194019000Y-95341203D01*
X194019000Y-95158797D01*
X194054585Y-94979896D01*
X194124389Y-94811374D01*
X194225728Y-94659709D01*
X194354709Y-94530728D01*
X194506374Y-94429389D01*
X194674896Y-94359585D01*
X194853797Y-94324000D01*
X195036203Y-94324000D01*
X195215104Y-94359585D01*
X195215104Y-94359585D01*
G37*
G36*
X205375104Y-94359585D02*
G01*
X205543626Y-94429389D01*
X205695291Y-94530728D01*
X205824272Y-94659709D01*
X205925611Y-94811374D01*
X205995415Y-94979896D01*
X206031000Y-95158797D01*
X206031000Y-95341203D01*
X205995415Y-95520104D01*
X205925611Y-95688626D01*
X205824272Y-95840291D01*
X205695291Y-95969272D01*
X205543626Y-96070611D01*
X205375104Y-96140415D01*
X205196203Y-96176000D01*
X205013797Y-96176000D01*
X204834896Y-96140415D01*
X204666374Y-96070611D01*
X204514709Y-95969272D01*
X204385728Y-95840291D01*
X204284389Y-95688626D01*
X204214585Y-95520104D01*
X204179000Y-95341203D01*
X204179000Y-95158797D01*
X204214585Y-94979896D01*
X204284389Y-94811374D01*
X204385728Y-94659709D01*
X204514709Y-94530728D01*
X204666374Y-94429389D01*
X204834896Y-94359585D01*
X205013797Y-94324000D01*
X205196203Y-94324000D01*
X205375104Y-94359585D01*
X205375104Y-94359585D01*
G37*
G36*
X252365104Y-94359585D02*
G01*
X252533626Y-94429389D01*
X252685291Y-94530728D01*
X252814272Y-94659709D01*
X252915611Y-94811374D01*
X252985415Y-94979896D01*
X253021000Y-95158797D01*
X253021000Y-95341203D01*
X252985415Y-95520104D01*
X252915611Y-95688626D01*
X252814272Y-95840291D01*
X252685291Y-95969272D01*
X252533626Y-96070611D01*
X252365104Y-96140415D01*
X252186203Y-96176000D01*
X252003797Y-96176000D01*
X251824896Y-96140415D01*
X251656374Y-96070611D01*
X251504709Y-95969272D01*
X251375728Y-95840291D01*
X251274389Y-95688626D01*
X251204585Y-95520104D01*
X251169000Y-95341203D01*
X251169000Y-95158797D01*
X251204585Y-94979896D01*
X251274389Y-94811374D01*
X251375728Y-94659709D01*
X251504709Y-94530728D01*
X251656374Y-94429389D01*
X251824896Y-94359585D01*
X252003797Y-94324000D01*
X252186203Y-94324000D01*
X252365104Y-94359585D01*
X252365104Y-94359585D01*
G37*
G36*
X233315104Y-94359585D02*
G01*
X233483626Y-94429389D01*
X233635291Y-94530728D01*
X233764272Y-94659709D01*
X233865611Y-94811374D01*
X233935415Y-94979896D01*
X233971000Y-95158797D01*
X233971000Y-95341203D01*
X233935415Y-95520104D01*
X233865611Y-95688626D01*
X233764272Y-95840291D01*
X233635291Y-95969272D01*
X233483626Y-96070611D01*
X233315104Y-96140415D01*
X233136203Y-96176000D01*
X232953797Y-96176000D01*
X232774896Y-96140415D01*
X232606374Y-96070611D01*
X232454709Y-95969272D01*
X232325728Y-95840291D01*
X232224389Y-95688626D01*
X232154585Y-95520104D01*
X232119000Y-95341203D01*
X232119000Y-95158797D01*
X232154585Y-94979896D01*
X232224389Y-94811374D01*
X232325728Y-94659709D01*
X232454709Y-94530728D01*
X232606374Y-94429389D01*
X232774896Y-94359585D01*
X232953797Y-94324000D01*
X233136203Y-94324000D01*
X233315104Y-94359585D01*
X233315104Y-94359585D01*
G37*
G36*
X243475104Y-94359585D02*
G01*
X243643626Y-94429389D01*
X243795291Y-94530728D01*
X243924272Y-94659709D01*
X244025611Y-94811374D01*
X244095415Y-94979896D01*
X244131000Y-95158797D01*
X244131000Y-95341203D01*
X244095415Y-95520104D01*
X244025611Y-95688626D01*
X243924272Y-95840291D01*
X243795291Y-95969272D01*
X243643626Y-96070611D01*
X243475104Y-96140415D01*
X243296203Y-96176000D01*
X243113797Y-96176000D01*
X242934896Y-96140415D01*
X242766374Y-96070611D01*
X242614709Y-95969272D01*
X242485728Y-95840291D01*
X242384389Y-95688626D01*
X242314585Y-95520104D01*
X242279000Y-95341203D01*
X242279000Y-95158797D01*
X242314585Y-94979896D01*
X242384389Y-94811374D01*
X242485728Y-94659709D01*
X242614709Y-94530728D01*
X242766374Y-94429389D01*
X242934896Y-94359585D01*
X243113797Y-94324000D01*
X243296203Y-94324000D01*
X243475104Y-94359585D01*
X243475104Y-94359585D01*
G37*
G36*
X214265104Y-94309984D02*
G01*
X214433626Y-94379788D01*
X214585291Y-94481127D01*
X214714272Y-94610108D01*
X214815611Y-94761773D01*
X214885415Y-94930295D01*
X214921000Y-95109196D01*
X214921000Y-95291602D01*
X214885415Y-95470503D01*
X214815611Y-95639025D01*
X214714272Y-95790690D01*
X214585291Y-95919671D01*
X214433626Y-96021010D01*
X214265104Y-96090814D01*
X214086203Y-96126399D01*
X213903797Y-96126399D01*
X213724896Y-96090814D01*
X213556374Y-96021010D01*
X213404709Y-95919671D01*
X213275728Y-95790690D01*
X213174389Y-95639025D01*
X213104585Y-95470503D01*
X213069000Y-95291602D01*
X213069000Y-95109196D01*
X213104585Y-94930295D01*
X213174389Y-94761773D01*
X213275728Y-94610108D01*
X213404709Y-94481127D01*
X213556374Y-94379788D01*
X213724896Y-94309984D01*
X213903797Y-94274399D01*
X214086203Y-94274399D01*
X214265104Y-94309984D01*
X214265104Y-94309984D01*
G37*
G36*
X224425104Y-94309984D02*
G01*
X224593626Y-94379788D01*
X224745291Y-94481127D01*
X224874272Y-94610108D01*
X224975611Y-94761773D01*
X225045415Y-94930295D01*
X225081000Y-95109196D01*
X225081000Y-95291602D01*
X225045415Y-95470503D01*
X224975611Y-95639025D01*
X224874272Y-95790690D01*
X224745291Y-95919671D01*
X224593626Y-96021010D01*
X224425104Y-96090814D01*
X224246203Y-96126399D01*
X224063797Y-96126399D01*
X223884896Y-96090814D01*
X223716374Y-96021010D01*
X223564709Y-95919671D01*
X223435728Y-95790690D01*
X223334389Y-95639025D01*
X223264585Y-95470503D01*
X223229000Y-95291602D01*
X223229000Y-95109196D01*
X223264585Y-94930295D01*
X223334389Y-94761773D01*
X223435728Y-94610108D01*
X223564709Y-94481127D01*
X223716374Y-94379788D01*
X223884896Y-94309984D01*
X224063797Y-94274399D01*
X224246203Y-94274399D01*
X224425104Y-94309984D01*
X224425104Y-94309984D01*
G37*
G36*
X72033974Y-74233684D02*
G01*
X72251974Y-74323983D01*
X72406123Y-74387833D01*
X72741048Y-74611623D01*
X73025877Y-74896452D01*
X73249667Y-75231377D01*
X73282062Y-75309586D01*
X73403816Y-75603526D01*
X73482400Y-75998594D01*
X73482400Y-76401406D01*
X73403816Y-76796474D01*
X73352951Y-76919272D01*
X73249667Y-77168623D01*
X73025877Y-77503548D01*
X72741048Y-77788377D01*
X72406123Y-78012167D01*
X72251974Y-78076017D01*
X72033974Y-78166316D01*
X71638906Y-78244900D01*
X71236094Y-78244900D01*
X70841026Y-78166316D01*
X70623026Y-78076017D01*
X70468877Y-78012167D01*
X70133952Y-77788377D01*
X69849123Y-77503548D01*
X69625333Y-77168623D01*
X69522049Y-76919272D01*
X69471184Y-76796474D01*
X69392600Y-76401406D01*
X69392600Y-75998594D01*
X69471184Y-75603526D01*
X69592938Y-75309586D01*
X69625333Y-75231377D01*
X69849123Y-74896452D01*
X70133952Y-74611623D01*
X70468877Y-74387833D01*
X70623026Y-74323983D01*
X70841026Y-74233684D01*
X71236094Y-74155100D01*
X71638906Y-74155100D01*
X72033974Y-74233684D01*
X72033974Y-74233684D01*
G37*
G36*
X52983974Y-74233684D02*
G01*
X53201974Y-74323983D01*
X53356123Y-74387833D01*
X53691048Y-74611623D01*
X53975877Y-74896452D01*
X54199667Y-75231377D01*
X54232062Y-75309586D01*
X54353816Y-75603526D01*
X54432400Y-75998594D01*
X54432400Y-76401406D01*
X54353816Y-76796474D01*
X54302951Y-76919272D01*
X54199667Y-77168623D01*
X53975877Y-77503548D01*
X53691048Y-77788377D01*
X53356123Y-78012167D01*
X53201974Y-78076017D01*
X52983974Y-78166316D01*
X52588906Y-78244900D01*
X52186094Y-78244900D01*
X51791026Y-78166316D01*
X51573026Y-78076017D01*
X51418877Y-78012167D01*
X51083952Y-77788377D01*
X50799123Y-77503548D01*
X50575333Y-77168623D01*
X50472049Y-76919272D01*
X50421184Y-76796474D01*
X50342600Y-76401406D01*
X50342600Y-75998594D01*
X50421184Y-75603526D01*
X50542938Y-75309586D01*
X50575333Y-75231377D01*
X50799123Y-74896452D01*
X51083952Y-74611623D01*
X51418877Y-74387833D01*
X51573026Y-74323983D01*
X51791026Y-74233684D01*
X52186094Y-74155100D01*
X52588906Y-74155100D01*
X52983974Y-74233684D01*
X52983974Y-74233684D01*
G37*
G36*
X33933974Y-74233684D02*
G01*
X34151974Y-74323983D01*
X34306123Y-74387833D01*
X34641048Y-74611623D01*
X34925877Y-74896452D01*
X35149667Y-75231377D01*
X35182062Y-75309586D01*
X35303816Y-75603526D01*
X35382400Y-75998594D01*
X35382400Y-76401406D01*
X35303816Y-76796474D01*
X35252951Y-76919272D01*
X35149667Y-77168623D01*
X34925877Y-77503548D01*
X34641048Y-77788377D01*
X34306123Y-78012167D01*
X34151974Y-78076017D01*
X33933974Y-78166316D01*
X33538906Y-78244900D01*
X33136094Y-78244900D01*
X32741026Y-78166316D01*
X32523026Y-78076017D01*
X32368877Y-78012167D01*
X32033952Y-77788377D01*
X31749123Y-77503548D01*
X31525333Y-77168623D01*
X31422049Y-76919272D01*
X31371184Y-76796474D01*
X31292600Y-76401406D01*
X31292600Y-75998594D01*
X31371184Y-75603526D01*
X31492938Y-75309586D01*
X31525333Y-75231377D01*
X31749123Y-74896452D01*
X32033952Y-74611623D01*
X32368877Y-74387833D01*
X32523026Y-74323983D01*
X32741026Y-74233684D01*
X33136094Y-74155100D01*
X33538906Y-74155100D01*
X33933974Y-74233684D01*
X33933974Y-74233684D01*
G37*
G36*
X91083974Y-74233684D02*
G01*
X91301974Y-74323983D01*
X91456123Y-74387833D01*
X91791048Y-74611623D01*
X92075877Y-74896452D01*
X92299667Y-75231377D01*
X92332062Y-75309586D01*
X92453816Y-75603526D01*
X92532400Y-75998594D01*
X92532400Y-76401406D01*
X92453816Y-76796474D01*
X92402951Y-76919272D01*
X92299667Y-77168623D01*
X92075877Y-77503548D01*
X91791048Y-77788377D01*
X91456123Y-78012167D01*
X91301974Y-78076017D01*
X91083974Y-78166316D01*
X90688906Y-78244900D01*
X90286094Y-78244900D01*
X89891026Y-78166316D01*
X89673026Y-78076017D01*
X89518877Y-78012167D01*
X89183952Y-77788377D01*
X88899123Y-77503548D01*
X88675333Y-77168623D01*
X88572049Y-76919272D01*
X88521184Y-76796474D01*
X88442600Y-76401406D01*
X88442600Y-75998594D01*
X88521184Y-75603526D01*
X88642938Y-75309586D01*
X88675333Y-75231377D01*
X88899123Y-74896452D01*
X89183952Y-74611623D01*
X89518877Y-74387833D01*
X89673026Y-74323983D01*
X89891026Y-74233684D01*
X90286094Y-74155100D01*
X90688906Y-74155100D01*
X91083974Y-74233684D01*
X91083974Y-74233684D01*
G37*
G36*
X110133974Y-74233684D02*
G01*
X110351974Y-74323983D01*
X110506123Y-74387833D01*
X110841048Y-74611623D01*
X111125877Y-74896452D01*
X111349667Y-75231377D01*
X111382062Y-75309586D01*
X111503816Y-75603526D01*
X111582400Y-75998594D01*
X111582400Y-76401406D01*
X111503816Y-76796474D01*
X111452951Y-76919272D01*
X111349667Y-77168623D01*
X111125877Y-77503548D01*
X110841048Y-77788377D01*
X110506123Y-78012167D01*
X110351974Y-78076017D01*
X110133974Y-78166316D01*
X109738906Y-78244900D01*
X109336094Y-78244900D01*
X108941026Y-78166316D01*
X108723026Y-78076017D01*
X108568877Y-78012167D01*
X108233952Y-77788377D01*
X107949123Y-77503548D01*
X107725333Y-77168623D01*
X107622049Y-76919272D01*
X107571184Y-76796474D01*
X107492600Y-76401406D01*
X107492600Y-75998594D01*
X107571184Y-75603526D01*
X107692938Y-75309586D01*
X107725333Y-75231377D01*
X107949123Y-74896452D01*
X108233952Y-74611623D01*
X108568877Y-74387833D01*
X108723026Y-74323983D01*
X108941026Y-74233684D01*
X109336094Y-74155100D01*
X109738906Y-74155100D01*
X110133974Y-74233684D01*
X110133974Y-74233684D01*
G37*
G36*
X129183974Y-74233684D02*
G01*
X129401974Y-74323983D01*
X129556123Y-74387833D01*
X129891048Y-74611623D01*
X130175877Y-74896452D01*
X130399667Y-75231377D01*
X130432062Y-75309586D01*
X130553816Y-75603526D01*
X130632400Y-75998594D01*
X130632400Y-76401406D01*
X130553816Y-76796474D01*
X130502951Y-76919272D01*
X130399667Y-77168623D01*
X130175877Y-77503548D01*
X129891048Y-77788377D01*
X129556123Y-78012167D01*
X129401974Y-78076017D01*
X129183974Y-78166316D01*
X128788906Y-78244900D01*
X128386094Y-78244900D01*
X127991026Y-78166316D01*
X127773026Y-78076017D01*
X127618877Y-78012167D01*
X127283952Y-77788377D01*
X126999123Y-77503548D01*
X126775333Y-77168623D01*
X126672049Y-76919272D01*
X126621184Y-76796474D01*
X126542600Y-76401406D01*
X126542600Y-75998594D01*
X126621184Y-75603526D01*
X126742938Y-75309586D01*
X126775333Y-75231377D01*
X126999123Y-74896452D01*
X127283952Y-74611623D01*
X127618877Y-74387833D01*
X127773026Y-74323983D01*
X127991026Y-74233684D01*
X128386094Y-74155100D01*
X128788906Y-74155100D01*
X129183974Y-74233684D01*
X129183974Y-74233684D01*
G37*
G36*
X162521474Y-74233684D02*
G01*
X162739474Y-74323983D01*
X162893623Y-74387833D01*
X163228548Y-74611623D01*
X163513377Y-74896452D01*
X163737167Y-75231377D01*
X163769562Y-75309586D01*
X163891316Y-75603526D01*
X163969900Y-75998594D01*
X163969900Y-76401406D01*
X163891316Y-76796474D01*
X163840451Y-76919272D01*
X163737167Y-77168623D01*
X163513377Y-77503548D01*
X163228548Y-77788377D01*
X162893623Y-78012167D01*
X162739474Y-78076017D01*
X162521474Y-78166316D01*
X162126406Y-78244900D01*
X161723594Y-78244900D01*
X161328526Y-78166316D01*
X161110526Y-78076017D01*
X160956377Y-78012167D01*
X160621452Y-77788377D01*
X160336623Y-77503548D01*
X160112833Y-77168623D01*
X160009549Y-76919272D01*
X159958684Y-76796474D01*
X159880100Y-76401406D01*
X159880100Y-75998594D01*
X159958684Y-75603526D01*
X160080438Y-75309586D01*
X160112833Y-75231377D01*
X160336623Y-74896452D01*
X160621452Y-74611623D01*
X160956377Y-74387833D01*
X161110526Y-74323983D01*
X161328526Y-74233684D01*
X161723594Y-74155100D01*
X162126406Y-74155100D01*
X162521474Y-74233684D01*
X162521474Y-74233684D01*
G37*
G36*
X181571474Y-74233684D02*
G01*
X181789474Y-74323983D01*
X181943623Y-74387833D01*
X182278548Y-74611623D01*
X182563377Y-74896452D01*
X182787167Y-75231377D01*
X182819562Y-75309586D01*
X182941316Y-75603526D01*
X183019900Y-75998594D01*
X183019900Y-76401406D01*
X182941316Y-76796474D01*
X182890451Y-76919272D01*
X182787167Y-77168623D01*
X182563377Y-77503548D01*
X182278548Y-77788377D01*
X181943623Y-78012167D01*
X181789474Y-78076017D01*
X181571474Y-78166316D01*
X181176406Y-78244900D01*
X180773594Y-78244900D01*
X180378526Y-78166316D01*
X180160526Y-78076017D01*
X180006377Y-78012167D01*
X179671452Y-77788377D01*
X179386623Y-77503548D01*
X179162833Y-77168623D01*
X179059549Y-76919272D01*
X179008684Y-76796474D01*
X178930100Y-76401406D01*
X178930100Y-75998594D01*
X179008684Y-75603526D01*
X179130438Y-75309586D01*
X179162833Y-75231377D01*
X179386623Y-74896452D01*
X179671452Y-74611623D01*
X180006377Y-74387833D01*
X180160526Y-74323983D01*
X180378526Y-74233684D01*
X180773594Y-74155100D01*
X181176406Y-74155100D01*
X181571474Y-74233684D01*
X181571474Y-74233684D01*
G37*
G36*
X200621474Y-74233684D02*
G01*
X200839474Y-74323983D01*
X200993623Y-74387833D01*
X201328548Y-74611623D01*
X201613377Y-74896452D01*
X201837167Y-75231377D01*
X201869562Y-75309586D01*
X201991316Y-75603526D01*
X202069900Y-75998594D01*
X202069900Y-76401406D01*
X201991316Y-76796474D01*
X201940451Y-76919272D01*
X201837167Y-77168623D01*
X201613377Y-77503548D01*
X201328548Y-77788377D01*
X200993623Y-78012167D01*
X200839474Y-78076017D01*
X200621474Y-78166316D01*
X200226406Y-78244900D01*
X199823594Y-78244900D01*
X199428526Y-78166316D01*
X199210526Y-78076017D01*
X199056377Y-78012167D01*
X198721452Y-77788377D01*
X198436623Y-77503548D01*
X198212833Y-77168623D01*
X198109549Y-76919272D01*
X198058684Y-76796474D01*
X197980100Y-76401406D01*
X197980100Y-75998594D01*
X198058684Y-75603526D01*
X198180438Y-75309586D01*
X198212833Y-75231377D01*
X198436623Y-74896452D01*
X198721452Y-74611623D01*
X199056377Y-74387833D01*
X199210526Y-74323983D01*
X199428526Y-74233684D01*
X199823594Y-74155100D01*
X200226406Y-74155100D01*
X200621474Y-74233684D01*
X200621474Y-74233684D01*
G37*
G36*
X219671474Y-74233684D02*
G01*
X219889474Y-74323983D01*
X220043623Y-74387833D01*
X220378548Y-74611623D01*
X220663377Y-74896452D01*
X220887167Y-75231377D01*
X220919562Y-75309586D01*
X221041316Y-75603526D01*
X221119900Y-75998594D01*
X221119900Y-76401406D01*
X221041316Y-76796474D01*
X220990451Y-76919272D01*
X220887167Y-77168623D01*
X220663377Y-77503548D01*
X220378548Y-77788377D01*
X220043623Y-78012167D01*
X219889474Y-78076017D01*
X219671474Y-78166316D01*
X219276406Y-78244900D01*
X218873594Y-78244900D01*
X218478526Y-78166316D01*
X218260526Y-78076017D01*
X218106377Y-78012167D01*
X217771452Y-77788377D01*
X217486623Y-77503548D01*
X217262833Y-77168623D01*
X217159549Y-76919272D01*
X217108684Y-76796474D01*
X217030100Y-76401406D01*
X217030100Y-75998594D01*
X217108684Y-75603526D01*
X217230438Y-75309586D01*
X217262833Y-75231377D01*
X217486623Y-74896452D01*
X217771452Y-74611623D01*
X218106377Y-74387833D01*
X218260526Y-74323983D01*
X218478526Y-74233684D01*
X218873594Y-74155100D01*
X219276406Y-74155100D01*
X219671474Y-74233684D01*
X219671474Y-74233684D01*
G37*
G36*
X238721474Y-74233684D02*
G01*
X238939474Y-74323983D01*
X239093623Y-74387833D01*
X239428548Y-74611623D01*
X239713377Y-74896452D01*
X239937167Y-75231377D01*
X239969562Y-75309586D01*
X240091316Y-75603526D01*
X240169900Y-75998594D01*
X240169900Y-76401406D01*
X240091316Y-76796474D01*
X240040451Y-76919272D01*
X239937167Y-77168623D01*
X239713377Y-77503548D01*
X239428548Y-77788377D01*
X239093623Y-78012167D01*
X238939474Y-78076017D01*
X238721474Y-78166316D01*
X238326406Y-78244900D01*
X237923594Y-78244900D01*
X237528526Y-78166316D01*
X237310526Y-78076017D01*
X237156377Y-78012167D01*
X236821452Y-77788377D01*
X236536623Y-77503548D01*
X236312833Y-77168623D01*
X236209549Y-76919272D01*
X236158684Y-76796474D01*
X236080100Y-76401406D01*
X236080100Y-75998594D01*
X236158684Y-75603526D01*
X236280438Y-75309586D01*
X236312833Y-75231377D01*
X236536623Y-74896452D01*
X236821452Y-74611623D01*
X237156377Y-74387833D01*
X237310526Y-74323983D01*
X237528526Y-74233684D01*
X237923594Y-74155100D01*
X238326406Y-74155100D01*
X238721474Y-74233684D01*
X238721474Y-74233684D01*
G37*
G36*
X257771474Y-74233684D02*
G01*
X257989474Y-74323983D01*
X258143623Y-74387833D01*
X258478548Y-74611623D01*
X258763377Y-74896452D01*
X258987167Y-75231377D01*
X259019562Y-75309586D01*
X259141316Y-75603526D01*
X259219900Y-75998594D01*
X259219900Y-76401406D01*
X259141316Y-76796474D01*
X259090451Y-76919272D01*
X258987167Y-77168623D01*
X258763377Y-77503548D01*
X258478548Y-77788377D01*
X258143623Y-78012167D01*
X257989474Y-78076017D01*
X257771474Y-78166316D01*
X257376406Y-78244900D01*
X256973594Y-78244900D01*
X256578526Y-78166316D01*
X256360526Y-78076017D01*
X256206377Y-78012167D01*
X255871452Y-77788377D01*
X255586623Y-77503548D01*
X255362833Y-77168623D01*
X255259549Y-76919272D01*
X255208684Y-76796474D01*
X255130100Y-76401406D01*
X255130100Y-75998594D01*
X255208684Y-75603526D01*
X255330438Y-75309586D01*
X255362833Y-75231377D01*
X255586623Y-74896452D01*
X255871452Y-74611623D01*
X256206377Y-74387833D01*
X256360526Y-74323983D01*
X256578526Y-74233684D01*
X256973594Y-74155100D01*
X257376406Y-74155100D01*
X257771474Y-74233684D01*
X257771474Y-74233684D01*
G37*
G36*
X38687604Y-75309585D02*
G01*
X38856126Y-75379389D01*
X39007791Y-75480728D01*
X39136772Y-75609709D01*
X39238111Y-75761374D01*
X39307915Y-75929896D01*
X39343500Y-76108797D01*
X39343500Y-76291203D01*
X39307915Y-76470104D01*
X39238111Y-76638626D01*
X39136772Y-76790291D01*
X39007791Y-76919272D01*
X38856126Y-77020611D01*
X38687604Y-77090415D01*
X38508703Y-77126000D01*
X38326297Y-77126000D01*
X38147396Y-77090415D01*
X37978874Y-77020611D01*
X37827209Y-76919272D01*
X37698228Y-76790291D01*
X37596889Y-76638626D01*
X37527085Y-76470104D01*
X37491500Y-76291203D01*
X37491500Y-76108797D01*
X37527085Y-75929896D01*
X37596889Y-75761374D01*
X37698228Y-75609709D01*
X37827209Y-75480728D01*
X37978874Y-75379389D01*
X38147396Y-75309585D01*
X38326297Y-75274000D01*
X38508703Y-75274000D01*
X38687604Y-75309585D01*
X38687604Y-75309585D01*
G37*
G36*
X205375104Y-75309585D02*
G01*
X205543626Y-75379389D01*
X205695291Y-75480728D01*
X205824272Y-75609709D01*
X205925611Y-75761374D01*
X205995415Y-75929896D01*
X206031000Y-76108797D01*
X206031000Y-76291203D01*
X205995415Y-76470104D01*
X205925611Y-76638626D01*
X205824272Y-76790291D01*
X205695291Y-76919272D01*
X205543626Y-77020611D01*
X205375104Y-77090415D01*
X205196203Y-77126000D01*
X205013797Y-77126000D01*
X204834896Y-77090415D01*
X204666374Y-77020611D01*
X204514709Y-76919272D01*
X204385728Y-76790291D01*
X204284389Y-76638626D01*
X204214585Y-76470104D01*
X204179000Y-76291203D01*
X204179000Y-76108797D01*
X204214585Y-75929896D01*
X204284389Y-75761374D01*
X204385728Y-75609709D01*
X204514709Y-75480728D01*
X204666374Y-75379389D01*
X204834896Y-75309585D01*
X205013797Y-75274000D01*
X205196203Y-75274000D01*
X205375104Y-75309585D01*
X205375104Y-75309585D01*
G37*
G36*
X262525104Y-75309585D02*
G01*
X262693626Y-75379389D01*
X262845291Y-75480728D01*
X262974272Y-75609709D01*
X263075611Y-75761374D01*
X263145415Y-75929896D01*
X263181000Y-76108797D01*
X263181000Y-76291203D01*
X263145415Y-76470104D01*
X263075611Y-76638626D01*
X262974272Y-76790291D01*
X262845291Y-76919272D01*
X262693626Y-77020611D01*
X262525104Y-77090415D01*
X262346203Y-77126000D01*
X262163797Y-77126000D01*
X261984896Y-77090415D01*
X261816374Y-77020611D01*
X261664709Y-76919272D01*
X261535728Y-76790291D01*
X261434389Y-76638626D01*
X261364585Y-76470104D01*
X261329000Y-76291203D01*
X261329000Y-76108797D01*
X261364585Y-75929896D01*
X261434389Y-75761374D01*
X261535728Y-75609709D01*
X261664709Y-75480728D01*
X261816374Y-75379389D01*
X261984896Y-75309585D01*
X262163797Y-75274000D01*
X262346203Y-75274000D01*
X262525104Y-75309585D01*
X262525104Y-75309585D01*
G37*
G36*
X28527604Y-75309585D02*
G01*
X28696126Y-75379389D01*
X28847791Y-75480728D01*
X28976772Y-75609709D01*
X29078111Y-75761374D01*
X29147915Y-75929896D01*
X29183500Y-76108797D01*
X29183500Y-76291203D01*
X29147915Y-76470104D01*
X29078111Y-76638626D01*
X28976772Y-76790291D01*
X28847791Y-76919272D01*
X28696126Y-77020611D01*
X28527604Y-77090415D01*
X28348703Y-77126000D01*
X28166297Y-77126000D01*
X27987396Y-77090415D01*
X27818874Y-77020611D01*
X27667209Y-76919272D01*
X27538228Y-76790291D01*
X27436889Y-76638626D01*
X27367085Y-76470104D01*
X27331500Y-76291203D01*
X27331500Y-76108797D01*
X27367085Y-75929896D01*
X27436889Y-75761374D01*
X27538228Y-75609709D01*
X27667209Y-75480728D01*
X27818874Y-75379389D01*
X27987396Y-75309585D01*
X28166297Y-75274000D01*
X28348703Y-75274000D01*
X28527604Y-75309585D01*
X28527604Y-75309585D01*
G37*
G36*
X47577604Y-75309585D02*
G01*
X47746126Y-75379389D01*
X47897791Y-75480728D01*
X48026772Y-75609709D01*
X48128111Y-75761374D01*
X48197915Y-75929896D01*
X48233500Y-76108797D01*
X48233500Y-76291203D01*
X48197915Y-76470104D01*
X48128111Y-76638626D01*
X48026772Y-76790291D01*
X47897791Y-76919272D01*
X47746126Y-77020611D01*
X47577604Y-77090415D01*
X47398703Y-77126000D01*
X47216297Y-77126000D01*
X47037396Y-77090415D01*
X46868874Y-77020611D01*
X46717209Y-76919272D01*
X46588228Y-76790291D01*
X46486889Y-76638626D01*
X46417085Y-76470104D01*
X46381500Y-76291203D01*
X46381500Y-76108797D01*
X46417085Y-75929896D01*
X46486889Y-75761374D01*
X46588228Y-75609709D01*
X46717209Y-75480728D01*
X46868874Y-75379389D01*
X47037396Y-75309585D01*
X47216297Y-75274000D01*
X47398703Y-75274000D01*
X47577604Y-75309585D01*
X47577604Y-75309585D01*
G37*
G36*
X57737604Y-75309585D02*
G01*
X57906126Y-75379389D01*
X58057791Y-75480728D01*
X58186772Y-75609709D01*
X58288111Y-75761374D01*
X58357915Y-75929896D01*
X58393500Y-76108797D01*
X58393500Y-76291203D01*
X58357915Y-76470104D01*
X58288111Y-76638626D01*
X58186772Y-76790291D01*
X58057791Y-76919272D01*
X57906126Y-77020611D01*
X57737604Y-77090415D01*
X57558703Y-77126000D01*
X57376297Y-77126000D01*
X57197396Y-77090415D01*
X57028874Y-77020611D01*
X56877209Y-76919272D01*
X56748228Y-76790291D01*
X56646889Y-76638626D01*
X56577085Y-76470104D01*
X56541500Y-76291203D01*
X56541500Y-76108797D01*
X56577085Y-75929896D01*
X56646889Y-75761374D01*
X56748228Y-75609709D01*
X56877209Y-75480728D01*
X57028874Y-75379389D01*
X57197396Y-75309585D01*
X57376297Y-75274000D01*
X57558703Y-75274000D01*
X57737604Y-75309585D01*
X57737604Y-75309585D01*
G37*
G36*
X252365104Y-75309585D02*
G01*
X252533626Y-75379389D01*
X252685291Y-75480728D01*
X252814272Y-75609709D01*
X252915611Y-75761374D01*
X252985415Y-75929896D01*
X253021000Y-76108797D01*
X253021000Y-76291203D01*
X252985415Y-76470104D01*
X252915611Y-76638626D01*
X252814272Y-76790291D01*
X252685291Y-76919272D01*
X252533626Y-77020611D01*
X252365104Y-77090415D01*
X252186203Y-77126000D01*
X252003797Y-77126000D01*
X251824896Y-77090415D01*
X251656374Y-77020611D01*
X251504709Y-76919272D01*
X251375728Y-76790291D01*
X251274389Y-76638626D01*
X251204585Y-76470104D01*
X251169000Y-76291203D01*
X251169000Y-76108797D01*
X251204585Y-75929896D01*
X251274389Y-75761374D01*
X251375728Y-75609709D01*
X251504709Y-75480728D01*
X251656374Y-75379389D01*
X251824896Y-75309585D01*
X252003797Y-75274000D01*
X252186203Y-75274000D01*
X252365104Y-75309585D01*
X252365104Y-75309585D01*
G37*
G36*
X66627604Y-75309585D02*
G01*
X66796126Y-75379389D01*
X66947791Y-75480728D01*
X67076772Y-75609709D01*
X67178111Y-75761374D01*
X67247915Y-75929896D01*
X67283500Y-76108797D01*
X67283500Y-76291203D01*
X67247915Y-76470104D01*
X67178111Y-76638626D01*
X67076772Y-76790291D01*
X66947791Y-76919272D01*
X66796126Y-77020611D01*
X66627604Y-77090415D01*
X66448703Y-77126000D01*
X66266297Y-77126000D01*
X66087396Y-77090415D01*
X65918874Y-77020611D01*
X65767209Y-76919272D01*
X65638228Y-76790291D01*
X65536889Y-76638626D01*
X65467085Y-76470104D01*
X65431500Y-76291203D01*
X65431500Y-76108797D01*
X65467085Y-75929896D01*
X65536889Y-75761374D01*
X65638228Y-75609709D01*
X65767209Y-75480728D01*
X65918874Y-75379389D01*
X66087396Y-75309585D01*
X66266297Y-75274000D01*
X66448703Y-75274000D01*
X66627604Y-75309585D01*
X66627604Y-75309585D01*
G37*
G36*
X76787604Y-75309585D02*
G01*
X76956126Y-75379389D01*
X77107791Y-75480728D01*
X77236772Y-75609709D01*
X77338111Y-75761374D01*
X77407915Y-75929896D01*
X77443500Y-76108797D01*
X77443500Y-76291203D01*
X77407915Y-76470104D01*
X77338111Y-76638626D01*
X77236772Y-76790291D01*
X77107791Y-76919272D01*
X76956126Y-77020611D01*
X76787604Y-77090415D01*
X76608703Y-77126000D01*
X76426297Y-77126000D01*
X76247396Y-77090415D01*
X76078874Y-77020611D01*
X75927209Y-76919272D01*
X75798228Y-76790291D01*
X75696889Y-76638626D01*
X75627085Y-76470104D01*
X75591500Y-76291203D01*
X75591500Y-76108797D01*
X75627085Y-75929896D01*
X75696889Y-75761374D01*
X75798228Y-75609709D01*
X75927209Y-75480728D01*
X76078874Y-75379389D01*
X76247396Y-75309585D01*
X76426297Y-75274000D01*
X76608703Y-75274000D01*
X76787604Y-75309585D01*
X76787604Y-75309585D01*
G37*
G36*
X243475104Y-75309585D02*
G01*
X243643626Y-75379389D01*
X243795291Y-75480728D01*
X243924272Y-75609709D01*
X244025611Y-75761374D01*
X244095415Y-75929896D01*
X244131000Y-76108797D01*
X244131000Y-76291203D01*
X244095415Y-76470104D01*
X244025611Y-76638626D01*
X243924272Y-76790291D01*
X243795291Y-76919272D01*
X243643626Y-77020611D01*
X243475104Y-77090415D01*
X243296203Y-77126000D01*
X243113797Y-77126000D01*
X242934896Y-77090415D01*
X242766374Y-77020611D01*
X242614709Y-76919272D01*
X242485728Y-76790291D01*
X242384389Y-76638626D01*
X242314585Y-76470104D01*
X242279000Y-76291203D01*
X242279000Y-76108797D01*
X242314585Y-75929896D01*
X242384389Y-75761374D01*
X242485728Y-75609709D01*
X242614709Y-75480728D01*
X242766374Y-75379389D01*
X242934896Y-75309585D01*
X243113797Y-75274000D01*
X243296203Y-75274000D01*
X243475104Y-75309585D01*
X243475104Y-75309585D01*
G37*
G36*
X85677604Y-75309585D02*
G01*
X85846126Y-75379389D01*
X85997791Y-75480728D01*
X86126772Y-75609709D01*
X86228111Y-75761374D01*
X86297915Y-75929896D01*
X86333500Y-76108797D01*
X86333500Y-76291203D01*
X86297915Y-76470104D01*
X86228111Y-76638626D01*
X86126772Y-76790291D01*
X85997791Y-76919272D01*
X85846126Y-77020611D01*
X85677604Y-77090415D01*
X85498703Y-77126000D01*
X85316297Y-77126000D01*
X85137396Y-77090415D01*
X84968874Y-77020611D01*
X84817209Y-76919272D01*
X84688228Y-76790291D01*
X84586889Y-76638626D01*
X84517085Y-76470104D01*
X84481500Y-76291203D01*
X84481500Y-76108797D01*
X84517085Y-75929896D01*
X84586889Y-75761374D01*
X84688228Y-75609709D01*
X84817209Y-75480728D01*
X84968874Y-75379389D01*
X85137396Y-75309585D01*
X85316297Y-75274000D01*
X85498703Y-75274000D01*
X85677604Y-75309585D01*
X85677604Y-75309585D01*
G37*
G36*
X95837604Y-75309585D02*
G01*
X96006126Y-75379389D01*
X96157791Y-75480728D01*
X96286772Y-75609709D01*
X96388111Y-75761374D01*
X96457915Y-75929896D01*
X96493500Y-76108797D01*
X96493500Y-76291203D01*
X96457915Y-76470104D01*
X96388111Y-76638626D01*
X96286772Y-76790291D01*
X96157791Y-76919272D01*
X96006126Y-77020611D01*
X95837604Y-77090415D01*
X95658703Y-77126000D01*
X95476297Y-77126000D01*
X95297396Y-77090415D01*
X95128874Y-77020611D01*
X94977209Y-76919272D01*
X94848228Y-76790291D01*
X94746889Y-76638626D01*
X94677085Y-76470104D01*
X94641500Y-76291203D01*
X94641500Y-76108797D01*
X94677085Y-75929896D01*
X94746889Y-75761374D01*
X94848228Y-75609709D01*
X94977209Y-75480728D01*
X95128874Y-75379389D01*
X95297396Y-75309585D01*
X95476297Y-75274000D01*
X95658703Y-75274000D01*
X95837604Y-75309585D01*
X95837604Y-75309585D01*
G37*
G36*
X233315104Y-75309585D02*
G01*
X233483626Y-75379389D01*
X233635291Y-75480728D01*
X233764272Y-75609709D01*
X233865611Y-75761374D01*
X233935415Y-75929896D01*
X233971000Y-76108797D01*
X233971000Y-76291203D01*
X233935415Y-76470104D01*
X233865611Y-76638626D01*
X233764272Y-76790291D01*
X233635291Y-76919272D01*
X233483626Y-77020611D01*
X233315104Y-77090415D01*
X233136203Y-77126000D01*
X232953797Y-77126000D01*
X232774896Y-77090415D01*
X232606374Y-77020611D01*
X232454709Y-76919272D01*
X232325728Y-76790291D01*
X232224389Y-76638626D01*
X232154585Y-76470104D01*
X232119000Y-76291203D01*
X232119000Y-76108797D01*
X232154585Y-75929896D01*
X232224389Y-75761374D01*
X232325728Y-75609709D01*
X232454709Y-75480728D01*
X232606374Y-75379389D01*
X232774896Y-75309585D01*
X232953797Y-75274000D01*
X233136203Y-75274000D01*
X233315104Y-75309585D01*
X233315104Y-75309585D01*
G37*
G36*
X104727604Y-75309585D02*
G01*
X104896126Y-75379389D01*
X105047791Y-75480728D01*
X105176772Y-75609709D01*
X105278111Y-75761374D01*
X105347915Y-75929896D01*
X105383500Y-76108797D01*
X105383500Y-76291203D01*
X105347915Y-76470104D01*
X105278111Y-76638626D01*
X105176772Y-76790291D01*
X105047791Y-76919272D01*
X104896126Y-77020611D01*
X104727604Y-77090415D01*
X104548703Y-77126000D01*
X104366297Y-77126000D01*
X104187396Y-77090415D01*
X104018874Y-77020611D01*
X103867209Y-76919272D01*
X103738228Y-76790291D01*
X103636889Y-76638626D01*
X103567085Y-76470104D01*
X103531500Y-76291203D01*
X103531500Y-76108797D01*
X103567085Y-75929896D01*
X103636889Y-75761374D01*
X103738228Y-75609709D01*
X103867209Y-75480728D01*
X104018874Y-75379389D01*
X104187396Y-75309585D01*
X104366297Y-75274000D01*
X104548703Y-75274000D01*
X104727604Y-75309585D01*
X104727604Y-75309585D01*
G37*
G36*
X114887604Y-75309585D02*
G01*
X115056126Y-75379389D01*
X115207791Y-75480728D01*
X115336772Y-75609709D01*
X115438111Y-75761374D01*
X115507915Y-75929896D01*
X115543500Y-76108797D01*
X115543500Y-76291203D01*
X115507915Y-76470104D01*
X115438111Y-76638626D01*
X115336772Y-76790291D01*
X115207791Y-76919272D01*
X115056126Y-77020611D01*
X114887604Y-77090415D01*
X114708703Y-77126000D01*
X114526297Y-77126000D01*
X114347396Y-77090415D01*
X114178874Y-77020611D01*
X114027209Y-76919272D01*
X113898228Y-76790291D01*
X113796889Y-76638626D01*
X113727085Y-76470104D01*
X113691500Y-76291203D01*
X113691500Y-76108797D01*
X113727085Y-75929896D01*
X113796889Y-75761374D01*
X113898228Y-75609709D01*
X114027209Y-75480728D01*
X114178874Y-75379389D01*
X114347396Y-75309585D01*
X114526297Y-75274000D01*
X114708703Y-75274000D01*
X114887604Y-75309585D01*
X114887604Y-75309585D01*
G37*
G36*
X224425104Y-75309585D02*
G01*
X224593626Y-75379389D01*
X224745291Y-75480728D01*
X224874272Y-75609709D01*
X224975611Y-75761374D01*
X225045415Y-75929896D01*
X225081000Y-76108797D01*
X225081000Y-76291203D01*
X225045415Y-76470104D01*
X224975611Y-76638626D01*
X224874272Y-76790291D01*
X224745291Y-76919272D01*
X224593626Y-77020611D01*
X224425104Y-77090415D01*
X224246203Y-77126000D01*
X224063797Y-77126000D01*
X223884896Y-77090415D01*
X223716374Y-77020611D01*
X223564709Y-76919272D01*
X223435728Y-76790291D01*
X223334389Y-76638626D01*
X223264585Y-76470104D01*
X223229000Y-76291203D01*
X223229000Y-76108797D01*
X223264585Y-75929896D01*
X223334389Y-75761374D01*
X223435728Y-75609709D01*
X223564709Y-75480728D01*
X223716374Y-75379389D01*
X223884896Y-75309585D01*
X224063797Y-75274000D01*
X224246203Y-75274000D01*
X224425104Y-75309585D01*
X224425104Y-75309585D01*
G37*
G36*
X123777604Y-75309585D02*
G01*
X123946126Y-75379389D01*
X124097791Y-75480728D01*
X124226772Y-75609709D01*
X124328111Y-75761374D01*
X124397915Y-75929896D01*
X124433500Y-76108797D01*
X124433500Y-76291203D01*
X124397915Y-76470104D01*
X124328111Y-76638626D01*
X124226772Y-76790291D01*
X124097791Y-76919272D01*
X123946126Y-77020611D01*
X123777604Y-77090415D01*
X123598703Y-77126000D01*
X123416297Y-77126000D01*
X123237396Y-77090415D01*
X123068874Y-77020611D01*
X122917209Y-76919272D01*
X122788228Y-76790291D01*
X122686889Y-76638626D01*
X122617085Y-76470104D01*
X122581500Y-76291203D01*
X122581500Y-76108797D01*
X122617085Y-75929896D01*
X122686889Y-75761374D01*
X122788228Y-75609709D01*
X122917209Y-75480728D01*
X123068874Y-75379389D01*
X123237396Y-75309585D01*
X123416297Y-75274000D01*
X123598703Y-75274000D01*
X123777604Y-75309585D01*
X123777604Y-75309585D01*
G37*
G36*
X133937604Y-75309585D02*
G01*
X134106126Y-75379389D01*
X134257791Y-75480728D01*
X134386772Y-75609709D01*
X134488111Y-75761374D01*
X134557915Y-75929896D01*
X134593500Y-76108797D01*
X134593500Y-76291203D01*
X134557915Y-76470104D01*
X134488111Y-76638626D01*
X134386772Y-76790291D01*
X134257791Y-76919272D01*
X134106126Y-77020611D01*
X133937604Y-77090415D01*
X133758703Y-77126000D01*
X133576297Y-77126000D01*
X133397396Y-77090415D01*
X133228874Y-77020611D01*
X133077209Y-76919272D01*
X132948228Y-76790291D01*
X132846889Y-76638626D01*
X132777085Y-76470104D01*
X132741500Y-76291203D01*
X132741500Y-76108797D01*
X132777085Y-75929896D01*
X132846889Y-75761374D01*
X132948228Y-75609709D01*
X133077209Y-75480728D01*
X133228874Y-75379389D01*
X133397396Y-75309585D01*
X133576297Y-75274000D01*
X133758703Y-75274000D01*
X133937604Y-75309585D01*
X133937604Y-75309585D01*
G37*
G36*
X214265104Y-75309585D02*
G01*
X214433626Y-75379389D01*
X214585291Y-75480728D01*
X214714272Y-75609709D01*
X214815611Y-75761374D01*
X214885415Y-75929896D01*
X214921000Y-76108797D01*
X214921000Y-76291203D01*
X214885415Y-76470104D01*
X214815611Y-76638626D01*
X214714272Y-76790291D01*
X214585291Y-76919272D01*
X214433626Y-77020611D01*
X214265104Y-77090415D01*
X214086203Y-77126000D01*
X213903797Y-77126000D01*
X213724896Y-77090415D01*
X213556374Y-77020611D01*
X213404709Y-76919272D01*
X213275728Y-76790291D01*
X213174389Y-76638626D01*
X213104585Y-76470104D01*
X213069000Y-76291203D01*
X213069000Y-76108797D01*
X213104585Y-75929896D01*
X213174389Y-75761374D01*
X213275728Y-75609709D01*
X213404709Y-75480728D01*
X213556374Y-75379389D01*
X213724896Y-75309585D01*
X213903797Y-75274000D01*
X214086203Y-75274000D01*
X214265104Y-75309585D01*
X214265104Y-75309585D01*
G37*
G36*
X157115104Y-75309585D02*
G01*
X157283626Y-75379389D01*
X157435291Y-75480728D01*
X157564272Y-75609709D01*
X157665611Y-75761374D01*
X157735415Y-75929896D01*
X157771000Y-76108797D01*
X157771000Y-76291203D01*
X157735415Y-76470104D01*
X157665611Y-76638626D01*
X157564272Y-76790291D01*
X157435291Y-76919272D01*
X157283626Y-77020611D01*
X157115104Y-77090415D01*
X156936203Y-77126000D01*
X156753797Y-77126000D01*
X156574896Y-77090415D01*
X156406374Y-77020611D01*
X156254709Y-76919272D01*
X156125728Y-76790291D01*
X156024389Y-76638626D01*
X155954585Y-76470104D01*
X155919000Y-76291203D01*
X155919000Y-76108797D01*
X155954585Y-75929896D01*
X156024389Y-75761374D01*
X156125728Y-75609709D01*
X156254709Y-75480728D01*
X156406374Y-75379389D01*
X156574896Y-75309585D01*
X156753797Y-75274000D01*
X156936203Y-75274000D01*
X157115104Y-75309585D01*
X157115104Y-75309585D01*
G37*
G36*
X167275104Y-75309585D02*
G01*
X167443626Y-75379389D01*
X167595291Y-75480728D01*
X167724272Y-75609709D01*
X167825611Y-75761374D01*
X167895415Y-75929896D01*
X167931000Y-76108797D01*
X167931000Y-76291203D01*
X167895415Y-76470104D01*
X167825611Y-76638626D01*
X167724272Y-76790291D01*
X167595291Y-76919272D01*
X167443626Y-77020611D01*
X167275104Y-77090415D01*
X167096203Y-77126000D01*
X166913797Y-77126000D01*
X166734896Y-77090415D01*
X166566374Y-77020611D01*
X166414709Y-76919272D01*
X166285728Y-76790291D01*
X166184389Y-76638626D01*
X166114585Y-76470104D01*
X166079000Y-76291203D01*
X166079000Y-76108797D01*
X166114585Y-75929896D01*
X166184389Y-75761374D01*
X166285728Y-75609709D01*
X166414709Y-75480728D01*
X166566374Y-75379389D01*
X166734896Y-75309585D01*
X166913797Y-75274000D01*
X167096203Y-75274000D01*
X167275104Y-75309585D01*
X167275104Y-75309585D01*
G37*
G36*
X176165104Y-75309585D02*
G01*
X176333626Y-75379389D01*
X176485291Y-75480728D01*
X176614272Y-75609709D01*
X176715611Y-75761374D01*
X176785415Y-75929896D01*
X176821000Y-76108797D01*
X176821000Y-76291203D01*
X176785415Y-76470104D01*
X176715611Y-76638626D01*
X176614272Y-76790291D01*
X176485291Y-76919272D01*
X176333626Y-77020611D01*
X176165104Y-77090415D01*
X175986203Y-77126000D01*
X175803797Y-77126000D01*
X175624896Y-77090415D01*
X175456374Y-77020611D01*
X175304709Y-76919272D01*
X175175728Y-76790291D01*
X175074389Y-76638626D01*
X175004585Y-76470104D01*
X174969000Y-76291203D01*
X174969000Y-76108797D01*
X175004585Y-75929896D01*
X175074389Y-75761374D01*
X175175728Y-75609709D01*
X175304709Y-75480728D01*
X175456374Y-75379389D01*
X175624896Y-75309585D01*
X175803797Y-75274000D01*
X175986203Y-75274000D01*
X176165104Y-75309585D01*
X176165104Y-75309585D01*
G37*
G36*
X186325104Y-75309585D02*
G01*
X186493626Y-75379389D01*
X186645291Y-75480728D01*
X186774272Y-75609709D01*
X186875611Y-75761374D01*
X186945415Y-75929896D01*
X186981000Y-76108797D01*
X186981000Y-76291203D01*
X186945415Y-76470104D01*
X186875611Y-76638626D01*
X186774272Y-76790291D01*
X186645291Y-76919272D01*
X186493626Y-77020611D01*
X186325104Y-77090415D01*
X186146203Y-77126000D01*
X185963797Y-77126000D01*
X185784896Y-77090415D01*
X185616374Y-77020611D01*
X185464709Y-76919272D01*
X185335728Y-76790291D01*
X185234389Y-76638626D01*
X185164585Y-76470104D01*
X185129000Y-76291203D01*
X185129000Y-76108797D01*
X185164585Y-75929896D01*
X185234389Y-75761374D01*
X185335728Y-75609709D01*
X185464709Y-75480728D01*
X185616374Y-75379389D01*
X185784896Y-75309585D01*
X185963797Y-75274000D01*
X186146203Y-75274000D01*
X186325104Y-75309585D01*
X186325104Y-75309585D01*
G37*
G36*
X195215104Y-75309585D02*
G01*
X195383626Y-75379389D01*
X195535291Y-75480728D01*
X195664272Y-75609709D01*
X195765611Y-75761374D01*
X195835415Y-75929896D01*
X195871000Y-76108797D01*
X195871000Y-76291203D01*
X195835415Y-76470104D01*
X195765611Y-76638626D01*
X195664272Y-76790291D01*
X195535291Y-76919272D01*
X195383626Y-77020611D01*
X195215104Y-77090415D01*
X195036203Y-77126000D01*
X194853797Y-77126000D01*
X194674896Y-77090415D01*
X194506374Y-77020611D01*
X194354709Y-76919272D01*
X194225728Y-76790291D01*
X194124389Y-76638626D01*
X194054585Y-76470104D01*
X194019000Y-76291203D01*
X194019000Y-76108797D01*
X194054585Y-75929896D01*
X194124389Y-75761374D01*
X194225728Y-75609709D01*
X194354709Y-75480728D01*
X194506374Y-75379389D01*
X194674896Y-75309585D01*
X194853797Y-75274000D01*
X195036203Y-75274000D01*
X195215104Y-75309585D01*
X195215104Y-75309585D01*
G37*
G36*
X33933974Y-55183684D02*
G01*
X34151974Y-55273983D01*
X34306123Y-55337833D01*
X34641048Y-55561623D01*
X34925877Y-55846452D01*
X35149667Y-56181377D01*
X35182062Y-56259586D01*
X35303816Y-56553526D01*
X35382400Y-56948594D01*
X35382400Y-57351406D01*
X35303816Y-57746474D01*
X35252951Y-57869272D01*
X35149667Y-58118623D01*
X34925877Y-58453548D01*
X34641048Y-58738377D01*
X34306123Y-58962167D01*
X34151974Y-59026017D01*
X33933974Y-59116316D01*
X33538906Y-59194900D01*
X33136094Y-59194900D01*
X32741026Y-59116316D01*
X32523026Y-59026017D01*
X32368877Y-58962167D01*
X32033952Y-58738377D01*
X31749123Y-58453548D01*
X31525333Y-58118623D01*
X31422049Y-57869272D01*
X31371184Y-57746474D01*
X31292600Y-57351406D01*
X31292600Y-56948594D01*
X31371184Y-56553526D01*
X31492938Y-56259586D01*
X31525333Y-56181377D01*
X31749123Y-55846452D01*
X32033952Y-55561623D01*
X32368877Y-55337833D01*
X32523026Y-55273983D01*
X32741026Y-55183684D01*
X33136094Y-55105100D01*
X33538906Y-55105100D01*
X33933974Y-55183684D01*
X33933974Y-55183684D01*
G37*
G36*
X110133974Y-55183684D02*
G01*
X110351974Y-55273983D01*
X110506123Y-55337833D01*
X110841048Y-55561623D01*
X111125877Y-55846452D01*
X111349667Y-56181377D01*
X111382062Y-56259586D01*
X111503816Y-56553526D01*
X111582400Y-56948594D01*
X111582400Y-57351406D01*
X111503816Y-57746474D01*
X111452951Y-57869272D01*
X111349667Y-58118623D01*
X111125877Y-58453548D01*
X110841048Y-58738377D01*
X110506123Y-58962167D01*
X110351974Y-59026017D01*
X110133974Y-59116316D01*
X109738906Y-59194900D01*
X109336094Y-59194900D01*
X108941026Y-59116316D01*
X108723026Y-59026017D01*
X108568877Y-58962167D01*
X108233952Y-58738377D01*
X107949123Y-58453548D01*
X107725333Y-58118623D01*
X107622049Y-57869272D01*
X107571184Y-57746474D01*
X107492600Y-57351406D01*
X107492600Y-56948594D01*
X107571184Y-56553526D01*
X107692938Y-56259586D01*
X107725333Y-56181377D01*
X107949123Y-55846452D01*
X108233952Y-55561623D01*
X108568877Y-55337833D01*
X108723026Y-55273983D01*
X108941026Y-55183684D01*
X109336094Y-55105100D01*
X109738906Y-55105100D01*
X110133974Y-55183684D01*
X110133974Y-55183684D01*
G37*
G36*
X52983974Y-55183684D02*
G01*
X53201974Y-55273983D01*
X53356123Y-55337833D01*
X53691048Y-55561623D01*
X53975877Y-55846452D01*
X54199667Y-56181377D01*
X54232062Y-56259586D01*
X54353816Y-56553526D01*
X54432400Y-56948594D01*
X54432400Y-57351406D01*
X54353816Y-57746474D01*
X54302951Y-57869272D01*
X54199667Y-58118623D01*
X53975877Y-58453548D01*
X53691048Y-58738377D01*
X53356123Y-58962167D01*
X53201974Y-59026017D01*
X52983974Y-59116316D01*
X52588906Y-59194900D01*
X52186094Y-59194900D01*
X51791026Y-59116316D01*
X51573026Y-59026017D01*
X51418877Y-58962167D01*
X51083952Y-58738377D01*
X50799123Y-58453548D01*
X50575333Y-58118623D01*
X50472049Y-57869272D01*
X50421184Y-57746474D01*
X50342600Y-57351406D01*
X50342600Y-56948594D01*
X50421184Y-56553526D01*
X50542938Y-56259586D01*
X50575333Y-56181377D01*
X50799123Y-55846452D01*
X51083952Y-55561623D01*
X51418877Y-55337833D01*
X51573026Y-55273983D01*
X51791026Y-55183684D01*
X52186094Y-55105100D01*
X52588906Y-55105100D01*
X52983974Y-55183684D01*
X52983974Y-55183684D01*
G37*
G36*
X72033974Y-55183684D02*
G01*
X72251974Y-55273983D01*
X72406123Y-55337833D01*
X72741048Y-55561623D01*
X73025877Y-55846452D01*
X73249667Y-56181377D01*
X73282062Y-56259586D01*
X73403816Y-56553526D01*
X73482400Y-56948594D01*
X73482400Y-57351406D01*
X73403816Y-57746474D01*
X73352951Y-57869272D01*
X73249667Y-58118623D01*
X73025877Y-58453548D01*
X72741048Y-58738377D01*
X72406123Y-58962167D01*
X72251974Y-59026017D01*
X72033974Y-59116316D01*
X71638906Y-59194900D01*
X71236094Y-59194900D01*
X70841026Y-59116316D01*
X70623026Y-59026017D01*
X70468877Y-58962167D01*
X70133952Y-58738377D01*
X69849123Y-58453548D01*
X69625333Y-58118623D01*
X69522049Y-57869272D01*
X69471184Y-57746474D01*
X69392600Y-57351406D01*
X69392600Y-56948594D01*
X69471184Y-56553526D01*
X69592938Y-56259586D01*
X69625333Y-56181377D01*
X69849123Y-55846452D01*
X70133952Y-55561623D01*
X70468877Y-55337833D01*
X70623026Y-55273983D01*
X70841026Y-55183684D01*
X71236094Y-55105100D01*
X71638906Y-55105100D01*
X72033974Y-55183684D01*
X72033974Y-55183684D01*
G37*
G36*
X91083974Y-55183684D02*
G01*
X91301974Y-55273983D01*
X91456123Y-55337833D01*
X91791048Y-55561623D01*
X92075877Y-55846452D01*
X92299667Y-56181377D01*
X92332062Y-56259586D01*
X92453816Y-56553526D01*
X92532400Y-56948594D01*
X92532400Y-57351406D01*
X92453816Y-57746474D01*
X92402951Y-57869272D01*
X92299667Y-58118623D01*
X92075877Y-58453548D01*
X91791048Y-58738377D01*
X91456123Y-58962167D01*
X91301974Y-59026017D01*
X91083974Y-59116316D01*
X90688906Y-59194900D01*
X90286094Y-59194900D01*
X89891026Y-59116316D01*
X89673026Y-59026017D01*
X89518877Y-58962167D01*
X89183952Y-58738377D01*
X88899123Y-58453548D01*
X88675333Y-58118623D01*
X88572049Y-57869272D01*
X88521184Y-57746474D01*
X88442600Y-57351406D01*
X88442600Y-56948594D01*
X88521184Y-56553526D01*
X88642938Y-56259586D01*
X88675333Y-56181377D01*
X88899123Y-55846452D01*
X89183952Y-55561623D01*
X89518877Y-55337833D01*
X89673026Y-55273983D01*
X89891026Y-55183684D01*
X90286094Y-55105100D01*
X90688906Y-55105100D01*
X91083974Y-55183684D01*
X91083974Y-55183684D01*
G37*
G36*
X162521474Y-55183684D02*
G01*
X162739474Y-55273983D01*
X162893623Y-55337833D01*
X163228548Y-55561623D01*
X163513377Y-55846452D01*
X163737167Y-56181377D01*
X163769562Y-56259586D01*
X163891316Y-56553526D01*
X163969900Y-56948594D01*
X163969900Y-57351406D01*
X163891316Y-57746474D01*
X163840451Y-57869272D01*
X163737167Y-58118623D01*
X163513377Y-58453548D01*
X163228548Y-58738377D01*
X162893623Y-58962167D01*
X162739474Y-59026017D01*
X162521474Y-59116316D01*
X162126406Y-59194900D01*
X161723594Y-59194900D01*
X161328526Y-59116316D01*
X161110526Y-59026017D01*
X160956377Y-58962167D01*
X160621452Y-58738377D01*
X160336623Y-58453548D01*
X160112833Y-58118623D01*
X160009549Y-57869272D01*
X159958684Y-57746474D01*
X159880100Y-57351406D01*
X159880100Y-56948594D01*
X159958684Y-56553526D01*
X160080438Y-56259586D01*
X160112833Y-56181377D01*
X160336623Y-55846452D01*
X160621452Y-55561623D01*
X160956377Y-55337833D01*
X161110526Y-55273983D01*
X161328526Y-55183684D01*
X161723594Y-55105100D01*
X162126406Y-55105100D01*
X162521474Y-55183684D01*
X162521474Y-55183684D01*
G37*
G36*
X257771474Y-55183684D02*
G01*
X257989474Y-55273983D01*
X258143623Y-55337833D01*
X258478548Y-55561623D01*
X258763377Y-55846452D01*
X258987167Y-56181377D01*
X259019562Y-56259586D01*
X259141316Y-56553526D01*
X259219900Y-56948594D01*
X259219900Y-57351406D01*
X259141316Y-57746474D01*
X259090451Y-57869272D01*
X258987167Y-58118623D01*
X258763377Y-58453548D01*
X258478548Y-58738377D01*
X258143623Y-58962167D01*
X257989474Y-59026017D01*
X257771474Y-59116316D01*
X257376406Y-59194900D01*
X256973594Y-59194900D01*
X256578526Y-59116316D01*
X256360526Y-59026017D01*
X256206377Y-58962167D01*
X255871452Y-58738377D01*
X255586623Y-58453548D01*
X255362833Y-58118623D01*
X255259549Y-57869272D01*
X255208684Y-57746474D01*
X255130100Y-57351406D01*
X255130100Y-56948594D01*
X255208684Y-56553526D01*
X255330438Y-56259586D01*
X255362833Y-56181377D01*
X255586623Y-55846452D01*
X255871452Y-55561623D01*
X256206377Y-55337833D01*
X256360526Y-55273983D01*
X256578526Y-55183684D01*
X256973594Y-55105100D01*
X257376406Y-55105100D01*
X257771474Y-55183684D01*
X257771474Y-55183684D01*
G37*
G36*
X238721474Y-55183684D02*
G01*
X238939474Y-55273983D01*
X239093623Y-55337833D01*
X239428548Y-55561623D01*
X239713377Y-55846452D01*
X239937167Y-56181377D01*
X239969562Y-56259586D01*
X240091316Y-56553526D01*
X240169900Y-56948594D01*
X240169900Y-57351406D01*
X240091316Y-57746474D01*
X240040451Y-57869272D01*
X239937167Y-58118623D01*
X239713377Y-58453548D01*
X239428548Y-58738377D01*
X239093623Y-58962167D01*
X238939474Y-59026017D01*
X238721474Y-59116316D01*
X238326406Y-59194900D01*
X237923594Y-59194900D01*
X237528526Y-59116316D01*
X237310526Y-59026017D01*
X237156377Y-58962167D01*
X236821452Y-58738377D01*
X236536623Y-58453548D01*
X236312833Y-58118623D01*
X236209549Y-57869272D01*
X236158684Y-57746474D01*
X236080100Y-57351406D01*
X236080100Y-56948594D01*
X236158684Y-56553526D01*
X236280438Y-56259586D01*
X236312833Y-56181377D01*
X236536623Y-55846452D01*
X236821452Y-55561623D01*
X237156377Y-55337833D01*
X237310526Y-55273983D01*
X237528526Y-55183684D01*
X237923594Y-55105100D01*
X238326406Y-55105100D01*
X238721474Y-55183684D01*
X238721474Y-55183684D01*
G37*
G36*
X129183974Y-55183684D02*
G01*
X129401974Y-55273983D01*
X129556123Y-55337833D01*
X129891048Y-55561623D01*
X130175877Y-55846452D01*
X130399667Y-56181377D01*
X130432062Y-56259586D01*
X130553816Y-56553526D01*
X130632400Y-56948594D01*
X130632400Y-57351406D01*
X130553816Y-57746474D01*
X130502951Y-57869272D01*
X130399667Y-58118623D01*
X130175877Y-58453548D01*
X129891048Y-58738377D01*
X129556123Y-58962167D01*
X129401974Y-59026017D01*
X129183974Y-59116316D01*
X128788906Y-59194900D01*
X128386094Y-59194900D01*
X127991026Y-59116316D01*
X127773026Y-59026017D01*
X127618877Y-58962167D01*
X127283952Y-58738377D01*
X126999123Y-58453548D01*
X126775333Y-58118623D01*
X126672049Y-57869272D01*
X126621184Y-57746474D01*
X126542600Y-57351406D01*
X126542600Y-56948594D01*
X126621184Y-56553526D01*
X126742938Y-56259586D01*
X126775333Y-56181377D01*
X126999123Y-55846452D01*
X127283952Y-55561623D01*
X127618877Y-55337833D01*
X127773026Y-55273983D01*
X127991026Y-55183684D01*
X128386094Y-55105100D01*
X128788906Y-55105100D01*
X129183974Y-55183684D01*
X129183974Y-55183684D01*
G37*
G36*
X219671474Y-55183684D02*
G01*
X219889474Y-55273983D01*
X220043623Y-55337833D01*
X220378548Y-55561623D01*
X220663377Y-55846452D01*
X220887167Y-56181377D01*
X220919562Y-56259586D01*
X221041316Y-56553526D01*
X221119900Y-56948594D01*
X221119900Y-57351406D01*
X221041316Y-57746474D01*
X220990451Y-57869272D01*
X220887167Y-58118623D01*
X220663377Y-58453548D01*
X220378548Y-58738377D01*
X220043623Y-58962167D01*
X219889474Y-59026017D01*
X219671474Y-59116316D01*
X219276406Y-59194900D01*
X218873594Y-59194900D01*
X218478526Y-59116316D01*
X218260526Y-59026017D01*
X218106377Y-58962167D01*
X217771452Y-58738377D01*
X217486623Y-58453548D01*
X217262833Y-58118623D01*
X217159549Y-57869272D01*
X217108684Y-57746474D01*
X217030100Y-57351406D01*
X217030100Y-56948594D01*
X217108684Y-56553526D01*
X217230438Y-56259586D01*
X217262833Y-56181377D01*
X217486623Y-55846452D01*
X217771452Y-55561623D01*
X218106377Y-55337833D01*
X218260526Y-55273983D01*
X218478526Y-55183684D01*
X218873594Y-55105100D01*
X219276406Y-55105100D01*
X219671474Y-55183684D01*
X219671474Y-55183684D01*
G37*
G36*
X200621474Y-55183684D02*
G01*
X200839474Y-55273983D01*
X200993623Y-55337833D01*
X201328548Y-55561623D01*
X201613377Y-55846452D01*
X201837167Y-56181377D01*
X201869562Y-56259586D01*
X201991316Y-56553526D01*
X202069900Y-56948594D01*
X202069900Y-57351406D01*
X201991316Y-57746474D01*
X201940451Y-57869272D01*
X201837167Y-58118623D01*
X201613377Y-58453548D01*
X201328548Y-58738377D01*
X200993623Y-58962167D01*
X200839474Y-59026017D01*
X200621474Y-59116316D01*
X200226406Y-59194900D01*
X199823594Y-59194900D01*
X199428526Y-59116316D01*
X199210526Y-59026017D01*
X199056377Y-58962167D01*
X198721452Y-58738377D01*
X198436623Y-58453548D01*
X198212833Y-58118623D01*
X198109549Y-57869272D01*
X198058684Y-57746474D01*
X197980100Y-57351406D01*
X197980100Y-56948594D01*
X198058684Y-56553526D01*
X198180438Y-56259586D01*
X198212833Y-56181377D01*
X198436623Y-55846452D01*
X198721452Y-55561623D01*
X199056377Y-55337833D01*
X199210526Y-55273983D01*
X199428526Y-55183684D01*
X199823594Y-55105100D01*
X200226406Y-55105100D01*
X200621474Y-55183684D01*
X200621474Y-55183684D01*
G37*
G36*
X181571474Y-55183684D02*
G01*
X181789474Y-55273983D01*
X181943623Y-55337833D01*
X182278548Y-55561623D01*
X182563377Y-55846452D01*
X182787167Y-56181377D01*
X182819562Y-56259586D01*
X182941316Y-56553526D01*
X183019900Y-56948594D01*
X183019900Y-57351406D01*
X182941316Y-57746474D01*
X182890451Y-57869272D01*
X182787167Y-58118623D01*
X182563377Y-58453548D01*
X182278548Y-58738377D01*
X181943623Y-58962167D01*
X181789474Y-59026017D01*
X181571474Y-59116316D01*
X181176406Y-59194900D01*
X180773594Y-59194900D01*
X180378526Y-59116316D01*
X180160526Y-59026017D01*
X180006377Y-58962167D01*
X179671452Y-58738377D01*
X179386623Y-58453548D01*
X179162833Y-58118623D01*
X179059549Y-57869272D01*
X179008684Y-57746474D01*
X178930100Y-57351406D01*
X178930100Y-56948594D01*
X179008684Y-56553526D01*
X179130438Y-56259586D01*
X179162833Y-56181377D01*
X179386623Y-55846452D01*
X179671452Y-55561623D01*
X180006377Y-55337833D01*
X180160526Y-55273983D01*
X180378526Y-55183684D01*
X180773594Y-55105100D01*
X181176406Y-55105100D01*
X181571474Y-55183684D01*
X181571474Y-55183684D01*
G37*
G36*
X262525104Y-56259585D02*
G01*
X262693626Y-56329389D01*
X262845291Y-56430728D01*
X262974272Y-56559709D01*
X263075611Y-56711374D01*
X263145415Y-56879896D01*
X263181000Y-57058797D01*
X263181000Y-57241203D01*
X263145415Y-57420104D01*
X263075611Y-57588626D01*
X262974272Y-57740291D01*
X262845291Y-57869272D01*
X262693626Y-57970611D01*
X262525104Y-58040415D01*
X262346203Y-58076000D01*
X262163797Y-58076000D01*
X261984896Y-58040415D01*
X261816374Y-57970611D01*
X261664709Y-57869272D01*
X261535728Y-57740291D01*
X261434389Y-57588626D01*
X261364585Y-57420104D01*
X261329000Y-57241203D01*
X261329000Y-57058797D01*
X261364585Y-56879896D01*
X261434389Y-56711374D01*
X261535728Y-56559709D01*
X261664709Y-56430728D01*
X261816374Y-56329389D01*
X261984896Y-56259585D01*
X262163797Y-56224000D01*
X262346203Y-56224000D01*
X262525104Y-56259585D01*
X262525104Y-56259585D01*
G37*
G36*
X252365104Y-56259585D02*
G01*
X252533626Y-56329389D01*
X252685291Y-56430728D01*
X252814272Y-56559709D01*
X252915611Y-56711374D01*
X252985415Y-56879896D01*
X253021000Y-57058797D01*
X253021000Y-57241203D01*
X252985415Y-57420104D01*
X252915611Y-57588626D01*
X252814272Y-57740291D01*
X252685291Y-57869272D01*
X252533626Y-57970611D01*
X252365104Y-58040415D01*
X252186203Y-58076000D01*
X252003797Y-58076000D01*
X251824896Y-58040415D01*
X251656374Y-57970611D01*
X251504709Y-57869272D01*
X251375728Y-57740291D01*
X251274389Y-57588626D01*
X251204585Y-57420104D01*
X251169000Y-57241203D01*
X251169000Y-57058797D01*
X251204585Y-56879896D01*
X251274389Y-56711374D01*
X251375728Y-56559709D01*
X251504709Y-56430728D01*
X251656374Y-56329389D01*
X251824896Y-56259585D01*
X252003797Y-56224000D01*
X252186203Y-56224000D01*
X252365104Y-56259585D01*
X252365104Y-56259585D01*
G37*
G36*
X157115104Y-56259585D02*
G01*
X157283626Y-56329389D01*
X157435291Y-56430728D01*
X157564272Y-56559709D01*
X157665611Y-56711374D01*
X157735415Y-56879896D01*
X157771000Y-57058797D01*
X157771000Y-57241203D01*
X157735415Y-57420104D01*
X157665611Y-57588626D01*
X157564272Y-57740291D01*
X157435291Y-57869272D01*
X157283626Y-57970611D01*
X157115104Y-58040415D01*
X156936203Y-58076000D01*
X156753797Y-58076000D01*
X156574896Y-58040415D01*
X156406374Y-57970611D01*
X156254709Y-57869272D01*
X156125728Y-57740291D01*
X156024389Y-57588626D01*
X155954585Y-57420104D01*
X155919000Y-57241203D01*
X155919000Y-57058797D01*
X155954585Y-56879896D01*
X156024389Y-56711374D01*
X156125728Y-56559709D01*
X156254709Y-56430728D01*
X156406374Y-56329389D01*
X156574896Y-56259585D01*
X156753797Y-56224000D01*
X156936203Y-56224000D01*
X157115104Y-56259585D01*
X157115104Y-56259585D01*
G37*
G36*
X233315104Y-56259585D02*
G01*
X233483626Y-56329389D01*
X233635291Y-56430728D01*
X233764272Y-56559709D01*
X233865611Y-56711374D01*
X233935415Y-56879896D01*
X233971000Y-57058797D01*
X233971000Y-57241203D01*
X233935415Y-57420104D01*
X233865611Y-57588626D01*
X233764272Y-57740291D01*
X233635291Y-57869272D01*
X233483626Y-57970611D01*
X233315104Y-58040415D01*
X233136203Y-58076000D01*
X232953797Y-58076000D01*
X232774896Y-58040415D01*
X232606374Y-57970611D01*
X232454709Y-57869272D01*
X232325728Y-57740291D01*
X232224389Y-57588626D01*
X232154585Y-57420104D01*
X232119000Y-57241203D01*
X232119000Y-57058797D01*
X232154585Y-56879896D01*
X232224389Y-56711374D01*
X232325728Y-56559709D01*
X232454709Y-56430728D01*
X232606374Y-56329389D01*
X232774896Y-56259585D01*
X232953797Y-56224000D01*
X233136203Y-56224000D01*
X233315104Y-56259585D01*
X233315104Y-56259585D01*
G37*
G36*
X224425104Y-56259585D02*
G01*
X224593626Y-56329389D01*
X224745291Y-56430728D01*
X224874272Y-56559709D01*
X224975611Y-56711374D01*
X225045415Y-56879896D01*
X225081000Y-57058797D01*
X225081000Y-57241203D01*
X225045415Y-57420104D01*
X224975611Y-57588626D01*
X224874272Y-57740291D01*
X224745291Y-57869272D01*
X224593626Y-57970611D01*
X224425104Y-58040415D01*
X224246203Y-58076000D01*
X224063797Y-58076000D01*
X223884896Y-58040415D01*
X223716374Y-57970611D01*
X223564709Y-57869272D01*
X223435728Y-57740291D01*
X223334389Y-57588626D01*
X223264585Y-57420104D01*
X223229000Y-57241203D01*
X223229000Y-57058797D01*
X223264585Y-56879896D01*
X223334389Y-56711374D01*
X223435728Y-56559709D01*
X223564709Y-56430728D01*
X223716374Y-56329389D01*
X223884896Y-56259585D01*
X224063797Y-56224000D01*
X224246203Y-56224000D01*
X224425104Y-56259585D01*
X224425104Y-56259585D01*
G37*
G36*
X214265104Y-56259585D02*
G01*
X214433626Y-56329389D01*
X214585291Y-56430728D01*
X214714272Y-56559709D01*
X214815611Y-56711374D01*
X214885415Y-56879896D01*
X214921000Y-57058797D01*
X214921000Y-57241203D01*
X214885415Y-57420104D01*
X214815611Y-57588626D01*
X214714272Y-57740291D01*
X214585291Y-57869272D01*
X214433626Y-57970611D01*
X214265104Y-58040415D01*
X214086203Y-58076000D01*
X213903797Y-58076000D01*
X213724896Y-58040415D01*
X213556374Y-57970611D01*
X213404709Y-57869272D01*
X213275728Y-57740291D01*
X213174389Y-57588626D01*
X213104585Y-57420104D01*
X213069000Y-57241203D01*
X213069000Y-57058797D01*
X213104585Y-56879896D01*
X213174389Y-56711374D01*
X213275728Y-56559709D01*
X213404709Y-56430728D01*
X213556374Y-56329389D01*
X213724896Y-56259585D01*
X213903797Y-56224000D01*
X214086203Y-56224000D01*
X214265104Y-56259585D01*
X214265104Y-56259585D01*
G37*
G36*
X205375104Y-56259585D02*
G01*
X205543626Y-56329389D01*
X205695291Y-56430728D01*
X205824272Y-56559709D01*
X205925611Y-56711374D01*
X205995415Y-56879896D01*
X206031000Y-57058797D01*
X206031000Y-57241203D01*
X205995415Y-57420104D01*
X205925611Y-57588626D01*
X205824272Y-57740291D01*
X205695291Y-57869272D01*
X205543626Y-57970611D01*
X205375104Y-58040415D01*
X205196203Y-58076000D01*
X205013797Y-58076000D01*
X204834896Y-58040415D01*
X204666374Y-57970611D01*
X204514709Y-57869272D01*
X204385728Y-57740291D01*
X204284389Y-57588626D01*
X204214585Y-57420104D01*
X204179000Y-57241203D01*
X204179000Y-57058797D01*
X204214585Y-56879896D01*
X204284389Y-56711374D01*
X204385728Y-56559709D01*
X204514709Y-56430728D01*
X204666374Y-56329389D01*
X204834896Y-56259585D01*
X205013797Y-56224000D01*
X205196203Y-56224000D01*
X205375104Y-56259585D01*
X205375104Y-56259585D01*
G37*
G36*
X195215104Y-56259585D02*
G01*
X195383626Y-56329389D01*
X195535291Y-56430728D01*
X195664272Y-56559709D01*
X195765611Y-56711374D01*
X195835415Y-56879896D01*
X195871000Y-57058797D01*
X195871000Y-57241203D01*
X195835415Y-57420104D01*
X195765611Y-57588626D01*
X195664272Y-57740291D01*
X195535291Y-57869272D01*
X195383626Y-57970611D01*
X195215104Y-58040415D01*
X195036203Y-58076000D01*
X194853797Y-58076000D01*
X194674896Y-58040415D01*
X194506374Y-57970611D01*
X194354709Y-57869272D01*
X194225728Y-57740291D01*
X194124389Y-57588626D01*
X194054585Y-57420104D01*
X194019000Y-57241203D01*
X194019000Y-57058797D01*
X194054585Y-56879896D01*
X194124389Y-56711374D01*
X194225728Y-56559709D01*
X194354709Y-56430728D01*
X194506374Y-56329389D01*
X194674896Y-56259585D01*
X194853797Y-56224000D01*
X195036203Y-56224000D01*
X195215104Y-56259585D01*
X195215104Y-56259585D01*
G37*
G36*
X186325104Y-56259585D02*
G01*
X186493626Y-56329389D01*
X186645291Y-56430728D01*
X186774272Y-56559709D01*
X186875611Y-56711374D01*
X186945415Y-56879896D01*
X186981000Y-57058797D01*
X186981000Y-57241203D01*
X186945415Y-57420104D01*
X186875611Y-57588626D01*
X186774272Y-57740291D01*
X186645291Y-57869272D01*
X186493626Y-57970611D01*
X186325104Y-58040415D01*
X186146203Y-58076000D01*
X185963797Y-58076000D01*
X185784896Y-58040415D01*
X185616374Y-57970611D01*
X185464709Y-57869272D01*
X185335728Y-57740291D01*
X185234389Y-57588626D01*
X185164585Y-57420104D01*
X185129000Y-57241203D01*
X185129000Y-57058797D01*
X185164585Y-56879896D01*
X185234389Y-56711374D01*
X185335728Y-56559709D01*
X185464709Y-56430728D01*
X185616374Y-56329389D01*
X185784896Y-56259585D01*
X185963797Y-56224000D01*
X186146203Y-56224000D01*
X186325104Y-56259585D01*
X186325104Y-56259585D01*
G37*
G36*
X176165104Y-56259585D02*
G01*
X176333626Y-56329389D01*
X176485291Y-56430728D01*
X176614272Y-56559709D01*
X176715611Y-56711374D01*
X176785415Y-56879896D01*
X176821000Y-57058797D01*
X176821000Y-57241203D01*
X176785415Y-57420104D01*
X176715611Y-57588626D01*
X176614272Y-57740291D01*
X176485291Y-57869272D01*
X176333626Y-57970611D01*
X176165104Y-58040415D01*
X175986203Y-58076000D01*
X175803797Y-58076000D01*
X175624896Y-58040415D01*
X175456374Y-57970611D01*
X175304709Y-57869272D01*
X175175728Y-57740291D01*
X175074389Y-57588626D01*
X175004585Y-57420104D01*
X174969000Y-57241203D01*
X174969000Y-57058797D01*
X175004585Y-56879896D01*
X175074389Y-56711374D01*
X175175728Y-56559709D01*
X175304709Y-56430728D01*
X175456374Y-56329389D01*
X175624896Y-56259585D01*
X175803797Y-56224000D01*
X175986203Y-56224000D01*
X176165104Y-56259585D01*
X176165104Y-56259585D01*
G37*
G36*
X167275104Y-56259585D02*
G01*
X167443626Y-56329389D01*
X167595291Y-56430728D01*
X167724272Y-56559709D01*
X167825611Y-56711374D01*
X167895415Y-56879896D01*
X167931000Y-57058797D01*
X167931000Y-57241203D01*
X167895415Y-57420104D01*
X167825611Y-57588626D01*
X167724272Y-57740291D01*
X167595291Y-57869272D01*
X167443626Y-57970611D01*
X167275104Y-58040415D01*
X167096203Y-58076000D01*
X166913797Y-58076000D01*
X166734896Y-58040415D01*
X166566374Y-57970611D01*
X166414709Y-57869272D01*
X166285728Y-57740291D01*
X166184389Y-57588626D01*
X166114585Y-57420104D01*
X166079000Y-57241203D01*
X166079000Y-57058797D01*
X166114585Y-56879896D01*
X166184389Y-56711374D01*
X166285728Y-56559709D01*
X166414709Y-56430728D01*
X166566374Y-56329389D01*
X166734896Y-56259585D01*
X166913797Y-56224000D01*
X167096203Y-56224000D01*
X167275104Y-56259585D01*
X167275104Y-56259585D01*
G37*
G36*
X133937604Y-56259585D02*
G01*
X134106126Y-56329389D01*
X134257791Y-56430728D01*
X134386772Y-56559709D01*
X134488111Y-56711374D01*
X134557915Y-56879896D01*
X134593500Y-57058797D01*
X134593500Y-57241203D01*
X134557915Y-57420104D01*
X134488111Y-57588626D01*
X134386772Y-57740291D01*
X134257791Y-57869272D01*
X134106126Y-57970611D01*
X133937604Y-58040415D01*
X133758703Y-58076000D01*
X133576297Y-58076000D01*
X133397396Y-58040415D01*
X133228874Y-57970611D01*
X133077209Y-57869272D01*
X132948228Y-57740291D01*
X132846889Y-57588626D01*
X132777085Y-57420104D01*
X132741500Y-57241203D01*
X132741500Y-57058797D01*
X132777085Y-56879896D01*
X132846889Y-56711374D01*
X132948228Y-56559709D01*
X133077209Y-56430728D01*
X133228874Y-56329389D01*
X133397396Y-56259585D01*
X133576297Y-56224000D01*
X133758703Y-56224000D01*
X133937604Y-56259585D01*
X133937604Y-56259585D01*
G37*
G36*
X123777604Y-56259585D02*
G01*
X123946126Y-56329389D01*
X124097791Y-56430728D01*
X124226772Y-56559709D01*
X124328111Y-56711374D01*
X124397915Y-56879896D01*
X124433500Y-57058797D01*
X124433500Y-57241203D01*
X124397915Y-57420104D01*
X124328111Y-57588626D01*
X124226772Y-57740291D01*
X124097791Y-57869272D01*
X123946126Y-57970611D01*
X123777604Y-58040415D01*
X123598703Y-58076000D01*
X123416297Y-58076000D01*
X123237396Y-58040415D01*
X123068874Y-57970611D01*
X122917209Y-57869272D01*
X122788228Y-57740291D01*
X122686889Y-57588626D01*
X122617085Y-57420104D01*
X122581500Y-57241203D01*
X122581500Y-57058797D01*
X122617085Y-56879896D01*
X122686889Y-56711374D01*
X122788228Y-56559709D01*
X122917209Y-56430728D01*
X123068874Y-56329389D01*
X123237396Y-56259585D01*
X123416297Y-56224000D01*
X123598703Y-56224000D01*
X123777604Y-56259585D01*
X123777604Y-56259585D01*
G37*
G36*
X114887604Y-56259585D02*
G01*
X115056126Y-56329389D01*
X115207791Y-56430728D01*
X115336772Y-56559709D01*
X115438111Y-56711374D01*
X115507915Y-56879896D01*
X115543500Y-57058797D01*
X115543500Y-57241203D01*
X115507915Y-57420104D01*
X115438111Y-57588626D01*
X115336772Y-57740291D01*
X115207791Y-57869272D01*
X115056126Y-57970611D01*
X114887604Y-58040415D01*
X114708703Y-58076000D01*
X114526297Y-58076000D01*
X114347396Y-58040415D01*
X114178874Y-57970611D01*
X114027209Y-57869272D01*
X113898228Y-57740291D01*
X113796889Y-57588626D01*
X113727085Y-57420104D01*
X113691500Y-57241203D01*
X113691500Y-57058797D01*
X113727085Y-56879896D01*
X113796889Y-56711374D01*
X113898228Y-56559709D01*
X114027209Y-56430728D01*
X114178874Y-56329389D01*
X114347396Y-56259585D01*
X114526297Y-56224000D01*
X114708703Y-56224000D01*
X114887604Y-56259585D01*
X114887604Y-56259585D01*
G37*
G36*
X104727604Y-56259585D02*
G01*
X104896126Y-56329389D01*
X105047791Y-56430728D01*
X105176772Y-56559709D01*
X105278111Y-56711374D01*
X105347915Y-56879896D01*
X105383500Y-57058797D01*
X105383500Y-57241203D01*
X105347915Y-57420104D01*
X105278111Y-57588626D01*
X105176772Y-57740291D01*
X105047791Y-57869272D01*
X104896126Y-57970611D01*
X104727604Y-58040415D01*
X104548703Y-58076000D01*
X104366297Y-58076000D01*
X104187396Y-58040415D01*
X104018874Y-57970611D01*
X103867209Y-57869272D01*
X103738228Y-57740291D01*
X103636889Y-57588626D01*
X103567085Y-57420104D01*
X103531500Y-57241203D01*
X103531500Y-57058797D01*
X103567085Y-56879896D01*
X103636889Y-56711374D01*
X103738228Y-56559709D01*
X103867209Y-56430728D01*
X104018874Y-56329389D01*
X104187396Y-56259585D01*
X104366297Y-56224000D01*
X104548703Y-56224000D01*
X104727604Y-56259585D01*
X104727604Y-56259585D01*
G37*
G36*
X95837604Y-56259585D02*
G01*
X96006126Y-56329389D01*
X96157791Y-56430728D01*
X96286772Y-56559709D01*
X96388111Y-56711374D01*
X96457915Y-56879896D01*
X96493500Y-57058797D01*
X96493500Y-57241203D01*
X96457915Y-57420104D01*
X96388111Y-57588626D01*
X96286772Y-57740291D01*
X96157791Y-57869272D01*
X96006126Y-57970611D01*
X95837604Y-58040415D01*
X95658703Y-58076000D01*
X95476297Y-58076000D01*
X95297396Y-58040415D01*
X95128874Y-57970611D01*
X94977209Y-57869272D01*
X94848228Y-57740291D01*
X94746889Y-57588626D01*
X94677085Y-57420104D01*
X94641500Y-57241203D01*
X94641500Y-57058797D01*
X94677085Y-56879896D01*
X94746889Y-56711374D01*
X94848228Y-56559709D01*
X94977209Y-56430728D01*
X95128874Y-56329389D01*
X95297396Y-56259585D01*
X95476297Y-56224000D01*
X95658703Y-56224000D01*
X95837604Y-56259585D01*
X95837604Y-56259585D01*
G37*
G36*
X85677604Y-56259585D02*
G01*
X85846126Y-56329389D01*
X85997791Y-56430728D01*
X86126772Y-56559709D01*
X86228111Y-56711374D01*
X86297915Y-56879896D01*
X86333500Y-57058797D01*
X86333500Y-57241203D01*
X86297915Y-57420104D01*
X86228111Y-57588626D01*
X86126772Y-57740291D01*
X85997791Y-57869272D01*
X85846126Y-57970611D01*
X85677604Y-58040415D01*
X85498703Y-58076000D01*
X85316297Y-58076000D01*
X85137396Y-58040415D01*
X84968874Y-57970611D01*
X84817209Y-57869272D01*
X84688228Y-57740291D01*
X84586889Y-57588626D01*
X84517085Y-57420104D01*
X84481500Y-57241203D01*
X84481500Y-57058797D01*
X84517085Y-56879896D01*
X84586889Y-56711374D01*
X84688228Y-56559709D01*
X84817209Y-56430728D01*
X84968874Y-56329389D01*
X85137396Y-56259585D01*
X85316297Y-56224000D01*
X85498703Y-56224000D01*
X85677604Y-56259585D01*
X85677604Y-56259585D01*
G37*
G36*
X76787604Y-56259585D02*
G01*
X76956126Y-56329389D01*
X77107791Y-56430728D01*
X77236772Y-56559709D01*
X77338111Y-56711374D01*
X77407915Y-56879896D01*
X77443500Y-57058797D01*
X77443500Y-57241203D01*
X77407915Y-57420104D01*
X77338111Y-57588626D01*
X77236772Y-57740291D01*
X77107791Y-57869272D01*
X76956126Y-57970611D01*
X76787604Y-58040415D01*
X76608703Y-58076000D01*
X76426297Y-58076000D01*
X76247396Y-58040415D01*
X76078874Y-57970611D01*
X75927209Y-57869272D01*
X75798228Y-57740291D01*
X75696889Y-57588626D01*
X75627085Y-57420104D01*
X75591500Y-57241203D01*
X75591500Y-57058797D01*
X75627085Y-56879896D01*
X75696889Y-56711374D01*
X75798228Y-56559709D01*
X75927209Y-56430728D01*
X76078874Y-56329389D01*
X76247396Y-56259585D01*
X76426297Y-56224000D01*
X76608703Y-56224000D01*
X76787604Y-56259585D01*
X76787604Y-56259585D01*
G37*
G36*
X66627604Y-56259585D02*
G01*
X66796126Y-56329389D01*
X66947791Y-56430728D01*
X67076772Y-56559709D01*
X67178111Y-56711374D01*
X67247915Y-56879896D01*
X67283500Y-57058797D01*
X67283500Y-57241203D01*
X67247915Y-57420104D01*
X67178111Y-57588626D01*
X67076772Y-57740291D01*
X66947791Y-57869272D01*
X66796126Y-57970611D01*
X66627604Y-58040415D01*
X66448703Y-58076000D01*
X66266297Y-58076000D01*
X66087396Y-58040415D01*
X65918874Y-57970611D01*
X65767209Y-57869272D01*
X65638228Y-57740291D01*
X65536889Y-57588626D01*
X65467085Y-57420104D01*
X65431500Y-57241203D01*
X65431500Y-57058797D01*
X65467085Y-56879896D01*
X65536889Y-56711374D01*
X65638228Y-56559709D01*
X65767209Y-56430728D01*
X65918874Y-56329389D01*
X66087396Y-56259585D01*
X66266297Y-56224000D01*
X66448703Y-56224000D01*
X66627604Y-56259585D01*
X66627604Y-56259585D01*
G37*
G36*
X57737604Y-56259585D02*
G01*
X57906126Y-56329389D01*
X58057791Y-56430728D01*
X58186772Y-56559709D01*
X58288111Y-56711374D01*
X58357915Y-56879896D01*
X58393500Y-57058797D01*
X58393500Y-57241203D01*
X58357915Y-57420104D01*
X58288111Y-57588626D01*
X58186772Y-57740291D01*
X58057791Y-57869272D01*
X57906126Y-57970611D01*
X57737604Y-58040415D01*
X57558703Y-58076000D01*
X57376297Y-58076000D01*
X57197396Y-58040415D01*
X57028874Y-57970611D01*
X56877209Y-57869272D01*
X56748228Y-57740291D01*
X56646889Y-57588626D01*
X56577085Y-57420104D01*
X56541500Y-57241203D01*
X56541500Y-57058797D01*
X56577085Y-56879896D01*
X56646889Y-56711374D01*
X56748228Y-56559709D01*
X56877209Y-56430728D01*
X57028874Y-56329389D01*
X57197396Y-56259585D01*
X57376297Y-56224000D01*
X57558703Y-56224000D01*
X57737604Y-56259585D01*
X57737604Y-56259585D01*
G37*
G36*
X47577604Y-56259585D02*
G01*
X47746126Y-56329389D01*
X47897791Y-56430728D01*
X48026772Y-56559709D01*
X48128111Y-56711374D01*
X48197915Y-56879896D01*
X48233500Y-57058797D01*
X48233500Y-57241203D01*
X48197915Y-57420104D01*
X48128111Y-57588626D01*
X48026772Y-57740291D01*
X47897791Y-57869272D01*
X47746126Y-57970611D01*
X47577604Y-58040415D01*
X47398703Y-58076000D01*
X47216297Y-58076000D01*
X47037396Y-58040415D01*
X46868874Y-57970611D01*
X46717209Y-57869272D01*
X46588228Y-57740291D01*
X46486889Y-57588626D01*
X46417085Y-57420104D01*
X46381500Y-57241203D01*
X46381500Y-57058797D01*
X46417085Y-56879896D01*
X46486889Y-56711374D01*
X46588228Y-56559709D01*
X46717209Y-56430728D01*
X46868874Y-56329389D01*
X47037396Y-56259585D01*
X47216297Y-56224000D01*
X47398703Y-56224000D01*
X47577604Y-56259585D01*
X47577604Y-56259585D01*
G37*
G36*
X38687604Y-56259585D02*
G01*
X38856126Y-56329389D01*
X39007791Y-56430728D01*
X39136772Y-56559709D01*
X39238111Y-56711374D01*
X39307915Y-56879896D01*
X39343500Y-57058797D01*
X39343500Y-57241203D01*
X39307915Y-57420104D01*
X39238111Y-57588626D01*
X39136772Y-57740291D01*
X39007791Y-57869272D01*
X38856126Y-57970611D01*
X38687604Y-58040415D01*
X38508703Y-58076000D01*
X38326297Y-58076000D01*
X38147396Y-58040415D01*
X37978874Y-57970611D01*
X37827209Y-57869272D01*
X37698228Y-57740291D01*
X37596889Y-57588626D01*
X37527085Y-57420104D01*
X37491500Y-57241203D01*
X37491500Y-57058797D01*
X37527085Y-56879896D01*
X37596889Y-56711374D01*
X37698228Y-56559709D01*
X37827209Y-56430728D01*
X37978874Y-56329389D01*
X38147396Y-56259585D01*
X38326297Y-56224000D01*
X38508703Y-56224000D01*
X38687604Y-56259585D01*
X38687604Y-56259585D01*
G37*
G36*
X28527604Y-56259585D02*
G01*
X28696126Y-56329389D01*
X28847791Y-56430728D01*
X28976772Y-56559709D01*
X29078111Y-56711374D01*
X29147915Y-56879896D01*
X29183500Y-57058797D01*
X29183500Y-57241203D01*
X29147915Y-57420104D01*
X29078111Y-57588626D01*
X28976772Y-57740291D01*
X28847791Y-57869272D01*
X28696126Y-57970611D01*
X28527604Y-58040415D01*
X28348703Y-58076000D01*
X28166297Y-58076000D01*
X27987396Y-58040415D01*
X27818874Y-57970611D01*
X27667209Y-57869272D01*
X27538228Y-57740291D01*
X27436889Y-57588626D01*
X27367085Y-57420104D01*
X27331500Y-57241203D01*
X27331500Y-57058797D01*
X27367085Y-56879896D01*
X27436889Y-56711374D01*
X27538228Y-56559709D01*
X27667209Y-56430728D01*
X27818874Y-56329389D01*
X27987396Y-56259585D01*
X28166297Y-56224000D01*
X28348703Y-56224000D01*
X28527604Y-56259585D01*
X28527604Y-56259585D01*
G37*
G36*
X243475104Y-56259585D02*
G01*
X243643626Y-56329389D01*
X243795291Y-56430728D01*
X243924272Y-56559709D01*
X244025611Y-56711374D01*
X244095415Y-56879896D01*
X244131000Y-57058797D01*
X244131000Y-57241203D01*
X244095415Y-57420104D01*
X244025611Y-57588626D01*
X243924272Y-57740291D01*
X243795291Y-57869272D01*
X243643626Y-57970611D01*
X243475104Y-58040415D01*
X243296203Y-58076000D01*
X243113797Y-58076000D01*
X242934896Y-58040415D01*
X242766374Y-57970611D01*
X242614709Y-57869272D01*
X242485728Y-57740291D01*
X242384389Y-57588626D01*
X242314585Y-57420104D01*
X242279000Y-57241203D01*
X242279000Y-57058797D01*
X242314585Y-56879896D01*
X242384389Y-56711374D01*
X242485728Y-56559709D01*
X242614709Y-56430728D01*
X242766374Y-56329389D01*
X242934896Y-56259585D01*
X243113797Y-56224000D01*
X243296203Y-56224000D01*
X243475104Y-56259585D01*
X243475104Y-56259585D01*
G37*
G36*
X29360395Y-41852546D02*
G01*
X29533466Y-41924234D01*
X29533467Y-41924235D01*
X29689227Y-42028310D01*
X29821690Y-42160773D01*
X29821691Y-42160775D01*
X29925766Y-42316534D01*
X29997454Y-42489605D01*
X30034000Y-42673333D01*
X30034000Y-42860667D01*
X29997454Y-43044395D01*
X29925766Y-43217466D01*
X29925765Y-43217467D01*
X29821690Y-43373227D01*
X29689227Y-43505690D01*
X29610818Y-43558081D01*
X29533466Y-43609766D01*
X29360395Y-43681454D01*
X29176667Y-43718000D01*
X28989333Y-43718000D01*
X28805605Y-43681454D01*
X28632534Y-43609766D01*
X28555182Y-43558081D01*
X28476773Y-43505690D01*
X28344310Y-43373227D01*
X28240235Y-43217467D01*
X28240234Y-43217466D01*
X28168546Y-43044395D01*
X28132000Y-42860667D01*
X28132000Y-42673333D01*
X28168546Y-42489605D01*
X28240234Y-42316534D01*
X28344309Y-42160775D01*
X28344310Y-42160773D01*
X28476773Y-42028310D01*
X28632533Y-41924235D01*
X28632534Y-41924234D01*
X28805605Y-41852546D01*
X28989333Y-41816000D01*
X29176667Y-41816000D01*
X29360395Y-41852546D01*
X29360395Y-41852546D01*
G37*
G36*
X27494000Y-43718000D02*
G01*
X25592000Y-43718000D01*
X25592000Y-41816000D01*
X27494000Y-41816000D01*
X27494000Y-43718000D01*
X27494000Y-43718000D01*
G37*
G36*
X43458974Y-36133684D02*
G01*
X43676974Y-36223983D01*
X43831123Y-36287833D01*
X44166048Y-36511623D01*
X44450877Y-36796452D01*
X44674667Y-37131377D01*
X44707062Y-37209586D01*
X44828816Y-37503526D01*
X44907400Y-37898594D01*
X44907400Y-38301406D01*
X44828816Y-38696474D01*
X44777951Y-38819272D01*
X44674667Y-39068623D01*
X44450877Y-39403548D01*
X44166048Y-39688377D01*
X43831123Y-39912167D01*
X43676974Y-39976017D01*
X43458974Y-40066316D01*
X43063906Y-40144900D01*
X42661094Y-40144900D01*
X42266026Y-40066316D01*
X42048026Y-39976017D01*
X41893877Y-39912167D01*
X41558952Y-39688377D01*
X41274123Y-39403548D01*
X41050333Y-39068623D01*
X40947049Y-38819272D01*
X40896184Y-38696474D01*
X40817600Y-38301406D01*
X40817600Y-37898594D01*
X40896184Y-37503526D01*
X41017938Y-37209586D01*
X41050333Y-37131377D01*
X41274123Y-36796452D01*
X41558952Y-36511623D01*
X41893877Y-36287833D01*
X42048026Y-36223983D01*
X42266026Y-36133684D01*
X42661094Y-36055100D01*
X43063906Y-36055100D01*
X43458974Y-36133684D01*
X43458974Y-36133684D01*
G37*
G36*
X100608974Y-36133684D02*
G01*
X100826974Y-36223983D01*
X100981123Y-36287833D01*
X101316048Y-36511623D01*
X101600877Y-36796452D01*
X101824667Y-37131377D01*
X101857062Y-37209586D01*
X101978816Y-37503526D01*
X102057400Y-37898594D01*
X102057400Y-38301406D01*
X101978816Y-38696474D01*
X101927951Y-38819272D01*
X101824667Y-39068623D01*
X101600877Y-39403548D01*
X101316048Y-39688377D01*
X100981123Y-39912167D01*
X100826974Y-39976017D01*
X100608974Y-40066316D01*
X100213906Y-40144900D01*
X99811094Y-40144900D01*
X99416026Y-40066316D01*
X99198026Y-39976017D01*
X99043877Y-39912167D01*
X98708952Y-39688377D01*
X98424123Y-39403548D01*
X98200333Y-39068623D01*
X98097049Y-38819272D01*
X98046184Y-38696474D01*
X97967600Y-38301406D01*
X97967600Y-37898594D01*
X98046184Y-37503526D01*
X98167938Y-37209586D01*
X98200333Y-37131377D01*
X98424123Y-36796452D01*
X98708952Y-36511623D01*
X99043877Y-36287833D01*
X99198026Y-36223983D01*
X99416026Y-36133684D01*
X99811094Y-36055100D01*
X100213906Y-36055100D01*
X100608974Y-36133684D01*
X100608974Y-36133684D01*
G37*
G36*
X81558974Y-36133684D02*
G01*
X81776974Y-36223983D01*
X81931123Y-36287833D01*
X82266048Y-36511623D01*
X82550877Y-36796452D01*
X82774667Y-37131377D01*
X82807062Y-37209586D01*
X82928816Y-37503526D01*
X83007400Y-37898594D01*
X83007400Y-38301406D01*
X82928816Y-38696474D01*
X82877951Y-38819272D01*
X82774667Y-39068623D01*
X82550877Y-39403548D01*
X82266048Y-39688377D01*
X81931123Y-39912167D01*
X81776974Y-39976017D01*
X81558974Y-40066316D01*
X81163906Y-40144900D01*
X80761094Y-40144900D01*
X80366026Y-40066316D01*
X80148026Y-39976017D01*
X79993877Y-39912167D01*
X79658952Y-39688377D01*
X79374123Y-39403548D01*
X79150333Y-39068623D01*
X79047049Y-38819272D01*
X78996184Y-38696474D01*
X78917600Y-38301406D01*
X78917600Y-37898594D01*
X78996184Y-37503526D01*
X79117938Y-37209586D01*
X79150333Y-37131377D01*
X79374123Y-36796452D01*
X79658952Y-36511623D01*
X79993877Y-36287833D01*
X80148026Y-36223983D01*
X80366026Y-36133684D01*
X80761094Y-36055100D01*
X81163906Y-36055100D01*
X81558974Y-36133684D01*
X81558974Y-36133684D01*
G37*
G36*
X62508974Y-36133684D02*
G01*
X62726974Y-36223983D01*
X62881123Y-36287833D01*
X63216048Y-36511623D01*
X63500877Y-36796452D01*
X63724667Y-37131377D01*
X63757062Y-37209586D01*
X63878816Y-37503526D01*
X63957400Y-37898594D01*
X63957400Y-38301406D01*
X63878816Y-38696474D01*
X63827951Y-38819272D01*
X63724667Y-39068623D01*
X63500877Y-39403548D01*
X63216048Y-39688377D01*
X62881123Y-39912167D01*
X62726974Y-39976017D01*
X62508974Y-40066316D01*
X62113906Y-40144900D01*
X61711094Y-40144900D01*
X61316026Y-40066316D01*
X61098026Y-39976017D01*
X60943877Y-39912167D01*
X60608952Y-39688377D01*
X60324123Y-39403548D01*
X60100333Y-39068623D01*
X59997049Y-38819272D01*
X59946184Y-38696474D01*
X59867600Y-38301406D01*
X59867600Y-37898594D01*
X59946184Y-37503526D01*
X60067938Y-37209586D01*
X60100333Y-37131377D01*
X60324123Y-36796452D01*
X60608952Y-36511623D01*
X60943877Y-36287833D01*
X61098026Y-36223983D01*
X61316026Y-36133684D01*
X61711094Y-36055100D01*
X62113906Y-36055100D01*
X62508974Y-36133684D01*
X62508974Y-36133684D01*
G37*
G36*
X119658974Y-36133684D02*
G01*
X119876974Y-36223983D01*
X120031123Y-36287833D01*
X120366048Y-36511623D01*
X120650877Y-36796452D01*
X120874667Y-37131377D01*
X120907062Y-37209586D01*
X121028816Y-37503526D01*
X121107400Y-37898594D01*
X121107400Y-38301406D01*
X121028816Y-38696474D01*
X120977951Y-38819272D01*
X120874667Y-39068623D01*
X120650877Y-39403548D01*
X120366048Y-39688377D01*
X120031123Y-39912167D01*
X119876974Y-39976017D01*
X119658974Y-40066316D01*
X119263906Y-40144900D01*
X118861094Y-40144900D01*
X118466026Y-40066316D01*
X118248026Y-39976017D01*
X118093877Y-39912167D01*
X117758952Y-39688377D01*
X117474123Y-39403548D01*
X117250333Y-39068623D01*
X117147049Y-38819272D01*
X117096184Y-38696474D01*
X117017600Y-38301406D01*
X117017600Y-37898594D01*
X117096184Y-37503526D01*
X117217938Y-37209586D01*
X117250333Y-37131377D01*
X117474123Y-36796452D01*
X117758952Y-36511623D01*
X118093877Y-36287833D01*
X118248026Y-36223983D01*
X118466026Y-36133684D01*
X118861094Y-36055100D01*
X119263906Y-36055100D01*
X119658974Y-36133684D01*
X119658974Y-36133684D01*
G37*
G36*
X138708974Y-36133684D02*
G01*
X138926974Y-36223983D01*
X139081123Y-36287833D01*
X139416048Y-36511623D01*
X139700877Y-36796452D01*
X139924667Y-37131377D01*
X139957062Y-37209586D01*
X140078816Y-37503526D01*
X140157400Y-37898594D01*
X140157400Y-38301406D01*
X140078816Y-38696474D01*
X140027951Y-38819272D01*
X139924667Y-39068623D01*
X139700877Y-39403548D01*
X139416048Y-39688377D01*
X139081123Y-39912167D01*
X138926974Y-39976017D01*
X138708974Y-40066316D01*
X138313906Y-40144900D01*
X137911094Y-40144900D01*
X137516026Y-40066316D01*
X137298026Y-39976017D01*
X137143877Y-39912167D01*
X136808952Y-39688377D01*
X136524123Y-39403548D01*
X136300333Y-39068623D01*
X136197049Y-38819272D01*
X136146184Y-38696474D01*
X136067600Y-38301406D01*
X136067600Y-37898594D01*
X136146184Y-37503526D01*
X136267938Y-37209586D01*
X136300333Y-37131377D01*
X136524123Y-36796452D01*
X136808952Y-36511623D01*
X137143877Y-36287833D01*
X137298026Y-36223983D01*
X137516026Y-36133684D01*
X137911094Y-36055100D01*
X138313906Y-36055100D01*
X138708974Y-36133684D01*
X138708974Y-36133684D01*
G37*
G36*
X105362604Y-37209585D02*
G01*
X105531126Y-37279389D01*
X105682791Y-37380728D01*
X105811772Y-37509709D01*
X105913111Y-37661374D01*
X105982915Y-37829896D01*
X106018500Y-38008797D01*
X106018500Y-38191203D01*
X105982915Y-38370104D01*
X105913111Y-38538626D01*
X105811772Y-38690291D01*
X105682791Y-38819272D01*
X105531126Y-38920611D01*
X105362604Y-38990415D01*
X105183703Y-39026000D01*
X105001297Y-39026000D01*
X104822396Y-38990415D01*
X104653874Y-38920611D01*
X104502209Y-38819272D01*
X104373228Y-38690291D01*
X104271889Y-38538626D01*
X104202085Y-38370104D01*
X104166500Y-38191203D01*
X104166500Y-38008797D01*
X104202085Y-37829896D01*
X104271889Y-37661374D01*
X104373228Y-37509709D01*
X104502209Y-37380728D01*
X104653874Y-37279389D01*
X104822396Y-37209585D01*
X105001297Y-37174000D01*
X105183703Y-37174000D01*
X105362604Y-37209585D01*
X105362604Y-37209585D01*
G37*
G36*
X95202604Y-37209585D02*
G01*
X95371126Y-37279389D01*
X95522791Y-37380728D01*
X95651772Y-37509709D01*
X95753111Y-37661374D01*
X95822915Y-37829896D01*
X95858500Y-38008797D01*
X95858500Y-38191203D01*
X95822915Y-38370104D01*
X95753111Y-38538626D01*
X95651772Y-38690291D01*
X95522791Y-38819272D01*
X95371126Y-38920611D01*
X95202604Y-38990415D01*
X95023703Y-39026000D01*
X94841297Y-39026000D01*
X94662396Y-38990415D01*
X94493874Y-38920611D01*
X94342209Y-38819272D01*
X94213228Y-38690291D01*
X94111889Y-38538626D01*
X94042085Y-38370104D01*
X94006500Y-38191203D01*
X94006500Y-38008797D01*
X94042085Y-37829896D01*
X94111889Y-37661374D01*
X94213228Y-37509709D01*
X94342209Y-37380728D01*
X94493874Y-37279389D01*
X94662396Y-37209585D01*
X94841297Y-37174000D01*
X95023703Y-37174000D01*
X95202604Y-37209585D01*
X95202604Y-37209585D01*
G37*
G36*
X114252604Y-37209585D02*
G01*
X114421126Y-37279389D01*
X114572791Y-37380728D01*
X114701772Y-37509709D01*
X114803111Y-37661374D01*
X114872915Y-37829896D01*
X114908500Y-38008797D01*
X114908500Y-38191203D01*
X114872915Y-38370104D01*
X114803111Y-38538626D01*
X114701772Y-38690291D01*
X114572791Y-38819272D01*
X114421126Y-38920611D01*
X114252604Y-38990415D01*
X114073703Y-39026000D01*
X113891297Y-39026000D01*
X113712396Y-38990415D01*
X113543874Y-38920611D01*
X113392209Y-38819272D01*
X113263228Y-38690291D01*
X113161889Y-38538626D01*
X113092085Y-38370104D01*
X113056500Y-38191203D01*
X113056500Y-38008797D01*
X113092085Y-37829896D01*
X113161889Y-37661374D01*
X113263228Y-37509709D01*
X113392209Y-37380728D01*
X113543874Y-37279389D01*
X113712396Y-37209585D01*
X113891297Y-37174000D01*
X114073703Y-37174000D01*
X114252604Y-37209585D01*
X114252604Y-37209585D01*
G37*
G36*
X124412604Y-37209585D02*
G01*
X124581126Y-37279389D01*
X124732791Y-37380728D01*
X124861772Y-37509709D01*
X124963111Y-37661374D01*
X125032915Y-37829896D01*
X125068500Y-38008797D01*
X125068500Y-38191203D01*
X125032915Y-38370104D01*
X124963111Y-38538626D01*
X124861772Y-38690291D01*
X124732791Y-38819272D01*
X124581126Y-38920611D01*
X124412604Y-38990415D01*
X124233703Y-39026000D01*
X124051297Y-39026000D01*
X123872396Y-38990415D01*
X123703874Y-38920611D01*
X123552209Y-38819272D01*
X123423228Y-38690291D01*
X123321889Y-38538626D01*
X123252085Y-38370104D01*
X123216500Y-38191203D01*
X123216500Y-38008797D01*
X123252085Y-37829896D01*
X123321889Y-37661374D01*
X123423228Y-37509709D01*
X123552209Y-37380728D01*
X123703874Y-37279389D01*
X123872396Y-37209585D01*
X124051297Y-37174000D01*
X124233703Y-37174000D01*
X124412604Y-37209585D01*
X124412604Y-37209585D01*
G37*
G36*
X86312604Y-37209585D02*
G01*
X86481126Y-37279389D01*
X86632791Y-37380728D01*
X86761772Y-37509709D01*
X86863111Y-37661374D01*
X86932915Y-37829896D01*
X86968500Y-38008797D01*
X86968500Y-38191203D01*
X86932915Y-38370104D01*
X86863111Y-38538626D01*
X86761772Y-38690291D01*
X86632791Y-38819272D01*
X86481126Y-38920611D01*
X86312604Y-38990415D01*
X86133703Y-39026000D01*
X85951297Y-39026000D01*
X85772396Y-38990415D01*
X85603874Y-38920611D01*
X85452209Y-38819272D01*
X85323228Y-38690291D01*
X85221889Y-38538626D01*
X85152085Y-38370104D01*
X85116500Y-38191203D01*
X85116500Y-38008797D01*
X85152085Y-37829896D01*
X85221889Y-37661374D01*
X85323228Y-37509709D01*
X85452209Y-37380728D01*
X85603874Y-37279389D01*
X85772396Y-37209585D01*
X85951297Y-37174000D01*
X86133703Y-37174000D01*
X86312604Y-37209585D01*
X86312604Y-37209585D01*
G37*
G36*
X133302604Y-37209585D02*
G01*
X133471126Y-37279389D01*
X133622791Y-37380728D01*
X133751772Y-37509709D01*
X133853111Y-37661374D01*
X133922915Y-37829896D01*
X133958500Y-38008797D01*
X133958500Y-38191203D01*
X133922915Y-38370104D01*
X133853111Y-38538626D01*
X133751772Y-38690291D01*
X133622791Y-38819272D01*
X133471126Y-38920611D01*
X133302604Y-38990415D01*
X133123703Y-39026000D01*
X132941297Y-39026000D01*
X132762396Y-38990415D01*
X132593874Y-38920611D01*
X132442209Y-38819272D01*
X132313228Y-38690291D01*
X132211889Y-38538626D01*
X132142085Y-38370104D01*
X132106500Y-38191203D01*
X132106500Y-38008797D01*
X132142085Y-37829896D01*
X132211889Y-37661374D01*
X132313228Y-37509709D01*
X132442209Y-37380728D01*
X132593874Y-37279389D01*
X132762396Y-37209585D01*
X132941297Y-37174000D01*
X133123703Y-37174000D01*
X133302604Y-37209585D01*
X133302604Y-37209585D01*
G37*
G36*
X76152604Y-37209585D02*
G01*
X76321126Y-37279389D01*
X76472791Y-37380728D01*
X76601772Y-37509709D01*
X76703111Y-37661374D01*
X76772915Y-37829896D01*
X76808500Y-38008797D01*
X76808500Y-38191203D01*
X76772915Y-38370104D01*
X76703111Y-38538626D01*
X76601772Y-38690291D01*
X76472791Y-38819272D01*
X76321126Y-38920611D01*
X76152604Y-38990415D01*
X75973703Y-39026000D01*
X75791297Y-39026000D01*
X75612396Y-38990415D01*
X75443874Y-38920611D01*
X75292209Y-38819272D01*
X75163228Y-38690291D01*
X75061889Y-38538626D01*
X74992085Y-38370104D01*
X74956500Y-38191203D01*
X74956500Y-38008797D01*
X74992085Y-37829896D01*
X75061889Y-37661374D01*
X75163228Y-37509709D01*
X75292209Y-37380728D01*
X75443874Y-37279389D01*
X75612396Y-37209585D01*
X75791297Y-37174000D01*
X75973703Y-37174000D01*
X76152604Y-37209585D01*
X76152604Y-37209585D01*
G37*
G36*
X38052604Y-37209585D02*
G01*
X38221126Y-37279389D01*
X38372791Y-37380728D01*
X38501772Y-37509709D01*
X38603111Y-37661374D01*
X38672915Y-37829896D01*
X38708500Y-38008797D01*
X38708500Y-38191203D01*
X38672915Y-38370104D01*
X38603111Y-38538626D01*
X38501772Y-38690291D01*
X38372791Y-38819272D01*
X38221126Y-38920611D01*
X38052604Y-38990415D01*
X37873703Y-39026000D01*
X37691297Y-39026000D01*
X37512396Y-38990415D01*
X37343874Y-38920611D01*
X37192209Y-38819272D01*
X37063228Y-38690291D01*
X36961889Y-38538626D01*
X36892085Y-38370104D01*
X36856500Y-38191203D01*
X36856500Y-38008797D01*
X36892085Y-37829896D01*
X36961889Y-37661374D01*
X37063228Y-37509709D01*
X37192209Y-37380728D01*
X37343874Y-37279389D01*
X37512396Y-37209585D01*
X37691297Y-37174000D01*
X37873703Y-37174000D01*
X38052604Y-37209585D01*
X38052604Y-37209585D01*
G37*
G36*
X48212604Y-37209585D02*
G01*
X48381126Y-37279389D01*
X48532791Y-37380728D01*
X48661772Y-37509709D01*
X48763111Y-37661374D01*
X48832915Y-37829896D01*
X48868500Y-38008797D01*
X48868500Y-38191203D01*
X48832915Y-38370104D01*
X48763111Y-38538626D01*
X48661772Y-38690291D01*
X48532791Y-38819272D01*
X48381126Y-38920611D01*
X48212604Y-38990415D01*
X48033703Y-39026000D01*
X47851297Y-39026000D01*
X47672396Y-38990415D01*
X47503874Y-38920611D01*
X47352209Y-38819272D01*
X47223228Y-38690291D01*
X47121889Y-38538626D01*
X47052085Y-38370104D01*
X47016500Y-38191203D01*
X47016500Y-38008797D01*
X47052085Y-37829896D01*
X47121889Y-37661374D01*
X47223228Y-37509709D01*
X47352209Y-37380728D01*
X47503874Y-37279389D01*
X47672396Y-37209585D01*
X47851297Y-37174000D01*
X48033703Y-37174000D01*
X48212604Y-37209585D01*
X48212604Y-37209585D01*
G37*
G36*
X57102604Y-37209585D02*
G01*
X57271126Y-37279389D01*
X57422791Y-37380728D01*
X57551772Y-37509709D01*
X57653111Y-37661374D01*
X57722915Y-37829896D01*
X57758500Y-38008797D01*
X57758500Y-38191203D01*
X57722915Y-38370104D01*
X57653111Y-38538626D01*
X57551772Y-38690291D01*
X57422791Y-38819272D01*
X57271126Y-38920611D01*
X57102604Y-38990415D01*
X56923703Y-39026000D01*
X56741297Y-39026000D01*
X56562396Y-38990415D01*
X56393874Y-38920611D01*
X56242209Y-38819272D01*
X56113228Y-38690291D01*
X56011889Y-38538626D01*
X55942085Y-38370104D01*
X55906500Y-38191203D01*
X55906500Y-38008797D01*
X55942085Y-37829896D01*
X56011889Y-37661374D01*
X56113228Y-37509709D01*
X56242209Y-37380728D01*
X56393874Y-37279389D01*
X56562396Y-37209585D01*
X56741297Y-37174000D01*
X56923703Y-37174000D01*
X57102604Y-37209585D01*
X57102604Y-37209585D01*
G37*
G36*
X67262604Y-37209585D02*
G01*
X67431126Y-37279389D01*
X67582791Y-37380728D01*
X67711772Y-37509709D01*
X67813111Y-37661374D01*
X67882915Y-37829896D01*
X67918500Y-38008797D01*
X67918500Y-38191203D01*
X67882915Y-38370104D01*
X67813111Y-38538626D01*
X67711772Y-38690291D01*
X67582791Y-38819272D01*
X67431126Y-38920611D01*
X67262604Y-38990415D01*
X67083703Y-39026000D01*
X66901297Y-39026000D01*
X66722396Y-38990415D01*
X66553874Y-38920611D01*
X66402209Y-38819272D01*
X66273228Y-38690291D01*
X66171889Y-38538626D01*
X66102085Y-38370104D01*
X66066500Y-38191203D01*
X66066500Y-38008797D01*
X66102085Y-37829896D01*
X66171889Y-37661374D01*
X66273228Y-37509709D01*
X66402209Y-37380728D01*
X66553874Y-37279389D01*
X66722396Y-37209585D01*
X66901297Y-37174000D01*
X67083703Y-37174000D01*
X67262604Y-37209585D01*
X67262604Y-37209585D01*
G37*
G36*
X143462604Y-37209585D02*
G01*
X143631126Y-37279389D01*
X143782791Y-37380728D01*
X143911772Y-37509709D01*
X144013111Y-37661374D01*
X144082915Y-37829896D01*
X144118500Y-38008797D01*
X144118500Y-38191203D01*
X144082915Y-38370104D01*
X144013111Y-38538626D01*
X143911772Y-38690291D01*
X143782791Y-38819272D01*
X143631126Y-38920611D01*
X143462604Y-38990415D01*
X143283703Y-39026000D01*
X143101297Y-39026000D01*
X142922396Y-38990415D01*
X142753874Y-38920611D01*
X142602209Y-38819272D01*
X142473228Y-38690291D01*
X142371889Y-38538626D01*
X142302085Y-38370104D01*
X142266500Y-38191203D01*
X142266500Y-38008797D01*
X142302085Y-37829896D01*
X142371889Y-37661374D01*
X142473228Y-37509709D01*
X142602209Y-37380728D01*
X142753874Y-37279389D01*
X142922396Y-37209585D01*
X143101297Y-37174000D01*
X143283703Y-37174000D01*
X143462604Y-37209585D01*
X143462604Y-37209585D01*
G37*
G36*
X27494000Y-38193000D02*
G01*
X25592000Y-38193000D01*
X25592000Y-36291000D01*
X27494000Y-36291000D01*
X27494000Y-38193000D01*
X27494000Y-38193000D01*
G37*
G36*
X29360395Y-36327546D02*
G01*
X29533466Y-36399234D01*
X29533467Y-36399235D01*
X29689227Y-36503310D01*
X29821690Y-36635773D01*
X29821691Y-36635775D01*
X29925766Y-36791534D01*
X29997454Y-36964605D01*
X30034000Y-37148333D01*
X30034000Y-37335667D01*
X29997454Y-37519395D01*
X29925766Y-37692466D01*
X29925765Y-37692467D01*
X29821690Y-37848227D01*
X29689227Y-37980690D01*
X29610818Y-38033081D01*
X29533466Y-38084766D01*
X29360395Y-38156454D01*
X29176667Y-38193000D01*
X28989333Y-38193000D01*
X28805605Y-38156454D01*
X28632534Y-38084766D01*
X28555182Y-38033081D01*
X28476773Y-37980690D01*
X28344310Y-37848227D01*
X28240235Y-37692467D01*
X28240234Y-37692466D01*
X28168546Y-37519395D01*
X28132000Y-37335667D01*
X28132000Y-37148333D01*
X28168546Y-36964605D01*
X28240234Y-36791534D01*
X28344309Y-36635775D01*
X28344310Y-36635773D01*
X28476773Y-36503310D01*
X28632533Y-36399235D01*
X28632534Y-36399234D01*
X28805605Y-36327546D01*
X28989333Y-36291000D01*
X29176667Y-36291000D01*
X29360395Y-36327546D01*
X29360395Y-36327546D01*
G37*
G36*
X48112014Y-31213973D02*
G01*
X48215878Y-31245479D01*
X48255267Y-31266533D01*
X48311599Y-31296643D01*
X48311601Y-31296644D01*
X48311600Y-31296644D01*
X48395501Y-31365499D01*
X48464356Y-31449400D01*
X48515521Y-31545121D01*
X48547027Y-31648985D01*
X48555000Y-31729933D01*
X48555000Y-32884067D01*
X48547027Y-32965015D01*
X48515521Y-33068879D01*
X48515519Y-33068882D01*
X48464357Y-33164600D01*
X48395501Y-33248501D01*
X48311600Y-33317357D01*
X48243055Y-33353995D01*
X48215879Y-33368521D01*
X48112015Y-33400027D01*
X48004000Y-33410666D01*
X47895986Y-33400027D01*
X47792122Y-33368521D01*
X47764946Y-33353995D01*
X47696401Y-33317357D01*
X47612500Y-33248501D01*
X47543644Y-33164600D01*
X47492482Y-33068882D01*
X47492480Y-33068879D01*
X47460974Y-32965015D01*
X47453001Y-32884067D01*
X47453000Y-31729934D01*
X47460973Y-31648986D01*
X47492479Y-31545122D01*
X47543644Y-31449400D01*
X47612499Y-31365499D01*
X47696400Y-31296644D01*
X47696399Y-31296644D01*
X47696401Y-31296643D01*
X47752733Y-31266533D01*
X47792121Y-31245479D01*
X47895985Y-31213973D01*
X48004000Y-31203334D01*
X48112014Y-31213973D01*
X48112014Y-31213973D01*
G37*
G36*
X56752014Y-31213973D02*
G01*
X56855878Y-31245479D01*
X56895267Y-31266533D01*
X56951599Y-31296643D01*
X56951601Y-31296644D01*
X56951600Y-31296644D01*
X57035501Y-31365499D01*
X57104356Y-31449400D01*
X57155521Y-31545121D01*
X57187027Y-31648985D01*
X57195000Y-31729933D01*
X57195000Y-32884067D01*
X57187027Y-32965015D01*
X57155521Y-33068879D01*
X57155519Y-33068882D01*
X57104357Y-33164600D01*
X57035501Y-33248501D01*
X56951600Y-33317357D01*
X56883055Y-33353995D01*
X56855879Y-33368521D01*
X56752015Y-33400027D01*
X56644000Y-33410666D01*
X56535986Y-33400027D01*
X56432122Y-33368521D01*
X56404946Y-33353995D01*
X56336401Y-33317357D01*
X56252500Y-33248501D01*
X56183644Y-33164600D01*
X56132482Y-33068882D01*
X56132480Y-33068879D01*
X56100974Y-32965015D01*
X56093001Y-32884067D01*
X56093000Y-31729934D01*
X56100973Y-31648986D01*
X56132479Y-31545122D01*
X56183644Y-31449400D01*
X56252499Y-31365499D01*
X56336400Y-31296644D01*
X56336399Y-31296644D01*
X56336401Y-31296643D01*
X56392733Y-31266533D01*
X56432121Y-31245479D01*
X56535985Y-31213973D01*
X56644000Y-31203334D01*
X56752014Y-31213973D01*
X56752014Y-31213973D01*
G37*
G36*
X29360395Y-30802546D02*
G01*
X29533466Y-30874234D01*
X29533467Y-30874235D01*
X29689227Y-30978310D01*
X29821690Y-31110773D01*
X29821691Y-31110775D01*
X29925766Y-31266534D01*
X29997454Y-31439605D01*
X30034000Y-31623333D01*
X30034000Y-31810667D01*
X29997454Y-31994395D01*
X29925766Y-32167466D01*
X29925765Y-32167467D01*
X29821690Y-32323227D01*
X29689227Y-32455690D01*
X29610818Y-32508081D01*
X29533466Y-32559766D01*
X29360395Y-32631454D01*
X29176667Y-32668000D01*
X28989333Y-32668000D01*
X28805605Y-32631454D01*
X28632534Y-32559766D01*
X28555182Y-32508081D01*
X28476773Y-32455690D01*
X28344310Y-32323227D01*
X28240235Y-32167467D01*
X28240234Y-32167466D01*
X28168546Y-31994395D01*
X28132000Y-31810667D01*
X28132000Y-31623333D01*
X28168546Y-31439605D01*
X28240234Y-31266534D01*
X28344309Y-31110775D01*
X28344310Y-31110773D01*
X28476773Y-30978310D01*
X28632533Y-30874235D01*
X28632534Y-30874234D01*
X28805605Y-30802546D01*
X28989333Y-30766000D01*
X29176667Y-30766000D01*
X29360395Y-30802546D01*
X29360395Y-30802546D01*
G37*
G36*
X27494000Y-32668000D02*
G01*
X25592000Y-32668000D01*
X25592000Y-30766000D01*
X27494000Y-30766000D01*
X27494000Y-32668000D01*
X27494000Y-32668000D01*
G37*
G36*
X55323672Y-31415449D02*
G01*
X55323674Y-31415450D01*
X55323675Y-31415450D01*
X55392103Y-31443793D01*
X55453686Y-31484942D01*
X55506058Y-31537314D01*
X55547207Y-31598897D01*
X55575550Y-31667325D01*
X55575551Y-31667328D01*
X55590000Y-31739966D01*
X55590000Y-31814033D01*
X55575550Y-31886675D01*
X55547207Y-31955103D01*
X55506058Y-32016686D01*
X55453686Y-32069058D01*
X55392103Y-32110207D01*
X55323675Y-32138550D01*
X55323674Y-32138550D01*
X55323672Y-32138551D01*
X55251034Y-32153000D01*
X55176966Y-32153000D01*
X55104328Y-32138551D01*
X55104326Y-32138550D01*
X55104325Y-32138550D01*
X55035897Y-32110207D01*
X54974314Y-32069058D01*
X54921942Y-32016686D01*
X54880793Y-31955103D01*
X54852450Y-31886675D01*
X54838000Y-31814033D01*
X54838000Y-31739966D01*
X54852449Y-31667328D01*
X54852450Y-31667325D01*
X54880793Y-31598897D01*
X54921942Y-31537314D01*
X54974314Y-31484942D01*
X55035897Y-31443793D01*
X55104325Y-31415450D01*
X55104326Y-31415450D01*
X55104328Y-31415449D01*
X55176966Y-31401000D01*
X55251034Y-31401000D01*
X55323672Y-31415449D01*
X55323672Y-31415449D01*
G37*
G36*
X49543672Y-31415449D02*
G01*
X49543674Y-31415450D01*
X49543675Y-31415450D01*
X49612103Y-31443793D01*
X49673686Y-31484942D01*
X49726058Y-31537314D01*
X49767207Y-31598897D01*
X49795550Y-31667325D01*
X49795551Y-31667328D01*
X49810000Y-31739966D01*
X49810000Y-31814033D01*
X49795550Y-31886675D01*
X49767207Y-31955103D01*
X49726058Y-32016686D01*
X49673686Y-32069058D01*
X49612103Y-32110207D01*
X49543675Y-32138550D01*
X49543674Y-32138550D01*
X49543672Y-32138551D01*
X49471034Y-32153000D01*
X49396966Y-32153000D01*
X49324328Y-32138551D01*
X49324326Y-32138550D01*
X49324325Y-32138550D01*
X49255897Y-32110207D01*
X49194314Y-32069058D01*
X49141942Y-32016686D01*
X49100793Y-31955103D01*
X49072450Y-31886675D01*
X49058000Y-31814033D01*
X49058000Y-31739966D01*
X49072449Y-31667328D01*
X49072450Y-31667325D01*
X49100793Y-31598897D01*
X49141942Y-31537314D01*
X49194314Y-31484942D01*
X49255897Y-31443793D01*
X49324325Y-31415450D01*
X49324326Y-31415450D01*
X49324328Y-31415449D01*
X49396966Y-31401000D01*
X49471034Y-31401000D01*
X49543672Y-31415449D01*
X49543672Y-31415449D01*
G37*
G36*
X48112014Y-27283973D02*
G01*
X48215878Y-27315479D01*
X48259907Y-27339013D01*
X48311599Y-27366643D01*
X48311601Y-27366644D01*
X48311600Y-27366644D01*
X48395501Y-27435499D01*
X48464356Y-27519400D01*
X48515521Y-27615121D01*
X48547027Y-27718985D01*
X48555000Y-27799933D01*
X48555000Y-28454067D01*
X48547027Y-28535015D01*
X48515521Y-28638879D01*
X48515519Y-28638882D01*
X48464357Y-28734600D01*
X48395501Y-28818501D01*
X48311600Y-28887357D01*
X48243055Y-28923995D01*
X48215879Y-28938521D01*
X48112015Y-28970027D01*
X48004000Y-28980666D01*
X47895986Y-28970027D01*
X47792122Y-28938521D01*
X47764946Y-28923995D01*
X47696401Y-28887357D01*
X47612500Y-28818501D01*
X47543645Y-28734601D01*
X47492480Y-28638879D01*
X47460973Y-28535015D01*
X47453000Y-28454067D01*
X47453000Y-27799934D01*
X47460973Y-27718986D01*
X47492479Y-27615122D01*
X47543644Y-27519400D01*
X47612499Y-27435499D01*
X47696400Y-27366644D01*
X47696399Y-27366644D01*
X47696401Y-27366643D01*
X47748093Y-27339013D01*
X47792121Y-27315479D01*
X47895985Y-27283973D01*
X48004000Y-27273334D01*
X48112014Y-27283973D01*
X48112014Y-27283973D01*
G37*
G36*
X56752014Y-27283973D02*
G01*
X56855878Y-27315479D01*
X56899907Y-27339013D01*
X56951599Y-27366643D01*
X56951601Y-27366644D01*
X56951600Y-27366644D01*
X57035501Y-27435499D01*
X57104356Y-27519400D01*
X57155521Y-27615121D01*
X57187027Y-27718985D01*
X57195000Y-27799933D01*
X57195000Y-28454067D01*
X57187027Y-28535015D01*
X57155521Y-28638879D01*
X57155519Y-28638882D01*
X57104357Y-28734600D01*
X57035501Y-28818501D01*
X56951600Y-28887357D01*
X56883055Y-28923995D01*
X56855879Y-28938521D01*
X56752015Y-28970027D01*
X56644000Y-28980666D01*
X56535986Y-28970027D01*
X56432122Y-28938521D01*
X56404946Y-28923995D01*
X56336401Y-28887357D01*
X56252500Y-28818501D01*
X56183645Y-28734601D01*
X56132480Y-28638879D01*
X56100973Y-28535015D01*
X56093000Y-28454067D01*
X56093000Y-27799934D01*
X56100973Y-27718986D01*
X56132479Y-27615122D01*
X56183644Y-27519400D01*
X56252499Y-27435499D01*
X56336400Y-27366644D01*
X56336399Y-27366644D01*
X56336401Y-27366643D01*
X56388093Y-27339013D01*
X56432121Y-27315479D01*
X56535985Y-27283973D01*
X56644000Y-27273334D01*
X56752014Y-27283973D01*
X56752014Y-27283973D01*
G37*
M02*
